<?xml version="1.0" encoding="utf-8"?>
<!-- Generator: Adobe Illustrator 24.1.3, SVG Export Plug-In . SVG Version: 6.00 Build 0)  -->
<svg version="1.1" xmlns="http://www.w3.org/2000/svg" xmlns:xlink="http://www.w3.org/1999/xlink" x="0px" y="0px"
	 viewBox="0 0 4750 4750" style="enable-background:new 0 0 4750 4750;" xml:space="preserve">
<style type="text/css">
	.st0{fill:#D63F31;}
	.st1{fill:#FFFFFF;}
	.st2{fill:#FBC112;}
	.st3{fill:#00873E;}
	.st4{clip-path:url(#SVGID_2_);fill:#FBC112;}
	.st5{clip-path:url(#SVGID_2_);fill:#00873E;}
	.st6{clip-path:url(#SVGID_4_);}
	.st7{fill:#9CBA7D;}
	.st8{display:none;}
	.st9{display:inline;fill:#D63F31;}
	.st10{display:inline;}
</style>
<g id="Calque_5">
	<g>
		<g>
			<path class="st0" d="M3700.6,3496.5c-24.9-151.5-60.6-324.5-65.9-349.7c-0.4-2-1.4-3.9-2.9-5.4c-96.8-93.8-254.8-57.2-254.8-57.2
				s-4.1,0.6-4.1,0.6c-16-120.4-55-249.5-137.9-357.1c-196.9-255.4-1565.7-192.9-1775.9,67.8c-52.2,64.8-77.5,168.4-88.1,277.3
				c-0.6,6-6.1,10.3-12,9.3c-37-6.2-159.4-19.4-240.8,59.4c-1.5,1.5-2.5,3.3-2.9,5.4c-13.1,63.1-25.5,126.3-37.4,189.6
				c-9.2,49.2-19.6,98.6-26.4,148.2c-16.9,122.2-9,251.8-9.1,375.1c-0.1,109,0.3,218.2,4.5,327.1c0.3,7.3,2.8,118.5,10.6,118.5
				c216.5,0,433,0,649.6,0c169.8,0,339.6,0,509.4,0c188.7,0,377.4,0,566.2,0c146.6,0,293.2,0,439.7,0c45.9,0,91.8,0,137.8,0h324.6
				c5,0,9.3-3.5,10.2-8.4C3713.5,4202.3,3708.5,3544.5,3700.6,3496.5z"/>
		</g>
		<g>
			<path class="st0" d="M3382.6,4305.3l302,0c0,0-22,79.8-93.8,79.8c-71.8,0-133.7,0-133.7,0L3382.6,4305.3z"/>
		</g>
		<g>
			<path class="st0" d="M1059,4296.6l319.6,8.7c0,0-47.5,74.9-91.9,77.3s-136.2,0-136.2,0L1059,4296.6z"/>
		</g>
		<g>
			<path class="st1" d="M3312.7,2860.4c0,0,92.4,503.2-93.8,609.5l141.1,5.4c0,0,20.6-202.7,6.6-408.3
				C3360,2969.7,3330.7,2932.4,3312.7,2860.4z"/>
		</g>
		<g>
			<path class="st1" d="M2297,3462.2c0,0-631.7-34.3-770.1-34.3s-162.3-337.3-141-456.2c0,0-1.1,341.3-1.1,541.4L2297,3462.2z"/>
		</g>
		<g>
			<path class="st1" d="M1385.9,3709.3c0,0-5.3,122.4,58.5,135.7s662.5,20.1,662.5,20.1l-721.1,32.2L1385.9,3709.3z"/>
		</g>
		<g>
			<path class="st1" d="M3374.2,3691.2c0,0,7.2,121.9-46.1,143.2c-53.2,21.3-324.6,36.1-324.6,36.1l369,17.2L3374.2,3691.2z"/>
		</g>
		<g>
			<path class="st1" d="M1364.5,3513c17.8,5-209.6,46-265.9,196.3c-56.3,150.3-52.8,451-52.8,451l0-597.3
				C1045.9,3563,1159.5,3455.1,1364.5,3513z"/>
		</g>
		<g>
			<path class="st1" d="M1379.5,3149.3c0,0-232.2,27.7-296.5,159.5l32.9-165.2c0,0,122.7-111.9,249.6-55.1L1379.5,3149.3z"/>
		</g>
		<g>
			<path class="st1" d="M1378.6,4160.3c0,0,10,126.4,196.3,145l-178.2,0C1396.6,4305.3,1378.6,4214.9,1378.6,4160.3z"/>
		</g>
		<g>
			<path class="st1" d="M3464.4,3436.7c0,0-89.6,99.2-89.9,176.9l-14.4-138.3C3360,3475.3,3427.8,3436.7,3464.4,3436.7z"/>
		</g>
		<g>
			<path class="st1" d="M1910.1,3867c0,0,287.3,75.1,436.3,53.8c149-21.3,471-61.9,612-60.8L1910.1,3867z"/>
		</g>
		<g>
			<path class="st1" d="M3258.9,3469.9c0,0,92.1,94.1,115.2,221.3c0,0,7.2-194.6-14.1-215.9S3258.9,3469.9,3258.9,3469.9z"/>
		</g>
		<g>
			<path class="st1" d="M1385.9,3532.4c-5.8,0-10.9-4.2-11.8-10.1c0,0-0.4-2.6-1.1-7.6c-1.8-12.7-0.7-34.6,1-67.7
				c3.9-78.3,10.5-209.3-15.9-360.9c-0.2-1-0.2-2.1-0.1-3.1c11.9-135,42.7-234.3,91.8-295.1c128-158.8,654.7-239.3,1085.3-234.8
				c169.7,1.9,323,16.5,443.3,42.4c135.3,29.1,224.8,71.1,266.2,124.7c73.6,95.5,120.8,217.3,140.2,362c0.3,1.3,0.3,2.7,0.1,4.1
				c-20.5,147.5-12.9,386.2-12.8,388.6c0.1,3.3-1.2,6.6-3.5,8.9c-2.4,2.3-5.7,3.6-8.9,3.5c-1292.5-53.8-1965.2,44.1-1971.8,45.1
				C1387.1,3532.4,1386.5,3532.4,1385.9,3532.4z M1382,3083.6c26.5,153.6,19.9,285.7,15.9,364.7c-1.3,25.8-2.4,46.8-1.6,58.7
				c96-12.8,758.9-93,1951.4-44.2c-1.3-51.8-4.6-248.4,13.1-378c-18.9-140.2-64.4-257.9-135.3-349.9
				c-73.1-94.9-331.4-153.9-690.7-157.8c-224.2-2.5-463.7,18.2-657,56.6c-209.5,41.6-354.9,101.7-409.4,169.3
				C1422.6,2859.7,1393.5,2954.1,1382,3083.6z"/>
		</g>
		<g>
			<path class="st1" d="M3366.7,3899.6c-0.3,0-0.6,0-0.9,0c-664.7-49.9-1966.3-0.5-1979.4,0c-6.5,0.1-12.2-4.9-12.4-11.5
				c-0.3-6.6,4.9-12.2,11.5-12.4c13.1-0.5,1316-50,1982.1,0c6.6,0.5,11.5,6.2,11,12.8C3378.1,3894.8,3372.9,3899.6,3366.7,3899.6z"
				/>
		</g>
		<g>
			<path class="st1" d="M3360,4317.3H1396.6c-5.4,0-10.1-3.6-11.5-8.7l-0.5-1.9c-15.8-58.2-22.7-199.3-20.5-419.3
				c1.9-187.3,9.9-365.7,10-367.5c0.3-6.6,5.9-11.7,12.5-11.4c6.6,0.3,11.7,5.9,11.4,12.5c-0.1,1.8-8.1,179.8-9.9,366.6
				c-2,206.1,4.2,345.9,17.9,405.7h1942.7c1.9-46.6,8.8-227.2,12-405.8c5.8-321.6-4.6-393-11.3-407c-2.9-6-0.4-13.1,5.6-16
				c6-2.9,13.1-0.4,16,5.6c5.1,10.5,20.4,42.5,13.7,417.8c-3.7,206.5-12.4,415.8-12.5,417.9
				C3371.7,4312.2,3366.5,4317.3,3360,4317.3z"/>
		</g>
		<g>
			<path class="st1" d="M3692.6,4317.3H3360c-6.6,0-12-5.4-12-12s5.4-12,12-12h323.4c5.9-31.6,11.7-147.7,12.2-392.7
				c0.4-203.8-3.3-380.4-6.9-402.2c-24.5-149.5-60.1-322.1-65.7-348.8c-91.2-87.8-241.8-54.2-243.4-53.8c-6.5,1.5-12.9-2.5-14.4-9
				c-1.5-6.4,2.5-12.9,9-14.4c6.8-1.6,168-37.5,268.2,62.7c1.6,1.6,2.8,3.7,3.3,6c0.4,1.9,40,191.2,66.6,353.4
				c4.2,25.6,7.6,215.4,7.2,406.1c-0.3,139.3-2.7,377.7-16,409.3C3701.8,4314.4,3697.4,4317.3,3692.6,4317.3z"/>
		</g>
		<g>
			<path class="st1" d="M1389.9,4317.3h-332.5c-4.8,0-9.2-2.9-11-7.3c-19.8-46.9-17.6-575-12.4-747.3c1.7-55.9,3.2-65.1,3.7-68.1
				c26.6-162.2,66.2-351.5,66.6-353.4c0.5-2.3,1.6-4.4,3.3-6c96.4-96.4,247.9-66.5,264.9-62.8c2.2,0.5,4.5,1.7,6.1,3.3
				c4.7,4.7,4.7,12.3,0,17c-3.2,3.2-7.7,4.2-11.8,3c-19.4-4.1-153.7-29-239.8,54c-5.6,26.7-41.1,199.4-65.6,348.8
				c-0.7,4-2,17.7-3.4,64.9c-6,198.8-5.3,658,8.6,730h323.5c6.6,0,12,5.4,12,12S1396.5,4317.3,1389.9,4317.3z"/>
		</g>
		<g>
			<path class="st1" d="M3700.6,3508.5c-3.3,0-6.5-1.3-8.9-3.9c-119.7-132.2-323.7-19.9-325.8-18.8c-5.8,3.2-13.1,1.2-16.3-4.6
				c-3.2-5.8-1.2-13.1,4.6-16.3c2.2-1.3,55.8-31.1,126.2-43.6c94.8-16.9,174,6.4,229.1,67.2c4.4,4.9,4.1,12.5-0.8,16.9
				C3706.3,3507.4,3703.4,3508.5,3700.6,3508.5z"/>
		</g>
		<g>
			<path class="st1" d="M1045.9,3575c-3.1,0-6.1-1.2-8.5-3.5c-4.7-4.7-4.7-12.2,0-16.9c0.2-0.2,0.4-0.4,0.6-0.6
				c133.2-116.2,315.4-63.9,350.6-52.3c4.8,1.6,7.4,2.6,7.4,2.6c6.2,2.4,9.2,9.3,6.9,15.5c-2.4,6.2-9.3,9.3-15.4,6.9
				c-0.1-0.1-2.3-0.9-6.3-2.2c-33-11-203.9-60.1-327.3,47.5C1051.6,3573.9,1048.7,3575,1045.9,3575z"/>
		</g>
		<g>
			<path class="st1" d="M3576,4397.1h-85.5c-25.4,0-49.6-9.5-68.3-26.6l-61.3-56.3c-4.9-4.5-5.2-12.1-0.7-16.9
				c4.5-4.9,12.1-5.2,16.9-0.7l61.3,56.3c14.2,13.1,32.7,20.3,52.1,20.3h85.5c20.5,0,39.9-8,54.4-22.5l49.8-49.8
				c4.7-4.7,12.3-4.7,16.9,0c4.7,4.7,4.7,12.3,0,16.9l-49.8,49.8C3628.2,4386.6,3602.9,4397.1,3576,4397.1z"/>
		</g>
		<g>
			<path class="st1" d="M1265.9,4397.1h-85.5c-25.4,0-49.6-9.5-68.3-26.6l-61.3-56.3c-4.9-4.5-5.2-12.1-0.7-16.9
				c4.5-4.9,12.1-5.2,16.9-0.7l61.3,56.3c14.2,13.1,32.7,20.3,52.1,20.3h85.5c20.5,0,39.9-8,54.4-22.5l49.8-49.8
				c4.7-4.7,12.3-4.7,16.9,0c4.7,4.7,4.7,12.3,0,16.9l-49.8,49.8C1318.2,4386.6,1292.9,4397.1,1265.9,4397.1z"/>
		</g>
	</g>
	<polygon class="st2" points="2830.2,3091.4 3169.5,3003 3171.5,3500.5 2835.8,3666.1 2426.5,3666.1 2446.1,3627.6 2803,3464.6 
		2835.8,3464.6 	"/>
	<path class="st3" d="M2978.2,3299.1c0.5-2.7,1.6-4.5,0.9-7c-1.1-3.6,0.1-7.7,2.6-10.5c0.8-0.9,1.5-2,1.7-3
		c3.4-14.1,14.2-19,17.5-20.7c0.4-0.2,1.9-0.9,4.1-1.7c1.9-0.6,4.4-1.3,7.2-1.6c7.3-0.7,12.3,1.1,14.4,1.6c0.4,0.1,0.7,0.2,0.9,0.2
		c5-0.3,8.1,2.7,8.6,2.8c3.5,0.9,6,3.6,7.5,5.5c0.7,0.9,1.2,1.5,1.5,1.7c3.8,2.8,6.1,8.3,7.2,11.2c0.3,0.9,1.2,3.4,1.4,3.7
		c0.7,1.4,1,3,1.3,4.6c0.3,1.3,0.4,2.7,0.1,4c-0.1,0.3-0.2,0.7-0.2,1c-0.1,0.6-0.2,1.3-0.2,2c0,2.3-1.2,3.8-1.8,4
		c-0.9,0.3-1.7,0.9-2.6,1.3c-0.8,0.3-1.6,0.6-2.5,0.6c-0.8,0.1-2.7-0.3-2.8-0.3c0.3,2.3,0.2,4-0.6,5.4c-0.1,0.2-0.1,0.7-0.1,1
		c0.1,1.4-0.2,2.5-0.9,3c-0.6,0.4-0.9,1.3-1.2,2.3c-0.5,1.6-1.2,2.5-2.2,3c-1.2,0.6-3.5,5.7-4.5,13.4c-0.2,1.4-0.3,3.1-0.5,5
		l-4.1,2.5l-3,1.8c-0.1-2.3-0.2-4.5-0.3-7c0,0,0-0.1,0-0.1c-2.1,3.3-4.1,4.9-6.6,4.6c-0.3,0-0.7,0.4-1,0.8c-2.5,2.5-5.1,3.5-7.8,2.2
		c-0.4-0.2-0.8-0.2-1.2-0.2c-2.2-0.2-4.7-0.1-6.9-0.8c-2.6-0.8-5.1-1.9-6.2-5.5c-0.4-1.6-1.4-2.8-2.1-4.2c0-0.1-0.1-0.1-0.1-0.2
		c-4.3,3.9-6.4,4.3-10,1.2c-1.3-1.1-1.9-3.1-3.3-4.1c-2.1-1.6-3.5-3.8-3.1-6.9c0.6-5.3-1.1-8.8-1.5-12.8
		C2977.9,3301.5,2978,3300.2,2978.2,3299.1z"/>
	<g>
		<defs>
			<path id="SVGID_1_" d="M2832.7,3464.6H2803l-356.8,163.1l-19.6,38.5h406.4C2835.7,3598.9,2842.4,3531.7,2832.7,3464.6z"/>
		</defs>
		<clipPath id="SVGID_2_">
			<use xlink:href="#SVGID_1_"  style="overflow:visible;"/>
		</clipPath>
		<polygon class="st4" points="2928.5,3519.2 2888.7,3542.1 2818.4,3543.6 2861.3,3520.9 		"/>
		<path class="st5" d="M2810,3545.8l51.2-26.9l75.1-1.9l-47.5,27.1L2810,3545.8z M2861.8,3522.9l-35,18.5l61.4-1.3l32.5-18.7
			L2861.8,3522.9z"/>
		<polygon class="st4" points="2956.2,3540.7 2918,3564.8 2847.3,3566 2888.7,3542.1 		"/>
		<path class="st5" d="M2839.6,3568.1l49.1-28l74.7-1.5l-44.8,28.2L2839.6,3568.1z M2889.3,3544.1l-34.3,19.8l62.4-1.1l31.7-19.9
			L2889.3,3544.1z"/>
		<polygon class="st4" points="2992.9,3517.6 2956.2,3540.7 2888.7,3542.1 2928.5,3519.2 		"/>
		<path class="st5" d="M2881,3544.3l47.4-27.1l71.7-1.8l-43.3,27.3l-0.6,0L2881,3544.3z M2929,3521.2l-32.6,18.8l59.2-1.2l30.1-19
			L2929,3521.2z"/>
		<polygon class="st4" points="3024,3498 2992.9,3517.6 2928.5,3519.2 2962.2,3499.8 		"/>
		<path class="st5" d="M2920.7,3521.4l41.5-23.6l69-1.9l-37.7,23.7L2920.7,3521.4z M2962.8,3501.7l-26.5,15.3l56-1.4l24.4-15.4
			L2962.8,3501.7z"/>
		<polygon class="st4" points="3053.5,3479.4 3024,3498 2962.2,3499.8 2994.3,3481.3 		"/>
		<path class="st5" d="M2954.4,3502l39.8-22.7l66.5-2.1l-36.2,22.8L2954.4,3502z M2994.9,3483.3l-24.8,14.3l53.3-1.5l22.8-14.4
			L2994.9,3483.3z"/>
		<polygon class="st4" points="3079.3,3463.2 3053.5,3479.4 2994.3,3481.3 3022.3,3465.1 		"/>
		<path class="st5" d="M2986.4,3483.5l35.9-20.4l64.3-2.2l-32.5,20.5L2986.4,3483.5z M3022.9,3467.1l-20.7,11.9l50.7-1.6l19.1-12
			L3022.9,3467.1z"/>
		<polygon class="st4" points="3047,3450.9 3022.3,3465.1 2962.7,3467.1 2989.4,3452.9 		"/>
		<path class="st5" d="M2954.2,3469.4l35.2-18.4l65.6-2.3l-32.5,18.5L2954.2,3469.4z M2990,3454.9l-18.7,9.9l50.5-1.7l17.3-10
			L2990,3454.9z"/>
		<polygon class="st4" points="2989.4,3452.9 2962.7,3467.1 2907.9,3468.9 2936.5,3454.8 		"/>
		<path class="st5" d="M2898.8,3471.2l37.6-18.4l61.6-2.2l-35.2,18.5L2898.8,3471.2z M2937,3456.8l-19.9,9.8l45.1-1.5l18.6-9.9
			L2937,3456.8z"/>
		<polygon class="st4" points="3022.3,3465.1 2994.3,3481.3 2932.4,3483.2 2962.7,3467.1 		"/>
		<path class="st5" d="M2923.8,3485.5l38.8-20.3l67.6-2.3l-35.9,20.4L2923.8,3485.5z M2963.3,3469.1l-22.4,11.8l52.8-1.6l20.7-11.9
			L2963.3,3469.1z"/>
		<polygon class="st4" points="2994.3,3481.3 2962.2,3499.8 2897.7,3501.6 2932.4,3483.2 		"/>
		<path class="st5" d="M2889.2,3503.8l43-22.6l69.9-2.2l-39.9,22.7L2889.2,3503.8z M2932.9,3485.2l-26.7,14.1l55.5-1.5l24.7-14.3
			L2932.9,3485.2z"/>
		<polygon class="st4" points="2962.2,3499.8 2928.5,3519.2 2861.3,3520.9 2897.7,3501.6 		"/>
		<path class="st5" d="M2852.9,3523.1l44.8-23.5l72.4-2l-41.6,23.6L2852.9,3523.1z M2898.2,3503.5l-28.5,15.1l58.2-1.5l26.5-15.2
			L2898.2,3503.5z"/>
		<polygon class="st4" points="2932.4,3483.2 2897.7,3501.6 2838.5,3503.2 2875.5,3485 		"/>
		<path class="st5" d="M2829.5,3505.4l46-22.5l65.5-2l-43.1,22.6L2829.5,3505.4z M2876,3486.9l-28.4,14l49.6-1.4l26.6-14.1
			L2876,3486.9z"/>
		<polygon class="st4" points="2962.7,3467.1 2932.4,3483.2 2875.5,3485 2907.9,3468.9 		"/>
		<path class="st5" d="M2866.4,3487.2l41.5-20.3l63.4-2.1l-38.9,20.3L2866.4,3487.2z M2908.4,3470.9l-23.8,11.8l47.2-1.5l22.3-11.8
			L2908.4,3470.9z"/>
		<polygon class="st4" points="2907.9,3468.9 2875.5,3485 2817.3,3486.7 2851.8,3470.8 		"/>
		<path class="st5" d="M2807.5,3489l44.2-20.2l65.4-2.2l-41.5,20.3L2807.5,3489z M2852.3,3472.8l-25.3,11.7l48-1.5l23.8-11.8
			L2852.3,3472.8z"/>
		<polygon class="st4" points="2936.5,3454.8 2907.9,3468.9 2851.8,3470.8 2882.2,3456.8 		"/>
		<path class="st5" d="M2842,3473.1l40.1-18.3l63.6-2.3l-37.7,18.4L2842,3473.1z M2882.6,3458.8l-21,9.7l45.8-1.5l19.8-9.8
			L2882.6,3458.8z"/>
		<polygon class="st4" points="2882.2,3456.8 2851.8,3470.8 2799,3472.5 2831,3458.6 		"/>
		<path class="st5" d="M2788.6,3474.9l42.3-18.3l61-2.1l-40.1,18.3L2788.6,3474.9z M2831.5,3460.6l-22.1,9.6l42-1.4l21-9.7
			L2831.5,3460.6z"/>
		<polygon class="st4" points="2851.8,3470.8 2817.3,3486.7 2762.6,3488.4 2799,3472.5 		"/>
		<path class="st5" d="M2752.3,3490.7l46.7-20.2l62.6-2.1l-44.2,20.3L2752.3,3490.7z M2799.4,3474.5l-26.6,11.6l43.9-1.3l25.2-11.7
			L2799.4,3474.5z"/>
		<polygon class="st4" points="2817.3,3486.7 2778,3504.9 2721.1,3506.5 2762.6,3488.4 		"/>
		<path class="st5" d="M2710.9,3508.7l51.6-22.3l64.5-2l-49,22.4L2710.9,3508.7z M2763,3490.4l-31.6,13.8l46.2-1.3l30-13.8
			L2763,3490.4z"/>
		<polygon class="st4" points="2778,3504.9 2736.7,3523.9 2677.7,3525.4 2721.1,3506.5 		"/>
		<path class="st5" d="M2667.5,3527.6l53.6-23.1l66.6-1.9l-50.9,23.3L2667.5,3527.6z M2721.6,3508.4l-33.8,14.7l48.4-1.2l32.1-14.8
			L2721.6,3508.4z"/>
		<polygon class="st4" points="2736.7,3523.9 2688.2,3546.3 2626.7,3547.6 2677.7,3525.4 		"/>
		<path class="st5" d="M2616.6,3549.8l61-26.4l68.7-1.7l-58,26.6L2616.6,3549.8z M2678.1,3527.4l-41.4,18l51-1.1l39.4-18.2
			L2678.1,3527.4z"/>
		<polygon class="st4" points="2688.2,3546.3 2637.9,3569.5 2573.8,3570.6 2626.7,3547.6 		"/>
		<path class="st5" d="M2563.8,3572.8l62.8-27.2l71.1-1.5l-59.8,27.4L2563.8,3572.8z M2627.1,3549.6l-43.3,18.9l53.7-0.9l41.2-19
			L2627.1,3549.6z"/>
		<polygon class="st4" points="2637.9,3569.5 2579.5,3596.5 2512.5,3597.3 2573.8,3570.6 		"/>
		<path class="st5" d="M2502.6,3599.5l71.1-30.8l73.6-1.3l-67.8,31.1L2502.6,3599.5z M2574.2,3572.6l-51.9,22.6l56.7-0.7l49.4-22.8
			L2574.2,3572.6z"/>
		<polygon class="st4" points="2918,3564.8 2873.3,3592.9 2799,3593.8 2847.3,3566 		"/>
		<path class="st5" d="M2791.4,3595.9l55.4-31.9l78.3-1.3l-51.2,32.2l-0.6,0L2791.4,3595.9z M2847.9,3568l-41.2,23.8l66.1-0.8
			l38.1-24L2847.9,3568z"/>
		<polygon class="st4" points="2873.3,3592.9 2825.2,3623.2 2747.1,3623.8 2799,3593.8 		"/>
		<path class="st5" d="M2739.5,3625.8l59-34l0.5,0l81.4-1l-54.6,34.4L2739.5,3625.8z M2799.6,3595.8l-45,25.9l70-0.5l41.7-26.2
			L2799.6,3595.8z"/>
		<polygon class="st4" points="2799,3593.8 2747.1,3623.8 2666,3624.3 2721.8,3594.7 		"/>
		<path class="st5" d="M2657.9,3626.4l63.9-33.6l84.8-1l-59,34L2657.9,3626.4z M2722.4,3596.7l-48.2,25.5l72.4-0.5l44.9-25.9
			L2722.4,3596.7z"/>
		<polygon class="st4" points="2721.8,3594.7 2666,3624.3 2592.1,3624.8 2651.3,3595.6 		"/>
		<path class="st5" d="M2583.4,3626.9l67.9-33.3l78.8-1l-64,33.7L2583.4,3626.9z M2651.8,3597.6l-51,25.2l64.7-0.5l48.1-25.5
			L2651.8,3597.6z"/>
		<polygon class="st4" points="2651.3,3595.6 2592.1,3624.8 2517,3625.4 2579.5,3596.5 		"/>
		<path class="st5" d="M2507.8,3627.5l71.7-33l80.6-1l-68,33.3L2507.8,3627.5z M2580,3598.5l-53.8,24.8l65.4-0.5l50.9-25.1
			L2580,3598.5z"/>
		<polygon class="st4" points="2579.5,3596.5 2517,3625.4 2446.9,3625.9 2512.5,3597.3 		"/>
		<path class="st5" d="M2437.2,3627.9l75.3-32.6l76.4-0.9l-71.8,33L2437.2,3627.9z M2512.9,3599.3l-56.3,24.5l59.9-0.4l53.7-24.8
			L2512.9,3599.3z"/>
		<polygon class="st4" points="2897.7,3501.6 2861.3,3520.9 2799.6,3522.4 2838.5,3503.2 		"/>
		<path class="st5" d="M2790.6,3524.6l47.9-23.4l67.7-1.9l-44.9,23.5L2790.6,3524.6z M2839,3505.2l-30.4,15l52.1-1.3l28.5-15.1
			L2839,3505.2z"/>
		<polygon class="st4" points="2861.3,3520.9 2818.4,3543.6 2754,3544.9 2799.6,3522.4 		"/>
		<path class="st5" d="M2745,3547.1l54.5-26.7l70.1-1.7l-51.3,26.9L2745,3547.1z M2800.1,3524.4l-37.2,18.4l55-1.2l35-18.5
			L2800.1,3524.4z"/>
		<polygon class="st4" points="2818.4,3543.6 2773.8,3567.2 2706.5,3568.4 2754,3544.9 		"/>
		<path class="st5" d="M2697.7,3570.5l56.3-27.6l72.8-1.5l-52.9,27.8L2697.7,3570.5z M2754.5,3546.9l-39.1,19.3l57.9-1l36.8-19.5
			L2754.5,3546.9z"/>
		<polygon class="st4" points="2888.7,3542.1 2847.3,3566 2773.8,3567.2 2818.4,3543.6 		"/>
		<path class="st5" d="M2765.5,3569.4l52.9-27.8l78.1-1.6l-48.6,28L2765.5,3569.4z M2818.9,3545.6l-36.8,19.5l64.7-1.1l34.2-19.7
			L2818.9,3545.6z"/>
		<polygon class="st4" points="2847.3,3566 2799,3593.8 2721.8,3594.7 2773.8,3567.2 		"/>
		<path class="st5" d="M2713.6,3596.8l60.1-31.6l81.3-1.4l-55.4,32l-0.5,0L2713.6,3596.8z M2774.3,3569.2l-44.2,23.4l68.4-0.8
			l41.2-23.7L2774.3,3569.2z"/>
		<polygon class="st4" points="2773.8,3567.2 2721.8,3594.7 2651.3,3595.6 2706.5,3568.4 		"/>
		<path class="st5" d="M2642.6,3597.7l63.9-31.4l75.6-1.3l-60.2,31.6L2642.6,3597.7z M2707,3570.3l-46.9,23.2l61.2-0.8l44.1-23.4
			L2707,3570.3z"/>
		<polygon class="st4" points="2706.5,3568.4 2651.3,3595.6 2579.5,3596.5 2637.9,3569.5 		"/>
		<path class="st5" d="M2570.2,3598.6l67.7-31.1l77.5-1.3l-64,31.4L2570.2,3598.6z M2638.4,3571.5l-49.5,22.9l62-0.8l46.8-23.1
			L2638.4,3571.5z"/>
		<polygon class="st4" points="2875.5,3485 2838.5,3503.2 2778,3504.9 2817.3,3486.7 		"/>
		<path class="st5" d="M2768.3,3507.1l48.9-22.4l67.4-2.1l-46,22.5L2768.3,3507.1z M2817.7,3488.7l-30.1,13.9l50.4-1.4l28.3-14
			L2817.7,3488.7z"/>
		<polygon class="st4" points="2838.5,3503.2 2799.6,3522.4 2736.7,3523.9 2778,3504.9 		"/>
		<path class="st5" d="M2727.1,3526.2l50.8-23.3l69.7-1.9l-47.9,23.4L2727.1,3526.2z M2778.5,3506.8l-32.2,14.9l52.9-1.3l30.3-15
			L2778.5,3506.8z"/>
		<polygon class="st4" points="2799.6,3522.4 2754,3544.9 2688.2,3546.3 2736.7,3523.9 		"/>
		<path class="st5" d="M2678.7,3548.5l58-26.6l72-1.8l-54.6,26.8L2678.7,3548.5z M2737.2,3525.9l-39.4,18.2l55.8-1.2l37.1-18.3
			L2737.2,3525.9z"/>
		<polygon class="st4" points="2754,3544.9 2706.5,3568.4 2637.9,3569.5 2688.2,3546.3 		"/>
		<path class="st5" d="M2628.5,3571.7l59.7-27.3l74.7-1.6l-56.4,27.6L2628.5,3571.7z M2688.7,3548.3l-41.3,19l58.7-1l39-19.3
			L2688.7,3548.3z"/>
	</g>
	<polygon class="st1" points="2782.6,3481.9 2833.8,3487.2 2833.8,3460.2 2804.5,3460.2 	"/>
	<path class="st2" d="M2841.8,3639.6c-2.2,0-4.3-0.6-6.2-1.8c-3.5-2.1-5.7-5.9-5.7-10l-8-536.2c-0.1-5.5,3.6-10.4,9-11.8l339.2-88.5
		c3.6-0.9,7.4-0.2,10.3,2.1c2.9,2.3,4.7,5.8,4.7,9.5v461.6c0,4.6-2.6,8.7-6.7,10.7l-331.2,163.1
		C2845.4,3639.2,2843.6,3639.6,2841.8,3639.6z M2845.9,3100.6l7.6,507.9l307.6-151.4v-438.6"/>
	<path class="st2" d="M2449.7,3639.6c-4.6,0-8.9-2.6-10.9-7c-2.7-6-0.1-13.1,6-15.9l359.2-163.1c1.6-0.7,3.2-1.1,5-1.1h30.5
		c6.6,0,12,5.4,12,12s-5.4,12-12,12h-27.9l-356.8,162C2453,3639.3,2451.3,3639.6,2449.7,3639.6z"/>
	<path class="st2" d="M2847.8,3678.1h-413.7c-4,0-7.7-2-9.9-5.3s-2.7-7.5-1.2-11.2l15.6-38.5c1.8-4.5,6.2-7.5,11.1-7.5h392.1
		c6.6,0,12,5.4,12,12s-5.4,12-12,12h-384l-5.9,14.5h393.1l317.7-160.8l-1.6-28.1c-0.4-6.6,4.7-12.3,11.3-12.6
		c6.5-0.5,12.3,4.7,12.6,11.3l2,35.9c0.3,4.7-2.3,9.2-6.5,11.3l-327.2,165.6C2851.5,3677.6,2849.6,3678.1,2847.8,3678.1z"/>
	
		<ellipse transform="matrix(0.9239 -0.3827 0.3827 0.9239 -1186.4979 1337.8385)" class="st3" cx="2769.6" cy="3651.4" rx="15" ry="15"/>
	<path class="st2" d="M2401.7,4456.2c-17.5,0-36.2-2.1-56.1-6.4l2.9-13.7c58,12.4,105.3,5.6,136.7-19.8
		c27.9-22.5,37.8-54.7,37.8-77.3c0-49,0-150.9-8-346.7c-3.4-82.2,6.6-131.9,31.3-156.3c20.4-20.2,47.3-18.7,68.8-17.5
		c5.9,0.3,11.5,0.6,16.7,0.5c4.9-0.1,9.8-0.1,14.5-0.1c21.5,0,40,0,48.6-10.3c7-8.5,8.1-24.6,3.2-49.2c-6.7-34-6.2-55.3,1.7-71.3
		c7.6-15.5,21.1-23.9,38.1-34.5c4.2-2.6,15.3-8.2,26.2-8.4s12.8,9.8,2.8,12.8c-15.1,4.5-17.3,4.7-21.6,7.4
		c-15.7,9.8-27.1,16.9-33,28.8c-6.3,12.8-6.5,32.1-0.5,62.4c5.8,29.4,3.8,48.7-6.1,60.8c-12.7,15.5-35.4,15.5-59.4,15.4
		c-4.6,0-9.4,0-14.2,0.1c-5.7,0.1-11.6-0.2-17.8-0.5c-20.7-1.1-42.2-2.3-58.2,13.5c-21.4,21.1-30.3,68.8-27.2,145.7
		c8,196.1,8,298.2,8,347.3c0,25.8-11.3,62.6-43,88.2c-16.3,13.2-36.2,22-59.3,26.2C2424.3,4455.3,2413.3,4456.2,2401.7,4456.2z"/>
	<path class="st2" d="M2431.1,4363.8c-19.8,0-44.5-4-72-8.4c-56.2-9.1-119.9-19.4-151.9,5.2l-8.5-11.1
		c36.8-28.2,103.6-17.4,162.6-7.9c34.9,5.6,68,11,87.1,6.6c34.8-7.9,74.5-58.2,74.2-85l14-0.2c0.2,16.2-9.9,38.1-27,58.6
		c-17.8,21.3-39,36-58.1,40.3C2445.5,4363.2,2438.7,4363.8,2431.1,4363.8z"/>
	<circle class="st2" cx="2217" cy="4367.6" r="25.2"/>
	<circle class="st2" cx="2348" cy="4426.6" r="25.2"/>
	<circle class="st2" cx="762.5" cy="3453.7" r="121.5"/>
	<path class="st3" d="M860.7,3608c0.3-22-5.7-60-23-59.3c-26.1,9.6-123,14.4-149.9,0c-14.6,6.3-18.8,32.1-18.8,55.3
		C696.6,3625.6,827.5,3631.9,860.7,3608z"/>
	<g>
		<defs>
			<circle id="SVGID_3_" cx="762.5" cy="3453.7" r="121.5"/>
		</defs>
		<clipPath id="SVGID_4_">
			<use xlink:href="#SVGID_3_"  style="overflow:visible;"/>
		</clipPath>
		<g class="st6">
			<g>
				<path class="st0" d="M764.4,3534.1l-3.6-4.9l62.5-46.6l7.3-63l-71,42.3v-85.3l78.1,35.4l-8.5,74L764.4,3534.1z M765.6,3386v65.1
					l62.1-36.9L765.6,3386z"/>
				<path class="st0" d="M760.7,3534.1l-64.6-48.2l-8.5-74l78.1-35.4v85.3l-71-42.3l7.3,63l62.5,46.6L760.7,3534.1z M697.4,3414.1
					l62.1,36.9V3386L697.4,3414.1z"/>
				<circle class="st0" cx="762.5" cy="3534.9" r="16.3"/>
				<polygon class="st0" points="844,3559.5 821.3,3485.7 831,3482.7 854.7,3559.5 				"/>
				
					<ellipse transform="matrix(0.9817 -0.1904 0.1904 0.9817 -634.6678 221.266)" class="st0" cx="834.3" cy="3413.8" rx="16.3" ry="16.3"/>
				
					<ellipse transform="matrix(0.9874 -0.1582 0.1582 0.9874 -540.9355 174.6229)" class="st0" cx="826.1" cy="3484.2" rx="16.3" ry="16.3"/>
				<polygon class="st0" points="681,3559.5 670.4,3559.5 694.1,3482.7 703.8,3485.7 				"/>
				
					<rect x="696.4" y="3468.1" transform="matrix(0.9248 -0.3805 0.3805 0.9248 -1265.8677 539.1848)" class="st0" width="68.8" height="6.1"/>
				
					<rect x="771.3" y="3475.3" transform="matrix(0.9832 -0.1827 0.1827 0.9832 -628.0865 200.4309)" class="st0" width="5.1" height="68.1"/>
				
					<rect x="717.1" y="3506.8" transform="matrix(0.1827 -0.9832 0.9832 0.1827 -2836.3274 3606.8057)" class="st0" width="68.1" height="5.1"/>
				<circle class="st0" cx="762.5" cy="3458.1" r="24"/>
				<g>
					
						<ellipse transform="matrix(0.8848 -0.466 0.466 0.8848 -1487.6871 744.8057)" class="st0" cx="762.5" cy="3381.3" rx="16.3" ry="16.3"/>
				</g>
				
					<ellipse transform="matrix(0.1422 -0.9898 0.9898 0.1422 -2786.5125 3612.1523)" class="st0" cx="690.8" cy="3413.8" rx="16.3" ry="16.3"/>
				
					<ellipse transform="matrix(0.7071 -0.7071 0.7071 0.7071 -2259.0059 1514.739)" class="st0" cx="698.9" cy="3484.2" rx="16.3" ry="16.3"/>
			</g>
			<g>
				<g>
					<path class="st7" d="M870.5,3527.5c0-5.7-4.6-10.3-10.3-10.3c-5.7,0-10.3,4.6-10.3,10.3c0,0.7,0.1,1.5,0.2,2.2
						c-1.8,0.4-3.5,1.5-4.6,2.9c-1.1-1.2-2.6-1.9-4.4-1.9c-0.6,0-1.2,0.1-1.8,0.3c-1.3-3-4.3-5.1-7.7-5.1c-4.6,0-8.4,3.8-8.4,8.4
						c0,0.2,0,0.4,0,0.6c0,0,0,0,0,0c-3,0-5.7,1.6-7.2,4c-1.5-1.6-3.7-2.6-6.1-2.6c-1.5,0-2.9,0.4-4.1,1.1c-1.4-4.1-5.2-7-9.8-7
						c-5.2,0-9.5,3.8-10.2,8.8c-1.3-0.6-2.7-0.9-4.2-0.9c-5.7,0-10.4,4.7-10.4,10.4v10.9h27.9l-0.1-0.1h71.3V3527.5z"/>
				</g>
				<g>
					<path class="st3" d="M896.9,3543.5c-1,0-1.9,0.2-2.8,0.5c0-0.4,0.1-0.8,0.1-1.2c0-5.8-4.1-10.7-9.6-11.7
						c-0.1-4.3-3.7-7.7-8-7.7c-2.5,0-4.7,1.1-6.2,2.9c-0.6-5.1-5-9-10.2-9c-5.7,0-10.3,4.6-10.3,10.3c0,0.7,0.1,1.5,0.2,2.2
						c-1.8,0.4-3.5,1.5-4.6,2.9c-1.1-1.2-2.6-1.9-4.4-1.9c-0.6,0-1.2,0.1-1.8,0.3c-1.3-3-4.3-5.1-7.7-5.1c-4.6,0-8.4,3.8-8.4,8.4
						c0,0.2,0,0.4,0,0.6c0,0,0,0,0,0c-3,0-5.7,1.6-7.2,4c-1.5-1.6-3.7-2.6-6.1-2.6c-1.5,0-2.9,0.4-4.1,1.1c-1.4-4.1-5.2-7-9.8-7
						c-5.2,0-9.5,3.8-10.2,8.8c-1.3-0.6-2.7-0.9-4.2-0.9c-5.7,0-10.4,4.7-10.4,10.4v10.9h27.9l-0.1-0.1H853h17.5h26.4
						c4.4,0,8-3.6,8-8S901.3,3543.5,896.9,3543.5z"/>
				</g>
			</g>
			<g>
				<g>
					<g>
						<path class="st7" d="M654.6,3527.5c0-5.7,4.6-10.3,10.3-10.3c5.7,0,10.3,4.6,10.3,10.3c0,0.7-0.1,1.5-0.2,2.2
							c1.8,0.4,3.5,1.5,4.6,2.9c1.1-1.2,2.6-1.9,4.4-1.9c0.6,0,1.2,0.1,1.8,0.3c1.3-3,4.3-5.1,7.7-5.1c4.6,0,8.4,3.8,8.4,8.4
							c0,0.2,0,0.4,0,0.6c0,0,0,0,0,0c3,0,5.7,1.6,7.2,4c1.5-1.6,3.7-2.6,6.1-2.6c1.5,0,2.9,0.4,4.1,1.1c1.4-4.1,5.2-7,9.8-7
							c5.2,0,9.5,3.8,10.2,8.8c1.3-0.6,2.7-0.9,4.2-0.9c5.7,0,10.4,4.7,10.4,10.4v10.9h-27.9l0.1-0.1h-71.3V3527.5z"/>
					</g>
					<g>
						<path class="st3" d="M628.2,3543.5c1,0,1.9,0.2,2.8,0.5c0-0.4-0.1-0.8-0.1-1.2c0-5.8,4.1-10.7,9.6-11.7c0.1-4.3,3.7-7.7,8-7.7
							c2.5,0,4.7,1.1,6.2,2.9c0.6-5.1,5-9,10.2-9c5.7,0,10.3,4.6,10.3,10.3c0,0.7-0.1,1.5-0.2,2.2c1.8,0.4,3.5,1.5,4.6,2.9
							c1.1-1.2,2.6-1.9,4.4-1.9c0.6,0,1.2,0.1,1.8,0.3c1.3-3,4.3-5.1,7.7-5.1c4.6,0,8.4,3.8,8.4,8.4c0,0.2,0,0.4,0,0.6c0,0,0,0,0,0
							c3,0,5.7,1.6,7.2,4c1.5-1.6,3.7-2.6,6.1-2.6c1.5,0,2.9,0.4,4.1,1.1c1.4-4.1,5.2-7,9.8-7c5.2,0,9.5,3.8,10.2,8.8
							c1.3-0.6,2.7-0.9,4.2-0.9c5.7,0,10.4,4.7,10.4,10.4v10.9h-27.9l0.1-0.1h-53.8h-17.5h-26.4c-4.4,0-8-3.6-8-8
							S623.7,3543.5,628.2,3543.5z"/>
					</g>
				</g>
			</g>
			<rect x="734" y="3539.1" class="st0" width="57" height="9"/>
			<rect x="738.3" y="3548.1" class="st0" width="48.4" height="11.4"/>
		</g>
	</g>
	<path class="st1" d="M737.3,3361.5H709c-3.9,0-7.1,3.2-7.1,7.1c0,1.6,0.6,3.2,1.5,4.4h-13.9c-3.9,0-7.1,3.2-7.1,7.1l0,0
		c0,3.9,3.2,7.1,7.1,7.1h36.3c3.9,0,7.1-3.2,7.1-7.1l0,0c0-1.6-0.6-3.2-1.5-4.4h5.9c3.9,0,7.1-3.2,7.1-7.1
		C744.3,3364.6,741.2,3361.5,737.3,3361.5z"/>
	<path class="st1" d="M837.6,3386.7h-28.3c-3.9,0-7.1,3.2-7.1,7.1c0,1.6,0.6,3.2,1.5,4.4h-13.9c-3.9,0-7.1,3.2-7.1,7.1l0,0
		c0,3.9,3.2,7.1,7.1,7.1h36.3c3.9,0,7.1-3.2,7.1-7.1l0,0c0-1.6-0.6-3.2-1.5-4.4h5.9c3.9,0,7.1-3.2,7.1-7.1
		C844.6,3389.9,841.4,3386.7,837.6,3386.7z"/>
	<path class="st2" d="M949.1,3644v3.5c0,20-16.2,36.2-36.2,36.2H604.2c-20,0-36.2-16.2-36.2-36.2v-3.5c0-20,16.2-36.2,36.2-36.2
		h55.5h191.3H913C932.9,3607.8,949.1,3624,949.1,3644z"/>
	<path class="st2" d="M913,3695.6H604.2c-26.5,0-48.1-21.6-48.1-48.1v-3.5c0-26.5,21.6-48.1,48.1-48.1H913
		c26.5,0,48.1,21.6,48.1,48.1v3.5C961.1,3674,939.5,3695.6,913,3695.6z M604.2,3619.8c-13.3,0-24.2,10.8-24.2,24.2v3.5
		c0,13.3,10.8,24.2,24.2,24.2H913c13.3,0,24.2-10.8,24.2-24.2v-3.5c0-13.3-10.8-24.2-24.2-24.2H604.2z"/>
	<path class="st2" d="M605.9,4386c-9.9,0-18-8-18-18v-676.4c0-9.9,8-18,18-18s18,8,18,18v676.4C623.9,4378,615.8,4386,605.9,4386z"
		/>
	<path class="st2" d="M907.2,4386c-9.9,0-18-8-18-18v-676.4c0-9.9,8-18,18-18c9.9,0,18,8,18,18v676.4
		C925.1,4378,917.1,4386,907.2,4386z"/>
	<path class="st2" d="M747.6,4302.4c-9.9,0-18-8-18-18v-592.8c0-9.9,8-18,18-18c9.9,0,18,8,18,18v592.8
		C765.5,4294.3,757.5,4302.4,747.6,4302.4z"/>
</g>
<g id="Calque_2" class="st8">
	<path class="st9" d="M3205.1,1126.1c0-458.6-371.5-830.1-830.1-830.1s-830.1,371.5-830.1,830.1c0,54.1,5.1,106.4,15,157.4l0,0
		c0,0,1.3,9,5.6,25.7c12.9,57.5,31.7,112.4,56.2,164.7c86.2,205.1,289.1,551.3,753.3,924c464.2-372.8,667.1-719,753.7-923.6
		c24-52.3,42.9-107.2,56.2-164.7c3.9-16.7,5.6-25.7,5.6-25.7l0,0C3199.9,1232.9,3205.1,1180.1,3205.1,1126.1z M2375,1743
		c-335.5,0-607.4-272-607.4-607.4s272-607,607.4-607s607.4,272,607.4,607.4S2710.5,1743,2375,1743z"/>
	<g class="st10">
		<path class="st0" d="M1882.4,955.5c0-5.1,4.2-9.4,9.4-9.4h36.1c3.3,0,6.5,1.8,8,4.5l26.3,39.5c0.9,1.3,2.5,2,3.8,2
			c2.5,0,4.7-1.8,4.7-4.5v-32.1c0-5.1,4.2-9.4,9.4-9.4h33c5.1,0,9.4,4.2,9.4,9.4v130.7c0,5.1-4.2,9.4-9.4,9.4h-36.1
			c-3.6,0-6.7-1.8-8.2-4.9l-26.1-42.1c-0.9-1.6-2.2-2.2-3.8-2.2c-2.5,0-4.7,1.8-4.7,4.7v35.2c0,5.1-4.2,9.4-9.4,9.4h-33
			c-5.1,0-9.4-4.2-9.4-9.4V955.5z"/>
		<path class="st0" d="M2035.8,952.4c0-3.3,2.9-6.2,6.5-6.2h99.2c3.3,0,6.2,2.9,6.2,6.2V981c0,3.6-2.9,6.5-6.2,6.5H2094
			c-3.6,0-6.5,2.9-6.5,6.2c0,3.6,2.9,6.5,6.5,6.5h34.1c3.3,0,6.2,2.9,6.2,6.2v28.1c0,3.6-2.9,6.5-6.2,6.5H2094
			c-3.6,0-6.5,2.9-6.5,6.2v0.7c0,3.6,2.9,6.5,6.5,6.5h47.5c3.3,0,6.2,2.9,6.2,6.2v28.5c0,3.6-2.9,6.5-6.2,6.5h-99.2
			c-3.6,0-6.5-2.9-6.5-6.5V952.4z"/>
		<path class="st0" d="M2257.8,1064.1v24.3c0,4-3.1,7.1-7.1,7.1h-37.5c-4,0-7.1-3.1-7.1-7.1V953.3c0-4,3.1-7.1,7.1-7.1h55.7
			c41,0,64.4,9.4,64.4,54.2c0,18.7-4.5,32.8-13.6,41.9c-1.8,1.6-2.5,4.2-1.8,6.7l10.9,37.7c1.3,4.5-2,8.9-6.7,8.9h-37.7
			c-3.1,0-6-2.2-6.7-5.6l-6.2-27.4c-0.7-3.3-3.6-5.6-6.7-5.6C2261,1057,2257.8,1060.1,2257.8,1064.1z M2270.3,1016.2
			c7.4,0,10.9-4.9,10.9-14.5c0-9.8-4-14.7-12.3-14.7h-4.2c-4,0-7.1,3.1-7.1,7.1v14.9c0,4,3.1,7.1,7.1,7.1H2270.3z"/>
		<path class="st0" d="M2343.7,952.4c0-3.3,2.9-6.2,6.5-6.2h99.2c3.3,0,6.2,2.9,6.2,6.2V981c0,3.6-2.9,6.5-6.2,6.5h-47.5
			c-3.6,0-6.5,2.9-6.5,6.2c0,3.6,2.9,6.5,6.5,6.5h34.1c3.3,0,6.2,2.9,6.2,6.2v28.1c0,3.6-2.9,6.5-6.2,6.5h-34.1
			c-3.6,0-6.5,2.9-6.5,6.2v0.7c0,3.6,2.9,6.5,6.5,6.5h47.5c3.3,0,6.2,2.9,6.2,6.2v28.5c0,3.6-2.9,6.5-6.2,6.5h-99.2
			c-3.6,0-6.5-2.9-6.5-6.5V952.4z"/>
		<path class="st0" d="M2580.2,977.8c-0.2,6.7-5.6,10.3-11.8,10.3c-15.2-1.6-26.5-2.2-34.3-2.2c-9.6,0-15.2,0.2-16.7,0.7
			c-1.6,0.7-2.2,1.8-2.2,3.3s0.9,2.9,2.7,3.8s7.4,2.5,16.7,4.5c16.7,3.6,43.3,8.9,49.1,27.9c1.6,5.4,2.5,12.5,2.5,21.4
			c0,39.2-22.7,51.3-59.1,51.3c-17.8,0-36.8-1.8-54.2-6c-5.1-1.1-8.5-5.8-8.2-10.9l1.1-19.2c0.4-5.6,5.1-10,10.7-10
			c19,2.5,33.9,3.6,45.9,3.6c7.8,0,11.6-1.8,11.6-5.1c0-1.6-0.9-2.7-2.7-3.3c-1.8-0.7-6.7-1.6-14.5-2.7c-20.7-3.3-35-8.5-42.4-15.4
			c-7.6-6.9-11.4-18.1-11.4-33.9c0-41,20.5-52.4,59.1-52.4c14,0,30.8,1.3,49.7,4.2h0.2c5.1,0.9,8.9,5.6,8.9,10.9L2580.2,977.8z"/>
		<path class="st0" d="M2590.3,956.9c0-6,4.7-10.7,10.7-10.7h90.3c5.8,0,10.5,4.7,10.5,10.7v21c0,5.8-4.7,10.5-10.5,10.5h-8
			c-5.8,0-10.5,4.7-10.5,10.7v86.1c0,5.8-4.7,10.5-10.5,10.5h-30.8c-5.8,0-10.5-4.7-10.5-10.5V999c0-6-4.7-10.7-10.5-10.7h-9.6
			c-6,0-10.7-4.7-10.7-10.5V956.9z"/>
		<path class="st0" d="M2710.7,952.4c0-3.3,2.9-6.2,6.5-6.2h99.2c3.3,0,6.2,2.9,6.2,6.2V981c0,3.6-2.9,6.5-6.2,6.5h-47.5
			c-3.6,0-6.5,2.9-6.5,6.2c0,3.6,2.9,6.5,6.5,6.5h34.1c3.3,0,6.2,2.9,6.2,6.2v28.1c0,3.6-2.9,6.5-6.2,6.5h-34.1
			c-3.6,0-6.5,2.9-6.5,6.2v0.7c0,3.6,2.9,6.5,6.5,6.5h47.5c3.3,0,6.2,2.9,6.2,6.2v28.5c0,3.6-2.9,6.5-6.2,6.5h-99.2
			c-3.6,0-6.5-2.9-6.5-6.5V952.4z"/>
		<path class="st0" d="M2081,1338.4v17.8c0,3.8-3.1,6.9-6.9,6.9h-37.9c-3.8,0-6.9-3.1-6.9-6.9v-135.6c0-3.8,3.1-6.9,6.9-6.9h51.7
			c43.7,0,67.8,10.9,67.8,58.2c0,47-23.9,59.5-67.8,59.5C2084.1,1331.5,2081,1334.6,2081,1338.4z M2081,1290.7h4.7
			c13.2,0,17.8-5.8,17.8-18.7c0-13.6-4.7-17.4-17.8-17.4h-4.7V1290.7z"/>
		<path class="st0" d="M2189.4,1221.1c0.9-4.2,4.7-7.4,9.1-7.4h63.1c4.5,0,8.2,3.1,9.4,7.4l29.2,130.4c1.3,6-3.1,11.6-9.1,11.6h-33
			c-4.2,0-8-2.9-9.1-7.1l-0.7-2.9c-1.1-4.2-4.9-7.1-9.1-7.1h-19c-4.7,0-8.5,3.1-9.4,7.6l-0.4,2c-0.9,4.5-4.7,7.6-9.1,7.6h-31.4
			c-6,0-10.5-5.6-9.1-11.4L2189.4,1221.1z M2227.5,1254.3l-6.7,41.3c-0.9,5.8,3.6,10.9,9.4,10.9s10.3-5.1,9.4-10.9l-6.5-41.3H2227.5
			z"/>
		<path class="st0" d="M2422.4,1245.4c-0.2,6.7-5.6,10.3-11.8,10.3c-15.2-1.6-26.5-2.2-34.3-2.2c-9.6,0-15.2,0.2-16.7,0.7
			c-1.6,0.7-2.2,1.8-2.2,3.3s0.9,2.9,2.7,3.8s7.4,2.5,16.7,4.5c16.7,3.6,43.3,8.9,49.1,27.9c1.6,5.4,2.5,12.5,2.5,21.4
			c0,39.2-22.7,51.3-59.1,51.3c-17.8,0-36.8-1.8-54.2-6c-5.1-1.1-8.5-5.8-8.2-10.9l1.1-19.2c0.4-5.6,5.1-10,10.7-10
			c19,2.5,33.9,3.6,45.9,3.6c7.8,0,11.6-1.8,11.6-5.1c0-1.6-0.9-2.7-2.7-3.3c-1.8-0.7-6.7-1.6-14.5-2.7c-20.7-3.3-35-8.5-42.4-15.4
			c-7.6-6.9-11.4-18.1-11.4-33.9c0-41,20.5-52.4,59.1-52.4c14,0,30.8,1.3,49.7,4.2h0.2c5.1,0.9,8.9,5.6,8.9,10.9L2422.4,1245.4z"/>
		<path class="st0" d="M2485,1222.4c0-4.7,4-8.7,8.7-8.7h34.3c4.7,0,8.7,4,8.7,8.7v131.8c0,4.9-4,8.9-8.7,8.9h-34.3
			c-4.7,0-8.7-4-8.7-8.9V1222.4z"/>
		<path class="st0" d="M2659,1352.7c0.2,4.5-2.9,8.2-7.1,9.1c-13.4,2.9-27.2,4.2-41,4.2c-25,0-48.2-4.5-57.3-30.5
			c-4-10.9-6-26.8-6-47.5c0-29.7,4.7-49.9,13.8-60.9c9.1-10.9,26.5-16.3,52.2-16.3c10.7,0,23.4,1.6,37.9,4.5
			c4.5,0.9,7.6,4.9,7.6,9.6l-0.9,21.9c0,5.8-4.7,8.9-10,8.9c-8.5-0.7-16.5-1.1-24.1-1.1c-10.3,0-16.9,2-19.8,5.8
			c-2.9,4-4.5,12.3-4.5,24.5s0.7,21,2,25.6c3.8,11.1,11.4,11.8,22.1,11.8l25.2-0.9c5.4-0.2,9.6,3.8,9.8,9.1L2659,1352.7z"/>
		<path class="st0" d="M2669,1222.4c0-4.7,4-8.7,8.7-8.7h34.3c4.7,0,8.7,4,8.7,8.7v131.8c0,4.9-4,8.9-8.7,8.9h-34.3
			c-4.7,0-8.7-4-8.7-8.9V1222.4z"/>
	</g>
</g>
</svg>
