<?xml version="1.0" encoding="utf-8"?>
<!-- Generator: Adobe Illustrator 24.1.3, SVG Export Plug-In . SVG Version: 6.00 Build 0)  -->
<svg version="1.1" id="Calque_1" xmlns="http://www.w3.org/2000/svg" xmlns:xlink="http://www.w3.org/1999/xlink" x="0px" y="0px"
	 viewBox="0 0 795 795" style="enable-background:new 0 0 795 795;" xml:space="preserve">
<style type="text/css">
	.st0{clip-path:url(#SVGID_2_);fill:#FFFFFF;}
</style>
<g>
	<defs>
		<rect id="SVGID_1_" x="-0.3" y="-0.2" width="795.7" height="795.7"/>
	</defs>
	<clipPath id="SVGID_2_">
		<use xlink:href="#SVGID_1_"  style="overflow:visible;"/>
	</clipPath>
	<path class="st0" d="M684.8,644c147.5-147.5,147.5-386.3,0.1-533.7C537.5-37.1,298.7-37,151.2,110.4
		c-17.4,17.4-32.6,35.9-45.8,55.4c0,0-2.5,3.3-6.5,10.1C84.6,198.6,73,222.3,64,247C25.8,340.6-20.3,517.2,9,786.2
		c269,29.3,445.6-16.8,539.2-54.8c24.5-9.1,48.3-20.7,71-34.9c6.6-4.1,10.1-6.5,10.1-6.5C648.8,676.7,667.4,661.4,684.8,644"/>
</g>
</svg>
