<?xml version="1.0" encoding="utf-8"?>
<!-- Generator: Adobe Illustrator 24.1.3, SVG Export Plug-In . SVG Version: 6.00 Build 0)  -->
<svg version="1.1" id="Calque_1" xmlns="http://www.w3.org/2000/svg" xmlns:xlink="http://www.w3.org/1999/xlink" x="0px" y="0px"
	 viewBox="0 0 841.9 1190.6" style="enable-background:new 0 0 841.9 1190.6;" xml:space="preserve">
<style type="text/css">
	.st0{fill:#00893E;}
	.st1{clip-path:url(#SVGID_2_);fill:#FFFFFF;}
	.st2{clip-path:url(#SVGID_4_);fill:#00873E;}
	.st3{clip-path:url(#SVGID_4_);fill:#D43E2F;}
	.st4{clip-path:url(#SVGID_4_);fill:#FAC016;}
	.st5{clip-path:url(#SVGID_6_);fill:#FFFFFF;}
	.st6{clip-path:url(#SVGID_6_);fill:#00893E;}
	.st7{fill:none;stroke:#D43425;stroke-width:14;}
	.st8{clip-path:url(#SVGID_8_);fill:none;stroke:#D43425;stroke-width:5.6;}
	.st9{clip-path:url(#SVGID_8_);fill:#D43425;}
	.st10{fill:#D43425;}
	.st11{clip-path:url(#SVGID_10_);fill:#FFFFFF;}
	.st12{clip-path:url(#SVGID_10_);fill:#00893E;}
	.st13{clip-path:url(#SVGID_12_);fill:#00893E;}
	.st14{clip-path:url(#SVGID_14_);fill:#00893E;}
	.st15{clip-path:url(#SVGID_16_);fill:#00893E;}
	.st16{clip-path:url(#SVGID_18_);fill:#00893E;}
	.st17{clip-path:url(#SVGID_20_);fill:#00893E;}
	.st18{clip-path:url(#SVGID_22_);fill:#00893E;}
	.st19{clip-path:url(#SVGID_24_);fill:#00893E;}
	.st20{clip-path:url(#SVGID_26_);fill:#00893E;}
	.st21{clip-path:url(#SVGID_28_);fill:#00893E;}
	.st22{clip-path:url(#SVGID_30_);fill:#00893E;}
	.st23{clip-path:url(#SVGID_32_);fill:#00893E;}
	.st24{clip-path:url(#SVGID_34_);fill:#00893E;}
	.st25{clip-path:url(#SVGID_34_);fill:#FFFFFF;}
	.st26{fill:#FFFFFF;}
	.st27{clip-path:url(#SVGID_36_);fill:#FFFFFF;}
	.st28{clip-path:url(#SVGID_38_);fill:#00873E;}
	.st29{clip-path:url(#SVGID_38_);fill:#D43E2F;}
	.st30{clip-path:url(#SVGID_38_);fill:#FAC016;}
</style>
<rect y="0" class="st0" width="841.9" height="1190.6"/>
<g>
	<defs>
		<rect id="SVGID_1_" y="0" width="841.9" height="1190.6"/>
	</defs>
	<clipPath id="SVGID_2_">
		<use xlink:href="#SVGID_1_"  style="overflow:visible;"/>
	</clipPath>
	<path class="st1" d="M836.9,54.1L-75.6,408.6c-37.1,14.4-62,49.6-63.4,89.3c-1.4,39.8,21.1,76.6,57.2,93.5l347.2,163l133.9,282.3
		l242-11.3l324.4-842.4c14.3-36.8,5.5-78.5-22.4-106.4C915.4,48.6,873.6,39.9,836.9,54.1"/>
	<path class="st1" d="M220.8,892l-4.4-9.5c-0.6-1.2-1.5-2.1-2.7-2.7l-9.4-4.5l27.1-10.6L220.8,892z M239,849.7l-50.9,19.9
		c-2.1,0.8-3.5,2.8-3.5,5c-0.1,2.2,1.2,4.3,3.2,5.3l19.4,9.2l9.1,19.5c0.9,2,2.9,3.2,5,3.2c0.1,0,0.1,0,0.2,0c2.2-0.1,4.2-1.5,5-3.6
		l19.8-51.3c0.8-2.1,0.3-4.4-1.2-6C243.4,849.4,241,848.9,239,849.7"/>
	<path class="st1" d="M217.8,937.3c-32.2,0-58.5-26.5-58.5-59c0-32.5,26.2-59,58.5-59c32.2,0,58.5,26.5,58.5,59
		C276.2,910.8,250,937.3,217.8,937.3 M217.8,808.2c-38.3,0-69.5,31.5-69.5,70.2c0,38.7,31.2,70.2,69.5,70.2
		c38.3,0,69.5-31.5,69.5-70.2S256.1,808.2,217.8,808.2"/>
	<path class="st1" d="M153.1,340.9c23.5,0,42.5-19,42.5-42.5c0-23.5-19-42.5-42.5-42.5s-42.5,19-42.5,42.5
		C110.6,321.8,129.6,340.9,153.1,340.9"/>
</g>
<g>
	<defs>
		<rect id="SVGID_3_" x="130.5" y="272.6" width="47.7" height="52.2"/>
	</defs>
	<clipPath id="SVGID_4_">
		<use xlink:href="#SVGID_3_"  style="overflow:visible;"/>
	</clipPath>
	<path class="st2" d="M142,297.3c0,1.5,0.3,2.8,0.8,4c0,0,0,0.1-0.1,0.1h-9.7c-1.3,0-2.4-1.1-2.4-2.4v-9.4c0-1.3,1.1-2.4,2.4-2.4
		h10.9c0,0,0.1,0,0.1-0.1v-12.1c0-1.4,1.1-2.5,2.5-2.5h6.1c0.1,0,0.2,0,0.2,0.1c1,1.5,1.6,3.1,1.7,4.9
		C155.1,287,142,285.5,142,297.3"/>
	<path class="st2" d="M157.1,323.5c0,0.7-0.7,1.3-1.4,1.3c0,0,0,0,0,0h-9.4c-1.3,0-2.4-1.1-2.4-2.4v-18.7c0-0.1,0.1-0.1,0.1,0
		c0.5,0.7,1,1.3,1.6,1.9c2.3,2.4,5.3,4.5,7.8,7.2C155.9,315.5,157.3,319.8,157.1,323.5"/>
	<path class="st3" d="M158.1,275v1.5c0,0.1-0.1,0.1-0.1,0c-0.5-0.9-1.2-1.8-2-2.7c-0.4-0.4-0.7-0.8-1.1-1.1c0,0,0-0.1,0.1-0.1h0.8
		C157,272.6,158.1,273.7,158.1,275"/>
	<path class="st3" d="M169,287.3h-10c-0.6,0-0.9-0.2-0.9-1.4c0-0.1-0.1-0.1-0.1,0c-0.6,1.3-2,2.6-2.9,3.4c-1.6,1.4-3.3,3.9-2.7,7.9
		c0.2,1.4,0.9,2.8,2.6,5c0.5,0.6,0.9,1.1,1.2,1.5c-0.5-1-1.1-1.9-1.6-3.2c-1.1-2.9-1.1-6.5,1.2-9c1.9-2,5-2.5,7.5-1.7
		c0,0-2.3,0.1-3.5,2.9c-0.9,1.9-0.1,4.6-1.1,6.7c1.1-1.2,1.4-3,1.9-4.1c0.5-1.1,1.2-2,2.1-2.8c0.4-0.3,0.8-0.6,1.3-0.8
		c0.1,0,0.2,0.2,0.3,0.3c0.3,0.5,0.4,0.8,0.4,1.4c0,0.6-0.3,1.1-0.4,1.5c-0.1,0.4,0.1,0.6,0.1,0.8c0.2,0.5,0.6,0.9,0.8,1.2
		c0.1,0.2-0.1,0.5-0.3,0.5c-0.3,0.1-0.5,0.1-0.6,0.3c-0.1,0.2,0.2,0.4,0.2,0.5c0,0.2-0.1,0.5-0.4,0.5c0.1,0.1,0.2,0.2,0.2,0.3
		c0,0.2-0.2,0.2-0.3,0.4c-0.2,0.3,0.1,1.1-0.7,1.4c-0.6,0.2-1-0.2-1.7-0.1c-0.4,0.1-0.8,0.4-1,0.9h8.5c1.3,0,2.5-1.1,2.5-2.5v-9.3
		C171.4,288.4,170.3,287.3,169,287.3"/>
	<path class="st4" d="M155.4,284.2c-0.2,0.1-0.3,0.1-0.5,0.1c-0.1,0.2-0.1,0.4-0.2,0.5v0c0,0,0,0,0,0c0,0,0.1,0,0.1,0.1
		C155,284.6,155.2,284.4,155.4,284.2"/>
	<path class="st3" d="M152.5,299.8c-0.2,0.1-0.4,0.1-0.6,0c-0.3-0.2-0.3-0.5-0.1-0.8c0,0,0,0,0,0c-0.1-0.2-0.3-0.4-0.4-0.6
		c-0.2,0.1-0.4,0-0.6-0.1c-0.3-0.2-0.4-0.6-0.2-1c0-0.1,0.1-0.1,0.2-0.2c-0.1-0.2-0.1-0.3-0.2-0.5c-0.2,0-0.4,0-0.5-0.1
		c-0.4-0.3-0.4-0.8-0.2-1.1c0.1-0.2,0.3-0.3,0.5-0.3c0-0.8,0.1-1.6,0.3-2.4c0,0,0,0-0.1,0c-0.4-0.3-0.4-0.8-0.2-1.1
		c0.2-0.3,0.5-0.4,0.8-0.3c0.2-0.3,0.3-0.6,0.5-1c0.1-0.2,0.3-0.5,0.5-0.7c0.3-0.5,0.6-1,0.9-1.4c-0.3-0.2-0.3-0.7-0.1-1
		c0.2-0.3,0.5-0.4,0.8-0.3c0.1-0.2,0.2-0.4,0.3-0.5c0,0,0,0,0,0c-0.1,0-0.1-0.1-0.2-0.2c-0.2-0.2-0.2-0.6,0-0.8
		c0.2-0.3,0.5-0.4,0.8-0.3c0.1-0.2,0.2-0.4,0.2-0.5c0,0,0,0-0.1,0c-0.3-0.2-0.4-0.7-0.2-1c0.2-0.2,0.4-0.3,0.7-0.3
		c0-0.1,0.1-0.3,0.1-0.4c0,0-0.1,0-0.1-0.1c-0.3-0.2-0.4-0.7-0.2-1c0.1-0.2,0.4-0.3,0.6-0.3c0-0.1,0-0.2,0-0.3c-0.1,0-0.1,0-0.2-0.1
		c-0.3-0.2-0.3-0.6-0.1-0.8c0.1-0.1,0.3-0.2,0.4-0.2c0-0.1,0-0.2,0-0.3c-0.1,0-0.1,0-0.2-0.1c-0.2-0.2-0.3-0.5-0.1-0.7
		c0.1-0.1,0.2-0.2,0.3-0.2c0-0.1,0-0.2,0-0.3c-0.1,0-0.2,0-0.2-0.1c-0.2-0.2-0.3-0.4-0.1-0.7c0-0.1,0.1-0.1,0.2-0.1
		c0-0.1-0.1-0.2-0.1-0.3c-0.1,0-0.2,0-0.2-0.1c-0.2-0.1-0.2-0.4-0.1-0.6c0,0,0.1-0.1,0.1-0.1c0-0.1-0.1-0.1-0.1-0.2
		c-0.1,0-0.2,0-0.2-0.1c-0.2-0.1-0.2-0.4-0.1-0.5c0,0,0,0,0,0c0-0.1-0.1-0.1-0.1-0.2c-0.1,0-0.2,0-0.2,0c-0.1-0.1-0.2-0.3-0.1-0.4
		c0,0,0,0,0,0c-0.3-0.4-1.5-2-1.6-2.1h0.3c0,0,1,1.1,1.5,2c0.1,0,0.1,0,0.2,0.1c0.1,0.1,0.2,0.3,0.1,0.4c0,0,0,0,0,0
		c0,0.1,0.1,0.1,0.1,0.2c0.1,0,0.2,0,0.3,0.1c0.2,0.1,0.2,0.4,0.1,0.5c0,0,0,0.1-0.1,0.1v0c0,0.1,0.1,0.1,0.1,0.2
		c0.1,0,0.2,0,0.3,0.1c0.2,0.1,0.2,0.4,0.1,0.6c0,0-0.1,0.1-0.1,0.1c0,0.1,0.1,0.2,0.1,0.3h0c0.1,0,0.2,0,0.3,0.1
		c0.2,0.2,0.3,0.4,0.1,0.7c-0.1,0.1-0.1,0.1-0.2,0.2c0,0.1,0,0.2,0,0.4c0.1,0,0.2,0,0.2,0.1c0.2,0.2,0.3,0.5,0.1,0.7
		c-0.1,0.1-0.2,0.2-0.3,0.2c0,0.1,0,0.2,0,0.4c0.1,0,0.1,0,0.2,0.1c0.3,0.2,0.3,0.6,0.1,0.8c-0.1,0.1-0.3,0.2-0.4,0.2
		c0,0.1,0,0.2-0.1,0.3c0.1,0,0.1,0.1,0.2,0.1c0.3,0.2,0.4,0.7,0.2,1c-0.2,0.2-0.4,0.3-0.6,0.3c0,0.1-0.1,0.3-0.1,0.4
		c0,0,0.1,0,0.1,0.1c0.2,0.2,0.3,0.4,0.3,0.7c0,0.1-0.1,0.2-0.1,0.3c-0.1,0.1-0.1,0.2-0.2,0.2c-0.2,0.1-0.3,0.1-0.5,0.1
		c-0.1,0.2-0.1,0.4-0.2,0.5v0c0,0,0,0,0,0c0,0,0.1,0,0.1,0.1c0.3,0.2,0.3,0.6,0.1,0.9c-0.2,0.3-0.5,0.4-0.8,0.3
		c-0.1,0.2-0.2,0.4-0.3,0.5c0.3,0.2,0.4,0.7,0.2,1c-0.2,0.3-0.6,0.4-0.9,0.2c-0.3,0.5-0.6,1-0.9,1.5c-0.1,0.1-0.2,0.3-0.3,0.4
		c-0.3,0.4-0.5,0.8-0.7,1.2c0,0,0.1,0,0.1,0.1c0.4,0.3,0.4,0.8,0.2,1.1c-0.2,0.3-0.6,0.4-0.9,0.3c-0.1,0.5-0.2,1-0.3,1.4
		c0,0.3,0,0.6,0,0.9c0.2,0,0.3,0.1,0.4,0.1c0.4,0.3,0.4,0.8,0.2,1.1c-0.1,0.1-0.2,0.2-0.4,0.3c0,0.2,0.1,0.3,0.2,0.5
		c0.2-0.1,0.4,0,0.6,0.1c0.3,0.2,0.4,0.6,0.2,1c0,0.1-0.1,0.1-0.2,0.2c0.1,0.2,0.2,0.4,0.4,0.5c0.2-0.1,0.4-0.1,0.6,0
		c0.3,0.2,0.3,0.5,0.1,0.8c0,0,0,0,0,0c1.1,1,1.5,1.7,2.8,2.7l0.5,0.9C155.9,303.4,152.7,300,152.5,299.8"/>
	<path class="st4" d="M155.3,284.7c-0.1,0.2,0,0-0.1,0.3c0.6,0.4,0.2,1.7-0.7,1.5c-0.1,0.2-0.1,0.1-0.1,0.3c0.5,0.5,0.2,1.7-0.9,1.5
		c-0.3,0.5-0.8,1.2-0.9,1.4c3.7-2,5.7-4.1,6.1-7.7c0.5-4.3-4.5-9.4-4.5-9.4s1.9,2.9,2.5,4.6c1.1,3,0.4,4.7-0.6,6.2
		C156.4,284,155.9,284.8,155.3,284.7"/>
	<path class="st4" d="M143.7,293.6c-2.1,4.1,0.5,8.6,1.6,10c1.2,1.5,2.9,3.4,3.9,4.3c-1.5-2-3.7-5.5-4-8.3c-0.3-2.8-0.1-6.2,6.1-9.2
		c0.2-0.1-0.1,0,0.1-0.1c0.1-0.2,0.4-0.6,0.5-0.9c0.3-0.5,0.7-1.1,1-1.6c-0.3-0.4-0.2-0.9,0.1-1.2
		C149.7,288.8,145.4,290.1,143.7,293.6"/>
	<path class="st4" d="M153.8,286.2c-0.2,0.1-0.4,0.3-0.5,0.4c0.2-0.1,0.3-0.1,0.5,0c0-0.1,0.1-0.2,0.1-0.2
		C153.8,286.2,153.8,286.2,153.8,286.2"/>
	<path class="st2" d="M159.4,324.7c-0.1,0-0.2-0.1-0.2-0.2v-1.2c0-0.1,0-0.1,0.1-0.2l0.7-0.7c0.2-0.2,0.3-0.3,0.5-0.5l0.4-0.4
		c0.1-0.1,0.4-0.4,0.4-0.6c0-0.1,0-0.1,0-0.2c0-0.2,0-0.3-0.1-0.3c-0.1,0-0.3-0.1-0.5-0.1c-0.3,0-0.7,0-1,0.1
		c-0.2,0-0.4-0.1-0.4-0.3l-0.1-1c0-0.1,0.1-0.2,0.2-0.2c0.6-0.2,1.2-0.3,1.8-0.3c1.1,0,2.2,0.5,2.2,1.7c0,1.1-0.4,1.6-1.3,2.3
		c-0.2,0.1-0.1,0.4,0.1,0.4h0.9c0.1,0,0.2,0.1,0.2,0.2v1.2c0,0.1-0.1,0.2-0.2,0.2H159.4z"/>
	<path class="st2" d="M164.4,319.4c0.4-0.5,1-0.7,1.8-0.7c0.9,0,1.5,0.2,1.8,0.7c0.3,0.5,0.5,1.3,0.5,2.4c0,1.8-0.3,3.1-2.3,3.1
		c-2,0-2.3-1.3-2.3-3.1C163.9,320.6,164.1,319.9,164.4,319.4 M166,320.6c0,0.2-0.1,0.6-0.1,1.1c0,0.6,0,1,0.1,1.1
		c0,0.2,0.1,0.3,0.2,0.3c0.1,0,0.2-0.1,0.3-0.3c0-0.2,0.1-0.5,0.1-0.9c0-0.4,0-0.8,0-0.9c0-0.2,0-0.3-0.1-0.4c0-0.2-0.1-0.2-0.2-0.2
		C166.1,320.3,166,320.4,166,320.6"/>
	<path class="st2" d="M169.3,324.7c-0.1,0-0.2-0.1-0.2-0.2v-1.2c0-0.1,0-0.1,0.1-0.2l0.7-0.7c0.2-0.2,0.3-0.3,0.5-0.5l0.4-0.4
		c0.1-0.1,0.4-0.4,0.4-0.6c0-0.1,0-0.1,0-0.2c0-0.2,0-0.3-0.1-0.3c-0.1,0-0.3-0.1-0.5-0.1c-0.3,0-0.7,0-1,0.1
		c-0.2,0-0.4-0.1-0.4-0.3l-0.1-1c0-0.1,0.1-0.2,0.2-0.2c0.6-0.2,1.2-0.3,1.8-0.3c1.1,0,2.2,0.5,2.2,1.7c0,1.1-0.4,1.6-1.3,2.3
		c-0.2,0.1-0.1,0.4,0.1,0.4h0.9c0.1,0,0.2,0.1,0.2,0.2v1.2c0,0.1-0.1,0.2-0.2,0.2H169.3z"/>
	<path class="st2" d="M162.7,303.5c0.3,0,0.5,0.2,0.5,0.5v7.8c0,2.1-1.2,2.2-2.8,2.3h-0.7c-0.3,0-0.5-0.2-0.5-0.5v-1.3
		c0-0.3,0.2-0.5,0.5-0.5h0.4c0,0,0.1,0,0.1-0.1c0.1,0,0.1-0.1,0.1-0.1c0-0.1,0-0.2,0-0.3c0-0.2,0-2.9,0-3.5V304
		c0-0.3,0.2-0.5,0.5-0.5H162.7z"/>
	<path class="st2" d="M177.8,303.5c0.3,0,0.5,0.2,0.5,0.5v7.8c0,2.1-1.2,2.2-2.8,2.3h-0.7c-0.3,0-0.5-0.2-0.5-0.5v-1.3
		c0-0.3,0.2-0.5,0.5-0.5h0.4c0,0,0.1,0,0.1-0.1c0.1,0,0.1-0.1,0.1-0.1c0-0.1,0-0.2,0-0.3c0-0.2,0-2.9,0-3.5V304
		c0-0.3,0.2-0.5,0.5-0.5H177.8z"/>
	<path class="st2" d="M163.9,304.1c0-0.3,0.2-0.5,0.5-0.5h3.3c0.2,0,0.4,0.2,0.5,0.4l0.3,1.3c0,0.1,0.1,0.2,0.3,0.2
		c0.1,0,0.2-0.1,0.3-0.2l0.2-1.3c0-0.2,0.3-0.4,0.5-0.4h3.4c0.3,0,0.5,0.2,0.5,0.5v9.4c0,0.3-0.2,0.5-0.5,0.5h-1.8
		c-0.3,0-0.5-0.2-0.5-0.5v-6h-0.1l-0.6,6c0,0.2-0.3,0.4-0.5,0.4h-1.5c-0.2,0-0.4-0.2-0.5-0.4l-0.6-6h-0.1v6c0,0.3-0.2,0.5-0.5,0.5
		h-1.8c-0.3,0-0.5-0.2-0.5-0.5V304.1z"/>
	<path class="st2" d="M177.6,319c0.4,0.2,0.6,0.7,0.6,1.3c0,0.3,0,0.7-0.3,1c-0.1,0.1-0.1,0.3,0,0.5c0.1,0.1,0.1,0.2,0.2,0.3
		c0.1,0.2,0.1,0.4,0.1,0.7c0,1.6-0.9,1.9-2.3,1.9c-0.5,0-1-0.1-1.6-0.2c-0.2,0-0.3-0.2-0.3-0.4l0-0.9c0-0.2,0.2-0.3,0.4-0.3
		c0.5,0,0.9,0.1,1.1,0.1c0.3,0,0.5,0,0.6,0c0.1,0,0.1-0.1,0.1-0.2c0-0.1,0-0.2-0.1-0.2c-0.1,0-0.2-0.1-0.4-0.1h-0.9
		c-0.2,0-0.4-0.2-0.4-0.4v-0.9c0-0.2,0.2-0.4,0.4-0.4h0.8c0.3,0,0.5-0.1,0.5-0.3c0-0.2-0.2-0.3-0.6-0.3c-0.2,0-0.9,0-1.2,0.1
		c-0.1,0-0.2-0.1-0.2-0.2l0-1c0-0.2,0.1-0.3,0.3-0.4c0.5-0.1,1-0.2,1.3-0.2C176.6,318.7,177.2,318.8,177.6,319"/>
	<path class="st3" d="M159.4,317.6c-0.1,0-0.2-0.1-0.2-0.2V315c0-0.1,0.1-0.2,0.2-0.2h0.6c0.1,0,0.2,0.1,0.2,0.2v1.7
		c0,0.1,0.1,0.2,0.2,0.2h0.6c0.1,0,0.2,0.1,0.2,0.2v0.4c0,0.1-0.1,0.2-0.2,0.2H159.4z"/>
	<path class="st3" d="M161.3,315c0-0.1,0.1-0.2,0.2-0.2h0.6c0.1,0,0.2,0.1,0.2,0.2v2.5c0,0.1-0.1,0.2-0.2,0.2h-0.6
		c-0.1,0-0.2-0.1-0.2-0.2V315z"/>
	<path class="st3" d="M164.7,315.4c0,0.1-0.1,0.2-0.2,0.2c-0.3,0-0.5,0-0.6,0c-0.2,0-0.3,0-0.3,0c0,0,0,0,0,0.1c0,0,0,0.1,0.1,0.1
		c0,0,0.1,0,0.3,0.1c0.3,0.1,0.8,0.2,0.9,0.5c0,0.1,0,0.2,0,0.4c0,0.7-0.4,1-1.1,1c-0.3,0-0.7,0-1-0.1c-0.1,0-0.2-0.1-0.2-0.2l0-0.4
		c0-0.1,0.1-0.2,0.2-0.2c0.4,0,0.6,0.1,0.9,0.1c0.1,0,0.2,0,0.2-0.1c0,0,0-0.1-0.1-0.1c0,0-0.1,0-0.3-0.1c-0.4-0.1-0.7-0.2-0.8-0.3
		c-0.1-0.1-0.2-0.3-0.2-0.6c0-0.8,0.4-1,1.1-1c0.3,0,0.6,0,0.9,0.1h0c0.1,0,0.2,0.1,0.2,0.2L164.7,315.4z"/>
	<path class="st3" d="M164.9,315c0-0.1,0.1-0.2,0.2-0.2h1.1c0.7,0,1,0.2,1,0.7c0,0.2,0,0.4-0.1,0.5c-0.1,0.1,0,0.2,0,0.2
		c0.2,0.1,0.2,0.3,0.2,0.5c0,0.5-0.4,0.8-1.1,0.8h-1.1c-0.1,0-0.2-0.1-0.2-0.2V315z M166,315.5C166,315.5,165.9,315.5,166,315.5
		l-0.1,0.4c0,0,0,0.1,0.1,0.1h0.1c0.2,0,0.2-0.1,0.2-0.2c0-0.2-0.1-0.2-0.2-0.2H166z M166,316.5C166,316.5,165.9,316.6,166,316.5
		l-0.1,0.4c0,0,0,0.1,0.1,0.1h0.1c0.1,0,0.2,0,0.2-0.1c0,0,0-0.1,0-0.2c0-0.2-0.1-0.2-0.2-0.2H166z"/>
	<path class="st3" d="M168.8,317.7c-1,0-1.3-0.5-1.3-1.5c0-1,0.3-1.5,1.3-1.5c1,0,1.3,0.5,1.3,1.5
		C170.1,317.2,169.8,317.7,168.8,317.7 M168.5,316.7c0,0.1,0.1,0.2,0.3,0.2c0.1,0,0.2,0,0.3-0.2c0-0.1,0.1-0.3,0.1-0.5
		c0-0.2,0-0.4-0.1-0.5c0-0.1-0.1-0.2-0.3-0.2c-0.1,0-0.2,0.1-0.3,0.2c0,0.1-0.1,0.3-0.1,0.5C168.4,316.5,168.5,316.6,168.5,316.7"/>
	<path class="st3" d="M170.3,315c0-0.1,0.1-0.2,0.2-0.2h0.7c0.1,0,0.1,0,0.2,0.1l0.5,0.7c0,0,0,0,0.1,0c0,0,0.1,0,0.1-0.1V315
		c0-0.1,0.1-0.2,0.2-0.2h0.6c0.1,0,0.2,0.1,0.2,0.2v2.5c0,0.1-0.1,0.2-0.2,0.2h-0.7c-0.1,0-0.1,0-0.2-0.1l-0.5-0.8c0,0,0,0-0.1,0
		c0,0-0.1,0-0.1,0.1v0.7c0,0.1-0.1,0.2-0.2,0.2h-0.6c-0.1,0-0.2-0.1-0.2-0.2V315z"/>
	<path class="st3" d="M173.2,315c0-0.1,0.1-0.2,0.2-0.2h0.7c0.1,0,0.1,0,0.2,0.1l0.5,0.7c0,0,0,0,0.1,0c0,0,0.1,0,0.1-0.1V315
		c0-0.1,0.1-0.2,0.2-0.2h0.6c0.1,0,0.2,0.1,0.2,0.2v2.5c0,0.1-0.1,0.2-0.2,0.2H175c-0.1,0-0.1,0-0.2-0.1l-0.5-0.8c0,0,0,0-0.1,0
		c0,0-0.1,0-0.1,0.1v0.7c0,0.1-0.1,0.2-0.2,0.2h-0.6c-0.1,0-0.2-0.1-0.2-0.2V315z"/>
	<path class="st3" d="M176.1,314.9c0-0.1,0.1-0.1,0.1-0.1h1.9c0.1,0,0.1,0.1,0.1,0.1v0.5c0,0.1-0.1,0.1-0.1,0.1h-0.9
		c-0.1,0-0.1,0.1-0.1,0.1c0,0.1,0.1,0.1,0.1,0.1h0.6c0.1,0,0.1,0.1,0.1,0.1v0.5c0,0.1-0.1,0.1-0.1,0.1h-0.6c-0.1,0-0.1,0.1-0.1,0.1
		v0c0,0.1,0.1,0.1,0.1,0.1h0.9c0.1,0,0.1,0.1,0.1,0.1v0.5c0,0.1-0.1,0.1-0.1,0.1h-1.9c-0.1,0-0.1-0.1-0.1-0.1V314.9z"/>
</g>
<g>
	<defs>
		<rect id="SVGID_5_" y="0" width="841.9" height="1190.6"/>
	</defs>
	<clipPath id="SVGID_6_">
		<use xlink:href="#SVGID_5_"  style="overflow:visible;"/>
	</clipPath>
	<path class="st5" d="M262.6,298.3c23.5,0,42.5-19,42.5-42.5c0-23.5-19-42.5-42.5-42.5c-23.5,0-42.5,19-42.5,42.5
		C220,279.3,239.1,298.3,262.6,298.3"/>
	<path class="st5" d="M372.1,255.8c23.5,0,42.5-19,42.5-42.5c0-23.5-19-42.5-42.5-42.5c-23.5,0-42.5,19-42.5,42.5
		C329.5,236.8,348.6,255.8,372.1,255.8"/>
	<path class="st5" d="M215.8,110.8c4.7,0,8.5-3.8,8.5-8.5V49.8c0-4.7-3.8-8.5-8.5-8.5h-73.1H76.3H51c-4.7,0-8.5,3.8-8.5,8.5v102
		c0,4.7,3.8,8.5,8.5,8.5h83.1c4.7,0,8.5-3.8,8.5-8.5v-32.6c0-4.7,3.8-8.5,8.5-8.5H215.8z"/>
	<path class="st6" d="M57.4,50.4c0.5,0,0.9,0.4,0.9,0.9v10.4c0,3.9-2.2,4.2-5.4,4.4h-1.3c-0.6,0-1-0.4-1-1v-2.4c0-0.5,0.4-1,1-1h0.7
		c0.1,0,0.2,0,0.3-0.1c0.1-0.1,0.2-0.2,0.2-0.3c0-0.1,0.1-0.3,0.1-0.6c0-0.4,0.1-1.2,0.1-2.3v-7.1c0-0.5,0.4-0.9,0.9-0.9H57.4z"/>
	<path class="st6" d="M65.1,60.8c0.3,0.6,0.8,0.9,1.6,0.9c0.8,0,1.3-0.3,1.6-0.8s0.4-1.5,0.4-2.8c0-1.3-0.1-2.2-0.4-2.8
		c-0.2-0.6-0.8-0.8-1.6-0.8c-0.8,0-1.3,0.3-1.6,0.8c-0.3,0.6-0.4,1.5-0.4,2.8C64.7,59.3,64.8,60.3,65.1,60.8 M66.6,66
		c-5.4,0-7.3-2.8-7.3-8c0-5.2,1.9-8,7.3-8c5.5,0,7.3,2.8,7.3,8C73.9,63.2,72.1,66,66.6,66"/>
	<path class="st6" d="M79.1,50.4c0.6,0,1.1,0.5,1.1,1.1v9c0,1,0.6,1.2,1.4,1.2c0.9,0,1.4-0.2,1.4-1.2v-9c0-0.6,0.5-1.1,1.1-1.1h3.2
		c0.6,0,1.1,0.5,1.1,1.1v8.7c0,4.6-2.5,5.9-6.7,5.9c-4.3,0-6.8-1.2-6.8-5.8v-8.8c0-0.6,0.5-1.1,1.1-1.1H79.1z"/>
	<path class="st6" d="M96.3,57.6c0.8,0,1.1-0.5,1.1-1.5c0-1-0.4-1.5-1.3-1.5h-0.4c-0.4,0-0.7,0.3-0.7,0.7v1.5c0,0.4,0.3,0.7,0.7,0.7
		H96.3z M95,62.5V65c0,0.4-0.3,0.7-0.7,0.7h-3.9c-0.4,0-0.7-0.3-0.7-0.7V51.1c0-0.4,0.3-0.7,0.7-0.7h5.7c4.2,0,6.6,1,6.6,5.6
		c0,1.9-0.5,3.4-1.4,4.3c-0.2,0.2-0.3,0.4-0.2,0.7l1.1,3.9c0.1,0.5-0.2,0.9-0.7,0.9h-3.9c-0.3,0-0.6-0.2-0.7-0.6l-0.6-2.8
		c-0.1-0.3-0.4-0.6-0.7-0.6C95.3,61.7,95,62.1,95,62.5"/>
	<path class="st6" d="M103.8,51.3c0-0.5,0.4-1,1-1h3.7c0.3,0,0.7,0.2,0.8,0.5l2.7,4.1c0.1,0.1,0.3,0.2,0.4,0.2
		c0.3,0,0.5-0.2,0.5-0.5v-3.3c0-0.5,0.4-1,1-1h3.4c0.5,0,1,0.4,1,1v13.4c0,0.5-0.4,1-1,1h-3.7c-0.4,0-0.7-0.2-0.8-0.5l-2.7-4.3
		c-0.1-0.2-0.2-0.2-0.4-0.2c-0.3,0-0.5,0.2-0.5,0.5v3.6c0,0.5-0.4,1-1,1h-3.4c-0.5,0-1-0.4-1-1V51.3z"/>
	<path class="st6" d="M127.7,46.2c0.4,0,0.7,0.5,0.4,0.8l-1.7,2.1c-0.1,0.1-0.3,0.2-0.4,0.2h-3.1c-0.3,0-0.6-0.3-0.5-0.7l0.7-2.1
		c0.1-0.2,0.3-0.3,0.5-0.3H127.7z M119.6,51c0-0.3,0.3-0.6,0.7-0.6h10.2c0.4,0,0.7,0.3,0.7,0.6v2.9c0,0.4-0.3,0.7-0.7,0.7h-4.9
		c-0.3,0-0.6,0.3-0.6,0.6c0,0.4,0.3,0.7,0.6,0.7h3.5c0.4,0,0.7,0.3,0.7,0.6v2.9c0,0.4-0.3,0.7-0.7,0.7h-3.5c-0.3,0-0.6,0.3-0.6,0.6
		v0.1c0,0.4,0.3,0.7,0.6,0.7h4.9c0.4,0,0.7,0.3,0.7,0.6v2.9c0,0.4-0.3,0.7-0.7,0.7h-10.2c-0.4,0-0.7-0.3-0.7-0.7V51z"/>
	<path class="st6" d="M132.2,51c0-0.3,0.3-0.6,0.7-0.6h10.2c0.3,0,0.6,0.3,0.6,0.6v2.9c0,0.4-0.3,0.7-0.6,0.7h-4.9
		c-0.4,0-0.7,0.3-0.7,0.6c0,0.4,0.3,0.7,0.7,0.7h3.5c0.3,0,0.6,0.3,0.6,0.6v2.9c0,0.4-0.3,0.7-0.6,0.7h-3.5c-0.4,0-0.7,0.3-0.7,0.6
		v0.1c0,0.4,0.3,0.7,0.7,0.7h4.9c0.3,0,0.6,0.3,0.6,0.6v2.9c0,0.4-0.3,0.7-0.6,0.7h-10.2c-0.4,0-0.7-0.3-0.7-0.7V51z"/>
	<path class="st6" d="M51.1,69.9c0-0.5,0.4-1,1-1h6.2c0.5,0,0.8,0.3,0.9,0.8l0.5,2.5c0.1,0.3,0.3,0.4,0.5,0.4s0.5-0.1,0.5-0.4
		l0.4-2.4c0.1-0.5,0.5-0.8,0.9-0.8h6.4c0.5,0,1,0.4,1,1v13.4c0,0.5-0.4,1-1,1H65c-0.5,0-1-0.4-1-1v-6.9h-0.3l-1.2,6.9
		c-0.1,0.5-0.5,0.8-0.9,0.8h-2.8c-0.5,0-0.8-0.3-0.9-0.8l-1.2-6.9h-0.3v6.9c0,0.5-0.4,1-1,1h-3.4c-0.5,0-1-0.4-1-1V69.9z"/>
	<path class="st6" d="M76.2,79.4c0.3,0.6,0.8,0.9,1.6,0.9c0.8,0,1.3-0.3,1.6-0.8s0.4-1.5,0.4-2.8c0-1.3-0.1-2.2-0.4-2.8
		c-0.2-0.6-0.8-0.8-1.6-0.8c-0.8,0-1.3,0.3-1.6,0.8c-0.3,0.6-0.4,1.5-0.4,2.8S75.9,78.9,76.2,79.4 M77.8,84.6c-5.4,0-7.3-2.8-7.3-8
		c0-5.2,1.9-8,7.3-8c5.5,0,7.3,2.8,7.3,8C85.1,81.8,83.2,84.6,77.8,84.6"/>
	<path class="st6" d="M86.1,69.9c0-0.5,0.4-1,1-1h3.7c0.3,0,0.7,0.2,0.8,0.5l2.7,4.1c0.1,0.1,0.3,0.2,0.4,0.2c0.3,0,0.5-0.2,0.5-0.5
		v-3.3c0-0.5,0.4-1,1-1h3.4c0.5,0,1,0.4,1,1v13.4c0,0.5-0.4,1-1,1h-3.7c-0.4,0-0.7-0.2-0.8-0.5l-2.7-4.3c-0.1-0.2-0.2-0.2-0.4-0.2
		c-0.3,0-0.5,0.2-0.5,0.5v3.6c0,0.5-0.4,1-1,1h-3.4c-0.5,0-1-0.4-1-1V69.9z"/>
	<path class="st6" d="M110,74c-0.3-0.5-0.9-0.7-1.9-0.7c-0.5,0-0.9,0.4-0.9,0.9V79c0,0.5,0.4,0.9,0.9,0.9c2.2,0,2.3-1.4,2.3-3.3
		C110.5,75.3,110.3,74.4,110,74 M102.8,84.3c-0.5,0-0.9-0.4-0.9-0.9V69.9c0-0.5,0.4-0.9,0.9-0.9h5.6c5.3,0,7.5,2.3,7.5,7.5
		c0,5.1-1.9,7.9-7.2,7.9H102.8z"/>
	<path class="st6" d="M116.9,69.8c0-0.5,0.4-0.9,0.9-0.9h3.5c0.5,0,0.9,0.4,0.9,0.9v13.6c0,0.5-0.4,0.9-0.9,0.9h-3.5
		c-0.5,0-0.9-0.4-0.9-0.9V69.8z"/>
	<path class="st6" d="M129.9,73.1l-0.7,4.2c-0.1,0.6,0.4,1.1,1,1.1c0.6,0,1.1-0.5,1-1.1l-0.7-4.2H129.9z M126,69.7
		c0.1-0.4,0.5-0.8,0.9-0.8h6.5c0.5,0,0.8,0.3,1,0.8l3,13.4c0.1,0.6-0.3,1.2-0.9,1.2h-3.4c-0.4,0-0.8-0.3-0.9-0.7l-0.1-0.3
		c-0.1-0.4-0.5-0.7-0.9-0.7h-1.9c-0.5,0-0.9,0.3-1,0.8l0,0.2c-0.1,0.5-0.5,0.8-0.9,0.8H124c-0.6,0-1.1-0.6-0.9-1.2L126,69.7z"/>
	<path class="st6" d="M139.2,84.3c-0.5,0-1-0.4-1-1V69.9c0-0.5,0.4-1,1-1h3.4c0.5,0,1,0.4,1,1V79c0,0.5,0.4,1,1,1h3.1
		c0.5,0,1,0.4,1,1v2.4c0,0.5-0.4,1-1,1H139.2z"/>
	<path class="st6" d="M149.5,69.6c0-0.3,0.3-0.6,0.7-0.6h10.2c0.3,0,0.6,0.3,0.6,0.6v2.9c0,0.4-0.3,0.7-0.6,0.7h-4.9
		c-0.4,0-0.7,0.3-0.7,0.6c0,0.4,0.3,0.7,0.7,0.7h3.5c0.3,0,0.6,0.3,0.6,0.6V78c0,0.4-0.3,0.7-0.6,0.7h-3.5c-0.4,0-0.7,0.3-0.7,0.6
		v0.1c0,0.4,0.3,0.7,0.7,0.7h4.9c0.3,0,0.6,0.3,0.6,0.6v2.9c0,0.4-0.3,0.7-0.6,0.7h-10.2c-0.4,0-0.7-0.3-0.7-0.7V69.6z"/>
	<path class="st6" d="M59.3,92.6c-0.3-0.5-0.9-0.7-1.9-0.7c-0.5,0-0.9,0.4-0.9,0.9v4.8c0,0.5,0.4,0.9,0.9,0.9c2.2,0,2.3-1.4,2.3-3.3
		C59.7,93.9,59.6,93,59.3,92.6 M52.1,102.9c-0.5,0-0.9-0.4-0.9-0.9V88.5c0-0.5,0.4-0.9,0.9-0.9h5.6c5.3,0,7.5,2.3,7.5,7.5
		c0,5.1-1.9,7.9-7.2,7.9H52.1z"/>
	<path class="st6" d="M66.1,88.2c0-0.3,0.3-0.6,0.7-0.6H77c0.3,0,0.6,0.3,0.6,0.6v2.9c0,0.4-0.3,0.7-0.6,0.7h-4.9
		c-0.4,0-0.7,0.3-0.7,0.6c0,0.4,0.3,0.7,0.7,0.7h3.5c0.3,0,0.6,0.3,0.6,0.6v2.9c0,0.4-0.3,0.7-0.6,0.7h-3.5c-0.4,0-0.7,0.3-0.7,0.6
		V98c0,0.4,0.3,0.7,0.7,0.7H77c0.3,0,0.6,0.3,0.6,0.6v2.9c0,0.4-0.3,0.7-0.6,0.7H66.8c-0.4,0-0.7-0.3-0.7-0.7V88.2z"/>
	<path class="st6" d="M84.6,102.9c-0.5,0-1-0.4-1-1V88.5c0-0.5,0.4-1,1-1H88c0.5,0,1,0.4,1,1v9.1c0,0.5,0.4,1,1,1H93
		c0.5,0,1,0.4,1,1v2.4c0,0.5-0.4,1-1,1H84.6z"/>
	<path class="st6" d="M101.2,91.7l-0.7,4.2c-0.1,0.6,0.4,1.1,1,1.1c0.6,0,1.1-0.5,1-1.1l-0.7-4.2H101.2z M97.3,88.3
		c0.1-0.4,0.5-0.8,0.9-0.8h6.5c0.5,0,0.8,0.3,1,0.8l3,13.4c0.1,0.6-0.3,1.2-0.9,1.2h-3.4c-0.4,0-0.8-0.3-0.9-0.7l-0.1-0.3
		c-0.1-0.4-0.5-0.7-0.9-0.7h-2c-0.5,0-0.9,0.3-1,0.8l0,0.2c-0.1,0.5-0.5,0.8-0.9,0.8h-3.2c-0.6,0-1.1-0.6-0.9-1.2L97.3,88.3z"/>
	<path class="st6" d="M120.8,87.5c0.5,0,0.9,0.4,0.9,0.9v10.4c0,3.9-2.2,4.2-5.4,4.4H115c-0.6,0-1-0.4-1-1v-2.4c0-0.5,0.4-1,1-1h0.7
		c0.1,0,0.2,0,0.3-0.1c0.1-0.1,0.2-0.2,0.2-0.3c0-0.1,0.1-0.3,0.1-0.6c0-0.4,0.1-1.2,0.1-2.3v-7.1c0-0.5,0.4-0.9,0.9-0.9H120.8z"/>
	<path class="st6" d="M122.9,88.2c0-0.3,0.3-0.6,0.7-0.6h10.2c0.3,0,0.6,0.3,0.6,0.6v2.9c0,0.4-0.3,0.7-0.6,0.7h-4.9
		c-0.4,0-0.7,0.3-0.7,0.6c0,0.4,0.3,0.7,0.7,0.7h3.5c0.3,0,0.6,0.3,0.6,0.6v2.9c0,0.4-0.3,0.7-0.6,0.7h-3.5c-0.4,0-0.7,0.3-0.7,0.6
		V98c0,0.4,0.3,0.7,0.7,0.7h4.9c0.3,0,0.6,0.3,0.6,0.6v2.9c0,0.4-0.3,0.7-0.6,0.7h-10.2c-0.4,0-0.7-0.3-0.7-0.7V88.2z"/>
	<path class="st6" d="M139.7,87.5c0.6,0,1.1,0.5,1.1,1.1v9c0,1,0.6,1.2,1.4,1.2s1.4-0.2,1.4-1.2v-9c0-0.6,0.5-1.1,1.1-1.1h3.2
		c0.6,0,1.1,0.5,1.1,1.1v8.7c0,4.6-2.5,5.9-6.7,5.9c-4.3,0-6.8-1.2-6.8-5.8v-8.8c0-0.6,0.5-1.1,1.1-1.1H139.7z"/>
	<path class="st6" d="M150.2,88.5c0-0.5,0.4-1,1-1h3.7c0.3,0,0.7,0.2,0.8,0.5l2.7,4.1c0.1,0.1,0.3,0.2,0.4,0.2
		c0.3,0,0.5-0.2,0.5-0.5v-3.3c0-0.5,0.4-1,1-1h3.4c0.5,0,1,0.4,1,1v13.4c0,0.5-0.4,1-1,1H160c-0.4,0-0.7-0.2-0.8-0.5l-2.7-4.3
		c-0.1-0.2-0.2-0.2-0.4-0.2c-0.3,0-0.5,0.2-0.5,0.5v3.6c0,0.5-0.4,1-1,1h-3.4c-0.5,0-1-0.4-1-1V88.5z"/>
	<path class="st6" d="M166,88.2c0-0.3,0.3-0.6,0.7-0.6h10.2c0.3,0,0.6,0.3,0.6,0.6v2.9c0,0.4-0.3,0.7-0.6,0.7H172
		c-0.4,0-0.7,0.3-0.7,0.6c0,0.4,0.3,0.7,0.7,0.7h3.5c0.3,0,0.6,0.3,0.6,0.6v2.9c0,0.4-0.3,0.7-0.6,0.7H172c-0.4,0-0.7,0.3-0.7,0.6
		V98c0,0.4,0.3,0.7,0.7,0.7h4.9c0.3,0,0.6,0.3,0.6,0.6v2.9c0,0.4-0.3,0.7-0.6,0.7h-10.2c-0.4,0-0.7-0.3-0.7-0.7V88.2z"/>
	<path class="st6" d="M190.3,90.8c0,0.7-0.6,1.1-1.2,1.1c-1.6-0.2-2.7-0.2-3.5-0.2c-1,0-1.6,0-1.7,0.1c-0.2,0.1-0.2,0.2-0.2,0.3
		c0,0.2,0.1,0.3,0.3,0.4c0.2,0.1,0.8,0.3,1.7,0.5c1.7,0.4,4.4,0.9,5,2.9c0.2,0.5,0.3,1.3,0.3,2.2c0,4-2.3,5.3-6.1,5.3
		c-1.8,0-3.8-0.2-5.6-0.6c-0.5-0.1-0.9-0.6-0.8-1.1l0.1-2c0-0.6,0.5-1,1.1-1c1.9,0.3,3.5,0.4,4.7,0.4c0.8,0,1.2-0.2,1.2-0.5
		c0-0.2-0.1-0.3-0.3-0.3s-0.7-0.2-1.5-0.3c-2.1-0.3-3.6-0.9-4.4-1.6c-0.8-0.7-1.2-1.9-1.2-3.5c0-4.2,2.1-5.4,6.1-5.4
		c1.4,0,3.2,0.1,5.1,0.4h0c0.5,0.1,0.9,0.6,0.9,1.1L190.3,90.8z"/>
	<path class="st6" d="M203.6,90.8c0,0.7-0.6,1.1-1.2,1.1c-1.6-0.2-2.7-0.2-3.5-0.2c-1,0-1.6,0-1.7,0.1c-0.2,0.1-0.2,0.2-0.2,0.3
		c0,0.2,0.1,0.3,0.3,0.4c0.2,0.1,0.8,0.3,1.7,0.5c1.7,0.4,4.4,0.9,5,2.9c0.2,0.5,0.3,1.3,0.3,2.2c0,4-2.3,5.3-6.1,5.3
		c-1.8,0-3.8-0.2-5.6-0.6c-0.5-0.1-0.9-0.6-0.8-1.1l0.1-2c0-0.6,0.5-1,1.1-1c1.9,0.3,3.5,0.4,4.7,0.4c0.8,0,1.2-0.2,1.2-0.5
		c0-0.2-0.1-0.3-0.3-0.3s-0.7-0.2-1.5-0.3c-2.1-0.3-3.6-0.9-4.4-1.6c-0.8-0.7-1.2-1.9-1.2-3.5c0-4.2,2.1-5.4,6.1-5.4
		c1.4,0,3.2,0.1,5.1,0.4h0c0.5,0.1,0.9,0.6,0.9,1.1L203.6,90.8z"/>
	<path class="st6" d="M205.1,88.2c0-0.3,0.3-0.6,0.7-0.6H216c0.3,0,0.6,0.3,0.6,0.6v2.9c0,0.4-0.3,0.7-0.6,0.7h-4.9
		c-0.4,0-0.7,0.3-0.7,0.6c0,0.4,0.3,0.7,0.7,0.7h3.5c0.3,0,0.6,0.3,0.6,0.6v2.9c0,0.4-0.3,0.7-0.6,0.7h-3.5c-0.4,0-0.7,0.3-0.7,0.6
		V98c0,0.4,0.3,0.7,0.7,0.7h4.9c0.3,0,0.6,0.3,0.6,0.6v2.9c0,0.4-0.3,0.7-0.6,0.7h-10.2c-0.4,0-0.7-0.3-0.7-0.7V88.2z"/>
	<path class="st6" d="M51.8,120.3c-0.4,0-0.8-0.4-0.8-0.8v-10.9c0-0.4,0.4-0.8,0.8-0.8h2.8c0.4,0,0.8,0.4,0.8,0.8v7.4
		c0,0.4,0.4,0.8,0.8,0.8h2.5c0.4,0,0.8,0.4,0.8,0.8v2c0,0.4-0.4,0.8-0.8,0.8H51.8z"/>
	<path class="st6" d="M60.1,108.5c0-0.4,0.3-0.7,0.7-0.7h2.9c0.4,0,0.7,0.3,0.7,0.7v11c0,0.4-0.3,0.7-0.7,0.7h-2.9
		c-0.4,0-0.7-0.3-0.7-0.7V108.5z"/>
	<path class="st6" d="M75,110.4c0,0.6-0.5,0.9-1,0.9c-1.3-0.1-2.2-0.2-2.9-0.2c-0.8,0-1.3,0-1.4,0.1c-0.1,0.1-0.2,0.1-0.2,0.3
		c0,0.1,0.1,0.2,0.2,0.3c0.1,0.1,0.6,0.2,1.4,0.4c1.4,0.3,3.6,0.7,4.1,2.3c0.1,0.4,0.2,1,0.2,1.8c0,3.3-1.9,4.3-4.9,4.3
		c-1.5,0-3.1-0.1-4.5-0.5c-0.4-0.1-0.7-0.5-0.7-0.9l0.1-1.6c0-0.5,0.4-0.8,0.9-0.8c1.6,0.2,2.8,0.3,3.8,0.3c0.7,0,1-0.1,1-0.4
		c0-0.1-0.1-0.2-0.2-0.3c-0.1-0.1-0.6-0.1-1.2-0.2c-1.7-0.3-2.9-0.7-3.5-1.3c-0.6-0.6-0.9-1.5-0.9-2.8c0-3.4,1.7-4.4,4.9-4.4
		c1.2,0,2.6,0.1,4.1,0.4h0c0.4,0.1,0.7,0.5,0.7,0.9L75,110.4z"/>
	<path class="st6" d="M81,115.3c-0.2,0-0.4,0.2-0.4,0.4v1.3c0,0.2,0.2,0.4,0.4,0.4h0.6c0.4,0,0.7-0.1,0.9-0.2
		c0.1-0.1,0.2-0.4,0.2-0.8c0-0.8-0.3-1-1.1-1H81z M81,110.7c-0.2,0-0.4,0.2-0.4,0.4v1.2c0,0.2,0.2,0.4,0.4,0.4h0.6c0.7,0,1-0.3,1-1
		c0-0.7-0.3-1-1-1H81z M76.3,108.6c0-0.4,0.4-0.8,0.8-0.8h4.8c3,0,4.6,1,4.6,3.1c0,0.9-0.1,1.7-0.6,2.4c-0.3,0.3-0.2,0.8,0.1,1
		c0.8,0.6,0.8,1.5,0.8,2.4c0,2.4-1.6,3.5-4.8,3.5h-4.9c-0.4,0-0.8-0.4-0.8-0.8V108.6z"/>
	<path class="st6" d="M92,116.3c0.2,0.5,0.6,0.7,1.3,0.7c0.6,0,1.1-0.2,1.3-0.7c0.2-0.5,0.3-1.2,0.3-2.3c0-1.1-0.1-1.8-0.3-2.3
		c-0.2-0.4-0.6-0.7-1.3-0.7c-0.7,0-1.1,0.2-1.3,0.7c-0.2,0.5-0.3,1.2-0.3,2.3C91.7,115.1,91.8,115.8,92,116.3 M93.3,120.5
		c-4.4,0-6-2.3-6-6.5c0-4.2,1.5-6.5,5.9-6.5c4.4,0,5.9,2.2,5.9,6.5C99.2,118.2,97.6,120.5,93.3,120.5"/>
	<path class="st6" d="M100,108.6c0-0.4,0.4-0.8,0.8-0.8h3c0.3,0,0.5,0.1,0.7,0.4l2.2,3.3c0.1,0.1,0.2,0.2,0.3,0.2
		c0.2,0,0.4-0.1,0.4-0.4v-2.7c0-0.4,0.4-0.8,0.8-0.8h2.8c0.4,0,0.8,0.4,0.8,0.8v10.9c0,0.4-0.4,0.8-0.8,0.8h-3
		c-0.3,0-0.6-0.1-0.7-0.4l-2.2-3.5c-0.1-0.1-0.2-0.2-0.3-0.2c-0.2,0-0.4,0.1-0.4,0.4v2.9c0,0.4-0.4,0.8-0.8,0.8h-2.8
		c-0.4,0-0.8-0.4-0.8-0.8V108.6z"/>
	<path class="st6" d="M112.8,108.6c0-0.4,0.4-0.8,0.8-0.8h3c0.3,0,0.5,0.1,0.7,0.4l2.2,3.3c0.1,0.1,0.2,0.2,0.3,0.2
		c0.2,0,0.4-0.1,0.4-0.4v-2.7c0-0.4,0.4-0.8,0.8-0.8h2.8c0.4,0,0.8,0.4,0.8,0.8v10.9c0,0.4-0.4,0.8-0.8,0.8h-3
		c-0.3,0-0.6-0.1-0.7-0.4l-2.2-3.5c-0.1-0.1-0.2-0.2-0.3-0.2c-0.2,0-0.4,0.1-0.4,0.4v2.9c0,0.4-0.4,0.8-0.8,0.8h-2.8
		c-0.4,0-0.8-0.4-0.8-0.8V108.6z"/>
	<path class="st6" d="M125.6,108.3c0-0.3,0.2-0.5,0.5-0.5h8.3c0.3,0,0.5,0.2,0.5,0.5v2.4c0,0.3-0.2,0.5-0.5,0.5h-4
		c-0.3,0-0.5,0.2-0.5,0.5c0,0.3,0.2,0.5,0.5,0.5h2.8c0.3,0,0.5,0.2,0.5,0.5v2.3c0,0.3-0.2,0.5-0.5,0.5h-2.8c-0.3,0-0.5,0.2-0.5,0.5
		v0.1c0,0.3,0.2,0.5,0.5,0.5h4c0.3,0,0.5,0.2,0.5,0.5v2.4c0,0.3-0.2,0.5-0.5,0.5h-8.3c-0.3,0-0.5-0.2-0.5-0.5V108.3z"/>
	<path class="st6" d="M53.1,150.6c-0.5,0-1-0.5-1-1v-5.3c0-0.3,0.1-0.5,0.3-0.7l3.1-3c0.7-0.7,1.4-1.4,2.1-2l1.6-1.6
		c0.6-0.6,1.6-1.9,1.9-2.7c0-0.3,0.1-0.5,0.1-0.8c0-0.7-0.2-1.1-0.6-1.3c-0.4-0.2-1.1-0.3-2.1-0.3c-1.1,0-3.1,0.2-4.5,0.4
		c-0.8,0-1.6-0.4-1.6-1.3l-0.3-4.4c0-0.5,0.3-0.9,0.7-1c2.5-0.8,5.1-1.2,7.8-1.2c4.9,0,9.5,2.1,9.5,7.6c0,5-1.5,7.1-5.5,9.9
		c-0.8,0.5-0.4,1.8,0.6,1.8H69c0.5,0,1,0.5,1,1v5c0,0.5-0.5,1-1,1H53.1z"/>
	<path class="st6" d="M81.6,132.8c-0.2,0.8-0.3,2.4-0.3,5c0,2.5,0.1,4.2,0.3,4.9c0.2,0.7,0.5,1.1,1.1,1.1c0.5,0,0.9-0.4,1.1-1.1
		c0.2-0.7,0.2-2.1,0.2-4c0-2,0-3.3,0-4.1c0-0.7-0.1-1.4-0.2-1.8c-0.2-0.7-0.3-1.1-1.1-1.1C81.9,131.7,81.8,132.1,81.6,132.8
		 M74.7,127.5c1.5-2.1,4.2-3.1,8-3.1s6.4,1,7.9,3.1s2.2,5.5,2.2,10.2c0,7.7-1.4,13.4-10.2,13.4c-8.7,0-10.2-5.8-10.2-13.4
		C72.4,133,73.2,129.6,74.7,127.5"/>
	<path class="st6" d="M96.1,150.6c-0.5,0-1-0.5-1-1v-5.3c0-0.3,0.1-0.5,0.3-0.7l3.1-3c0.7-0.7,1.4-1.4,2.1-2l1.6-1.6
		c0.6-0.6,1.6-1.9,1.9-2.7c0-0.3,0.1-0.5,0.1-0.8c0-0.7-0.2-1.1-0.6-1.3c-0.4-0.2-1.1-0.3-2.1-0.3c-1.1,0-3.1,0.2-4.5,0.4
		c-0.8,0-1.6-0.4-1.6-1.3l-0.3-4.4c0-0.5,0.3-0.9,0.7-1c2.5-0.8,5.1-1.2,7.8-1.2c4.9,0,9.5,2.1,9.5,7.6c0,5-1.5,7.1-5.5,9.9
		c-0.8,0.5-0.4,1.8,0.6,1.8h3.8c0.5,0,1,0.5,1,1v5c0,0.5-0.5,1-1,1H96.1z"/>
	<path class="st6" d="M132,126c1.7,1.1,2.6,3,2.6,5.8c0,1.5-0.1,3.2-1.2,4.3c-0.5,0.6-0.4,1.5,0.1,2.1c0.4,0.4,0.7,0.8,0.9,1.2
		c0.4,0.7,0.6,1.8,0.6,3.1c0,7-4.1,8.6-10.4,8.6c-2.1,0-4.5-0.2-7-0.7c-0.7-0.2-1.2-0.8-1.2-1.6l0.2-3.9c0-0.9,0.7-1.5,1.6-1.5
		c2.3,0.2,3.9,0.3,4.9,0.3c1.3,0,2.1-0.1,2.5-0.2c0.4-0.2,0.6-0.5,0.6-0.9c0-0.5-0.2-0.8-0.4-1c-0.3-0.2-0.8-0.3-1.6-0.4H120
		c-0.9,0-1.6-0.7-1.6-1.6v-3.8c0-0.9,0.7-1.6,1.6-1.6h3.6c1.4,0,2.1-0.4,2.1-1.2c0-0.8-0.9-1.2-2.7-1.2c-0.9,0-4,0.2-5.5,0.3
		c-0.5,0-0.9-0.4-0.9-0.9l-0.1-4.5c0-0.8,0.5-1.4,1.2-1.6c2.4-0.5,4.4-0.8,5.9-0.8C127.5,124.4,130.3,124.9,132,126"/>
</g>
<line class="st7" x1="174" y1="551.3" x2="686.5" y2="271.2"/>
<g>
	<defs>
		<rect id="SVGID_7_" y="0" width="841.9" height="1190.6"/>
	</defs>
	<clipPath id="SVGID_8_">
		<use xlink:href="#SVGID_7_"  style="overflow:visible;"/>
	</clipPath>
	<circle class="st8" cx="164.2" cy="556.6" r="11.2"/>
	<polygon class="st9" points="697.3,265.3 671.1,258.7 688.7,290.9 	"/>
</g>
<g>
	<path class="st10" d="M706.6,177.9c-0.5,0-0.9-0.4-0.9-0.9v-12.3c0-0.5,0.4-0.9,0.9-0.9h3.1c0.5,0,0.9,0.4,0.9,0.9v8.3
		c0,0.5,0.4,0.9,0.9,0.9h2.8c0.5,0,0.9,0.4,0.9,0.9v2.2c0,0.5-0.4,0.9-0.9,0.9H706.6z"/>
	<path class="st10" d="M716,164.6c0-0.4,0.4-0.8,0.8-0.8h3.2c0.4,0,0.8,0.4,0.8,0.8V177c0,0.5-0.4,0.8-0.8,0.8h-3.2
		c-0.4,0-0.8-0.4-0.8-0.8V164.6z"/>
	<path class="st10" d="M732.9,166.8c0,0.6-0.5,1-1.1,1c-1.4-0.1-2.5-0.2-3.2-0.2c-0.9,0-1.4,0-1.6,0.1c-0.1,0.1-0.2,0.2-0.2,0.3
		s0.1,0.3,0.3,0.4s0.7,0.2,1.6,0.4c1.6,0.3,4.1,0.8,4.6,2.6c0.1,0.5,0.2,1.2,0.2,2c0,3.7-2.1,4.8-5.6,4.8c-1.7,0-3.5-0.2-5.1-0.6
		c-0.5-0.1-0.8-0.5-0.8-1l0.1-1.8c0-0.5,0.5-0.9,1-0.9c1.8,0.2,3.2,0.3,4.3,0.3c0.7,0,1.1-0.2,1.1-0.5c0-0.1-0.1-0.3-0.3-0.3
		s-0.6-0.1-1.4-0.3c-2-0.3-3.3-0.8-4-1.4c-0.7-0.7-1.1-1.7-1.1-3.2c0-3.9,1.9-4.9,5.6-4.9c1.3,0,2.9,0.1,4.7,0.4h0
		c0.5,0.1,0.8,0.5,0.8,1L732.9,166.8z"/>
	<path class="st10" d="M734.3,164.7c0-0.5,0.4-0.9,0.9-0.9h5.5c3.4,0,5.1,1.2,5.1,3.5c0,1-0.1,2-0.7,2.7c-0.3,0.3-0.2,0.9,0.1,1.2
		c0.9,0.6,0.9,1.7,0.9,2.7c0,2.7-1.8,4-5.4,4h-5.5c-0.5,0-0.9-0.4-0.9-0.9V164.7z M739.6,167c-0.3,0-0.4,0.2-0.4,0.4v1.4
		c0,0.3,0.2,0.4,0.4,0.4h0.7c0.8,0,1.1-0.3,1.1-1.2c0-0.8-0.4-1.1-1.2-1.1H739.6z M739.6,172.3c-0.3,0-0.4,0.2-0.4,0.4v1.4
		c0,0.2,0.2,0.4,0.4,0.4h0.7c0.5,0,0.8-0.1,1-0.3c0.2-0.1,0.3-0.5,0.3-0.9c0-0.9-0.4-1.2-1.2-1.2H739.6z"/>
	<path class="st10" d="M753.4,178.1c-5,0-6.7-2.6-6.7-7.3s1.7-7.3,6.7-7.3c5,0,6.7,2.5,6.7,7.3C760.1,175.5,758.4,178.1,753.4,178.1
		z M752,173.4c0.2,0.5,0.7,0.8,1.4,0.8c0.7,0,1.2-0.3,1.4-0.8s0.3-1.4,0.3-2.6c0-1.2-0.1-2.1-0.3-2.6c-0.2-0.5-0.7-0.8-1.4-0.8
		s-1.2,0.3-1.4,0.8c-0.2,0.5-0.4,1.4-0.4,2.6S751.7,172.9,752,173.4z"/>
	<path class="st10" d="M761.1,164.7c0-0.5,0.4-0.9,0.9-0.9h3.4c0.3,0,0.6,0.2,0.8,0.4l2.5,3.7c0.1,0.1,0.2,0.2,0.4,0.2
		c0.2,0,0.4-0.2,0.4-0.4v-3c0-0.5,0.4-0.9,0.9-0.9h3.1c0.5,0,0.9,0.4,0.9,0.9V177c0,0.5-0.4,0.9-0.9,0.9H770c-0.3,0-0.6-0.2-0.8-0.5
		l-2.5-4c-0.1-0.1-0.2-0.2-0.4-0.2c-0.2,0-0.4,0.2-0.4,0.4v3.3c0,0.5-0.4,0.9-0.9,0.9H762c-0.5,0-0.9-0.4-0.9-0.9V164.7z"/>
	<path class="st10" d="M775.5,164.7c0-0.5,0.4-0.9,0.9-0.9h3.4c0.3,0,0.6,0.2,0.8,0.4l2.5,3.7c0.1,0.1,0.2,0.2,0.4,0.2
		c0.2,0,0.4-0.2,0.4-0.4v-3c0-0.5,0.4-0.9,0.9-0.9h3.1c0.5,0,0.9,0.4,0.9,0.9V177c0,0.5-0.4,0.9-0.9,0.9h-3.4
		c-0.3,0-0.6-0.2-0.8-0.5l-2.5-4c-0.1-0.1-0.2-0.2-0.4-0.2c-0.2,0-0.4,0.2-0.4,0.4v3.3c0,0.5-0.4,0.9-0.9,0.9h-3.1
		c-0.5,0-0.9-0.4-0.9-0.9V164.7z"/>
	<path class="st10" d="M790,164.4c0-0.3,0.3-0.6,0.6-0.6h9.3c0.3,0,0.6,0.3,0.6,0.6v2.7c0,0.3-0.3,0.6-0.6,0.6h-4.5
		c-0.3,0-0.6,0.3-0.6,0.6c0,0.3,0.3,0.6,0.6,0.6h3.2c0.3,0,0.6,0.3,0.6,0.6v2.6c0,0.3-0.3,0.6-0.6,0.6h-3.2c-0.3,0-0.6,0.3-0.6,0.6
		v0.1c0,0.3,0.3,0.6,0.6,0.6h4.5c0.3,0,0.6,0.3,0.6,0.6v2.7c0,0.3-0.3,0.6-0.6,0.6h-9.3c-0.3,0-0.6-0.3-0.6-0.6V164.4z"/>
</g>
<g>
	<path class="st10" d="M756.1,198.9c-0.3,0-0.5-0.3-0.5-0.5v-2.8c0-0.1,0.1-0.3,0.2-0.4l1.7-1.6c0.4-0.4,0.8-0.7,1.1-1.1l0.9-0.9
		c0.3-0.3,0.9-1,1-1.5c0-0.1,0-0.3,0-0.4c0-0.4-0.1-0.6-0.3-0.7c-0.2-0.1-0.6-0.1-1.1-0.1c-0.6,0-1.7,0.1-2.4,0.2
		c-0.4,0-0.8-0.2-0.9-0.7l-0.1-2.4c0-0.3,0.1-0.5,0.4-0.5c1.3-0.4,2.7-0.7,4.2-0.7c2.6,0,5.1,1.1,5.1,4.1c0,2.7-0.8,3.8-3,5.3
		c-0.4,0.3-0.2,1,0.3,1h2c0.3,0,0.5,0.3,0.5,0.5v2.7c0,0.3-0.3,0.5-0.5,0.5H756.1z"/>
	<path class="st10" d="M767.7,186.4c0.8-1.1,2.2-1.7,4.3-1.7s3.4,0.5,4.2,1.7s1.2,3,1.2,5.5c0,4.1-0.7,7.2-5.5,7.2
		c-4.7,0-5.5-3.1-5.5-7.2C766.5,189.4,766.9,187.6,767.7,186.4z M771.4,189.3c-0.1,0.4-0.1,1.3-0.1,2.7s0,2.2,0.1,2.6
		c0.1,0.4,0.3,0.6,0.6,0.6s0.5-0.2,0.6-0.6c0.1-0.4,0.1-1.1,0.1-2.2s0-1.8,0-2.2c0-0.4-0.1-0.7-0.1-1c-0.1-0.4-0.2-0.6-0.6-0.6
		S771.5,188.9,771.4,189.3z"/>
	<path class="st10" d="M779.2,198.9c-0.3,0-0.5-0.3-0.5-0.5v-2.8c0-0.1,0.1-0.3,0.2-0.4l1.7-1.6c0.4-0.4,0.8-0.7,1.1-1.1l0.9-0.9
		c0.3-0.3,0.9-1,1-1.5c0-0.1,0-0.3,0-0.4c0-0.4-0.1-0.6-0.3-0.7c-0.2-0.1-0.6-0.1-1.1-0.1c-0.6,0-1.7,0.1-2.4,0.2
		c-0.4,0-0.8-0.2-0.9-0.7l-0.1-2.4c0-0.3,0.1-0.5,0.4-0.5c1.3-0.4,2.7-0.7,4.2-0.7c2.6,0,5.1,1.1,5.1,4.1c0,2.7-0.8,3.8-3,5.3
		c-0.4,0.3-0.2,1,0.3,1h2c0.3,0,0.5,0.3,0.5,0.5v2.7c0,0.3-0.3,0.5-0.5,0.5H779.2z"/>
	<path class="st10" d="M798.5,185.6c0.9,0.6,1.4,1.6,1.4,3.1c0,0.8-0.1,1.7-0.7,2.3c-0.3,0.3-0.2,0.8,0.1,1.1
		c0.2,0.2,0.4,0.4,0.5,0.6c0.2,0.4,0.3,0.9,0.3,1.7c0,3.8-2.2,4.6-5.6,4.6c-1.2,0-2.4-0.1-3.8-0.4c-0.4-0.1-0.7-0.4-0.7-0.9l0.1-2.1
		c0-0.5,0.4-0.8,0.8-0.8c1.2,0.1,2.1,0.1,2.6,0.1c0.7,0,1.1,0,1.4-0.1c0.2-0.1,0.3-0.3,0.3-0.5c0-0.3-0.1-0.4-0.2-0.5
		c-0.1-0.1-0.4-0.2-0.9-0.2h-2.1c-0.5,0-0.8-0.4-0.8-0.8v-2c0-0.5,0.4-0.8,0.8-0.8h1.9c0.8,0,1.1-0.2,1.1-0.6c0-0.4-0.5-0.7-1.4-0.7
		c-0.5,0-2.1,0.1-3,0.2c-0.3,0-0.5-0.2-0.5-0.5l-0.1-2.4c0-0.4,0.3-0.8,0.7-0.9c1.3-0.3,2.4-0.4,3.2-0.4
		C796.1,184.7,797.6,185,798.5,185.6z"/>
</g>
<path class="st10" d="M576.6,236.6c0.1-0.4,0.4-0.7,0.9-0.7h5.9c0.4,0,0.8,0.3,0.9,0.7l2.8,12.3c0.1,0.6-0.3,1.1-0.9,1.1h-3.1
	c-0.4,0-0.8-0.3-0.9-0.7l-0.1-0.3c-0.1-0.4-0.5-0.7-0.9-0.7h-1.8c-0.4,0-0.8,0.3-0.9,0.7l0,0.2c-0.1,0.4-0.4,0.7-0.9,0.7h-3
	c-0.6,0-1-0.5-0.9-1.1L576.6,236.6z M580.2,239.7l-0.6,3.9c-0.1,0.5,0.3,1,0.9,1s1-0.5,0.9-1l-0.6-3.9H580.2z M592.7,247v2.3
	c0,0.4-0.3,0.7-0.7,0.7h-3.5c-0.4,0-0.7-0.3-0.7-0.7v-12.7c0-0.4,0.3-0.7,0.7-0.7h5.2c3.9,0,6.1,0.9,6.1,5.1c0,1.8-0.4,3.1-1.3,3.9
	c-0.2,0.1-0.2,0.4-0.2,0.6l1,3.5c0.1,0.4-0.2,0.8-0.6,0.8h-3.5c-0.3,0-0.6-0.2-0.6-0.5l-0.6-2.6c-0.1-0.3-0.3-0.5-0.6-0.5
	C592.9,246.4,592.7,246.7,592.7,247z M593.8,242.5c0.7,0,1-0.5,1-1.4c0-0.9-0.4-1.4-1.2-1.4h-0.4c-0.4,0-0.7,0.3-0.7,0.7v1.4
	c0,0.4,0.3,0.7,0.7,0.7H593.8z M605.6,247v2.3c0,0.4-0.3,0.7-0.7,0.7h-3.5c-0.4,0-0.7-0.3-0.7-0.7v-12.7c0-0.4,0.3-0.7,0.7-0.7h5.2
	c3.9,0,6.1,0.9,6.1,5.1c0,1.8-0.4,3.1-1.3,3.9c-0.2,0.1-0.2,0.4-0.2,0.6l1,3.5c0.1,0.4-0.2,0.8-0.6,0.8h-3.5c-0.3,0-0.6-0.2-0.6-0.5
	l-0.6-2.6c-0.1-0.3-0.3-0.5-0.6-0.5C605.9,246.4,605.6,246.7,605.6,247z M606.8,242.5c0.7,0,1-0.5,1-1.4c0-0.9-0.4-1.4-1.2-1.4h-0.4
	c-0.4,0-0.7,0.3-0.7,0.7v1.4c0,0.4,0.3,0.7,0.7,0.7H606.8z M613.7,236.7c0-0.4,0.4-0.8,0.8-0.8h3.2c0.4,0,0.8,0.4,0.8,0.8v12.4
	c0,0.5-0.4,0.8-0.8,0.8h-3.2c-0.4,0-0.8-0.4-0.8-0.8V236.7z M629.2,249.2c-0.1,0.5-0.5,0.8-1,0.8h-5.5c-0.5,0-0.9-0.3-1-0.8
	l-2.5-12.1c-0.1-0.6,0.4-1.2,1-1.2h3.1c0.5,0,0.9,0.4,1,0.9l1,8.3h0.4l0.9-8.3c0.1-0.5,0.5-0.9,1-0.9h3.1c0.6,0,1.1,0.6,1,1.2
	L629.2,249.2z M632.4,236.5c0-0.3,0.3-0.6,0.6-0.6h9.3c0.3,0,0.6,0.3,0.6,0.6v2.7c0,0.3-0.3,0.6-0.6,0.6h-4.5
	c-0.3,0-0.6,0.3-0.6,0.6c0,0.3,0.3,0.6,0.6,0.6h3.2c0.3,0,0.6,0.3,0.6,0.6v2.6c0,0.3-0.3,0.6-0.6,0.6h-3.2c-0.3,0-0.6,0.3-0.6,0.6
	v0.1c0,0.3,0.3,0.6,0.6,0.6h4.5c0.3,0,0.6,0.3,0.6,0.6v2.7c0,0.3-0.3,0.6-0.6,0.6H633c-0.3,0-0.6-0.3-0.6-0.6V236.5z M639.8,232.2
	c0.4,0,0.6,0.5,0.4,0.8l-1.5,1.9c-0.1,0.1-0.2,0.2-0.4,0.2h-2.8c-0.3,0-0.5-0.3-0.4-0.6l0.6-1.9c0.1-0.2,0.3-0.3,0.4-0.3H639.8z
	 M643.9,236.5c0-0.3,0.3-0.6,0.6-0.6h9.3c0.3,0,0.6,0.3,0.6,0.6v2.7c0,0.3-0.3,0.6-0.6,0.6h-4.5c-0.3,0-0.6,0.3-0.6,0.6
	c0,0.3,0.3,0.6,0.6,0.6h3.2c0.3,0,0.6,0.3,0.6,0.6v2.6c0,0.3-0.3,0.6-0.6,0.6h-3.2c-0.3,0-0.6,0.3-0.6,0.6v0.1
	c0,0.3,0.3,0.6,0.6,0.6h4.5c0.3,0,0.6,0.3,0.6,0.6v2.7c0,0.3-0.3,0.6-0.6,0.6h-9.3c-0.3,0-0.6-0.3-0.6-0.6V236.5z"/>
<g>
	<path class="st10" d="M606.8,271c-0.5,0-0.9-0.4-0.9-0.9v-12.3c0-0.5,0.4-0.9,0.9-0.9h5.1c4.8,0,6.8,2.1,6.8,6.9
		c0,4.6-1.8,7.2-6.6,7.2H606.8z M613.4,261.5c-0.3-0.4-0.8-0.6-1.7-0.6c-0.5,0-0.9,0.4-0.9,0.9v4.4c0,0.5,0.4,0.9,0.9,0.9
		c2,0,2.1-1.3,2.1-3C613.8,262.8,613.7,261.9,613.4,261.5z"/>
	<path class="st10" d="M621.9,257.6c0.1-0.4,0.4-0.7,0.9-0.7h5.9c0.4,0,0.8,0.3,0.9,0.7l2.8,12.3c0.1,0.6-0.3,1.1-0.9,1.1h-3.1
		c-0.4,0-0.8-0.3-0.9-0.7l-0.1-0.3c-0.1-0.4-0.5-0.7-0.9-0.7h-1.8c-0.4,0-0.8,0.3-0.9,0.7l0,0.2c-0.1,0.4-0.4,0.7-0.9,0.7h-3
		c-0.6,0-1-0.5-0.9-1.1L621.9,257.6z M625.5,260.7l-0.6,3.9c-0.1,0.5,0.3,1,0.9,1c0.5,0,1-0.5,0.9-1l-0.6-3.9H625.5z"/>
	<path class="st10" d="M632.6,257.9c0-0.6,0.4-1,1-1h8.5c0.5,0,1,0.4,1,1v2c0,0.5-0.4,1-1,1h-0.8c-0.5,0-1,0.4-1,1v8.1
		c0,0.5-0.4,1-1,1h-2.9c-0.5,0-1-0.4-1-1v-8.1c0-0.6-0.4-1-1-1h-0.9c-0.6,0-1-0.4-1-1V257.9z"/>
	<path class="st10" d="M643.9,257.5c0-0.3,0.3-0.6,0.6-0.6h9.3c0.3,0,0.6,0.3,0.6,0.6v2.7c0,0.3-0.3,0.6-0.6,0.6h-4.5
		c-0.3,0-0.6,0.3-0.6,0.6c0,0.3,0.3,0.6,0.6,0.6h3.2c0.3,0,0.6,0.3,0.6,0.6v2.6c0,0.3-0.3,0.6-0.6,0.6h-3.2c-0.3,0-0.6,0.3-0.6,0.6
		v0.1c0,0.3,0.3,0.6,0.6,0.6h4.5c0.3,0,0.6,0.3,0.6,0.6v2.7c0,0.3-0.3,0.6-0.6,0.6h-9.3c-0.3,0-0.6-0.3-0.6-0.6V257.5z"/>
</g>
<path class="st10" d="M98.7,490.8c-0.5,0-0.9-0.4-0.9-0.9v-12.3c0-0.5,0.4-0.9,0.9-0.9h5.1c4.8,0,6.8,2.1,6.8,6.9
	c0,4.6-1.8,7.2-6.6,7.2H98.7z M105.3,481.3c-0.3-0.4-0.8-0.6-1.7-0.6c-0.5,0-0.9,0.4-0.9,0.9v4.4c0,0.5,0.4,0.9,0.9,0.9
	c2,0,2.1-1.3,2.1-3C105.7,482.6,105.6,481.7,105.3,481.3z M111.6,477.3c0-0.3,0.3-0.6,0.6-0.6h9.3c0.3,0,0.6,0.3,0.6,0.6v2.7
	c0,0.3-0.3,0.6-0.6,0.6H117c-0.3,0-0.6,0.3-0.6,0.6c0,0.3,0.3,0.6,0.6,0.6h3.2c0.3,0,0.6,0.3,0.6,0.6v2.6c0,0.3-0.3,0.6-0.6,0.6H117
	c-0.3,0-0.6,0.3-0.6,0.6v0.1c0,0.3,0.3,0.6,0.6,0.6h4.5c0.3,0,0.6,0.3,0.6,0.6v2.7c0,0.3-0.3,0.6-0.6,0.6h-9.3
	c-0.3,0-0.6-0.3-0.6-0.6V477.3z M119,473c0.4,0,0.6,0.5,0.4,0.8l-1.5,1.9c-0.1,0.1-0.2,0.2-0.4,0.2h-2.8c-0.3,0-0.5-0.3-0.4-0.6
	l0.6-1.9c0.1-0.2,0.3-0.3,0.4-0.3H119z M128,488.5v1.7c0,0.4-0.3,0.7-0.7,0.7h-3.6c-0.4,0-0.7-0.3-0.7-0.7v-12.8
	c0-0.4,0.3-0.7,0.7-0.7h4.9c4.1,0,6.4,1,6.4,5.5c0,4.4-2.2,5.6-6.4,5.6C128.3,487.8,128,488.1,128,488.5z M128,484h0.4
	c1.2,0,1.7-0.5,1.7-1.8c0-1.3-0.4-1.6-1.7-1.6H128V484z M138.2,477.4c0.1-0.4,0.4-0.7,0.9-0.7h5.9c0.4,0,0.8,0.3,0.9,0.7l2.8,12.3
	c0.1,0.6-0.3,1.1-0.9,1.1h-3.1c-0.4,0-0.8-0.3-0.9-0.7l-0.1-0.3c-0.1-0.4-0.5-0.7-0.9-0.7h-1.8c-0.4,0-0.8,0.3-0.9,0.7l0,0.2
	c-0.1,0.4-0.4,0.7-0.9,0.7h-3c-0.6,0-1-0.5-0.9-1.1L138.2,477.4z M141.8,480.6l-0.6,3.9c-0.1,0.5,0.3,1,0.9,1s1-0.5,0.9-1l-0.6-3.9
	H141.8z M154.3,487.8v2.3c0,0.4-0.3,0.7-0.7,0.7h-3.5c-0.4,0-0.7-0.3-0.7-0.7v-12.7c0-0.4,0.3-0.7,0.7-0.7h5.2
	c3.9,0,6.1,0.9,6.1,5.1c0,1.8-0.4,3.1-1.3,3.9c-0.2,0.1-0.2,0.4-0.2,0.6l1,3.5c0.1,0.4-0.2,0.8-0.6,0.8h-3.5c-0.3,0-0.6-0.2-0.6-0.5
	l-0.6-2.6c-0.1-0.3-0.3-0.5-0.6-0.5C154.6,487.2,154.3,487.5,154.3,487.8z M155.4,483.3c0.7,0,1-0.5,1-1.4c0-0.9-0.4-1.4-1.2-1.4
	h-0.4c-0.4,0-0.7,0.3-0.7,0.7v1.4c0,0.4,0.3,0.7,0.7,0.7H155.4z M161.9,477.7c0-0.6,0.4-1,1-1h8.5c0.5,0,1,0.4,1,1v2
	c0,0.5-0.4,1-1,1h-0.8c-0.5,0-1,0.4-1,1v8.1c0,0.5-0.4,1-1,1h-2.9c-0.5,0-1-0.4-1-1v-8.1c0-0.6-0.4-1-1-1h-0.9c-0.6,0-1-0.4-1-1
	V477.7z"/>
<g>
	<path class="st10" d="M98.7,511.8c-0.5,0-0.9-0.4-0.9-0.9v-12.3c0-0.5,0.4-0.9,0.9-0.9h5.1c4.8,0,6.8,2.1,6.8,6.9
		c0,4.6-1.8,7.2-6.6,7.2H98.7z M105.3,502.3c-0.3-0.4-0.8-0.6-1.7-0.6c-0.5,0-0.9,0.4-0.9,0.9v4.4c0,0.5,0.4,0.9,0.9,0.9
		c2,0,2.1-1.3,2.1-3C105.7,503.6,105.6,502.7,105.3,502.3z"/>
	<path class="st10" d="M113.8,498.4c0.1-0.4,0.4-0.7,0.9-0.7h5.9c0.4,0,0.8,0.3,0.9,0.7l2.8,12.3c0.1,0.6-0.3,1.1-0.9,1.1h-3.1
		c-0.4,0-0.8-0.3-0.9-0.7l-0.1-0.3c-0.1-0.4-0.5-0.7-0.9-0.7h-1.8c-0.4,0-0.8,0.3-0.9,0.7l0,0.2c-0.1,0.4-0.4,0.7-0.9,0.7h-3
		c-0.6,0-1-0.5-0.9-1.1L113.8,498.4z M117.4,501.6l-0.6,3.9c-0.1,0.5,0.3,1,0.9,1s1-0.5,0.9-1l-0.6-3.9H117.4z"/>
	<path class="st10" d="M124.5,498.7c0-0.6,0.4-1,1-1h8.5c0.5,0,1,0.4,1,1v2c0,0.5-0.4,1-1,1h-0.8c-0.5,0-1,0.4-1,1v8.1
		c0,0.5-0.4,1-1,1h-2.9c-0.5,0-1-0.4-1-1v-8.1c0-0.6-0.4-1-1-1h-0.9c-0.6,0-1-0.4-1-1V498.7z"/>
	<path class="st10" d="M135.8,498.3c0-0.3,0.3-0.6,0.6-0.6h9.3c0.3,0,0.6,0.3,0.6,0.6v2.7c0,0.3-0.3,0.6-0.6,0.6h-4.5
		c-0.3,0-0.6,0.3-0.6,0.6c0,0.3,0.3,0.6,0.6,0.6h3.2c0.3,0,0.6,0.3,0.6,0.6v2.6c0,0.3-0.3,0.6-0.6,0.6h-3.2c-0.3,0-0.6,0.3-0.6,0.6
		v0.1c0,0.3,0.3,0.6,0.6,0.6h4.5c0.3,0,0.6,0.3,0.6,0.6v2.7c0,0.3-0.3,0.6-0.6,0.6h-9.3c-0.3,0-0.6-0.3-0.6-0.6V498.3z"/>
</g>
<g>
	<defs>
		<rect id="SVGID_9_" y="0" width="841.9" height="1190.6"/>
	</defs>
	<clipPath id="SVGID_10_">
		<use xlink:href="#SVGID_9_"  style="overflow:visible;"/>
	</clipPath>
	<path class="st11" d="M57.1,1072.4c-7.8,0-14.2,6.3-14.2,14.2v47.8c0,7.8,6.3,14.2,14.2,14.2h47.8c7.8,0,14.2-6.3,14.2-14.2v-47.8
		c0-7.8-6.3-14.2-14.2-14.2H57.1z"/>
	<path class="st12" d="M95.7,1130.9v1.9c0.7,0,1.3,0,1.8,0v-1.9H95.7z M89.6,1123.2v1.9c-0.6,0.1-1.3-0.1-1.8,0.1v1.8h1.8
		c0.7-0.5,0.1-1.3,0.5-1.9h1.8v-1.9H89.6z M93.7,1128.9h5.7c0-1.9,0-3.7,0-5.5c0,0,0-0.1,0-0.1c0,0-0.1-0.1,0,0h-5.7V1128.9z
		 M101.4,1115.2v7.9c0.6,0.1,1.2,0,1.9,0v-1.9h1.9v-1.9h1.9v1.5c0.1,0.1,0.2,0.2,0.3,0.3h1.8v3.6c-0.2,0.2-0.4,0.3-0.7,0.3
		c-1.1,0-2.2,0-3.3,0v1.9c-0.7,0-1.3,0-1.9,0c-0.6,0-1.3,0-2,0c0,1.3,0,2.6,0,3.9c-0.6,0-1.2,0-1.9,0v1.9h1.8c0-0.6,0-1.3,0-1.9
		c0.6,0,1.2,0,1.9,0v-1.9h4.1v-1.9h1.9v3.8c-0.6,0-1.3,0-1.9,0c-0.7,0-1.4,0-2.1,0v1.9h1.8v3.8h-1.9v-1.8h-1.9v1.9h-1.6
		c-0.2,0.2-0.3,0.3-0.4,0.4v1.7c0,0-0.1,0.1-0.1,0.1c0,0-0.1,0-0.1,0c-2.5,0-5,0-7.5,0v-1.9h1.5c0.2-0.2,0.3-0.3,0.4-0.4v-1.8h-1.9
		v-1.9c-0.6-0.1-1.2,0-1.9,0c-0.6,0-1.2,0-1.8,0c-0.4,0.4-0.4,0.4-0.4,1.9h-1.9v-3.8h4v-1.9h-6v-1.9h-1.9c0,0.6,0,1.2,0,1.8
		c0,0.6,0,1.3,0,1.9h1.9c0.1,0.7,0,1.3,0,2H82v-1.9c-0.7-0.1-1.3,0.1-1.9-0.1c0-0.6,0-1.2,0-1.9c0.6,0,1.2,0,1.9,0v-1.9h-1.8
		c0,0.6,0,1.3,0,1.9c-0.6,0-1.3,0-1.9,0c0-0.7,0-1.3,0-2c0-0.6,0-1.2,0-1.9h-3.8v-1.9h9.6v1.9c0.7,0,1.3,0,1.9,0v-1.9h2v-1.9h1.8
		c0.1-0.1,0.2-0.2,0.4-0.4v-1.5h1.5c0.2-0.2,0.3-0.3,0.4-0.4v-1.8c0.6,0,1.3,0,1.9,0c0,1.3,0,2.7,0,4h5.7v-2.1h-1.9v-1.9
		c-1.3,0-2.6,0-3.8,0c0-0.6,0-1.3,0-2h3.9v-1.9h1.9v1.9H101.4z"/>
	<path class="st12" d="M56.7,1117.2h-1.8c-0.1,0.1-0.2,0.2-0.4,0.4v5.6H53l-0.3-0.3v-7.3c0.1-0.1,0.2-0.2,0.4-0.3h1.7v-1.9h3.8v-1.9
		h-1.8c-0.2-0.6,0-1.3-0.1-1.9h-1.8v-5.8H53c-0.2-0.2-0.3-0.3-0.4-0.4v-5.3c0.1-0.1,0.2-0.2,0.4-0.3h1.5v1.8
		c0.7,0.4,1.5-0.2,2.2,0.5v3.8h1.9v1.9h1.9v3.8h1.9v7.7h-1.9v-1.9c-0.7,0-1.3,0-1.9,0c-0.6,0-1.3,0-2,0V1117.2z"/>
	<path class="st12" d="M55,1084c-0.5,0.2-0.5,0.5-0.5,0.8c0,2.3,0,4.6,0,6.8v2.1h9.8v-9.8H55z M52.7,1082.4c0.1-0.1,0.2-0.2,0.3-0.3
		h13.3v13.6c-1,0.2-10.1,0.2-13.6,0.1V1082.4z"/>
	<path class="st12" d="M107.4,1093.8c0-3.1,0-6.2,0-9.2c0-0.3-0.2-0.4-0.3-0.6h-9.5v9.8H107.4z M95.7,1082.1H109
		c0.3,0.2,0.4,0.4,0.4,0.7c0,1,0,2,0,3v9.9H95.7V1082.1z"/>
	<path class="st12" d="M64.4,1136.8v-9.8c-3.4-0.1-8.8-0.1-9.8,0.1v9.4c0.1,0.1,0.2,0.2,0.3,0.3H64.4z M53,1138.7
		c-0.1-0.1-0.2-0.2-0.3-0.3v-13.3h13.6c0.2,1,0.2,9.7,0.1,13.6H53z"/>
	<path class="st12" d="M66.3,1121.2v-1.9c0.6-0.1,1.2,0,1.9,0c0.6,0,1.3,0,1.9,0v-1.8l0.4-0.4h1.6v3.7c0.1,0.1,0.2,0.2,0.4,0.4h1.8
		v1.9h-2.1v1.5c0.1,0.1,0.2,0.3,0.3,0.4h1.8v1.9c-0.8,0.1-1.5,0-2.1,0.1v3.8c2,0,4,0,6,0v1.9h-3.8v1.9h-6c0,0,0,0,0,0
		c0,0,0-0.1,0-0.1c0-2.5,0-4.9,0-7.5h1.9v-1.9h-1.8c-0.1-0.6,0-1.3-0.1-1.9h1.9c0.1-0.7,0-1.3,0-2H66.3z"/>
	<path class="st12" d="M74.3,1109.5v-1.8c0.6-0.2,1.2,0,1.9-0.1v-1.9h1.9v1.9h5.8v1.9h1.9v1.9c-0.7,0.1-1.3-0.1-1.9,0.1v3.8
		c0.7,0,1.3,0,1.9,0v-1.9c0.7,0,1.3,0,1.8,0v3.8h-5.8v-1.8c-0.6-0.1-1.3,0.1-1.9-0.1c0-0.6,0-1.2,0-1.9c0.6,0,1.2,0,1.9,0v-1.9h-1.8
		c0,0.6,0,1.3,0,1.9c-0.6,0-1.3,0-1.9,0c-0.1,0.7,0.1,1.3-0.1,1.9h-1.8v-1.8c-0.6-0.2-1.2,0-1.9-0.1v-1.9h1.9c0-0.7,0-1.3,0-1.9
		H74.3z"/>
	<path class="st12" d="M85.8,1099.7v-1.9h1.9v-3.8h1.9v1.8h2.2v-7.6h-1.9v-1.9h1.5c0.1-0.2,0.2-0.3,0.4-0.4v-1.5
		c-0.1-0.1-0.2-0.2-0.3-0.3h-3.7v-1.6c0.1-0.1,0.2-0.2,0.3-0.3h5.3c0.1,0.1,0.2,0.2,0.3,0.3v15.3h-1.9v3.8h-1.9v-1.5
		c-0.1-0.1-0.2-0.2-0.3-0.3H85.8z"/>
	<path class="st12" d="M101.4,1107.6v1.9h-7.6v1.9h1.8v1.9h-3.8v3.8h-1.9c0-1.9,0-3.7,0-5.6c0,0,0-0.1,0-0.1c0,0,0.1-0.1,0.1-0.1
		h1.7v-1.9h-6v-1.9h-1.9v-3.8h1.9v1.8c0.6,0.2,1.2,0,1.9,0.1v1.7c0.1,0.1,0.1,0.1,0.1,0.1c0,0,0.1,0,0.1,0
		C92.4,1107.6,96.9,1107.6,101.4,1107.6"/>
	<path class="st12" d="M83.9,1090v1.9h1.9v3.9h-1.9v-1.9c-0.7,0-1.3,0-1.9,0v1.9H80v-1.9h-1.9v-1.9c-0.6-0.2-1.2,0-1.9-0.1v-1.9
		h-1.9v-1.9h-1.9v-1.9h1.5c0.2-0.2,0.3-0.3,0.4-0.4v-1.5h1.9c0.1,0.6,0,1.2,0,1.8c0,0.6,0,1.3,0,1.9h1.9v2H83.9z"/>
	<path class="st12" d="M99.5,1103.7h-1.9v1.9h-1.9v-3.6c-0.6-0.7-1.3-0.2-1.9-0.5v-1.9h1.8v-1.9c1.6-0.1,3.2,0,4.8,0
		c1.6,0,3.2,0,4.8,0v1.9h-3.8v1.8c-0.6,0.2-1.3,0-1.9,0.1V1103.7z"/>
	<path class="st12" d="M74.3,1095.8h1.9v1.9h1.9v6c-0.7,0-1.3,0-1.9,0c0-0.6,0-1.2,0-1.8c-0.1-0.1-0.2-0.2-0.3-0.3h-1.6v2.1
		c0.6,0,1.3,0,1.9,0c0,0.7,0,1.3,0,1.9h-3.8v-6h1.9V1095.8z"/>
	<path class="st12" d="M58.7,1103.7v-1.8c0.5-0.2,1.1,0,1.7-0.1c0.5-0.6,0.1-1.3,0.3-2.1h-3.8v-1.9h9.5v1.8h-3.8v6h-1.9v-1.9H58.7z"
		/>
	<path class="st12" d="M70.2,1090v5.8h1.9c0.1,0.7,0,1.3,0,1.9h-3.8c0,0,0,0,0,0c0,0,0-0.1,0-0.1c0-3.7,0-7.5,0-11.3h1.9v1.8h1.9
		c0.1,0.7,0,1.3,0,1.9H70.2z"/>
</g>
<polygon class="st0" points="66.3,1105.6 66.3,1103.8 64.5,1103.8 64.5,1101.8 70.2,1101.8 70.2,1105.6 72.1,1105.6 72.1,1107.5 
	70.2,1107.5 70.2,1109.5 68.3,1109.5 68.3,1105.6 "/>
<g>
	<defs>
		<rect id="SVGID_11_" y="0" width="841.9" height="1190.6"/>
	</defs>
	<clipPath id="SVGID_12_">
		<use xlink:href="#SVGID_11_"  style="overflow:visible;"/>
	</clipPath>
	<path class="st13" d="M74.3,1121.2c-0.1-1.3,0.2-2.7-0.2-4.1h-1.7v-1.9h3.8v1.9h1.9v1.9h-1.9v1.8c-0.2,0.2-0.3,0.3-0.4,0.4H74.3z"
		/>
	<path class="st13" d="M85.8,1099.6v1.9c-0.6,0-1.2,0-1.9,0c-0.6,0-1.3,0-1.9,0v-1.8c-0.6-0.2-1.3,0-2-0.1v-1.9H82v-1.9h1.9v3.8
		H85.8z"/>
</g>
<polygon class="st0" points="66.3,1117.2 66.3,1115.3 64.5,1115.3 64.5,1113.3 68.2,1113.3 68.2,1115.2 70.2,1115.2 70.2,1117.2 "/>
<polygon class="st0" points="105.3,1113.3 105.3,1119.1 103.4,1119.1 103.4,1115.2 101.4,1115.2 101.4,1113.3 "/>
<g>
	<defs>
		<rect id="SVGID_13_" y="0" width="841.9" height="1190.6"/>
	</defs>
	<clipPath id="SVGID_14_">
		<use xlink:href="#SVGID_13_"  style="overflow:visible;"/>
	</clipPath>
	<path class="st14" d="M101.4,1107.6v-1.8c-0.6-0.2-1.2,0-1.9-0.1v-1.9h3.8c0.2,0.6,0,1.2,0.1,1.9h1.9v1.9H101.4z"/>
	<path class="st14" d="M72.1,1086.2h-1.6c-0.1-0.1-0.2-0.2-0.3-0.3v-3.4c0.1-0.1,0.2-0.2,0.3-0.3H74c0.1,0.1,0.2,0.2,0.3,0.3v1.6
		h-1.8c-0.1,0.1-0.2,0.2-0.3,0.3V1086.2z"/>
	<path class="st14" d="M66.3,1121.3v1.8c0,0,0,0.1-0.1,0.1c0,0-0.1,0-0.1,0c-1.8,0-3.7,0-5.5,0v-1.9H66.3z"/>
</g>
<polygon class="st0" points="82,1132.8 82,1136.6 80.1,1136.6 80.1,1134.7 78.1,1134.7 78.1,1132.8 "/>
<g>
	<defs>
		<rect id="SVGID_15_" y="0" width="841.9" height="1190.6"/>
	</defs>
	<clipPath id="SVGID_16_">
		<use xlink:href="#SVGID_15_"  style="overflow:visible;"/>
	</clipPath>
	<path class="st15" d="M64.4,1109.5h-1.9v-3.8h3.8v1.9c-0.7,0.1-1.3-0.1-1.9,0.1V1109.5z"/>
</g>
<rect x="83.9" y="1134.7" class="st0" width="1.8" height="4"/>
<g>
	<defs>
		<rect id="SVGID_17_" y="0" width="841.9" height="1190.6"/>
	</defs>
	<clipPath id="SVGID_18_">
		<use xlink:href="#SVGID_17_"  style="overflow:visible;"/>
	</clipPath>
	<path class="st16" d="M56.8,1117.2h1.5c0.1,0.1,0.2,0.2,0.3,0.3c0,1.2,0,2.3,0,3.5c0,0.1-0.2,0.2-0.3,0.3h-1.5V1117.2z"/>
	<path class="st16" d="M87.8,1136.9h4v1.6c-0.1,0.1-0.2,0.2-0.3,0.3h-3.4c-0.1-0.1-0.2-0.2-0.3-0.3V1136.9z"/>
</g>
<rect x="85.8" y="1101.8" class="st0" width="3.8" height="1.9"/>
<g>
	<defs>
		<rect id="SVGID_19_" y="0" width="841.9" height="1190.6"/>
	</defs>
	<clipPath id="SVGID_20_">
		<use xlink:href="#SVGID_19_"  style="overflow:visible;"/>
	</clipPath>
	<path class="st17" d="M68.3,1109.5v1.9c-0.6,0.1-1.2,0-1.9,0c-0.6,0-1.3,0-2,0v-1.9H68.3z"/>
	<path class="st17" d="M82,1084v-1.8h3.8c0.1,0.6,0,1.2,0,1.8H82z"/>
</g>
<rect x="101.4" y="1109.5" class="st0" width="3.8" height="1.9"/>
<rect x="83.9" y="1086.2" class="st0" width="1.9" height="3.8"/>
<g>
	<defs>
		<rect id="SVGID_21_" y="0" width="841.9" height="1190.6"/>
	</defs>
	<clipPath id="SVGID_22_">
		<use xlink:href="#SVGID_21_"  style="overflow:visible;"/>
	</clipPath>
	<path class="st18" d="M68.3,1136.9h3.8v1.9c-1.2,0-2.3,0-3.5,0c-0.1-0.1-0.2-0.2-0.3-0.3V1136.9z"/>
	<path class="st18" d="M105.3,1111.4h1.9c0.1,0.6,0,1.2,0,1.9h-1.9V1111.4z"/>
</g>
<rect x="70.2" y="1113.3" class="st0" width="1.8" height="1.9"/>
<rect x="76.2" y="1082.2" class="st0" width="1.8" height="1.8"/>
<g>
	<defs>
		<rect id="SVGID_23_" y="0" width="841.9" height="1190.6"/>
	</defs>
	<clipPath id="SVGID_24_">
		<use xlink:href="#SVGID_23_"  style="overflow:visible;"/>
	</clipPath>
	<path class="st19" d="M74.3,1111.4h-1.9c-0.1-0.6,0-1.2,0-1.9h1.9V1111.4z"/>
</g>
<rect x="64.5" y="1117.2" class="st0" width="1.8" height="1.9"/>
<g>
	<defs>
		<rect id="SVGID_25_" y="0" width="841.9" height="1190.6"/>
	</defs>
	<clipPath id="SVGID_26_">
		<use xlink:href="#SVGID_25_"  style="overflow:visible;"/>
	</clipPath>
	<path class="st20" d="M107.4,1109.4v-1.8h1.9c0.1,0.6,0,1.2,0,1.8H107.4z"/>
	<path class="st20" d="M78.1,1138.7v-1.8H80c0.1,0.6,0,1.2,0,1.8H78.1z"/>
</g>
<rect x="105.3" y="1103.7" class="st0" width="1.8" height="1.9"/>
<g>
	<defs>
		<rect id="SVGID_27_" y="0" width="841.9" height="1190.6"/>
	</defs>
	<clipPath id="SVGID_28_">
		<use xlink:href="#SVGID_27_"  style="overflow:visible;"/>
	</clipPath>
	<path class="st21" d="M81.9,1103.8v1.8h-1.9c-0.1-0.6,0-1.2,0-1.8H81.9z"/>
</g>
<rect x="85.8" y="1084.3" class="st0" width="1.8" height="1.9"/>
<g>
	<defs>
		<rect id="SVGID_29_" y="0" width="841.9" height="1190.6"/>
	</defs>
	<clipPath id="SVGID_30_">
		<use xlink:href="#SVGID_29_"  style="overflow:visible;"/>
	</clipPath>
	<path class="st22" d="M81.9,1088.1h-1.8v-1.9c0.6-0.1,1.2,0,1.8,0V1088.1z"/>
</g>
<rect x="78.1" y="1095.8" class="st0" width="1.9" height="1.9"/>
<rect x="76.2" y="1093.9" class="st0" width="1.9" height="1.9"/>
<rect x="76.2" y="1134.7" class="st0" width="1.8" height="1.9"/>
<rect x="72.4" y="1093.9" class="st0" width="1.9" height="1.8"/>
<rect x="91.9" y="1134.7" class="st0" width="1.8" height="1.9"/>
<g>
	<defs>
		<rect id="SVGID_31_" y="0" width="841.9" height="1190.6"/>
	</defs>
	<clipPath id="SVGID_32_">
		<use xlink:href="#SVGID_31_"  style="overflow:visible;"/>
	</clipPath>
	<path class="st23" d="M109.3,1100v1.5h-1.9c-0.1-0.6,0-1.2,0-1.8h1.6C109.1,1099.7,109.2,1099.9,109.3,1100"/>
	<path class="st23" d="M91.8,1101.8h1.8v1.6c-0.1,0.1-0.2,0.2-0.3,0.3h-1.5V1101.8z"/>
	<path class="st23" d="M109,1115.3c0.1,0.1,0.2,0.2,0.3,0.3v1.5h-1.9c-0.1-0.6,0-1.2,0-1.8H109z"/>
	<path class="st23" d="M105.2,1138.8h-1.5c-0.1-0.1-0.2-0.2-0.3-0.3v-1.5h1.8V1138.8z"/>
	<path class="st23" d="M85.8,1123.2h-1.9v-3.8c0.6-0.1,1.2,0,1.9-0.1V1123.2z"/>
	<path class="st23" d="M80,1121.2v-1.9c0.6-0.1,1.2,0,1.9,0v1.9C81.3,1121.3,80.7,1121.3,80,1121.2"/>
</g>
<polygon class="st0" points="87.8,1117.5 88.1,1117.2 89.6,1117.2 89.6,1119 87.8,1119 "/>
<rect x="99.5" y="1111.4" class="st0" width="1.9" height="1.9"/>
<g>
	<defs>
		<rect id="SVGID_33_" y="0" width="841.9" height="1190.6"/>
	</defs>
	<clipPath id="SVGID_34_">
		<use xlink:href="#SVGID_33_"  style="overflow:visible;"/>
	</clipPath>
	<path class="st24" d="M97.5,1127h-1.8v-1.9c0.6-0.1,1.2,0,1.8,0V1127z"/>
	<path class="st24" d="M62.5,1091.9h-5.7v-5.7c0,0,0,0,0,0c0,0,0.1,0,0.1,0c1.8,0,3.7,0,5.5,0V1091.9z"/>
	<path class="st24" d="M99.5,1091.9v-5.7h5.7c0,0,0,0,0,0c0,0,0,0.1,0,0.1c0,1.8,0,3.7,0,5.5H99.5z"/>
	<path class="st24" d="M62.5,1129v5.7h-5.7c0,0,0,0,0,0c0,0,0-0.1,0-0.1c0-1.8,0-3.7,0-5.5H62.5z"/>
	<path class="st25" d="M124.7,925.6c-7.8,0-14.2,6.3-14.2,14.2v36.1c0,7.8,6.3,14.2,14.2,14.2h549.9c7.8,0,14.2-6.3,14.2-14.2v-36.1
		c0-7.8-6.3-14.2-14.2-14.2H124.7z"/>
	<path class="st25" d="M175.7,978.9c-7.8,0-14.2,6.3-14.2,14.2v36.1c0,7.8,6.3,14.2,14.2,14.2h464.9c7.8,0,14.2-6.3,14.2-14.2v-36.1
		c0-7.8-6.3-14.2-14.2-14.2H175.7z"/>
</g>
<g>
	<path class="st10" d="M151.7,973.7c-0.2,1.1-1.2,1.9-2.3,1.9h-13.2c-1.1,0-2.1-0.8-2.4-1.9L128,945c-0.3-1.5,0.9-2.8,2.4-2.8h7.3
		c1.2,0,2.2,0.9,2.4,2.1l2.4,19.7h0.9l2.1-19.7c0.1-1.2,1.1-2.1,2.4-2.1h7.3c1.5,0,2.6,1.3,2.4,2.8L151.7,973.7z"/>
	<path class="st10" d="M172.7,976.3c-11.8,0-16-6.2-16-17.5s4.1-17.4,16-17.4c11.9,0,16,6.1,16,17.4
		C188.6,970.1,184.5,976.3,172.7,976.3z M169.2,965c0.6,1.2,1.7,1.9,3.5,1.9c1.7,0,2.9-0.6,3.4-1.8c0.6-1.2,0.8-3.3,0.8-6.2
		c0-2.9-0.2-4.9-0.8-6.2c-0.5-1.2-1.6-1.8-3.4-1.8c-1.8,0-2.9,0.6-3.5,1.9c-0.5,1.2-0.8,3.3-0.8,6.2S168.7,963.7,169.2,965z"/>
	<path class="st10" d="M189.6,944.5c0-1.4,1-2.4,2.4-2.4h20.3c1.3,0,2.4,1,2.4,2.4v4.7c0,1.3-1.1,2.3-2.4,2.3h-1.8
		c-1.3,0-2.4,1.1-2.4,2.4v19.3c0,1.3-1.1,2.4-2.4,2.4h-6.9c-1.3,0-2.4-1-2.4-2.4V954c0-1.3-1.1-2.4-2.4-2.4H192
		c-1.4,0-2.4-1-2.4-2.3V944.5z"/>
	<path class="st10" d="M227.9,968.6v5.5c0,0.9-0.7,1.6-1.6,1.6h-8.4c-0.9,0-1.6-0.7-1.6-1.6v-30.3c0-0.9,0.7-1.6,1.6-1.6h12.5
		c9.2,0,14.5,2.1,14.5,12.2c0,4.2-1,7.4-3.1,9.4c-0.4,0.4-0.5,1-0.4,1.5l2.5,8.5c0.3,1-0.5,2-1.5,2h-8.5c-0.7,0-1.4-0.5-1.5-1.2
		l-1.4-6.2c-0.2-0.8-0.8-1.2-1.5-1.2C228.6,967,227.9,967.7,227.9,968.6z M230.7,957.8c1.7,0,2.5-1.1,2.5-3.3c0-2.2-0.9-3.3-2.8-3.3
		h-1c-0.9,0-1.6,0.7-1.6,1.6v3.3c0,0.9,0.7,1.6,1.6,1.6H230.7z"/>
	<path class="st10" d="M247,943.5c0-0.8,0.6-1.4,1.5-1.4h22.3c0.8,0,1.4,0.7,1.4,1.4v6.4c0,0.8-0.6,1.4-1.4,1.4H260
		c-0.8,0-1.5,0.7-1.5,1.4c0,0.8,0.7,1.5,1.5,1.5h7.7c0.8,0,1.4,0.7,1.4,1.4v6.3c0,0.8-0.7,1.5-1.4,1.5H260c-0.8,0-1.5,0.7-1.5,1.4
		v0.2c0,0.8,0.7,1.4,1.5,1.4h10.7c0.8,0,1.4,0.7,1.4,1.4v6.4c0,0.8-0.6,1.5-1.4,1.5h-22.3c-0.8,0-1.5-0.7-1.5-1.5V943.5z"/>
	<path class="st10" d="M296.3,968.6v5.5c0,0.9-0.7,1.6-1.6,1.6h-8.4c-0.9,0-1.6-0.7-1.6-1.6v-30.3c0-0.9,0.7-1.6,1.6-1.6h12.5
		c9.2,0,14.5,2.1,14.5,12.2c0,4.2-1,7.4-3.1,9.4c-0.4,0.4-0.5,1-0.4,1.5l2.5,8.5c0.3,1-0.5,2-1.5,2h-8.5c-0.7,0-1.4-0.5-1.5-1.2
		l-1.4-6.2c-0.2-0.8-0.8-1.2-1.5-1.2C297,967,296.3,967.7,296.3,968.6z M299.1,957.8c1.7,0,2.5-1.1,2.5-3.3c0-2.2-0.9-3.3-2.8-3.3
		h-1c-0.9,0-1.6,0.7-1.6,1.6v3.3c0,0.9,0.7,1.6,1.6,1.6H299.1z"/>
	<path class="st10" d="M330.7,976.3c-11.8,0-16-6.2-16-17.5s4.1-17.4,16-17.4c11.9,0,16,6.1,16,17.4
		C346.6,970.1,342.5,976.3,330.7,976.3z M327.2,965c0.6,1.2,1.7,1.9,3.5,1.9c1.7,0,2.9-0.6,3.4-1.8c0.6-1.2,0.8-3.3,0.8-6.2
		c0-2.9-0.2-4.9-0.8-6.2c-0.5-1.2-1.6-1.8-3.4-1.8c-1.8,0-2.9,0.6-3.5,1.9c-0.5,1.2-0.8,3.3-0.8,6.2S326.7,963.7,327.2,965z"/>
	<path class="st10" d="M357.7,942.1c1.3,0,2.4,1,2.4,2.3v19.6c0,2.2,1.2,2.7,3.1,2.7c2,0,3.1-0.5,3.1-2.7v-19.6c0-1.3,1-2.3,2.4-2.3
		h6.9c1.3,0,2.4,1,2.4,2.3v19c0,10-5.4,12.9-14.7,12.9c-9.3,0-14.8-2.6-14.8-12.7v-19.2c0-1.3,1-2.3,2.4-2.3H357.7z"/>
	<path class="st10" d="M379.4,944.5c0-1.4,1-2.4,2.4-2.4h20.3c1.3,0,2.4,1,2.4,2.4v4.7c0,1.3-1.1,2.3-2.4,2.3h-1.8
		c-1.3,0-2.4,1.1-2.4,2.4v19.3c0,1.3-1.1,2.4-2.4,2.4h-6.9c-1.3,0-2.4-1-2.4-2.4V954c0-1.3-1.1-2.4-2.4-2.4h-2.2
		c-1.4,0-2.4-1-2.4-2.3V944.5z"/>
	<path class="st10" d="M406.2,943.5c0-0.8,0.6-1.4,1.5-1.4h22.3c0.8,0,1.4,0.7,1.4,1.4v6.4c0,0.8-0.7,1.4-1.4,1.4h-10.7
		c-0.8,0-1.5,0.7-1.5,1.4c0,0.8,0.7,1.5,1.5,1.5h7.7c0.8,0,1.4,0.7,1.4,1.4v6.3c0,0.8-0.6,1.5-1.4,1.5h-7.7c-0.8,0-1.5,0.7-1.5,1.4
		v0.2c0,0.8,0.7,1.4,1.5,1.4h10.7c0.8,0,1.4,0.7,1.4,1.4v6.4c0,0.8-0.7,1.5-1.4,1.5h-22.3c-0.8,0-1.5-0.7-1.5-1.5V943.5z"/>
	<path class="st10" d="M443.9,944.1c0-1,0.9-2,2-2h7.7c1.1,0,2,0.9,2,2v29.6c0,1.1-0.9,2-2,2h-7.7c-1,0-2-0.9-2-2V944.1z"/>
	<path class="st10" d="M482.7,973.3c0,1-0.6,1.9-1.6,2.1c-3,0.6-6.1,1-9.2,1c-5.6,0-10.8-1-12.9-6.9c-0.9-2.5-1.3-6-1.3-10.7
		c0-6.7,1-11.2,3.1-13.7c2.1-2.5,6-3.7,11.7-3.7c2.4,0,5.2,0.4,8.5,1c1,0.2,1.7,1.1,1.7,2.2l-0.2,4.9c0,1.3-1,2-2.2,2
		c-1.9-0.2-3.7-0.2-5.4-0.2c-2.3,0-3.8,0.5-4.5,1.3c-0.6,0.9-1,2.8-1,5.5s0.2,4.7,0.5,5.8c0.8,2.5,2.5,2.7,5,2.7l5.7-0.2
		c1.2,0,2.2,0.8,2.2,2L482.7,973.3z"/>
	<path class="st10" d="M484.8,944.1c0-1,0.9-2,2-2h7.7c1.1,0,2,0.9,2,2v29.6c0,1.1-0.9,2-2,2h-7.7c-1,0-2-0.9-2-2V944.1z"/>
</g>
<path class="st10" d="M185,1021.8v4.2c0,0.9-0.7,1.6-1.6,1.6h-8.8c-0.9,0-1.6-0.7-1.6-1.6v-31.6c0-0.9,0.7-1.6,1.6-1.6h12.1
	c10.2,0,15.8,2.5,15.8,13.6c0,11-5.6,13.9-15.8,13.9C185.8,1020.2,185,1021,185,1021.8z M185,1010.7h1.1c3.1,0,4.2-1.4,4.2-4.4
	c0-3.2-1.1-4.1-4.2-4.1H185V1010.7z M204.8,994.2c0-0.8,0.7-1.5,1.5-1.5h23.1c0.8,0,1.5,0.7,1.5,1.5v6.7c0,0.8-0.7,1.5-1.5,1.5
	h-11.1c-0.8,0-1.5,0.7-1.5,1.5c0,0.8,0.7,1.5,1.5,1.5h8c0.8,0,1.5,0.7,1.5,1.5v6.6c0,0.8-0.7,1.5-1.5,1.5h-8c-0.8,0-1.5,0.7-1.5,1.5
	v0.2c0,0.8,0.7,1.5,1.5,1.5h11.1c0.8,0,1.5,0.7,1.5,1.5v6.7c0,0.8-0.7,1.5-1.5,1.5h-23.1c-0.8,0-1.5-0.7-1.5-1.5V994.2z
	 M223.2,983.5c0.9,0,1.5,1.1,0.9,1.9l-3.8,4.8c-0.3,0.3-0.6,0.4-0.9,0.4h-7c-0.8,0-1.3-0.8-1.1-1.5l1.5-4.8c0.2-0.5,0.6-0.8,1.1-0.8
	H223.2z M245.4,1020.3v5.7c0,0.9-0.7,1.7-1.7,1.7H235c-0.9,0-1.7-0.7-1.7-1.7v-31.5c0-0.9,0.7-1.7,1.7-1.7h13c9.6,0,15,2.2,15,12.6
	c0,4.4-1,7.6-3.2,9.8c-0.4,0.4-0.6,1-0.4,1.6l2.5,8.8c0.3,1-0.5,2.1-1.6,2.1h-8.8c-0.7,0-1.4-0.5-1.6-1.3l-1.5-6.4
	c-0.2-0.8-0.8-1.3-1.6-1.3C246.1,1018.6,245.4,1019.4,245.4,1020.3z M248.3,1009.1c1.7,0,2.5-1.1,2.5-3.4c0-2.3-0.9-3.4-2.9-3.4h-1
	c-0.9,0-1.7,0.7-1.7,1.7v3.5c0,0.9,0.7,1.7,1.7,1.7H248.3z M265.4,994.8c0-1.1,0.9-2,2-2h8c1.1,0,2,0.9,2,2v30.7
	c0,1.1-0.9,2.1-2,2.1h-8c-1.1,0-2-0.9-2-2.1V994.8z M296.5,1028.3c-12.3,0-16.6-6.4-16.6-18.1s4.3-18,16.6-18
	c12.4,0,16.6,6.3,16.6,18.1C313.1,1021.9,308.8,1028.3,296.5,1028.3z M292.9,1016.5c0.6,1.3,1.8,2,3.6,2c1.8,0,3-0.6,3.5-1.9
	s0.8-3.4,0.8-6.4c0-3-0.3-5.1-0.8-6.4c-0.5-1.2-1.7-1.9-3.5-1.9s-3,0.6-3.6,1.9s-0.9,3.4-0.9,6.4S292.4,1015.2,292.9,1016.5z
	 M317.6,1027.6c-1.2,0-2.1-0.9-2.1-2.1v-30.6c0-1.2,0.9-2.1,2.1-2.1h12.6c11.9,0,16.9,5.1,16.9,17c0,11.5-4.4,17.8-16.4,17.8H317.6z
	 M333.9,1004.2c-0.6-1-2-1.6-4.3-1.6c-1.2,0-2.1,0.9-2.1,2.1v10.9c0,1.2,0.9,2.1,2.1,2.1c4.9,0,5.3-3.2,5.3-7.4
	C334.9,1007.3,334.6,1005.2,333.9,1004.2z M349.5,994.2c0-0.8,0.7-1.5,1.5-1.5h23.1c0.8,0,1.5,0.7,1.5,1.5v6.7
	c0,0.8-0.7,1.5-1.5,1.5H363c-0.8,0-1.5,0.7-1.5,1.5c0,0.8,0.7,1.5,1.5,1.5h8c0.8,0,1.5,0.7,1.5,1.5v6.6c0,0.8-0.7,1.5-1.5,1.5h-8
	c-0.8,0-1.5,0.7-1.5,1.5v0.2c0,0.8,0.7,1.5,1.5,1.5h11.1c0.8,0,1.5,0.7,1.5,1.5v6.7c0,0.8-0.7,1.5-1.5,1.5H351
	c-0.8,0-1.5-0.7-1.5-1.5V994.2z M389.2,994.2c0-0.8,0.7-1.5,1.5-1.5h23.1c0.8,0,1.5,0.7,1.5,1.5v6.7c0,0.8-0.7,1.5-1.5,1.5h-11.1
	c-0.8,0-1.5,0.7-1.5,1.5c0,0.8,0.7,1.5,1.5,1.5h8c0.8,0,1.5,0.7,1.5,1.5v6.6c0,0.8-0.7,1.5-1.5,1.5h-8c-0.8,0-1.5,0.7-1.5,1.5v0.2
	c0,0.8,0.7,1.5,1.5,1.5h11.1c0.8,0,1.5,0.7,1.5,1.5v6.7c0,0.8-0.7,1.5-1.5,1.5h-23.1c-0.8,0-1.5-0.7-1.5-1.5V994.2z M416.7,995.3
	c0-1.4,1.1-2.5,2.5-2.5h21.1c1.4,0,2.4,1.1,2.4,2.5v4.9c0,1.4-1.1,2.4-2.4,2.4h-1.9c-1.4,0-2.4,1.1-2.4,2.5v20.1
	c0,1.4-1.1,2.4-2.4,2.4h-7.2c-1.4,0-2.4-1.1-2.4-2.4v-20.1c0-1.4-1.1-2.5-2.4-2.5h-2.2c-1.4,0-2.5-1.1-2.5-2.4V995.3z M461.4,994.5
	c0.2-1,1.1-1.7,2.1-1.7h14.7c1,0,1.9,0.7,2.2,1.7l6.8,30.4c0.3,1.4-0.7,2.7-2.1,2.7h-7.7c-1,0-1.9-0.7-2.1-1.7l-0.2-0.7
	c-0.3-1-1.1-1.7-2.1-1.7h-4.4c-1.1,0-2,0.7-2.2,1.8l-0.1,0.5c-0.2,1-1.1,1.8-2.1,1.8h-7.3c-1.4,0-2.4-1.3-2.1-2.7L461.4,994.5z
	 M470.3,1002.2l-1.6,9.6c-0.2,1.4,0.8,2.5,2.2,2.5s2.4-1.2,2.2-2.5l-1.5-9.6H470.3z M489.1,995c0-1.2,1-2.2,2.2-2.2h8.4
	c0.8,0,1.5,0.4,1.9,1l6.1,9.2c0.2,0.3,0.6,0.5,0.9,0.5c0.6,0,1.1-0.4,1.1-1V995c0-1.2,1-2.2,2.2-2.2h7.7c1.2,0,2.2,1,2.2,2.2v30.5
	c0,1.2-1,2.2-2.2,2.2h-8.4c-0.8,0-1.6-0.4-1.9-1.1l-6.1-9.8c-0.2-0.4-0.5-0.5-0.9-0.5c-0.6,0-1.1,0.4-1.1,1.1v8.2
	c0,1.2-1,2.2-2.2,2.2h-7.7c-1.2,0-2.2-1-2.2-2.2V995z M524.9,995c0-1.2,1-2.2,2.2-2.2h8.4c0.8,0,1.5,0.4,1.9,1l6.1,9.2
	c0.2,0.3,0.6,0.5,0.9,0.5c0.6,0,1.1-0.4,1.1-1V995c0-1.2,1-2.2,2.2-2.2h7.7c1.2,0,2.2,1,2.2,2.2v30.5c0,1.2-1,2.2-2.2,2.2H547
	c-0.8,0-1.6-0.4-1.9-1.1l-6.1-9.8c-0.2-0.4-0.5-0.5-0.9-0.5c-0.6,0-1.1,0.4-1.1,1.1v8.2c0,1.2-1,2.2-2.2,2.2h-7.7
	c-1.2,0-2.2-1-2.2-2.2V995z M560.7,994.2c0-0.8,0.7-1.5,1.5-1.5h23.1c0.8,0,1.5,0.7,1.5,1.5v6.7c0,0.8-0.7,1.5-1.5,1.5h-11.1
	c-0.8,0-1.5,0.7-1.5,1.5c0,0.8,0.7,1.5,1.5,1.5h8c0.8,0,1.5,0.7,1.5,1.5v6.6c0,0.8-0.7,1.5-1.5,1.5h-8c-0.8,0-1.5,0.7-1.5,1.5v0.2
	c0,0.8,0.7,1.5,1.5,1.5h11.1c0.8,0,1.5,0.7,1.5,1.5v6.7c0,0.8-0.7,1.5-1.5,1.5h-23.1c-0.8,0-1.5-0.7-1.5-1.5V994.2z M579.1,983.5
	c0.9,0,1.5,1.1,0.9,1.9l-3.8,4.8c-0.3,0.3-0.6,0.4-0.9,0.4h-7c-0.8,0-1.3-0.8-1.1-1.5l1.5-4.8c0.2-0.5,0.6-0.8,1.1-0.8H579.1z
	 M589.2,994.2c0-0.8,0.7-1.5,1.5-1.5h23.1c0.8,0,1.5,0.7,1.5,1.5v6.7c0,0.8-0.7,1.5-1.5,1.5h-11.1c-0.8,0-1.5,0.7-1.5,1.5
	c0,0.8,0.7,1.5,1.5,1.5h8c0.8,0,1.5,0.7,1.5,1.5v6.6c0,0.8-0.7,1.5-1.5,1.5h-8c-0.8,0-1.5,0.7-1.5,1.5v0.2c0,0.8,0.7,1.5,1.5,1.5
	h11.1c0.8,0,1.5,0.7,1.5,1.5v6.7c0,0.8-0.7,1.5-1.5,1.5h-23.1c-0.8,0-1.5-0.7-1.5-1.5V994.2z M644.4,1000.2
	c-0.1,1.6-1.3,2.4-2.8,2.4c-3.5-0.4-6.2-0.5-8-0.5c-2.2,0-3.5,0.1-3.9,0.2c-0.4,0.2-0.5,0.4-0.5,0.8s0.2,0.7,0.6,0.9s1.7,0.6,3.9,1
	c3.9,0.8,10.1,2.1,11.4,6.5c0.4,1.2,0.6,2.9,0.6,5c0,9.2-5.3,12-13.8,12c-4.2,0-8.6-0.4-12.6-1.4c-1.2-0.3-2-1.4-1.9-2.5l0.3-4.5
	c0.1-1.3,1.2-2.3,2.5-2.3c4.4,0.6,7.9,0.8,10.7,0.8c1.8,0,2.7-0.4,2.7-1.2c0-0.4-0.2-0.6-0.6-0.8s-1.6-0.4-3.4-0.6
	c-4.8-0.8-8.2-2-9.9-3.6c-1.8-1.6-2.7-4.2-2.7-7.9c0-9.6,4.8-12.2,13.8-12.2c3.3,0,7.2,0.3,11.6,1h0.1c1.2,0.2,2.1,1.3,2.1,2.5
	L644.4,1000.2z"/>
<g>
	<path class="st26" d="M128.7,1091.7c0-0.6,0.5-1.2,1.2-1.2h4.6c0.6,0,1.2,0.5,1.2,1.2v17.7c0,0.7-0.5,1.2-1.2,1.2h-4.6
		c-0.6,0-1.2-0.5-1.2-1.2V1091.7z"/>
	<path class="st26" d="M137.5,1091.7c0-0.7,0.6-1.3,1.3-1.3h4.9c0.5,0,0.9,0.2,1.1,0.6l3.5,5.3c0.1,0.2,0.3,0.3,0.5,0.3
		c0.3,0,0.6-0.2,0.6-0.6v-4.3c0-0.7,0.6-1.3,1.3-1.3h4.4c0.7,0,1.3,0.6,1.3,1.3v17.6c0,0.7-0.6,1.3-1.3,1.3h-4.9
		c-0.5,0-0.9-0.2-1.1-0.7l-3.5-5.7c-0.1-0.2-0.3-0.3-0.5-0.3c-0.3,0-0.6,0.2-0.6,0.6v4.7c0,0.7-0.6,1.3-1.3,1.3h-4.4
		c-0.7,0-1.3-0.6-1.3-1.3V1091.7z"/>
	<path class="st26" d="M158.1,1091.7c0-0.7,0.6-1.2,1.2-1.2h12c0.7,0,1.2,0.6,1.2,1.2v3.2c0,0.7-0.6,1.2-1.2,1.2h-5.1
		c-0.7,0-1.2,0.6-1.2,1.2v0.8c0,0.7,0.6,1.2,1.2,1.2h3.3c0.7,0,1.2,0.6,1.2,1.2v3.2c0,0.7-0.6,1.2-1.2,1.2h-3.3
		c-0.7,0-1.2,0.6-1.2,1.2v3c0,0.7-0.6,1.3-1.2,1.3h-4.5c-0.7,0-1.2-0.6-1.2-1.3V1091.7z"/>
	<path class="st26" d="M182.9,1111c-7.1,0-9.6-3.7-9.6-10.5c0-6.8,2.5-10.4,9.6-10.4c7.1,0,9.6,3.6,9.6,10.4
		C192.4,1107.3,190,1111,182.9,1111z M180.8,1104.2c0.3,0.8,1,1.1,2.1,1.1c1,0,1.7-0.4,2-1.1s0.5-2,0.5-3.7c0-1.7-0.1-2.9-0.5-3.7
		c-0.3-0.7-1-1.1-2-1.1s-1.7,0.4-2.1,1.1s-0.5,2-0.5,3.7S180.5,1103.4,180.8,1104.2z"/>
	<path class="st26" d="M209.2,1094.7c0,0.9-0.8,1.4-1.6,1.4c-2-0.2-3.6-0.3-4.6-0.3c-1.3,0-2,0-2.2,0.1c-0.2,0.1-0.3,0.2-0.3,0.4
		s0.1,0.4,0.4,0.5c0.2,0.1,1,0.3,2.2,0.6c2.2,0.5,5.8,1.2,6.6,3.8c0.2,0.7,0.3,1.7,0.3,2.9c0,5.3-3.1,6.9-7.9,6.9
		c-2.4,0-5-0.2-7.3-0.8c-0.7-0.2-1.1-0.8-1.1-1.5l0.1-2.6c0.1-0.8,0.7-1.4,1.4-1.4c2.5,0.3,4.6,0.5,6.2,0.5c1.1,0,1.6-0.2,1.6-0.7
		c0-0.2-0.1-0.4-0.4-0.5c-0.2-0.1-0.9-0.2-2-0.4c-2.8-0.5-4.7-1.1-5.7-2.1c-1-0.9-1.5-2.4-1.5-4.6c0-5.5,2.8-7,7.9-7
		c1.9,0,4.1,0.2,6.7,0.6h0c0.7,0.1,1.2,0.8,1.2,1.5L209.2,1094.7z"/>
	<path class="st26" d="M217.6,1097.4c0-0.4,0.3-0.7,0.7-0.7h5.5c0.4,0,0.7,0.3,0.7,0.7v4.6c0,0.4-0.3,0.7-0.7,0.7h-5.5
		c-0.4,0-0.7-0.3-0.7-0.7V1097.4z M217.6,1105.3c0-0.4,0.3-0.7,0.7-0.7h5.5c0.4,0,0.7,0.3,0.7,0.7v4.6c0,0.4-0.3,0.7-0.7,0.7h-5.5
		c-0.4,0-0.7-0.3-0.7-0.7V1105.3z"/>
</g>
<g>
	<path class="st26" d="M142.1,1137.4c-0.1,0.7-0.7,1.1-1.4,1.1h-7.9c-0.7,0-1.3-0.5-1.4-1.1l-3.5-17.2c-0.2-0.9,0.5-1.7,1.4-1.7h4.4
		c0.7,0,1.3,0.5,1.4,1.3l1.4,11.8h0.5l1.3-11.8c0.1-0.7,0.7-1.3,1.4-1.3h4.4c0.9,0,1.6,0.8,1.4,1.7L142.1,1137.4z"/>
	<path class="st26" d="M155.6,1139c-7.1,0-9.6-3.7-9.6-10.5c0-6.8,2.5-10.4,9.6-10.4c7.1,0,9.6,3.6,9.6,10.4
		C165.1,1135.3,162.7,1139,155.6,1139z M153.5,1132.2c0.3,0.8,1,1.1,2.1,1.1c1,0,1.7-0.4,2-1.1s0.5-2,0.5-3.7c0-1.7-0.1-2.9-0.5-3.7
		c-0.3-0.7-1-1.1-2-1.1s-1.7,0.4-2.1,1.1s-0.5,2-0.5,3.7S153.2,1131.4,153.5,1132.2z"/>
	<path class="st26" d="M165.9,1119.9c0-0.8,0.6-1.4,1.4-1.4h12.1c0.8,0,1.4,0.6,1.4,1.4v2.8c0,0.8-0.6,1.4-1.4,1.4h-1.1
		c-0.8,0-1.4,0.6-1.4,1.4v11.6c0,0.8-0.6,1.4-1.4,1.4h-4.1c-0.8,0-1.4-0.6-1.4-1.4v-11.6c0-0.8-0.6-1.4-1.4-1.4h-1.3
		c-0.8,0-1.4-0.6-1.4-1.4V1119.9z"/>
	<path class="st26" d="M189.1,1134.3v3.3c0,0.5-0.4,1-1,1h-5c-0.5,0-1-0.4-1-1v-18.2c0-0.5,0.4-1,1-1h7.5c5.5,0,8.7,1.3,8.7,7.3
		c0,2.5-0.6,4.4-1.8,5.6c-0.2,0.2-0.3,0.6-0.2,0.9l1.5,5.1c0.2,0.6-0.3,1.2-0.9,1.2h-5.1c-0.4,0-0.8-0.3-0.9-0.8l-0.8-3.7
		c-0.1-0.5-0.5-0.8-0.9-0.8C189.5,1133.4,189.1,1133.8,189.1,1134.3z M190.7,1127.9c1,0,1.5-0.7,1.5-2c0-1.3-0.5-2-1.6-2H190
		c-0.5,0-1,0.4-1,1v2c0,0.5,0.4,1,1,1H190.7z"/>
	<path class="st26" d="M200.6,1119.3c0-0.5,0.4-0.8,0.9-0.8h13.3c0.4,0,0.8,0.4,0.8,0.8v3.8c0,0.5-0.4,0.9-0.8,0.9h-6.4
		c-0.5,0-0.9,0.4-0.9,0.8c0,0.5,0.4,0.9,0.9,0.9h4.6c0.5,0,0.8,0.4,0.8,0.8v3.8c0,0.5-0.4,0.9-0.8,0.9h-4.6c-0.5,0-0.9,0.4-0.9,0.8
		v0.1c0,0.5,0.4,0.9,0.9,0.9h6.4c0.4,0,0.8,0.4,0.8,0.8v3.8c0,0.5-0.4,0.9-0.8,0.9h-13.3c-0.5,0-0.9-0.4-0.9-0.9V1119.3z"/>
	<path class="st26" d="M238.9,1122.7c0,0.9-0.8,1.4-1.6,1.4c-2-0.2-3.6-0.3-4.6-0.3c-1.3,0-2,0-2.2,0.1c-0.2,0.1-0.3,0.2-0.3,0.4
		s0.1,0.4,0.4,0.5c0.2,0.1,1,0.3,2.2,0.6c2.2,0.5,5.8,1.2,6.6,3.8c0.2,0.7,0.3,1.7,0.3,2.9c0,5.3-3.1,6.9-7.9,6.9
		c-2.4,0-5-0.2-7.3-0.8c-0.7-0.2-1.1-0.8-1.1-1.5l0.1-2.6c0.1-0.8,0.7-1.4,1.4-1.4c2.5,0.3,4.6,0.5,6.2,0.5c1.1,0,1.6-0.2,1.6-0.7
		c0-0.2-0.1-0.4-0.4-0.5c-0.2-0.1-0.9-0.2-2-0.4c-2.8-0.5-4.7-1.1-5.7-2.1c-1-0.9-1.5-2.4-1.5-4.6c0-5.5,2.8-7,7.9-7
		c1.9,0,4.1,0.2,6.7,0.6h0c0.7,0.1,1.2,0.8,1.2,1.5L238.9,1122.7z"/>
	<path class="st26" d="M240.9,1119.6c0-0.6,0.5-1.2,1.2-1.2h4.6c0.6,0,1.2,0.5,1.2,1.2v17.7c0,0.7-0.5,1.2-1.2,1.2H242
		c-0.6,0-1.2-0.5-1.2-1.2V1119.6z"/>
	<path class="st26" d="M249,1119.9c0-0.8,0.6-1.4,1.4-1.4h12.1c0.8,0,1.4,0.6,1.4,1.4v2.8c0,0.8-0.6,1.4-1.4,1.4h-1.1
		c-0.8,0-1.4,0.6-1.4,1.4v11.6c0,0.8-0.6,1.4-1.4,1.4h-4.1c-0.8,0-1.4-0.6-1.4-1.4v-11.6c0-0.8-0.6-1.4-1.4-1.4h-1.3
		c-0.8,0-1.4-0.6-1.4-1.4V1119.9z"/>
	<path class="st26" d="M265.2,1119.3c0-0.5,0.4-0.8,0.9-0.8h13.3c0.5,0,0.8,0.4,0.8,0.8v3.8c0,0.5-0.4,0.9-0.8,0.9H273
		c-0.5,0-0.9,0.4-0.9,0.8c0,0.5,0.4,0.9,0.9,0.9h4.6c0.5,0,0.8,0.4,0.8,0.8v3.8c0,0.5-0.4,0.9-0.8,0.9H273c-0.5,0-0.9,0.4-0.9,0.8
		v0.1c0,0.5,0.4,0.9,0.9,0.9h6.4c0.5,0,0.8,0.4,0.8,0.8v3.8c0,0.5-0.4,0.9-0.8,0.9h-13.3c-0.5,0-0.9-0.4-0.9-0.9V1119.3z"/>
	<path class="st26" d="M297.3,1139c-7.1,0-9.6-3.7-9.6-10.5c0-6.8,2.5-10.4,9.6-10.4c7.1,0,9.6,3.6,9.6,10.4
		C306.8,1135.3,304.4,1139,297.3,1139z M295.2,1132.2c0.3,0.8,1,1.1,2.1,1.1c1,0,1.7-0.4,2-1.1s0.5-2,0.5-3.7c0-1.7-0.1-2.9-0.5-3.7
		c-0.3-0.7-1-1.1-2-1.1s-1.7,0.4-2.1,1.1s-0.5,2-0.5,3.7S294.9,1131.4,295.2,1132.2z"/>
	<path class="st26" d="M313.6,1118.5c0.8,0,1.4,0.6,1.4,1.4v11.8c0,1.3,0.7,1.6,1.9,1.6c1.2,0,1.9-0.3,1.9-1.6v-11.8
		c0-0.8,0.6-1.4,1.4-1.4h4.1c0.8,0,1.4,0.6,1.4,1.4v11.4c0,6-3.2,7.7-8.8,7.7c-5.6,0-8.8-1.6-8.8-7.6v-11.5c0-0.8,0.6-1.4,1.4-1.4
		H313.6z"/>
	<path class="st26" d="M335.2,1138.6c-0.7,0-1.3-0.6-1.3-1.3v-17.6c0-0.7,0.6-1.3,1.3-1.3h4.4c0.7,0,1.3,0.6,1.3,1.3v11.9
		c0,0.7,0.6,1.3,1.3,1.3h4c0.7,0,1.3,0.6,1.3,1.3v3.2c0,0.7-0.6,1.3-1.3,1.3H335.2z"/>
	<path class="st26" d="M348.6,1119.6c0-0.6,0.5-1.2,1.2-1.2h4.6c0.6,0,1.2,0.5,1.2,1.2v17.7c0,0.7-0.5,1.2-1.2,1.2h-4.6
		c-0.6,0-1.2-0.5-1.2-1.2V1119.6z"/>
	<path class="st26" d="M357.3,1119.3c0-0.5,0.4-0.8,0.9-0.8h13.3c0.5,0,0.8,0.4,0.8,0.8v3.8c0,0.5-0.4,0.9-0.8,0.9h-6.4
		c-0.5,0-0.9,0.4-0.9,0.8c0,0.5,0.4,0.9,0.9,0.9h4.6c0.5,0,0.8,0.4,0.8,0.8v3.8c0,0.5-0.4,0.9-0.8,0.9h-4.6c-0.5,0-0.9,0.4-0.9,0.8
		v0.1c0,0.5,0.4,0.9,0.9,0.9h6.4c0.5,0,0.8,0.4,0.8,0.8v3.8c0,0.5-0.4,0.9-0.8,0.9h-13.3c-0.5,0-0.9-0.4-0.9-0.9V1119.3z"/>
	<path class="st26" d="M373.8,1119.7c0-0.7,0.6-1.3,1.3-1.3h4.9c0.5,0,0.9,0.2,1.1,0.6l3.5,5.3c0.1,0.2,0.3,0.3,0.5,0.3
		c0.3,0,0.6-0.2,0.6-0.6v-4.3c0-0.7,0.6-1.3,1.3-1.3h4.4c0.7,0,1.3,0.6,1.3,1.3v17.6c0,0.7-0.6,1.3-1.3,1.3h-4.9
		c-0.5,0-0.9-0.2-1.1-0.7l-3.5-5.7c-0.1-0.2-0.3-0.3-0.5-0.3c-0.3,0-0.6,0.2-0.6,0.6v4.7c0,0.7-0.6,1.3-1.3,1.3h-4.4
		c-0.7,0-1.3-0.6-1.3-1.3V1119.7z"/>
	<path class="st26" d="M415.5,1137.2c0,0.6-0.4,1.1-1,1.2c-1.8,0.4-3.7,0.6-5.5,0.6c-3.4,0-6.5-0.6-7.7-4.1
		c-0.5-1.5-0.8-3.6-0.8-6.4c0-4,0.6-6.7,1.9-8.2c1.2-1.5,3.6-2.2,7-2.2c1.4,0,3.1,0.2,5.1,0.6c0.6,0.1,1,0.7,1,1.3l-0.1,2.9
		c0,0.8-0.6,1.2-1.4,1.2c-1.1-0.1-2.2-0.2-3.2-0.2c-1.4,0-2.3,0.3-2.7,0.8c-0.4,0.5-0.6,1.6-0.6,3.3c0,1.6,0.1,2.8,0.3,3.4
		c0.5,1.5,1.5,1.6,3,1.6l3.4-0.1c0.7,0,1.3,0.5,1.3,1.2L415.5,1137.2z"/>
	<path class="st26" d="M424.6,1136.8c0-0.4-0.3-0.7-0.7-0.7h-6.8c-0.4,0-0.7-0.3-0.7-0.7v-4.1l2.6-12.1c0.1-0.3,0.3-0.5,0.7-0.5h6.4
		c0.5,0,0.8,0.5,0.6,0.9l-3.3,10c-0.2,0.4,0.2,0.9,0.6,0.9c0.3,0,0.6-0.2,0.7-0.5l0.4-2.3c0.1-0.3,0.3-0.5,0.6-0.6l5-0.1
		c0.4,0,0.7,0.3,0.7,0.7v2.9h0.8v5.6h-0.8v1.7c0,0.4-0.3,0.7-0.7,0.7h-5.5c-0.4,0-0.7-0.3-0.7-0.7V1136.8z"/>
	<path class="st26" d="M438.7,1138.6c-0.5,0-0.9-0.4-0.9-0.9v-5.2c0-0.1,0-0.2-0.1-0.3l-5.2-12.4c-0.2-0.6,0.2-1.2,0.8-1.2h5.4
		c0.4,0,0.7,0.2,0.8,0.6l0.8,2.7c0.1,0.4,0.5,0.6,0.9,0.6c0.3,0,0.7-0.2,0.8-0.6l0.9-2.7c0.1-0.4,0.5-0.6,0.8-0.6h5.3
		c0.7,0,1.1,0.7,0.8,1.2l-5.3,12.4c-0.1,0.1-0.1,0.2-0.1,0.4v5.2c0,0.5-0.4,0.9-0.9,0.9H438.7z"/>
	<path class="st26" d="M449.5,1133.3c0-0.4,0.3-0.7,0.7-0.7h5.5c0.4,0,0.7,0.3,0.7,0.7v4.6c0,0.4-0.3,0.7-0.7,0.7h-5.5
		c-0.4,0-0.7-0.3-0.7-0.7V1133.3z"/>
	<path class="st26" d="M458,1119.8c0-0.7,0.6-1.3,1.3-1.3h7.8c4.9,0,7.3,1.7,7.3,5c0,1.4-0.1,2.8-1,3.9c-0.4,0.5-0.3,1.3,0.2,1.7
		c1.2,0.9,1.3,2.5,1.3,3.9c0,3.8-2.6,5.7-7.7,5.7h-7.9c-0.7,0-1.3-0.6-1.3-1.3V1119.8z M465.6,1123.1c-0.4,0-0.6,0.3-0.6,0.6v2
		c0,0.4,0.3,0.6,0.6,0.6h0.9c1.2,0,1.6-0.5,1.6-1.6c0-1.1-0.5-1.6-1.7-1.6H465.6z M465.6,1130.6c-0.4,0-0.6,0.3-0.6,0.6v2
		c0,0.3,0.3,0.6,0.6,0.6h1c0.7,0,1.2-0.1,1.4-0.4c0.2-0.2,0.4-0.7,0.4-1.3c0-1.3-0.5-1.6-1.8-1.6H465.6z"/>
	<path class="st26" d="M476.2,1119.3c0-0.5,0.4-0.8,0.9-0.8h13.3c0.5,0,0.8,0.4,0.8,0.8v3.8c0,0.5-0.4,0.9-0.8,0.9h-6.4
		c-0.5,0-0.9,0.4-0.9,0.8c0,0.5,0.4,0.9,0.9,0.9h4.6c0.5,0,0.8,0.4,0.8,0.8v3.8c0,0.5-0.4,0.9-0.8,0.9h-4.6c-0.5,0-0.9,0.4-0.9,0.8
		v0.1c0,0.5,0.4,0.9,0.9,0.9h6.4c0.5,0,0.8,0.4,0.8,0.8v3.8c0,0.5-0.4,0.9-0.8,0.9h-13.3c-0.5,0-0.9-0.4-0.9-0.9V1119.3z"/>
</g>
<g>
	<defs>
		<rect id="SVGID_35_" y="0" width="841.9" height="1190.6"/>
	</defs>
	<clipPath id="SVGID_36_">
		<use xlink:href="#SVGID_35_"  style="overflow:visible;"/>
	</clipPath>
	<path class="st27" d="M697.3,1004.8c55.5,0,100.6-45,100.6-100.6c0-55.5-45-100.6-100.6-100.6c-55.5,0-100.6,45-100.6,100.6
		C596.7,959.7,641.7,1004.8,697.3,1004.8"/>
</g>
<g>
	<defs>
		<rect id="SVGID_37_" x="641.3" y="833.9" width="119.1" height="130.2"/>
	</defs>
	<clipPath id="SVGID_38_">
		<use xlink:href="#SVGID_37_"  style="overflow:visible;"/>
	</clipPath>
	<path class="st28" d="M669.9,895.7c0,3.7,0.7,7,1.9,9.9c0,0.1,0,0.2-0.2,0.2h-24.3c-3.4,0-6.1-2.7-6.1-5.9v-23.5
		c0-3.2,2.7-5.9,6.1-5.9h27.1c0.1,0,0.2-0.1,0.2-0.2v-30.2c0-3.4,2.8-6.1,6.1-6.1h15.3c0.2,0,0.4,0.1,0.5,0.3
		c2.4,3.6,3.9,7.8,4.2,12.2C702.6,869.9,669.9,866.1,669.9,895.7"/>
	<path class="st28" d="M707.5,960.9c-0.1,1.8-1.7,3.3-3.5,3.3c0,0,0,0,0,0h-23.5c-3.2,0-5.9-2.7-5.9-6.1v-46.6
		c0-0.2,0.2-0.2,0.3-0.1c1.2,1.7,2.5,3.3,4,4.9c5.7,6.1,13.2,11.3,19.4,18C704.7,941,708,951.8,707.5,960.9"/>
	<path class="st29" d="M710,839.9v3.8c0,0.2-0.2,0.3-0.3,0.1c-1.2-2.3-2.9-4.6-5.1-6.8c-1-1-1.8-1.9-2.6-2.7c-0.1-0.1,0-0.3,0.1-0.3
		h2C707.2,834,710,836.7,710,839.9"/>
	<path class="st29" d="M737.2,870.5h-25c-1.5,0-2.2-0.5-2.2-3.6c0-0.2-0.3-0.2-0.3-0.1c-1.6,3.3-5,6.5-7.3,8.5
		c-4,3.5-8.3,9.7-6.7,19.7c0.5,3.4,2.1,7,6.4,12.4c1.2,1.5,2.2,2.7,3,3.9c-1.3-2.5-2.7-4.8-3.9-7.9c-2.8-7.3-2.8-16.2,2.9-22.5
		c4.6-5.1,12.5-6.1,18.6-4.3c0,0-5.7,0.3-8.8,7.2c-2.2,4.9-0.2,11.5-2.9,16.7c2.7-3.1,3.6-7.5,4.8-10.3c1.2-2.7,3-5.1,5.3-7.1
		c0.9-0.8,2.1-1.6,3.3-2c0.2-0.1,0.6,0.4,0.8,0.7c0.8,1.4,1,2,0.9,3.4c-0.1,1.5-0.7,2.6-0.9,3.7c-0.1,0.9,0.2,1.6,0.3,2
		c0.6,1.3,1.6,2.2,2.1,3c0.3,0.6-0.1,1.2-0.7,1.4c-0.7,0.3-1.3,0.3-1.4,0.7c-0.2,0.5,0.4,1,0.5,1.4c0.1,0.5-0.2,1.2-1.1,1.3
		c0.2,0.3,0.5,0.5,0.5,0.8c0,0.5-0.5,0.5-0.8,1.1c-0.4,0.8,0.4,2.7-1.8,3.4c-1.5,0.5-2.5-0.6-4.2-0.2c-0.9,0.2-2,1-2.5,2.2h21.1
		c3.4,0,6.1-2.8,6.1-6.1v-23.1C743.3,873.3,740.6,870.5,737.2,870.5"/>
	<path class="st30" d="M703.4,862.8c-0.4,0.2-0.8,0.3-1.3,0.2c-0.2,0.4-0.4,0.9-0.6,1.4v0c0,0,0.1,0,0.1,0.1c0.1,0,0.1,0.1,0.2,0.2
		C702.5,864,703,863.4,703.4,862.8"/>
	<path class="st29" d="M696,901.9c-0.5,0.2-1.1,0.2-1.5-0.1c-0.7-0.5-0.8-1.4-0.3-2c0,0,0.1-0.1,0.1-0.1c-0.3-0.5-0.6-0.9-0.9-1.4
		c-0.5,0.2-1,0.1-1.5-0.2c-0.8-0.5-1-1.6-0.4-2.4c0.1-0.2,0.3-0.3,0.4-0.4c-0.2-0.4-0.3-0.9-0.4-1.3c-0.5,0-0.9-0.1-1.3-0.4
		c-0.9-0.6-1.1-1.9-0.5-2.8c0.3-0.4,0.7-0.7,1.2-0.8c-0.1-2,0.2-4,0.8-6.1c-0.1,0-0.1-0.1-0.2-0.1c-0.9-0.6-1.1-1.9-0.5-2.8
		c0.5-0.7,1.3-1,2.1-0.8c0.4-0.8,0.8-1.6,1.3-2.4c0.4-0.6,0.7-1.2,1.1-1.8c0.8-1.2,1.6-2.4,2.3-3.6c-0.7-0.6-0.9-1.6-0.3-2.4
		c0.5-0.7,1.3-0.9,2.1-0.7c0.2-0.4,0.5-0.9,0.7-1.3c0,0,0,0,0,0c-0.2-0.1-0.3-0.3-0.4-0.4c-0.4-0.6-0.4-1.4,0-2.1
		c0.4-0.6,1.2-0.9,1.9-0.7c0.2-0.4,0.4-0.9,0.6-1.3c-0.1,0-0.1-0.1-0.2-0.1c-0.8-0.6-1-1.7-0.4-2.5c0.4-0.6,1.1-0.8,1.7-0.7
		c0.1-0.3,0.2-0.7,0.3-1c-0.1,0-0.2-0.1-0.4-0.2c-0.8-0.6-1-1.7-0.4-2.5c0.4-0.5,1-0.8,1.5-0.8c0-0.3,0.1-0.5,0.1-0.8
		c-0.2,0-0.3-0.1-0.5-0.2c-0.7-0.5-0.8-1.4-0.3-2c0.3-0.4,0.6-0.6,1.1-0.6c0-0.3,0-0.6,0-0.8c-0.2,0-0.4-0.1-0.5-0.2
		c-0.6-0.4-0.7-1.2-0.3-1.8c0.2-0.3,0.4-0.4,0.7-0.5c0-0.3-0.1-0.6-0.1-0.8c-0.2,0-0.4-0.1-0.6-0.2c-0.5-0.4-0.7-1.1-0.3-1.6
		c0.1-0.2,0.3-0.3,0.4-0.4c-0.1-0.2-0.1-0.5-0.2-0.7c-0.2,0-0.4-0.1-0.6-0.2c-0.5-0.3-0.6-1-0.2-1.4c0.1-0.1,0.1-0.2,0.2-0.2
		c-0.1-0.2-0.1-0.3-0.2-0.5c-0.2,0-0.4,0-0.6-0.2c-0.4-0.3-0.5-0.9-0.2-1.3c0,0,0.1-0.1,0.1-0.1v0c-0.1-0.2-0.2-0.3-0.2-0.5
		c-0.2,0-0.4,0-0.6-0.1c-0.3-0.2-0.4-0.7-0.2-1.1c0,0,0,0,0-0.1c-0.6-1.1-3.7-5-4-5.2h0.7c0,0,2.5,2.8,3.8,5c0.2,0,0.4,0,0.5,0.1
		c0.3,0.2,0.4,0.7,0.2,1.1c0,0,0,0,0,0c0.1,0.2,0.2,0.3,0.3,0.5c0.2,0,0.5,0,0.7,0.2c0.4,0.3,0.5,0.9,0.2,1.3
		c-0.1,0.1-0.1,0.1-0.2,0.2v0c0.1,0.2,0.1,0.3,0.2,0.5c0.2,0,0.5,0,0.7,0.2c0.5,0.3,0.6,1,0.2,1.4c-0.1,0.1-0.2,0.2-0.3,0.3
		c0.1,0.2,0.1,0.5,0.2,0.8h0c0.2,0,0.5,0.1,0.7,0.2c0.5,0.4,0.7,1.1,0.3,1.6c-0.1,0.2-0.3,0.3-0.5,0.4c0,0.3,0.1,0.6,0.1,0.9
		c0.2,0,0.4,0.1,0.6,0.2c0.6,0.4,0.7,1.2,0.3,1.8c-0.2,0.3-0.5,0.4-0.7,0.5c0,0.3,0,0.6,0,0.9c0.2,0,0.3,0.1,0.4,0.2
		c0.7,0.5,0.8,1.4,0.3,2c-0.3,0.4-0.6,0.6-1,0.6c0,0.3-0.1,0.6-0.1,0.8c0.1,0.1,0.3,0.1,0.4,0.2c0.8,0.6,1,1.7,0.4,2.5
		c-0.4,0.5-1,0.8-1.6,0.7c-0.1,0.4-0.2,0.7-0.3,1.1c0.1,0,0.2,0.1,0.2,0.1c0.6,0.4,0.8,1.1,0.7,1.8c0,0.3-0.1,0.5-0.3,0.7
		c-0.2,0.2-0.4,0.4-0.6,0.5c-0.4,0.2-0.8,0.3-1.3,0.2c-0.2,0.4-0.4,0.9-0.6,1.4v0c0,0,0.1,0,0.1,0.1c0.1,0,0.1,0.1,0.2,0.2
		c0.6,0.6,0.8,1.6,0.2,2.3c-0.5,0.7-1.3,0.9-2,0.7c-0.2,0.4-0.4,0.9-0.7,1.3c0.8,0.6,1,1.7,0.4,2.5c-0.5,0.7-1.4,0.9-2.1,0.6
		c-0.7,1.2-1.5,2.4-2.3,3.6c-0.2,0.4-0.5,0.7-0.7,1.1c-0.6,1-1.2,2-1.7,3.1c0.1,0,0.2,0.1,0.2,0.1c0.9,0.6,1.1,1.9,0.5,2.8
		c-0.5,0.7-1.4,1-2.2,0.8c-0.4,1.2-0.6,2.4-0.7,3.6c-0.1,0.8-0.1,1.5-0.1,2.2c0.4,0,0.8,0.1,1.1,0.4c0.9,0.6,1.1,1.9,0.5,2.8
		c-0.2,0.3-0.6,0.6-1,0.7c0.1,0.4,0.2,0.8,0.4,1.2c0.5-0.1,1-0.1,1.5,0.2c0.8,0.5,1,1.6,0.4,2.4c-0.1,0.2-0.3,0.3-0.4,0.4
		c0.3,0.5,0.6,0.9,0.9,1.3c0.5-0.2,1.1-0.2,1.5,0.1c0.7,0.5,0.8,1.4,0.3,2c0,0-0.1,0.1-0.1,0.1c2.7,2.5,3.7,4.2,7,6.8l1.2,2.3
		C704.6,910.7,696.6,902.3,696,901.9"/>
	<path class="st30" d="M703.1,864.2c-0.2,0.6,0,0-0.3,0.7c1.4,1.1,0.4,4.2-1.9,3.8c-0.2,0.5-0.1,0.3-0.3,0.7
		c1.2,1.2,0.4,4.1-2.2,3.8c-0.7,1.2-1.9,3-2.1,3.4c9.3-5,14.1-10.3,15.2-19.3c1.3-10.8-11.1-23.4-11.1-23.4s4.8,7.2,6.4,11.5
		c2.6,7.6,1.1,11.8-1.4,15.6C705.9,862.5,704.7,864.3,703.1,864.2"/>
	<path class="st30" d="M674.1,886.4c-5.2,10.3,1.1,21.3,4,24.9c3,3.8,7.3,8.4,9.7,10.8c-3.7-4.9-9.3-13.7-10-20.6
		c-0.8-6.9-0.3-15.5,15.2-23.1c0.5-0.2-0.2,0.1,0.3-0.1c0.4-0.6,0.9-1.5,1.3-2.1c0.8-1.2,1.8-2.7,2.5-3.9c-0.8-1-0.5-2.2,0.2-3
		C689.1,874.5,678.5,877.6,674.1,886.4"/>
	<path class="st30" d="M699.3,867.8c-0.4,0.3-0.9,0.6-1.3,1c0.4-0.1,0.8-0.2,1.3-0.1c0.1-0.2,0.3-0.6,0.3-0.6
		C699.5,867.9,699.4,867.9,699.3,867.8"/>
	<path class="st28" d="M713.4,963.9c-0.3,0-0.6-0.3-0.6-0.6v-3c0-0.2,0.1-0.3,0.2-0.4l1.8-1.7c0.4-0.4,0.8-0.8,1.2-1.2l0.9-0.9
		c0.4-0.4,0.9-1.1,1.1-1.6c0-0.2,0-0.3,0-0.5c0-0.4-0.1-0.6-0.3-0.7c-0.2-0.1-0.6-0.2-1.2-0.2c-0.6,0-1.8,0.1-2.6,0.2
		c-0.5,0-0.9-0.2-0.9-0.8l-0.2-2.5c0-0.3,0.2-0.5,0.4-0.6c1.4-0.5,2.9-0.7,4.5-0.7c2.8,0,5.4,1.2,5.4,4.3c0,2.8-0.9,4.1-3.2,5.7
		c-0.5,0.3-0.2,1.1,0.3,1.1h2.2c0.3,0,0.6,0.3,0.6,0.6v2.9c0,0.3-0.3,0.6-0.6,0.6H713.4z"/>
	<path class="st28" d="M725.8,950.6c0.9-1.2,2.4-1.8,4.6-1.8c2.2,0,3.7,0.6,4.5,1.8c0.9,1.2,1.3,3.2,1.3,5.9c0,4.4-0.8,7.7-5.8,7.7
		c-5,0-5.9-3.3-5.9-7.7C724.5,953.7,725,951.8,725.8,950.6 M729.7,953.6c-0.1,0.4-0.2,1.4-0.2,2.8c0,1.5,0,2.4,0.2,2.8
		c0.1,0.4,0.3,0.7,0.6,0.7c0.3,0,0.5-0.2,0.6-0.7c0.1-0.4,0.1-1.2,0.1-2.3s0-1.9,0-2.3c0-0.4-0.1-0.8-0.1-1
		c-0.1-0.4-0.2-0.6-0.6-0.6C729.9,953,729.9,953.2,729.7,953.6"/>
	<path class="st28" d="M738.1,963.9c-0.3,0-0.6-0.3-0.6-0.6v-3c0-0.2,0.1-0.3,0.2-0.4l1.8-1.7c0.4-0.4,0.8-0.8,1.2-1.2l0.9-0.9
		c0.4-0.4,0.9-1.1,1.1-1.6c0-0.2,0-0.3,0-0.5c0-0.4-0.1-0.6-0.3-0.7c-0.2-0.1-0.6-0.2-1.2-0.2c-0.7,0-1.8,0.1-2.6,0.2
		c-0.5,0-0.9-0.2-0.9-0.8l-0.2-2.5c0-0.3,0.2-0.5,0.4-0.6c1.4-0.5,2.9-0.7,4.5-0.7c2.8,0,5.4,1.2,5.4,4.3c0,2.8-0.9,4.1-3.2,5.7
		c-0.5,0.3-0.2,1.1,0.3,1.1h2.2c0.3,0,0.6,0.3,0.6,0.6v2.9c0,0.3-0.3,0.6-0.6,0.6H738.1z"/>
	<path class="st28" d="M721.7,911.1c0.6,0,1.1,0.5,1.1,1.1v19.3c0,5.1-2.9,5.5-7,5.7h-1.6c-0.7,0-1.3-0.6-1.3-1.3v-3.2
		c0-0.7,0.6-1.3,1.3-1.3h0.9c0.1,0,0.2-0.1,0.4-0.2c0.2-0.1,0.2-0.2,0.3-0.4c0-0.1,0.1-0.4,0.1-0.7c0.1-0.6,0.1-7.3,0.1-8.7v-9.3
		c0-0.6,0.5-1.1,1.1-1.1H721.7z"/>
	<path class="st28" d="M759.2,911.1c0.6,0,1.1,0.5,1.1,1.1v19.3c0,5.1-2.9,5.5-7,5.7h-1.6c-0.7,0-1.3-0.6-1.3-1.3v-3.2
		c0-0.7,0.6-1.3,1.3-1.3h0.9c0.1,0,0.2-0.1,0.4-0.2c0.2-0.1,0.2-0.2,0.3-0.4c0-0.1,0.1-0.4,0.1-0.7c0.1-0.6,0.1-7.3,0.1-8.7v-9.3
		c0-0.6,0.5-1.1,1.1-1.1H759.2z"/>
	<path class="st28" d="M724.5,912.4c0-0.7,0.6-1.3,1.3-1.3h8.1c0.6,0,1.1,0.4,1.2,1l0.6,3.2c0.1,0.4,0.4,0.5,0.7,0.5
		c0.3,0,0.6-0.2,0.7-0.5l0.5-3.1c0.1-0.6,0.6-1.1,1.2-1.1h8.4c0.7,0,1.3,0.6,1.3,1.3v23.5c0,0.7-0.6,1.3-1.3,1.3h-4.5
		c-0.7,0-1.3-0.6-1.3-1.3v-15h-0.3l-1.6,15c-0.1,0.6-0.6,1.1-1.2,1.1h-3.8c-0.6,0-1.1-0.5-1.2-1.1l-1.5-15h-0.3v15
		c0,0.7-0.6,1.3-1.3,1.3h-4.5c-0.7,0-1.3-0.6-1.3-1.3V912.4z"/>
	<path class="st28" d="M758.7,949.8c1,0.6,1.5,1.7,1.5,3.3c0,0.9-0.1,1.8-0.7,2.4c-0.3,0.4-0.2,0.9,0.1,1.2c0.2,0.2,0.4,0.4,0.5,0.7
		c0.2,0.4,0.4,1,0.4,1.8c0,3.9-2.3,4.8-5.9,4.8c-1.2,0-2.5-0.1-4-0.4c-0.4-0.1-0.7-0.5-0.7-0.9l0.1-2.2c0-0.5,0.4-0.9,0.9-0.9
		c1.3,0.1,2.2,0.2,2.8,0.2c0.7,0,1.2,0,1.4-0.1c0.2-0.1,0.4-0.3,0.4-0.5c0-0.3-0.1-0.5-0.2-0.6c-0.2-0.1-0.5-0.2-0.9-0.2h-2.2
		c-0.5,0-0.9-0.4-0.9-0.9v-2.1c0-0.5,0.4-0.9,0.9-0.9h2c0.8,0,1.2-0.2,1.2-0.7c0-0.5-0.5-0.7-1.5-0.7c-0.5,0-2.2,0.1-3.1,0.2
		c-0.3,0-0.5-0.2-0.5-0.5l-0.1-2.5c0-0.4,0.3-0.8,0.7-0.9c1.3-0.3,2.5-0.5,3.3-0.5C756.1,948.8,757.7,949.1,758.7,949.8"/>
	<path class="st29" d="M713.3,946.3c-0.2,0-0.4-0.2-0.4-0.4v-6.2c0-0.2,0.2-0.4,0.4-0.4h1.6c0.2,0,0.4,0.2,0.4,0.4v4.2
		c0,0.2,0.2,0.4,0.4,0.4h1.4c0.2,0,0.4,0.2,0.4,0.4v1.1c0,0.2-0.2,0.4-0.4,0.4H713.3z"/>
	<path class="st29" d="M718,939.6c0-0.2,0.2-0.4,0.4-0.4h1.6c0.2,0,0.4,0.2,0.4,0.4v6.2c0,0.2-0.2,0.4-0.4,0.4h-1.6
		c-0.2,0-0.4-0.2-0.4-0.4V939.6z"/>
	<path class="st29" d="M726.4,940.7c0,0.3-0.3,0.5-0.6,0.5c-0.7-0.1-1.3-0.1-1.6-0.1c-0.5,0-0.7,0-0.8,0c-0.1,0-0.1,0.1-0.1,0.2
		s0,0.1,0.1,0.2c0.1,0,0.3,0.1,0.8,0.2c0.8,0.2,2,0.4,2.3,1.3c0.1,0.3,0.1,0.6,0.1,1c0,1.9-1.1,2.4-2.8,2.4c-0.8,0-1.7-0.1-2.6-0.3
		c-0.2-0.1-0.4-0.3-0.4-0.5l0.1-0.9c0-0.3,0.2-0.5,0.5-0.5c0.9,0.1,1.6,0.2,2.2,0.2c0.4,0,0.5-0.1,0.5-0.2c0-0.1,0-0.1-0.1-0.2
		c-0.1,0-0.3-0.1-0.7-0.1c-1-0.2-1.7-0.4-2-0.7c-0.4-0.3-0.5-0.9-0.5-1.6c0-1.9,1-2.5,2.8-2.5c0.7,0,1.5,0.1,2.3,0.2h0
		c0.2,0,0.4,0.3,0.4,0.5L726.4,940.7z"/>
	<path class="st29" d="M727.1,939.7c0-0.3,0.2-0.5,0.5-0.5h2.7c1.7,0,2.6,0.6,2.6,1.7c0,0.5,0,1-0.4,1.4c-0.1,0.2-0.1,0.4,0.1,0.6
		c0.4,0.3,0.5,0.9,0.5,1.4c0,1.3-0.9,2-2.7,2h-2.8c-0.3,0-0.5-0.2-0.5-0.5V939.7z M729.8,940.8c-0.1,0-0.2,0.1-0.2,0.2v0.7
		c0,0.1,0.1,0.2,0.2,0.2h0.3c0.4,0,0.6-0.2,0.6-0.6c0-0.4-0.2-0.5-0.6-0.5H729.8z M729.8,943.5c-0.1,0-0.2,0.1-0.2,0.2v0.7
		c0,0.1,0.1,0.2,0.2,0.2h0.3c0.2,0,0.4,0,0.5-0.1c0.1-0.1,0.1-0.2,0.1-0.5c0-0.5-0.2-0.6-0.6-0.6H729.8z"/>
	<path class="st29" d="M736.7,946.4c-2.5,0-3.4-1.3-3.4-3.7c0-2.4,0.9-3.7,3.4-3.7c2.5,0,3.4,1.3,3.4,3.7
		C740.1,945.1,739.2,946.4,736.7,946.4 M736,944c0.1,0.3,0.4,0.4,0.7,0.4c0.4,0,0.6-0.1,0.7-0.4c0.1-0.3,0.2-0.7,0.2-1.3
		c0-0.6-0.1-1-0.2-1.3c-0.1-0.3-0.3-0.4-0.7-0.4c-0.4,0-0.6,0.1-0.7,0.4c-0.1,0.3-0.2,0.7-0.2,1.3C735.8,943.4,735.9,943.8,736,944"
		/>
	<path class="st29" d="M740.6,939.7c0-0.2,0.2-0.4,0.4-0.4h1.7c0.2,0,0.3,0.1,0.4,0.2l1.2,1.9c0,0.1,0.1,0.1,0.2,0.1
		c0.1,0,0.2-0.1,0.2-0.2v-1.5c0-0.2,0.2-0.4,0.4-0.4h1.6c0.2,0,0.4,0.2,0.4,0.4v6.2c0,0.2-0.2,0.4-0.4,0.4H745
		c-0.2,0-0.3-0.1-0.4-0.2l-1.2-2c0-0.1-0.1-0.1-0.2-0.1c-0.1,0-0.2,0.1-0.2,0.2v1.7c0,0.2-0.2,0.4-0.4,0.4H741
		c-0.2,0-0.4-0.2-0.4-0.4V939.7z"/>
	<path class="st29" d="M747.8,939.7c0-0.2,0.2-0.4,0.4-0.4h1.7c0.2,0,0.3,0.1,0.4,0.2l1.2,1.9c0,0.1,0.1,0.1,0.2,0.1
		c0.1,0,0.2-0.1,0.2-0.2v-1.5c0-0.2,0.2-0.4,0.4-0.4h1.6c0.2,0,0.4,0.2,0.4,0.4v6.2c0,0.2-0.2,0.4-0.4,0.4h-1.7
		c-0.2,0-0.3-0.1-0.4-0.2l-1.2-2c0-0.1-0.1-0.1-0.2-0.1c-0.1,0-0.2,0.1-0.2,0.2v1.7c0,0.2-0.2,0.4-0.4,0.4h-1.6
		c-0.2,0-0.4-0.2-0.4-0.4V939.7z"/>
	<path class="st29" d="M755,939.5c0-0.2,0.1-0.3,0.3-0.3h4.7c0.2,0,0.3,0.1,0.3,0.3v1.3c0,0.2-0.1,0.3-0.3,0.3h-2.2
		c-0.2,0-0.3,0.1-0.3,0.3c0,0.2,0.1,0.3,0.3,0.3h1.6c0.2,0,0.3,0.1,0.3,0.3v1.3c0,0.2-0.1,0.3-0.3,0.3h-1.6c-0.2,0-0.3,0.1-0.3,0.3
		v0c0,0.2,0.1,0.3,0.3,0.3h2.2c0.2,0,0.3,0.1,0.3,0.3v1.3c0,0.2-0.1,0.3-0.3,0.3h-4.7c-0.2,0-0.3-0.1-0.3-0.3V939.5z"/>
</g>
<path class="st10" d="M283.8,645.8c-0.2,1.1-1.2,1.9-2.3,1.9h-13.2c-1.2,0-2.1-0.8-2.4-1.9l-5.9-28.8c-0.3-1.5,0.9-2.9,2.4-2.9h7.3
	c1.2,0,2.2,0.9,2.4,2.1l2.4,19.7h0.9l2.1-19.7c0.1-1.2,1.2-2.1,2.4-2.1h7.3c1.5,0,2.6,1.4,2.4,2.9L283.8,645.8z M291,616.1
	c0-1.1,0.9-2,2-2h7.7c1.1,0,2,0.9,2,2v29.6c0,1.1-0.9,2-2,2H293c-1.1,0-2-0.9-2-2V616.1z M331,621.3c-0.1,1.5-1.3,2.3-2.7,2.3
	c-3.4-0.4-6-0.5-7.7-0.5c-2.2,0-3.4,0-3.8,0.2c-0.4,0.1-0.5,0.4-0.5,0.8c0,0.3,0.2,0.7,0.6,0.9s1.7,0.5,3.8,1c3.8,0.8,9.7,2,11,6.3
	c0.4,1.2,0.6,2.8,0.6,4.8c0,8.8-5.1,11.5-13.3,11.5c-4,0-8.3-0.4-12.2-1.4c-1.2-0.2-1.9-1.3-1.9-2.5l0.2-4.3
	c0.1-1.3,1.2-2.3,2.4-2.3c4.3,0.5,7.6,0.8,10.3,0.8c1.8,0,2.6-0.4,2.6-1.2c0-0.4-0.2-0.6-0.6-0.8c-0.4-0.1-1.5-0.4-3.3-0.6
	c-4.7-0.8-7.9-1.9-9.5-3.5c-1.7-1.6-2.6-4.1-2.6-7.6c0-9.2,4.6-11.8,13.3-11.8c3.2,0,6.9,0.3,11.2,1h0c1.2,0.2,2,1.3,2,2.5
	L331,621.3z M343.1,614.2c1.3,0,2.4,1.1,2.4,2.4v19.6c0,2.2,1.2,2.7,3.2,2.7c2,0,3.1-0.5,3.1-2.7v-19.6c0-1.3,1.1-2.4,2.4-2.4h6.9
	c1.3,0,2.4,1.1,2.4,2.4v19c0,10-5.4,12.9-14.7,12.9c-9.3,0-14.8-2.6-14.8-12.7v-19.2c0-1.3,1.1-2.4,2.4-2.4H343.1z M365.8,615.6
	c0-0.8,0.7-1.4,1.5-1.4h22.3c0.8,0,1.4,0.7,1.4,1.4v6.4c0,0.8-0.7,1.5-1.4,1.5h-10.7c-0.8,0-1.5,0.7-1.5,1.4c0,0.8,0.7,1.5,1.5,1.5
	h7.7c0.8,0,1.4,0.7,1.4,1.4v6.3c0,0.8-0.7,1.5-1.4,1.5h-7.7c-0.8,0-1.5,0.7-1.5,1.4v0.1c0,0.8,0.7,1.5,1.5,1.5h10.7
	c0.8,0,1.4,0.7,1.4,1.4v6.4c0,0.8-0.7,1.5-1.4,1.5h-22.3c-0.8,0-1.5-0.7-1.5-1.5V615.6z M395.1,647.7c-1.2,0-2.1-1-2.1-2.1v-29.3
	c0-1.2,1-2.1,2.1-2.1h7.4c1.2,0,2.1,1,2.1,2.1v19.9c0,1.2,1,2.1,2.1,2.1h6.7c1.2,0,2.1,1,2.1,2.1v5.3c0,1.2-1,2.1-2.1,2.1H395.1z
	 M433,615.8c0.2-1,1.1-1.7,2.1-1.7h14.2c1,0,1.9,0.7,2.1,1.7l6.6,29.3c0.3,1.4-0.7,2.6-2.1,2.6h-7.4c-1,0-1.8-0.7-2.1-1.6l-0.2-0.7
	c-0.2-1-1.1-1.6-2.1-1.6h-4.3c-1.1,0-1.9,0.7-2.1,1.7l-0.1,0.5c-0.2,1-1.1,1.7-2.1,1.7h-7.1c-1.4,0-2.4-1.3-2.1-2.6L433,615.8z
	 M445,605.2c0.6,0,1.1,0.4,1.2,1l1.1,4.3c0.2,0.8-0.4,1.6-1.2,1.6h-6.4c-0.4,0-0.8-0.2-1-0.5l-3.3-4.3c-0.7-0.8,0-2,1-2H445z
	 M441.6,623.3l-1.5,9.3c-0.2,1.3,0.8,2.5,2.1,2.5c1.3,0,2.3-1.2,2.1-2.5l-1.5-9.3H441.6z M494.3,645.3c0.1,1-0.7,1.9-1.6,2.1
	c-3,0.7-6.1,1-9.2,1c-5.6,0-10.8-1-12.9-6.9c-0.9-2.5-1.4-6-1.4-10.7c0-6.7,1.1-11.2,3.1-13.7c2.1-2.5,6-3.7,11.7-3.7
	c2.4,0,5.3,0.4,8.5,1c1,0.2,1.7,1.1,1.7,2.2l-0.2,4.9c0,1.3-1.1,2-2.3,2c-1.9-0.2-3.7-0.3-5.4-0.3c-2.3,0-3.8,0.5-4.5,1.3
	c-0.7,0.9-1,2.8-1,5.5s0.2,4.7,0.5,5.8c0.9,2.5,2.6,2.7,5,2.7l5.7-0.2c1.2,0,2.2,0.9,2.2,2.1L494.3,645.3z M507.9,640.6v5.5
	c0,0.9-0.7,1.6-1.6,1.6h-8.4c-0.9,0-1.6-0.7-1.6-1.6v-30.3c0-0.9,0.7-1.6,1.6-1.6h12.5c9.2,0,14.5,2.1,14.5,12.2
	c0,4.2-1,7.4-3.1,9.4c-0.4,0.4-0.6,1-0.4,1.5l2.5,8.5c0.3,1-0.5,2-1.5,2h-8.5c-0.7,0-1.4-0.5-1.5-1.3l-1.4-6.2
	c-0.1-0.8-0.8-1.3-1.5-1.3C508.6,639,507.9,639.7,507.9,640.6z M510.7,629.9c1.7,0,2.5-1.1,2.5-3.3c0-2.2-0.9-3.3-2.8-3.3h-1
	c-0.9,0-1.6,0.7-1.6,1.6v3.4c0,0.9,0.7,1.6,1.6,1.6H510.7z M526.9,615.6c0-0.8,0.7-1.4,1.5-1.4h22.2c0.8,0,1.5,0.7,1.5,1.4v6.4
	c0,0.8-0.7,1.5-1.5,1.5h-10.7c-0.8,0-1.4,0.7-1.4,1.4c0,0.8,0.7,1.5,1.4,1.5h7.7c0.8,0,1.5,0.7,1.5,1.4v6.3c0,0.8-0.7,1.5-1.5,1.5
	h-7.7c-0.8,0-1.4,0.7-1.4,1.4v0.1c0,0.8,0.7,1.5,1.4,1.5h10.7c0.8,0,1.5,0.7,1.5,1.4v6.4c0,0.8-0.7,1.5-1.5,1.5h-22.2
	c-0.8,0-1.5-0.7-1.5-1.5V615.6z M544.6,605.2c0.9,0,1.5,1.1,0.9,1.8l-3.7,4.6c-0.2,0.2-0.6,0.4-0.9,0.4h-6.8c-0.8,0-1.3-0.8-1.1-1.5
	l1.5-4.6c0.1-0.5,0.6-0.8,1.1-0.8H544.6z M554.1,615.6c0-0.8,0.7-1.4,1.5-1.4h22.3c0.8,0,1.4,0.7,1.4,1.4v6.4c0,0.8-0.7,1.5-1.4,1.5
	h-10.7c-0.8,0-1.5,0.7-1.5,1.4c0,0.8,0.7,1.5,1.5,1.5h7.7c0.8,0,1.4,0.7,1.4,1.4v6.3c0,0.8-0.7,1.5-1.4,1.5h-7.7
	c-0.8,0-1.5,0.7-1.5,1.4v0.1c0,0.8,0.7,1.5,1.5,1.5h10.7c0.8,0,1.4,0.7,1.4,1.4v6.4c0,0.8-0.7,1.5-1.4,1.5h-22.3
	c-0.8,0-1.5-0.7-1.5-1.5V615.6z M592.9,640.6v5.5c0,0.9-0.7,1.6-1.6,1.6h-8.4c-0.9,0-1.6-0.7-1.6-1.6v-30.3c0-0.9,0.7-1.6,1.6-1.6
	h12.5c9.2,0,14.5,2.1,14.5,12.2c0,4.2-1,7.4-3.1,9.4c-0.4,0.4-0.6,1-0.4,1.5l2.5,8.5c0.3,1-0.5,2-1.5,2h-8.5c-0.7,0-1.4-0.5-1.5-1.3
	l-1.4-6.2c-0.2-0.8-0.8-1.3-1.5-1.3C593.6,639,592.9,639.7,592.9,640.6z M595.7,629.9c1.7,0,2.5-1.1,2.5-3.3c0-2.2-0.9-3.3-2.8-3.3
	h-1c-0.9,0-1.6,0.7-1.6,1.6v3.4c0,0.9,0.7,1.6,1.6,1.6H595.7z"/>
<g>
	<path class="st10" d="M268.3,673.6c0.5,0.3,1.7,0.9,3,0.9c2.4,0,3.1-1.5,3.1-2.6c0-1.9-1.7-2.7-3.5-2.7h-1v-1.4h1
		c1.3,0,3-0.7,3-2.3c0-1.1-0.7-2.1-2.4-2.1c-1.1,0-2.1,0.5-2.7,0.9l-0.5-1.3c0.7-0.5,2.1-1,3.6-1c2.7,0,3.9,1.6,3.9,3.3
		c0,1.4-0.8,2.6-2.5,3.2v0c1.7,0.3,3,1.6,3,3.5c0,2.2-1.7,4.1-5,4.1c-1.5,0-2.9-0.5-3.5-0.9L268.3,673.6z"/>
	<path class="st10" d="M290.9,675.3c-0.5,0.3-1.6,0.6-2.9,0.6c-3.1,0-5.1-2.1-5.1-5.2c0-3.1,2.1-5.4,5.5-5.4c1.1,0,2.1,0.3,2.6,0.5
		l-0.4,1.4c-0.4-0.3-1.1-0.5-2.1-0.5c-2.3,0-3.6,1.7-3.6,3.8c0,2.4,1.5,3.8,3.5,3.8c1,0,1.7-0.3,2.3-0.5L290.9,675.3z"/>
	<path class="st10" d="M302,670.5c0,3.8-2.6,5.4-5.1,5.4c-2.8,0-4.9-2-4.9-5.2c0-3.4,2.2-5.4,5-5.4C300,665.3,302,667.4,302,670.5z
		 M293.9,670.6c0,2.2,1.3,3.9,3.1,3.9c1.8,0,3.1-1.7,3.1-3.9c0-1.7-0.9-3.9-3-3.9S293.9,668.7,293.9,670.6z"/>
	<path class="st10" d="M312.5,672.9c0,1,0,2,0.1,2.8h-1.6l-0.1-1.7h0c-0.5,0.8-1.6,1.9-3.4,1.9c-1.6,0-3.5-0.9-3.5-4.5v-5.9h1.8v5.6
		c0,1.9,0.6,3.2,2.3,3.2c1.2,0,2.1-0.9,2.4-1.7c0.1-0.3,0.2-0.6,0.2-0.9v-6.2h1.8V672.9z"/>
	<path class="st10" d="M314.9,660.8h1.8v14.9h-1.8V660.8z"/>
	<path class="st10" d="M321.8,670.9c0,2.5,1.6,3.5,3.5,3.5c1.3,0,2.1-0.2,2.8-0.5l0.3,1.3c-0.7,0.3-1.8,0.6-3.4,0.6
		c-3.1,0-5-2.1-5-5.1s1.8-5.5,4.8-5.5c3.3,0,4.2,2.9,4.2,4.8c0,0.4,0,0.7-0.1,0.9H321.8z M327.3,669.6c0-1.2-0.5-3-2.6-3
		c-1.9,0-2.7,1.7-2.8,3H327.3z"/>
	<path class="st10" d="M339.8,672.9c0,1,0,2,0.1,2.8h-1.6l-0.1-1.7h0c-0.5,0.8-1.6,1.9-3.4,1.9c-1.6,0-3.5-0.9-3.5-4.5v-5.9h1.8v5.6
		c0,1.9,0.6,3.2,2.3,3.2c1.2,0,2.1-0.9,2.4-1.7c0.1-0.3,0.2-0.6,0.2-0.9v-6.2h1.8V672.9z"/>
	<path class="st10" d="M342.9,668.7c0-1.2,0-2.2-0.1-3.2h1.6l0.1,2h0.1c0.5-1.4,1.6-2.2,2.8-2.2c0.2,0,0.4,0,0.5,0.1v1.7
		c-0.2,0-0.4-0.1-0.6-0.1c-1.3,0-2.2,1-2.5,2.4c0,0.3-0.1,0.5-0.1,0.9v5.4h-1.8V668.7z"/>
	<path class="st10" d="M349.5,673.8c0.5,0.4,1.5,0.7,2.4,0.7c1.3,0,2-0.7,2-1.5c0-0.9-0.5-1.4-1.9-1.9c-1.8-0.7-2.7-1.7-2.7-2.9
		c0-1.6,1.3-3,3.5-3c1,0,1.9,0.3,2.5,0.6l-0.5,1.3c-0.4-0.3-1.1-0.6-2.1-0.6c-1.1,0-1.7,0.6-1.7,1.4c0,0.8,0.6,1.2,1.9,1.7
		c1.8,0.7,2.7,1.6,2.7,3.1c0,1.8-1.4,3-3.8,3c-1.1,0-2.1-0.3-2.9-0.7L349.5,673.8z"/>
	<path class="st10" d="M356.9,678.3c0.5-1.2,1-3.5,1.3-5l2.1-0.2c-0.5,1.8-1.4,4.1-2,5.1L356.9,678.3z"/>
	<path class="st10" d="M366.9,668.8c0-1.3,0-2.4-0.1-3.3h1.7l0.1,1.7h0c0.8-1.2,2-2,3.6-2c2.5,0,4.3,2.1,4.3,5.2
		c0,3.7-2.2,5.5-4.6,5.5c-1.3,0-2.5-0.6-3.1-1.6h0v5.5h-1.8V668.8z M368.7,671.5c0,0.3,0,0.5,0.1,0.8c0.3,1.3,1.4,2.2,2.8,2.2
		c2,0,3.1-1.6,3.1-3.9c0-2-1.1-3.8-3-3.8c-1.3,0-2.4,0.9-2.8,2.3c-0.1,0.2-0.1,0.5-0.1,0.8V671.5z"/>
	<path class="st10" d="M379.6,670.9c0,2.5,1.6,3.5,3.5,3.5c1.3,0,2.1-0.2,2.8-0.5l0.3,1.3c-0.7,0.3-1.8,0.6-3.4,0.6
		c-3.1,0-5-2.1-5-5.1s1.8-5.5,4.8-5.5c3.3,0,4.2,2.9,4.2,4.8c0,0.4,0,0.7-0.1,0.9H379.6z M385.1,669.6c0-1.2-0.5-3-2.6-3
		c-1.9,0-2.7,1.7-2.8,3H385.1z"/>
	<path class="st10" d="M388.7,668.7c0-1.2,0-2.2-0.1-3.2h1.6l0.1,2h0.1c0.5-1.4,1.6-2.2,2.8-2.2c0.2,0,0.4,0,0.5,0.1v1.7
		c-0.2,0-0.4-0.1-0.6-0.1c-1.3,0-2.2,1-2.5,2.4c0,0.3-0.1,0.5-0.1,0.9v5.4h-1.8V668.7z"/>
	<path class="st10" d="M395.3,673.8c0.5,0.4,1.5,0.7,2.4,0.7c1.3,0,2-0.7,2-1.5c0-0.9-0.5-1.4-1.9-1.9c-1.8-0.7-2.7-1.7-2.7-2.9
		c0-1.6,1.3-3,3.5-3c1,0,1.9,0.3,2.5,0.6l-0.5,1.3c-0.4-0.3-1.1-0.6-2.1-0.6c-1.1,0-1.7,0.6-1.7,1.4c0,0.8,0.6,1.2,1.9,1.7
		c1.8,0.7,2.7,1.6,2.7,3.1c0,1.8-1.4,3-3.8,3c-1.1,0-2.1-0.3-2.9-0.7L395.3,673.8z"/>
	<path class="st10" d="M413.1,670.5c0,3.8-2.6,5.4-5.1,5.4c-2.8,0-4.9-2-4.9-5.2c0-3.4,2.2-5.4,5-5.4
		C411.1,665.3,413.1,667.4,413.1,670.5z M405,670.6c0,2.2,1.3,3.9,3.1,3.9c1.8,0,3.1-1.7,3.1-3.9c0-1.7-0.9-3.9-3-3.9
		S405,668.7,405,670.6z"/>
	<path class="st10" d="M415.4,668.3c0-1.1,0-1.9-0.1-2.8h1.6l0.1,1.7h0c0.5-1,1.7-1.9,3.4-1.9c1.4,0,3.6,0.8,3.6,4.3v6.1h-1.8v-5.9
		c0-1.6-0.6-3-2.4-3c-1.2,0-2.2,0.9-2.5,1.9c-0.1,0.2-0.1,0.5-0.1,0.9v6.1h-1.8V668.3z"/>
	<path class="st10" d="M427.1,668.3c0-1.1,0-1.9-0.1-2.8h1.6l0.1,1.7h0c0.5-1,1.7-1.9,3.4-1.9c1.4,0,3.6,0.8,3.6,4.3v6.1h-1.8v-5.9
		c0-1.6-0.6-3-2.4-3c-1.2,0-2.2,0.9-2.5,1.9c-0.1,0.2-0.1,0.5-0.1,0.9v6.1h-1.8V668.3z"/>
	<path class="st10" d="M444.4,675.7l-0.1-1.3h-0.1c-0.6,0.8-1.7,1.5-3.1,1.5c-2.1,0-3.1-1.4-3.1-2.9c0-2.5,2.2-3.8,6.1-3.8V669
		c0-0.8-0.2-2.4-2.3-2.4c-0.9,0-1.9,0.3-2.6,0.8l-0.4-1.2c0.8-0.5,2.1-0.9,3.3-0.9c3.1,0,3.9,2.1,3.9,4.2v3.8c0,0.9,0,1.7,0.2,2.4
		H444.4z M444.1,670.5c-2,0-4.3,0.3-4.3,2.3c0,1.2,0.8,1.8,1.7,1.8c1.3,0,2.2-0.8,2.5-1.7c0.1-0.2,0.1-0.4,0.1-0.6V670.5z"/>
	<path class="st10" d="M458.4,665.5c0,0.7-0.1,1.6-0.1,2.8v5.9c0,2.3-0.5,3.8-1.4,4.6c-1,0.9-2.4,1.2-3.7,1.2
		c-1.2,0-2.6-0.3-3.4-0.8l0.5-1.4c0.7,0.4,1.7,0.8,3,0.8c1.9,0,3.3-1,3.3-3.5v-1.1h0c-0.6,0.9-1.7,1.7-3.2,1.7c-2.5,0-4.3-2.1-4.3-5
		c0-3.4,2.2-5.4,4.6-5.4c1.8,0,2.7,0.9,3.2,1.8h0l0.1-1.5H458.4z M456.4,669.5c0-0.3,0-0.6-0.1-0.8c-0.3-1.1-1.2-2-2.6-2
		c-1.8,0-3,1.5-3,3.8c0,2,1,3.7,3,3.7c1.1,0,2.2-0.7,2.6-1.9c0.1-0.3,0.1-0.7,0.1-1V669.5z"/>
	<path class="st10" d="M462.4,670.9c0,2.5,1.6,3.5,3.5,3.5c1.3,0,2.1-0.2,2.8-0.5l0.3,1.3c-0.7,0.3-1.8,0.6-3.4,0.6
		c-3.1,0-5-2.1-5-5.1s1.8-5.5,4.8-5.5c3.3,0,4.2,2.9,4.2,4.8c0,0.4,0,0.7-0.1,0.9H462.4z M467.8,669.6c0-1.2-0.5-3-2.6-3
		c-1.9,0-2.7,1.7-2.8,3H467.8z"/>
	<path class="st10" d="M471.6,673.8c0.5,0.4,1.5,0.7,2.4,0.7c1.3,0,2-0.7,2-1.5c0-0.9-0.5-1.4-1.9-1.9c-1.8-0.7-2.7-1.7-2.7-2.9
		c0-1.6,1.3-3,3.5-3c1,0,1.9,0.3,2.5,0.6l-0.5,1.3c-0.4-0.3-1.1-0.6-2.1-0.6c-1.1,0-1.7,0.6-1.7,1.4c0,0.8,0.6,1.2,1.9,1.7
		c1.8,0.7,2.7,1.6,2.7,3.1c0,1.8-1.4,3-3.8,3c-1.1,0-2.1-0.3-2.9-0.7L471.6,673.8z"/>
	<path class="st10" d="M485.7,670.9c0,2.5,1.6,3.5,3.5,3.5c1.3,0,2.1-0.2,2.8-0.5l0.3,1.3c-0.7,0.3-1.8,0.6-3.4,0.6
		c-3.1,0-5-2.1-5-5.1s1.8-5.5,4.8-5.5c3.3,0,4.2,2.9,4.2,4.8c0,0.4,0,0.7-0.1,0.9H485.7z M491.1,669.6c0-1.2-0.5-3-2.6-3
		c-1.9,0-2.7,1.7-2.8,3H491.1z"/>
	<path class="st10" d="M495.1,668.3c0-1.1,0-1.9-0.1-2.8h1.6l0.1,1.7h0c0.5-1,1.7-1.9,3.4-1.9c1.4,0,3.6,0.8,3.6,4.3v6.1h-1.8v-5.9
		c0-1.6-0.6-3-2.4-3c-1.2,0-2.2,0.9-2.5,1.9c-0.1,0.2-0.1,0.5-0.1,0.9v6.1h-1.8V668.3z"/>
	<path class="st10" d="M516.9,675.7l-0.1-1.3h-0.1c-0.6,0.8-1.7,1.5-3.1,1.5c-2.1,0-3.1-1.4-3.1-2.9c0-2.5,2.2-3.8,6.1-3.8V669
		c0-0.8-0.2-2.4-2.3-2.4c-0.9,0-1.9,0.3-2.6,0.8l-0.4-1.2c0.8-0.5,2.1-0.9,3.3-0.9c3.1,0,3.9,2.1,3.9,4.2v3.8c0,0.9,0,1.7,0.2,2.4
		H516.9z M516.6,670.5c-2,0-4.3,0.3-4.3,2.3c0,1.2,0.8,1.8,1.7,1.8c1.3,0,2.2-0.8,2.5-1.7c0.1-0.2,0.1-0.4,0.1-0.6V670.5z"/>
	<path class="st10" d="M528.6,675.3c-0.5,0.3-1.6,0.6-2.9,0.6c-3.1,0-5.1-2.1-5.1-5.2c0-3.1,2.1-5.4,5.5-5.4c1.1,0,2.1,0.3,2.6,0.5
		l-0.4,1.4c-0.4-0.3-1.1-0.5-2.1-0.5c-2.3,0-3.6,1.7-3.6,3.8c0,2.4,1.5,3.8,3.5,3.8c1,0,1.7-0.3,2.3-0.5L528.6,675.3z"/>
	<path class="st10" d="M533,662.6v2.9h2.6v1.4H533v5.5c0,1.3,0.4,2,1.4,2c0.5,0,0.8-0.1,1.1-0.1l0.1,1.4c-0.4,0.1-0.9,0.3-1.6,0.3
		c-0.9,0-1.6-0.3-2-0.8c-0.5-0.5-0.7-1.4-0.7-2.6v-5.5h-1.6v-1.4h1.6v-2.4L533,662.6z"/>
	<path class="st10" d="M539.8,662.7c0,0.6-0.4,1.1-1.2,1.1c-0.7,0-1.1-0.5-1.1-1.1c0-0.7,0.5-1.2,1.2-1.2
		C539.3,661.5,539.8,662,539.8,662.7z M537.7,675.7v-10.2h1.8v10.2H537.7z"/>
	<path class="st10" d="M551.8,670.5c0,3.8-2.6,5.4-5.1,5.4c-2.8,0-4.9-2-4.9-5.2c0-3.4,2.2-5.4,5-5.4
		C549.9,665.3,551.8,667.4,551.8,670.5z M543.8,670.6c0,2.2,1.3,3.9,3.1,3.9c1.8,0,3.1-1.7,3.1-3.9c0-1.7-0.9-3.9-3-3.9
		S543.8,668.7,543.8,670.6z"/>
	<path class="st10" d="M554.2,668.3c0-1.1,0-1.9-0.1-2.8h1.6l0.1,1.7h0c0.5-1,1.7-1.9,3.4-1.9c1.4,0,3.6,0.8,3.6,4.3v6.1H561v-5.9
		c0-1.6-0.6-3-2.4-3c-1.2,0-2.2,0.9-2.5,1.9c-0.1,0.2-0.1,0.5-0.1,0.9v6.1h-1.8V668.3z"/>
</g>
<g>
	<path class="st10" d="M238.7,237.4l2,5.7c0.3,0.9,0.6,1.8,0.8,2.6h0.1c0.2-0.8,0.5-1.7,0.9-2.6l2-5.7h1.9l-4,10.2h-1.8l-3.9-10.2
		H238.7z"/>
	<path class="st10" d="M256.7,242.4c0,3.8-2.6,5.4-5.1,5.4c-2.8,0-4.9-2-4.9-5.2c0-3.4,2.2-5.4,5-5.4
		C254.7,237.2,256.7,239.3,256.7,242.4z M248.6,242.5c0,2.2,1.3,3.9,3.1,3.9c1.8,0,3.1-1.7,3.1-3.9c0-1.7-0.9-3.9-3-3.9
		S248.6,240.6,248.6,242.5z"/>
	<path class="st10" d="M260.8,234.5v2.9h2.6v1.4h-2.6v5.5c0,1.3,0.4,2,1.4,2c0.5,0,0.8-0.1,1.1-0.1l0.1,1.4
		c-0.4,0.1-0.9,0.3-1.6,0.3c-0.9,0-1.6-0.3-2-0.8c-0.5-0.5-0.7-1.4-0.7-2.6v-5.5h-1.6v-1.4h1.6V235L260.8,234.5z"/>
	<path class="st10" d="M264.1,240.6c0-1.2,0-2.2-0.1-3.2h1.6l0.1,2h0.1c0.5-1.4,1.6-2.2,2.8-2.2c0.2,0,0.4,0,0.5,0.1v1.7
		c-0.2,0-0.4-0.1-0.6-0.1c-1.3,0-2.2,1-2.5,2.4c0,0.3-0.1,0.5-0.1,0.9v5.4h-1.8V240.6z"/>
	<path class="st10" d="M270.9,242.8c0,2.5,1.6,3.5,3.5,3.5c1.3,0,2.1-0.2,2.8-0.5l0.3,1.3c-0.7,0.3-1.8,0.6-3.4,0.6
		c-3.1,0-5-2.1-5-5.1s1.8-5.5,4.8-5.5c3.3,0,4.2,2.9,4.2,4.8c0,0.4,0,0.7-0.1,0.9H270.9z M276.4,241.5c0-1.2-0.5-3-2.6-3
		c-1.9,0-2.7,1.7-2.8,3H276.4z"/>
</g>
<g>
	<path class="st10" d="M241.4,253.7h1.8v14.9h-1.8V253.7z"/>
	<path class="st10" d="M255.6,263.4c0,3.8-2.6,5.4-5.1,5.4c-2.8,0-4.9-2-4.9-5.2c0-3.4,2.2-5.4,5-5.4
		C253.6,258.2,255.6,260.3,255.6,263.4z M247.5,263.5c0,2.2,1.3,3.9,3.1,3.9c1.8,0,3.1-1.7,3.1-3.9c0-1.7-0.9-3.9-3-3.9
		S247.5,261.6,247.5,263.5z"/>
	<path class="st10" d="M266.7,258.4c0,0.7-0.1,1.6-0.1,2.8v5.9c0,2.3-0.5,3.8-1.4,4.6c-1,0.9-2.4,1.2-3.7,1.2
		c-1.2,0-2.6-0.3-3.4-0.8l0.5-1.4c0.7,0.4,1.7,0.8,3,0.8c1.9,0,3.3-1,3.3-3.5v-1.1h0c-0.6,0.9-1.7,1.7-3.2,1.7c-2.5,0-4.3-2.1-4.3-5
		c0-3.4,2.2-5.4,4.6-5.4c1.8,0,2.7,0.9,3.2,1.8h0l0.1-1.5H266.7z M264.7,262.4c0-0.3,0-0.6-0.1-0.8c-0.3-1.1-1.2-2-2.6-2
		c-1.8,0-3,1.5-3,3.8c0,2,1,3.7,3,3.7c1.1,0,2.2-0.7,2.6-1.9c0.1-0.3,0.1-0.7,0.1-1V262.4z"/>
	<path class="st10" d="M278.8,263.4c0,3.8-2.6,5.4-5.1,5.4c-2.8,0-4.9-2-4.9-5.2c0-3.4,2.2-5.4,5-5.4
		C276.9,258.2,278.8,260.3,278.8,263.4z M270.8,263.5c0,2.2,1.3,3.9,3.1,3.9c1.8,0,3.1-1.7,3.1-3.9c0-1.7-0.9-3.9-3-3.9
		S270.8,261.6,270.8,263.5z"/>
</g>
</svg>
