<?xml version="1.0" encoding="utf-8"?>
<!-- Generator: Adobe Illustrator 24.1.3, SVG Export Plug-In . SVG Version: 6.00 Build 0)  -->
<svg version="1.1" xmlns="http://www.w3.org/2000/svg" xmlns:xlink="http://www.w3.org/1999/xlink" x="0px" y="0px"
	 viewBox="0 0 4000 2500" style="enable-background:new 0 0 4000 2500;" xml:space="preserve">
<style type="text/css">
	.st0{fill:#FBC02D;}
	.st1{fill:#D63F31;}
	.st2{fill:#FFFFFF;}
	.st3{fill:#00873E;}
	.st4{display:none;}
	.st5{display:inline;fill:#FBC02D;}
</style>
<g id="Layer_1">
</g>
<g id="Calque_3">
</g>
<g id="Calque_2">
</g>
<g id="Calque_4">
	<g>
		<g>
			<path class="st0" d="M2916.3,553.4h-2341c-3.9,0-7.1,3.2-7.1,7.1v218.2h2355.2V560.5C2923.4,556.6,2920.2,553.4,2916.3,553.4z"/>
			<path class="st1" d="M2916.3,1796.5h-2341c-3.9,0-7.1-3.2-7.1-7.1V778.7h2355.2v1010.7
				C2923.4,1793.3,2920.2,1796.5,2916.3,1796.5z"/>
		</g>
		<g>
			<circle class="st2" cx="1006.7" cy="666.1" r="39"/>
			<circle class="st2" cx="882.3" cy="666.1" r="39"/>
			<path class="st2" d="M718.9,666.1c0,21.5,17.5,39,39,39c21.5,0,39-17.5,39-39s-17.5-39-39-39
				C736.3,627.1,718.9,644.5,718.9,666.1z"/>
		</g>
	</g>
	<g>
		
			<ellipse transform="matrix(0.7071 -0.7071 0.7071 0.7071 -579.6382 1624.3308)" class="st2" cx="1670.9" cy="1511.9" rx="97.4" ry="97.4"/>
		<g>
			<g>
				<path class="st1" d="M1610.1,1510.3c6.4,16.7,60.8,60.7,60.8,60.7s17.8-14.4,34.2-30c12.3-11.5,23.8-23.6,26.5-30.8
					c6.5-16.6-0.4-40.5-24.2-44.5c-23.7-4-36.5,20.8-36.5,20.8s-12.8-24.8-36.6-20.8c-4.1,0.7-7.8,2-10.9,3.8
					C1608.6,1477.9,1604.9,1496.6,1610.1,1510.3z"/>
			</g>
		</g>
	</g>
	<g>
		<path class="st2" d="M1408.5,1283c0,70.3-23.7,135-63.5,186.7c-13.2,17.2-28.2,32.9-44.7,46.8c-53.3,45.2-122.4,72.5-197.8,72.5
			c-68.5,0-131.8-22.5-182.8-60.6c-22.5-16.7-42.6-36.5-59.7-58.8c-39.9-51.7-63.5-116.4-63.5-186.7c0-169,137-306,306-306
			C1271.5,977,1408.5,1114,1408.5,1283z"/>
		<path class="st3" d="M1217.9,1427.6c-0.8-0.9-1.6-1.8-2.4-2.6c-3.5-2.7-7-4.4-21.2-6.8c-7.2-1.2-17.2-2.6-31.4-4.5
			c0,0-3-0.3-4.7-0.5c-1.1-0.1-2.2-0.2-3.6-0.3c-4.1-2.1-5.1-19-5.1-36.7c0-1.3,0-2.7,0-4c0.1-6.7,0.3-13.4,0.5-19.3
			c0-0.4,0-0.7,0-1.1c8.8,0.7,14.6,0.7,14.6,0.7c16.3-1.3,26.5-45,30.1-80.3c0,0,8.1-19.4,8.1-40.3c0-11.8-2.5-24.1-10.5-33.7
			c-4.1-4.9-7.9-8.2-11.4-10.3c-1-1-2.1-1.9-3.1-2.8c-15.2-16.8-76.8-79.9-117.3-43.4c-1-3.6-14.2-44.6-78-31.2
			c4-0.4,32.3-3.1,40.4,8.4c-1.1-0.5-25.8-11.4-41.4-1.9c-7.2,4.4-11.7,13.5-14.2,23.1c0,0.1,0,0.1-0.1,0.2c0,0.1,0,0.1,0,0.2v0
			c0,0.1-0.1,0.2-0.1,0.3c-0.3,1.3-0.6,2.6-0.9,3.9c0,0.2-0.1,0.4-0.1,0.6c0,0.1,0,0.1,0,0.2c0,0,0,0,0,0.1
			c-1.9,9.9-1.9,19.5-0.8,24.2c2.4,10,20,39.7,31.7,39.7c4.4,0,9.1-1.5,13.3-3.3c-1.8,5.3-3.4,11-4.8,17.3
			c-12.4,58.3,26.4,102.6,46.4,91.6c12.9-7,22.6,15.5,22.6,15.5l0.1-0.1c-1.9,42.7-13.6,70.5-22.3,77.4c-3.1,0.4-9.8,1.2-18.2,2.5v0
			c0,0-29.6,3.2-52.1,13c-0.2,0.1-0.3,0.1-0.5,0.2c-5.1,2.1-9.5,4.5-12.8,7.1c0,0.1-0.1,0.1-0.1,0.1v0c-1.7,1.3-3.1,2.8-4.1,4.3
			c-0.5,0.6-1,1.3-1.3,1.9c-7.5,14.3-15.1,35.9-22.4,61.1c43.3,32.3,96.9,51.4,155,51.4c64,0,122.5-23.1,167.7-61.5
			C1247.2,1453.3,1228.3,1435.4,1217.9,1427.6z"/>
	</g>
	<g>
		<path class="st2" d="M1891.3,1103.2h-308.2c-5.3,0-9.6-4.3-9.6-9.6v-26.2c0-5.3,4.3-9.6,9.6-9.6h308.2c5.3,0,9.6,4.3,9.6,9.6v26.2
			C1900.8,1098.9,1896.5,1103.2,1891.3,1103.2z"/>
		<g>
			<path class="st2" d="M1886,1182.8h-297.8c-8.1,0-14.8-6.7-14.8-14.8l0,0c0-8.1,6.7-14.8,14.8-14.8H1886c8.1,0,14.8,6.7,14.8,14.8
				l0,0C1900.8,1176.2,1894.2,1182.8,1886,1182.8z"/>
			<path class="st2" d="M1759.6,1252.9h-180.2c-3.3,0-5.9-2.7-5.9-5.9v-17.8c0-3.3,2.7-5.9,5.9-5.9h180.2c3.3,0,5.9,2.7,5.9,5.9
				v17.8C1765.6,1250.2,1762.9,1252.9,1759.6,1252.9z"/>
			<path class="st2" d="M2106.3,1252.9h-287.3c-4.1,0-7.4-3.3-7.4-7.4v-14.7c0-4.1,3.3-7.4,7.4-7.4h287.3c4.1,0,7.4,3.3,7.4,7.4
				v14.7C2113.7,1249.5,2110.4,1252.9,2106.3,1252.9z"/>
			<path class="st2" d="M2355.2,1182.8h-390.4c-8.1,0-14.8-6.7-14.8-14.8l0,0c0-8.1,6.7-14.8,14.8-14.8h390.4
				c8.1,0,14.8,6.7,14.8,14.8l0,0C2370,1176.2,2363.4,1182.8,2355.2,1182.8z"/>
			<path class="st2" d="M1886,1322.9h-297.8c-8.1,0-14.8-6.7-14.8-14.8l0,0c0-8.1,6.7-14.8,14.8-14.8H1886c8.1,0,14.8,6.7,14.8,14.8
				l0,0C1900.8,1316.3,1894.2,1322.9,1886,1322.9z"/>
			<path class="st2" d="M2355.2,1322.9h-390.4c-8.1,0-14.8-6.7-14.8-14.8l0,0c0-8.1,6.7-14.8,14.8-14.8h390.4
				c8.1,0,14.8,6.7,14.8,14.8l0,0C2370,1316.3,2363.4,1322.9,2355.2,1322.9z"/>
		</g>
		<path class="st2" d="M2173.4,1103.2h-223.8c-4.5,0-8.2-3.7-8.2-8.2v-29c0-4.5,3.7-8.2,8.2-8.2h223.8c4.5,0,8.2,3.7,8.2,8.2v29
			C2181.6,1099.5,2177.9,1103.2,2173.4,1103.2z"/>
	</g>
	<g>
		<g>
			
				<ellipse transform="matrix(0.7071 -0.7071 0.7071 0.7071 -479.699 1865.6053)" class="st2" cx="2012.1" cy="1511.9" rx="97.4" ry="97.4"/>
		</g>
		<path class="st1" d="M2024.9,1511.9l40.1-40.1c3.5-3.5,3.5-9.2,0-12.8c-3.5-3.5-9.2-3.5-12.8,0l-40.1,40.1L1972,1459
			c-3.5-3.5-9.2-3.5-12.8,0l0,0c-3.5,3.5-3.5,9.2,0,12.8l40.1,40.1l-40.1,40.1c-3.5,3.5-3.5,9.2,0,12.8l0,0c3.5,3.5,9.2,3.5,12.8,0
			l40.1-40.1l40.1,40.1c3.5,3.5,9.2,3.5,12.8,0c3.5-3.5,3.5-9.2,0-12.8L2024.9,1511.9z"/>
	</g>
	<path class="st1" d="M3201.3,1354.3c5.1-46.9,10-91,15.5-141c-40.1,0-75.1,0-110.1,0c-68.8,0.1-98.2-28.6-98.3-96.4
		c-0.1-101.4-0.2-202.8,0.1-304.2c0.2-58.1,30.4-90.2,88.3-90.4c208-0.7,416.1-0.7,624.1,0c55.8,0.2,86.5,32.6,86.7,89
		c0.4,104.6,0.5,209.1,0,313.7c-0.2,56.8-32.8,88.3-90.7,88.4c-102.4,0.3-204.9,0.6-307.3-0.4c-21.7-0.2-36.4,5.7-50.7,22.7
		C3316,1286.4,3263.8,1325.8,3201.3,1354.3z M3406.3,937.5c-35-36.6-65.5-71.1-99.3-102c-7.9-7.2-30.4-7.3-40.3-1.1
		c-15.5,9.7-12.1,27.1,0.5,40.6c7.1,7.7,14.3,15.3,21.9,22.4c26.3,24.7,52.9,49.1,82.1,76.2c-36.3,35.3-66.1,64.5-96.1,93.5
		c-15.5,15-28.1,31.4-8.1,50.6c18.6,17.8,34.3,5.6,48.3-8.9c29.6-30.7,59.3-61.4,92.8-96.1c33.2,34.5,62.9,65.1,92.3,95.9
		c14.1,14.8,30.2,26.7,48.4,9.4c19.6-18.6,8.1-35.7-8-50.7c-31.2-29.1-62.3-58.3-97.6-91.4c37-35.3,68.7-65.5,100.4-95.6
		c14.4-13.7,22.7-30,6.8-46.4c-17.2-17.8-34.2-8.7-48.8,6.2C3471.7,870.7,3441.8,901.3,3406.3,937.5z"/>
	<path class="st0" d="M2867.8,477c0-30.2,0-54.9,0-74.3c-31.4-11.3-60.8-17.7-85.8-31.8c-53.3-30.2-78.7-95.9-64.5-155
		c15.2-63,66.3-110.4,129.4-112.3c87.9-2.6,175.9-2.8,263.8-0.2c72.7,2.2,129.3,63.6,133.4,138.2c4,71.6-47.5,139.1-118.2,149.5
		c-36.3,5.3-73.8,5.6-110.5,3.2c-37.3-2.4-67.1,6.3-92.5,34.6C2908,445.6,2889.1,458.7,2867.8,477z M2953.5,214.9c0.1,0,0.2,0,0.3,0
		c0,11.8-3.1,24.8,0.9,34.9c3.6,9.1,14.9,20.3,23.3,20.8c8.3,0.5,23.9-10.3,25-17.8c3.5-23.7,4-48.5,0.7-72.2
		c-1.1-8-16.3-18.1-26.2-19.8c-13.7-2.3-22.8,8.6-23.8,23.2C2952.9,194.2,2953.5,204.6,2953.5,214.9z M3106,216.7
		C3106,216.7,3106,216.7,3106,216.7c-0.1-11,0.4-22.1-0.2-33.1c-0.8-14.8-9.6-23.1-24-23.7c-15.5-0.7-26,7.5-26.9,23
		c-1.2,22-0.9,44.1,0.2,66.1c0.7,14.6,10.5,22.9,24.8,22.9c15.2,0,24.9-8.5,25.9-24.3C3106.6,237.4,3106,227,3106,216.7z
		 M2901.9,215c-0.1,0-0.1,0-0.2,0c0-11,0.9-22.1-0.2-33.1c-1.5-14.6-11.9-24.6-25.3-21.2c-9.7,2.5-22.8,13.3-24.3,22.1
		c-3.5,21.5-3.5,44.3,0,65.8c1.5,9,14.4,20.6,23.9,22.6c14.2,3,24.9-7.3,26-23.2C2902.5,237.1,2901.9,226,2901.9,215z M3005.9,332.2
		c-2.7-23.7-11.4-33.8-28.1-33c-15.3,0.8-24.6,10.2-24.3,26.1c0.3,16.9,11,27.9,26.7,25.2C2990.6,348.7,2999.3,337.3,3005.9,332.2z
		 M2902.7,332.3c-2.6-23.6-11.2-33.8-27.9-33.1c-15.2,0.7-24.6,10.1-24.3,25.9c0.3,16.9,10.8,27.9,26.5,25.2
		C2887.3,348.7,2896,337.3,2902.7,332.3z M3106.3,333.2c-1.5-24.2-10.4-34-27-33.9c-15.6,0.1-24.7,9.8-24.9,25.4
		c-0.3,17,10.3,28.2,26,25.9C3090.9,349.1,3099.9,337.8,3106.3,333.2z"/>
	<path class="st3" d="M3225.4,1696.2c6.5-30.7,13.3-61.4,19.1-92.3c0.7-3.5-4-9.1-7.6-12.1c-16.1-13.8-32.8-27-50.9-41.7
		c16.2-29.4,30.2-59.8,48.7-87.1c19.9-29.3,56.6-34.8,91.4-18.4c34.6,16.4,52.8,52.2,45.5,89.8c-6.2,31.9-25.3,56.8-46.8,79.1
		c-29.5,30.6-61,59.2-92.5,87.7c-4.5,4-16,6.2-20.6,3.3c-46.9-29.8-94.3-59.2-138.9-92.2c-29.6-21.8-45.6-53.5-37.9-92.2
		c6.2-31.6,27-51.2,56.5-61.9c27-9.8,50.7-3.1,71.9,15.4c8.7,7.6,12.3,15.4,8.1,27.2c-5.6,15.6-9.3,32-14.5,47.8
		c-3.1,9.2-1.6,14.8,7.9,19c13.1,5.8,25.1,14.3,38.4,19.4c15.5,5.9,19.5,15.7,18.7,31.4c-1.3,25.8-0.3,51.7-0.3,77.5
		C3222.8,1696,3224.1,1696.1,3225.4,1696.2z"/>
	<path class="st1" d="M757.9,2143c-1.7,132.4-109.5,238.6-241.3,237.5c-133.7-1.1-240.2-109.2-239.3-243
		c0.9-132.8,110.5-238.8,244.9-237C654.3,1902.4,759.6,2010.7,757.9,2143z M563.3,2229.8c12.8,9.3,22.3,20.9,33.7,23.2
		c12.3,2.6,32.1,0.9,38.1-7c5.9-7.8,2.5-28-4-38.3c-7.4-11.9-23.2-18.4-34.2-28.4c-21.6-19.6-43.4-23.2-64.6-1.1
		c-15.1,15.6-26.4,9-41.1-1c-10.5-7.2-28.6-16.1-36.7-11.8c-24.1,12.8-46,30.5-66.2,49.1c-5.2,4.8-5,21.5-0.7,29.2
		c4.2,7.6,16.2,13.5,25.6,14.9c7,1.1,17.2-4.3,22.5-10c18.8-20.1,33.8-15.4,54.5-0.5c10.3,7.4,30.6,3.8,45.5,0.9
		C545.1,2247.1,553,2237.3,563.3,2229.8z M620.4,2017.6c-22.6,20-44.6,37.5-63.5,57.9c-3.7,4,1.4,21.9,7.7,28
		c6.1,5.9,21.5,9.8,28.2,6.1c19.4-10.6,37.9-24.1,53.8-39.5c5.4-5.2,5.6-20.9,2-29.2C645,2032.7,633.6,2028,620.4,2017.6z
		 M480.7,2094.8c1.9-33-56.3-76.9-77.7-68.8c-19.9,7.6-27.6,26.6-15.5,41c15.2,18.2,36.5,33.5,58.3,42.8
		C454.9,2113.8,471.9,2099,480.7,2094.8z"/>
	<g class="st4">
		<path class="st5" d="M1485.3-123.7c21.5,8.4,36.6,20.5,34.3,44.2c-2.2,23.1-19.2,31.3-35.8,34.1c2.7,15.9,10.9,33.3,6.3,46.1
			c-4.7,13.1-22,21.7-34.5,33c18.9,27.8,12.6,56.1-19.1,63.5c-8.4,2-18.3,0.4-27-1.7c-39.9-9.3-79.6-19.2-122.6-29.8
			c2.1,7.9,4,12.8,4.7,17.9c3.2,22.2,7.9,44.4,8.5,66.7c0.5,19-10.9,33.1-28.4,41.5c-23.9,11.5-42.1,2.1-46.7-24.1
			c-3.2-18.1-3.1-37.3-9.6-54c-8.5-22.1-21.5-42.6-33.6-63.2c-3.3-5.7-9.8-12.2-15.8-13.3c-27.1-4.9-45-21.2-61.3-41.9
			c-7-8.8-19.6-13.1-31.2-20.4c17.4-71.2,35.2-143.9,53.5-218.6c6,0.9,12.1,3.1,18,2.5c16.4-1.8,34.5-1.1,48.6-8.1
			c20.4-10,39.5-13.3,61.2-7.9c72.1,18,144.4,35.7,216.7,53c20.1,4.8,39,10.4,43.7,33.9C1519.9-146.9,1505.3-134.1,1485.3-123.7z"/>
		<path class="st5" d="M1025.6-34.8c-35.9-8.8-69.5-17-104.5-25.6c18-73.5,35.7-146.1,53.9-220.5c34.3,8.4,68.8,16.8,104.5,25.6
			C1061.5-181.7,1043.7-109.1,1025.6-34.8z"/>
	</g>
</g>
</svg>
