<?xml version="1.0" encoding="utf-8"?>
<!-- Generator: Adobe Illustrator 24.1.3, SVG Export Plug-In . SVG Version: 6.00 Build 0)  -->
<svg version="1.1" xmlns="http://www.w3.org/2000/svg" xmlns:xlink="http://www.w3.org/1999/xlink" x="0px" y="0px"
	 viewBox="0 0 4000 2500" style="enable-background:new 0 0 4000 2500;" xml:space="preserve">
<style type="text/css">
	.st0{fill:#FBC02D;}
	.st1{fill:#D63F31;}
	.st2{fill:#FFFFFF;}
	.st3{fill:#00873E;}
	.st4{display:none;}
	.st5{display:inline;fill:#FBC02D;}
	.st6{fill:none;stroke:#FFFFFF;stroke-width:56;stroke-linecap:round;stroke-miterlimit:10;}
	.st7{fill-rule:evenodd;clip-rule:evenodd;fill:#00873E;}
</style>
<g id="Layer_1">
</g>
<g id="Calque_3">
</g>
<g id="Calque_2">
</g>
<g id="Calque_4">
	<g>
		<g>
			<path class="st0" d="M2916.3,553.4h-2341c-3.9,0-7.1,3.2-7.1,7.1v218.2h2355.2V560.5C2923.4,556.6,2920.2,553.4,2916.3,553.4z"/>
			<path class="st1" d="M2916.3,1796.5h-2341c-3.9,0-7.1-3.2-7.1-7.1V778.7h2355.2v1010.7
				C2923.4,1793.3,2920.2,1796.5,2916.3,1796.5z"/>
		</g>
		<g>
			<circle class="st2" cx="1006.7" cy="666.1" r="39"/>
			<circle class="st2" cx="882.3" cy="666.1" r="39"/>
			<path class="st2" d="M718.9,666.1c0,21.5,17.5,39,39,39c21.5,0,39-17.5,39-39s-17.5-39-39-39
				C736.3,627.1,718.9,644.5,718.9,666.1z"/>
		</g>
	</g>
	<g>
		
			<ellipse transform="matrix(0.7071 -0.7071 0.7071 0.7071 -579.6382 1624.3308)" class="st2" cx="1670.9" cy="1511.9" rx="97.4" ry="97.4"/>
		<g>
			<g>
				<path class="st1" d="M1610.1,1510.3c6.4,16.7,60.8,60.7,60.8,60.7s17.8-14.4,34.2-30c12.3-11.5,23.8-23.6,26.5-30.8
					c6.5-16.6-0.4-40.5-24.2-44.5c-23.7-4-36.5,20.8-36.5,20.8s-12.8-24.8-36.6-20.8c-4.1,0.7-7.8,2-10.9,3.8
					C1608.6,1477.9,1604.9,1496.6,1610.1,1510.3z"/>
			</g>
		</g>
	</g>
	<g>
		<path class="st2" d="M1891.3,1103.2h-308.2c-5.3,0-9.6-4.3-9.6-9.6v-26.2c0-5.3,4.3-9.6,9.6-9.6h308.2c5.3,0,9.6,4.3,9.6,9.6v26.2
			C1900.8,1098.9,1896.5,1103.2,1891.3,1103.2z"/>
		<g>
			<path class="st2" d="M1886,1182.8h-297.8c-8.1,0-14.8-6.7-14.8-14.8l0,0c0-8.1,6.7-14.8,14.8-14.8H1886c8.1,0,14.8,6.7,14.8,14.8
				l0,0C1900.8,1176.2,1894.2,1182.8,1886,1182.8z"/>
			<path class="st2" d="M1759.6,1252.9h-180.2c-3.3,0-5.9-2.7-5.9-5.9v-17.8c0-3.3,2.7-5.9,5.9-5.9h180.2c3.3,0,5.9,2.7,5.9,5.9
				v17.8C1765.6,1250.2,1762.9,1252.9,1759.6,1252.9z"/>
			<path class="st2" d="M2106.3,1252.9h-287.3c-4.1,0-7.4-3.3-7.4-7.4v-14.7c0-4.1,3.3-7.4,7.4-7.4h287.3c4.1,0,7.4,3.3,7.4,7.4
				v14.7C2113.7,1249.5,2110.4,1252.9,2106.3,1252.9z"/>
			<path class="st2" d="M2355.2,1182.8h-390.4c-8.1,0-14.8-6.7-14.8-14.8l0,0c0-8.1,6.7-14.8,14.8-14.8h390.4
				c8.1,0,14.8,6.7,14.8,14.8l0,0C2370,1176.2,2363.4,1182.8,2355.2,1182.8z"/>
			<path class="st2" d="M1886,1322.9h-297.8c-8.1,0-14.8-6.7-14.8-14.8l0,0c0-8.1,6.7-14.8,14.8-14.8H1886c8.1,0,14.8,6.7,14.8,14.8
				l0,0C1900.8,1316.3,1894.2,1322.9,1886,1322.9z"/>
			<path class="st2" d="M2355.2,1322.9h-390.4c-8.1,0-14.8-6.7-14.8-14.8l0,0c0-8.1,6.7-14.8,14.8-14.8h390.4
				c8.1,0,14.8,6.7,14.8,14.8l0,0C2370,1316.3,2363.4,1322.9,2355.2,1322.9z"/>
		</g>
		<path class="st2" d="M2173.4,1103.2h-223.8c-4.5,0-8.2-3.7-8.2-8.2v-29c0-4.5,3.7-8.2,8.2-8.2h223.8c4.5,0,8.2,3.7,8.2,8.2v29
			C2181.6,1099.5,2177.9,1103.2,2173.4,1103.2z"/>
	</g>
	<g>
		<g>
			
				<ellipse transform="matrix(0.7071 -0.7071 0.7071 0.7071 -479.699 1865.6053)" class="st2" cx="2012.1" cy="1511.9" rx="97.4" ry="97.4"/>
		</g>
		<path class="st1" d="M2024.9,1511.9l40.1-40.1c3.5-3.5,3.5-9.2,0-12.8c-3.5-3.5-9.2-3.5-12.8,0l-40.1,40.1L1972,1459
			c-3.5-3.5-9.2-3.5-12.8,0l0,0c-3.5,3.5-3.5,9.2,0,12.8l40.1,40.1l-40.1,40.1c-3.5,3.5-3.5,9.2,0,12.8l0,0c3.5,3.5,9.2,3.5,12.8,0
			l40.1-40.1l40.1,40.1c3.5,3.5,9.2,3.5,12.8,0c3.5-3.5,3.5-9.2,0-12.8L2024.9,1511.9z"/>
	</g>
	<path class="st1" d="M3201.3,1354.3c5.1-46.9,10-91,15.5-141c-40.1,0-75.1,0-110.1,0c-68.8,0.1-98.2-28.6-98.3-96.4
		c-0.1-101.4-0.2-202.8,0.1-304.2c0.2-58.1,30.4-90.2,88.3-90.4c208-0.7,416.1-0.7,624.1,0c55.8,0.2,86.5,32.6,86.7,89
		c0.4,104.6,0.5,209.1,0,313.7c-0.2,56.8-32.8,88.3-90.7,88.4c-102.4,0.3-204.9,0.6-307.3-0.4c-21.7-0.2-36.4,5.7-50.7,22.7
		C3316,1286.4,3263.8,1325.8,3201.3,1354.3z"/>
	<path class="st2" d="M3387,904.7c-50.7-1.2-18.6-4-64.3-1.9c-10.6,0.5-26.7,16.4-29.3,27.7c-4.1,17.8,10.6,27.7,29,28.4
		c10.4,0.4,65.6-3.3,65.3-3.8c-0.7,50.6-1.2,92.3-1.9,134.1c-0.4,21.5,2.4,42,30.1,41.5c25.7-0.5,28.2-20.3,27.9-40.5
		c-0.8-42.7-1.5-85.3-2.3-133.6c47.9,0.9-1.5,1.6,41.1,2.6c20.5,0.5,40.2-2.4,40.9-27.5c0.7-27-19.6-31-41.5-30.2
		c-21.9,1.2-41.6,4.4-41.6,4.4s2.3-22.9,3.3-66.6c0.5-19.9-5.2-37.2-27.9-37.6c-24.7-0.4-30.3,18-30.1,38.9
		C3386,883.2,3386.5,854,3387,904.7z"/>
	<path class="st0" d="M2867.8,477c0-30.2,0-54.9,0-74.3c-31.4-11.3-60.8-17.7-85.8-31.8c-53.3-30.2-78.7-95.9-64.5-155
		c15.2-63,66.3-110.4,129.4-112.3c87.9-2.6,175.9-2.8,263.8-0.2c72.7,2.2,129.3,63.6,133.4,138.2c4,71.6-47.5,139.1-118.2,149.5
		c-36.3,5.3-73.8,5.6-110.5,3.2c-37.3-2.4-67.1,6.3-92.5,34.6C2908,445.6,2889.1,458.7,2867.8,477z M2953.5,214.9c0.1,0,0.2,0,0.3,0
		c0,11.8-3.1,24.8,0.9,34.9c3.6,9.1,14.9,20.3,23.3,20.8c8.3,0.5,23.9-10.3,25-17.8c3.5-23.7,4-48.5,0.7-72.2
		c-1.1-8-16.3-18.1-26.2-19.8c-13.7-2.3-22.8,8.6-23.8,23.2C2952.9,194.2,2953.5,204.6,2953.5,214.9z M3106,216.7
		C3106,216.7,3106,216.7,3106,216.7c-0.1-11,0.4-22.1-0.2-33.1c-0.8-14.8-9.6-23.1-24-23.7c-15.5-0.7-26,7.5-26.9,23
		c-1.2,22-0.9,44.1,0.2,66.1c0.7,14.6,10.5,22.9,24.8,22.9c15.2,0,24.9-8.5,25.9-24.3C3106.6,237.4,3106,227,3106,216.7z
		 M2901.9,215c-0.1,0-0.1,0-0.2,0c0-11,0.9-22.1-0.2-33.1c-1.5-14.6-11.9-24.6-25.3-21.2c-9.7,2.5-22.8,13.3-24.3,22.1
		c-3.5,21.5-3.5,44.3,0,65.8c1.5,9,14.4,20.6,23.9,22.6c14.2,3,24.9-7.3,26-23.2C2902.5,237.1,2901.9,226,2901.9,215z M3005.9,332.2
		c-2.7-23.7-11.4-33.8-28.1-33c-15.3,0.8-24.6,10.2-24.3,26.1c0.3,16.9,11,27.9,26.7,25.2C2990.6,348.7,2999.3,337.3,3005.9,332.2z
		 M2902.7,332.3c-2.6-23.6-11.2-33.8-27.9-33.1c-15.2,0.7-24.6,10.1-24.3,25.9c0.3,16.9,10.8,27.9,26.5,25.2
		C2887.3,348.7,2896,337.3,2902.7,332.3z M3106.3,333.2c-1.5-24.2-10.4-34-27-33.9c-15.6,0.1-24.7,9.8-24.9,25.4
		c-0.3,17,10.3,28.2,26,25.9C3090.9,349.1,3099.9,337.8,3106.3,333.2z"/>
	<path class="st3" d="M3219.4,1696.3c4.4-25.5,8-51.1,13.7-76.3c3.5-15.3,1.2-25.7-13-34.2c-12.3-7.3-22.6-17.7-34.5-25.7
		c-8.6-5.8-9.1-11.5-4.5-20.1c7.9-14.7,14.3-30.2,22.5-44.6c6.2-10.9,4-19.2-3.3-28.1c-17.7-21.9-39.9-32.5-68.2-27.5
		c-30.9,5.5-54.7,21.2-66.3,51.3c-14.1,36.8-3.8,70.8,21.5,97.3c38.3,40.2,80,77.2,121,114.7c2.1,1.9,6.5,2.8,10.8,2.7
		c0.5-3.1,1.1-6.1,1.6-9.1C3220.4,1696.5,3219.9,1696.4,3219.4,1696.3z"/>
	<path class="st3" d="M3301.2,1438.7c-35.9-14-72.1-5.8-89.9,24.8c-16.5,28.5-28.3,59.8-42.4,90.3c19.1,13.4,36.6,25.4,53.7,38
		c3.8,2.8,8.8,8,8.4,11.5c-3.5,31.2-8.2,62.3-12.5,93.4c-0.8,0-1.6,0-2.4,0c0.2,3.1,0.4,6.2,0.7,9.2c3.7-1,7.2-2.7,9.1-4.7
		c29.4-30.7,58.8-61.5,86-94c19.9-23.8,37.2-49.9,41.1-82.2C3357.5,1487,3336.9,1452.6,3301.2,1438.7z"/>
	<path class="st1" d="M757.9,2143c-1.7,132.4-109.5,238.6-241.3,237.5c-133.7-1.1-240.2-109.2-239.3-243
		c0.9-132.8,110.5-238.8,244.9-237C654.3,1902.4,759.6,2010.7,757.9,2143z"/>
	<path class="st2" d="M651.5,2051.1c-29.4-6.6-56.5-14.2-84.1-17.7c-5.4-0.7-16.9,13.9-18.2,22.6c-1.3,8.4,4.6,23.2,11.5,26.4
		c20,9.5,41.7,16.6,63.5,20.5c7.4,1.3,20.2-7.7,24.8-15.5C653.6,2079.8,650.8,2067.9,651.5,2051.1z"/>
	<path class="st2" d="M484.5,2049.6c-23.2-23.6-94.8-10.1-103.1,11.2c-7.8,19.8,1.1,38.3,19.9,39.1c23.7,1,49.3-4.5,70.9-14.4
		C481.2,2081.4,481.7,2058.8,484.5,2049.6z"/>
	<g class="st4">
		<path class="st5" d="M1485.3-123.7c21.5,8.4,36.6,20.5,34.3,44.2c-2.2,23.1-19.2,31.3-35.8,34.1c2.7,15.9,10.9,33.3,6.3,46.1
			c-4.7,13.1-22,21.7-34.5,33c18.9,27.8,12.6,56.1-19.1,63.5c-8.4,2-18.3,0.4-27-1.7c-39.9-9.3-79.6-19.2-122.6-29.8
			c2.1,7.9,4,12.8,4.7,17.9c3.2,22.2,7.9,44.4,8.5,66.7c0.5,19-10.9,33.1-28.4,41.5c-23.9,11.5-42.1,2.1-46.7-24.1
			c-3.2-18.1-3.1-37.3-9.6-54c-8.5-22.1-21.5-42.6-33.6-63.2c-3.3-5.7-9.8-12.2-15.8-13.3c-27.1-4.9-45-21.2-61.3-41.9
			c-7-8.8-19.6-13.1-31.2-20.4c17.4-71.2,35.2-143.9,53.5-218.6c6,0.9,12.1,3.1,18,2.5c16.4-1.8,34.5-1.1,48.6-8.1
			c20.4-10,39.5-13.3,61.2-7.9c72.1,18,144.4,35.7,216.7,53c20.1,4.8,39,10.4,43.7,33.9C1519.9-146.9,1505.3-134.1,1485.3-123.7z"/>
		<path class="st5" d="M1025.6-34.8c-35.9-8.8-69.5-17-104.5-25.6c18-73.5,35.7-146.1,53.9-220.5c34.3,8.4,68.8,16.8,104.5,25.6
			C1061.5-181.7,1043.7-109.1,1025.6-34.8z"/>
	</g>
	<path class="st6" d="M418,2226.5c23,42,100,106,200,29"/>
	<g>
		<g>
			<path class="st2" d="M1407,1283c0,69.9-23.5,134.3-63.2,185.8c-13.2,17.1-28.1,32.7-44.5,46.6c-53.1,45-121.8,72.2-196.8,72.2
				c-68.2,0-131.1-22.4-181.9-60.3c-22.4-16.7-42.4-36.4-59.4-58.5c-39.7-51.4-63.2-115.8-63.2-185.8
				c0-168.2,136.3-304.5,304.5-304.5S1407,1114.8,1407,1283z"/>
		</g>
		<g>
			<path class="st2" d="M1408.5,1283c0,70.3-23.7,135-63.5,186.7c-13.2,17.2-28.2,32.9-44.7,46.8c-53.3,45.2-122.4,72.5-197.8,72.5
				c-68.5,0-131.8-22.5-182.8-60.6c-22.5-16.7-42.6-36.5-59.7-58.8c-39.9-51.7-63.5-116.4-63.5-186.7c0-169,137-306,306-306
				C1271.5,977,1408.5,1114,1408.5,1283z"/>
		</g>
	</g>
</g>
<g id="Calque_5">
</g>
<g id="Calque_5_-_copie">
	<g>
		<g>
			<path class="st2" d="M983.7,1297.8c-5.1,0-10.2-2.1-13.8-6.1c-5.8-6.3-6.6-15.7-2-22.9l2.1-3.3c-3.9-2.6-6.8-6.6-7.9-11.5
				c-2.1-9.5,3.4-19.1,12.7-22l67-21c1.8-0.6,3.7-0.9,5.6-0.9c3.9,0,7.8,1.2,11.1,3.6l20.6,15c3.2,2.3,5.6,5.7,6.8,9.4l3.5,10.9
				c1.2,3.9,1.2,8.1-0.1,11.9l-3.8,10.9c-2,5.9-6.9,10.4-12.9,12l-25.6,6.9c-1.6,0.4-3.2,0.6-4.9,0.6c-0.6,0-1.2,0-1.7-0.1
				l-33.9-3.1l-14,7.4C989.7,1297.1,986.7,1297.8,983.7,1297.8z"/>
			<path class="st3" d="M983.7,1279l18.9-10.1l39.5,3.6l25.6-6.9l3.8-10.9l-3.5-10.9l-20.6-15l-67,21l57.7-7.8l-41.2,16.3
				L983.7,1279z M1064.9,1261.1l-12.9,8.3l-5.5,0.5c5.1-2.5,8.5-7.9,7.9-13.9c-0.2-2.5-1.1-4.7-2.4-6.6l2.7-0.2L1064.9,1261.1z
				 M1029.2,1251.5l5.7-0.5c0.3,0.6,0.5,1.3,0.5,2c0.3,3.3-2.1,6.2-5.4,6.5c-1.4,0.1-2.7-0.3-3.8-1c0,0,0,0.1,0,0.1
				c0.6,6,4.8,10.8,10.3,12.3l-1,0.1l-28.4-10.2L1029.2,1251.5z"/>
			<path class="st2" d="M1194.7,1297.6c-0.3,0-0.6,0-0.9,0l-51.5-2.5c-0.4,0-0.9-0.1-1.3-0.1l-23.1-2.8c-6.4-0.8-12-4.8-14.8-10.7
				l-12.6-26.7c-2.2-4.8-2.4-10.3-0.4-15.2c2-4.9,6-8.7,11-10.5l35.9-13c2.1-0.7,4.2-1.1,6.4-1.1c0.8,0,1.6,0.1,2.4,0.2l29.3,3.8
				c4.4,0.6,8.5,2.7,11.5,6l14.7,16.1c1.9,2.1,3.4,4.7,4.2,7.4l7.3,25.2c1.7,5.8,0.5,12.1-3.3,16.9
				C1205.9,1295,1200.4,1297.6,1194.7,1297.6z"/>
			<path class="st3" d="M1187.4,1253.6l-14.7-16.1l-29.3-3.8l-35.9,13l12.6,26.7l23.1,2.8l51.5,2.5L1187.4,1253.6z M1121.8,1260.8
				l21.6-12.7c1.3,1,2.2,2.5,2.4,4.2c0.3,3.3-2.1,6.2-5.4,6.5c-2.1,0.2-4.1-0.8-5.3-2.3c-0.4,1.6-0.6,3.2-0.5,5c0.3,3.6,2,6.7,4.5,9
				l-1.3,0L1121.8,1260.8z M1161.1,1269.9l-2.3,0.1c2.7-2.8,4.3-6.8,3.9-11c-0.3-3.7-2.1-7-4.8-9.3l9.3,1.1l17,8.2L1161.1,1269.9z"
				/>
			<path class="st2" d="M964.9,1297.7c-7.2,0-13.8-4.1-17-10.8l-19.2-40.6c-1.1-2.4-1.8-5.1-1.8-7.8l-0.7-46.8
				c0-1.5,0.1-2.9,0.4-4.4l15.5-69.7c1-4.5,3.6-8.5,7.3-11.2l37.7-27.3c3.3-2.4,7.1-3.6,11-3.6c2.6,0,5.3,0.6,7.8,1.7
				c6.2,2.8,10.3,8.7,11,15.4l2.9,30.9c0.3,3.5-0.4,7.1-2,10.3l-25.4,49.9l-2.6,53.1c0,0.6-0.1,1.2-0.2,1.8l-6.2,42.9
				c-1.2,8.2-7.6,14.7-15.8,15.9C966.7,1297.6,965.8,1297.7,964.9,1297.7z"/>
			<polygon class="st3" points="964.9,1278.9 971.1,1236 973.8,1178.9 1001,1125.3 998.2,1094.4 960.5,1121.8 952.7,1156.8 
				945,1191.5 945.7,1238.3 			"/>
			<path class="st2" d="M1242.6,1278.5c-1.1,0-2.1-0.1-3.2-0.3c-8.4-1.5-14.7-8.3-15.5-16.8l-3.2-34.1l-8.2-88
				c-0.7-7.8,3.5-15.3,10.6-18.7c2.6-1.3,5.4-1.9,8.2-1.9c4.8,0,9.4,1.8,13,5.2l22.1,21.2c3.3,3.1,5.3,7.3,5.7,11.8l6,64.9
				c0.3,3.3-0.3,6.7-1.7,9.7l-16.8,36C1256.5,1274.3,1249.8,1278.5,1242.6,1278.5z"/>
			<polygon class="st3" points="1242.6,1259.7 1259.4,1223.7 1253.4,1158.8 1231.3,1137.6 1239.4,1225.5 			"/>
			<path class="st2" d="M1205.7,1280.1c-4,0-7.9-1.3-11.2-3.7c-4.1-3-6.8-7.6-7.5-12.6l-1.1-8.2l-16-12.8l-16.1-6.6l-17.2,3
				l-31.8,15.6c-2.6,1.3-5.4,1.9-8.3,1.9c-1,0-2-0.1-3-0.2l-15.1-2.4c-4.1-0.7-7.9-2.7-10.8-5.7l-9.1-9.7l-15.4-3.5l-15,0.9
				l-25.7,15.2c-2.9,1.7-6.1,2.6-9.4,2.6c0,0-14,0.1-14,0.1c-5.2,0-10.1-2.1-13.7-5.9c-3.6-3.8-5.4-8.9-5.1-14.1l3.6-57.2
				c0.2-2.5,0.8-5,2-7.2l27.9-55.6l-1.8-18.9c-0.8-8.9,4.8-17.2,13.4-19.8l94.5-27.9c1.7-0.5,3.5-0.8,5.3-0.8c0.8,0,1.6,0.1,2.5,0.2
				l32.6,4.3c2,0.3,4,0.8,5.8,1.7l50.4,24.5c1.9,0.9,3.7,2.2,5.2,3.8l33.7,34.6c3,3.1,4.8,7,5.3,11.3l12.4,127.9
				c1,9.9-5.9,18.8-15.7,20.4l-28.7,4.7C1207.8,1280,1206.7,1280.1,1205.7,1280.1z"/>
			<polygon class="st3" points="1205.7,1261.3 1234.5,1256.6 1222,1128.7 1188.3,1094.2 1138,1069.6 1105.3,1065.4 1010.8,1093.3 
				1013.1,1117.6 982.7,1178 979.1,1235.2 993,1235.1 1022.6,1217.6 1044.8,1216.3 1068.4,1221.7 1081.4,1235.6 1096.6,1238 
				1130.8,1221.3 1156,1216.8 1179.6,1226.6 1203.6,1245.7 			"/>
			<path class="st2" d="M968.5,1538.5c-2.6,0-5.2-0.5-7.7-1.6c-5.5-2.5-9.6-7.5-10.8-13.4l-0.9-4.4c-0.7-3.7-0.4-7.4,1-10.9l1-2.5
				l-0.8-1.3l-13-2.4c-7.6-1.4-13.5-7.2-15-14.7l-0.9-4.4c-1.8-8.7,2.8-17.4,10.9-21l31.2-13.6c2.4-1,5-1.6,7.5-1.6
				c2.8,0,5.5,0.6,8.1,1.8l13.9,6.6c3.6,1.7,6.6,4.6,8.5,8.1l13.4,25.1c1.9,3.6,2.6,7.6,2,11.6l-2.3,15.5
				c-1.2,7.8-7.1,14.1-14.9,15.7l-20.7,4.2l-1,0.6C975.1,1537.7,971.8,1538.5,968.5,1538.5z"/>
			<polygon class="st3" points="968.5,1519.7 972.2,1517.5 996.1,1512.8 998.4,1497.3 984.9,1472.1 971,1465.5 939.9,1479.1 
				940.8,1483.5 961.9,1487.4 972.3,1503.9 967.6,1515.3 			"/>
			<path class="st2" d="M915.9,1616.5c-0.9,0-1.8-0.1-2.7-0.2l-22.6-3.2c-5.5-0.8-10.3-3.9-13.2-8.6l-6.2-9.8l-31.8-41.3
				c-0.4-0.5-0.7-0.9-1-1.4l-16.4-26c-1.3-2.1-2.2-4.3-2.6-6.7l-4.5-25.4l-13.1-43.1c-1.8-6-0.5-12.5,3.4-17.3l19.3-23.7
				c1-1.2,2.2-2.3,3.4-3.3l35.2-25.9c0.6-0.4,1.1-0.8,1.7-1.1l29.4-17c2.9-1.7,6.1-2.5,9.4-2.5c0.4,0,0.9,0,1.3,0l17.9,1.3
				c1.6,0.1,3.1,0.4,4.6,0.9l10.8,3.5c1.8,0.6,3.5,1.5,5.1,2.6l37.7,27.2c2,1.4,3.7,3.2,4.9,5.3l8.9,14.3c2.4,3.8,3.3,8.4,2.6,12.9
				l-0.2,1l9.9,7.7c6.4,5,8.8,13.4,6.2,21l-5.2,14.8c-1.8,5.1-5.6,9.1-10.6,11.2c-2.3,0.9-4.7,1.4-7.1,1.4c-2.8,0-5.7-0.6-8.3-1.9
				l-8.6-4.2l-19.9,7.6c0,2.5-0.5,5-1.4,7.4l-3.3,7.9l0.1,0.7l6.6,2.4c1.3,0.5,2.5,1.1,3.6,1.8l1.9-1.2c1.6-1,3.4-1.7,5.2-2.1
				l24.7-6c1.5-0.4,3-0.5,4.5-0.5c4.6,0,9.1,1.7,12.6,4.9l9.6,8.7c1.9,1.7,3.4,3.7,4.4,6l7.8,16.7c3.2,6.8,2,14.9-3.1,20.5
				l-15.6,17.2c-1.9,2.1-4.2,3.7-6.8,4.8l-39.7,16.4l-40.1,22.2C922.2,1615.7,919,1616.5,915.9,1616.5z"/>
			<polygon class="st3" points="995.8,1515.6 971.1,1521.6 949.8,1534.4 946.1,1528.8 952.4,1525.5 949.5,1522.5 932.3,1516.3 
				929.8,1499.3 935.1,1486.6 934.5,1482.4 919.1,1486.3 918.2,1480 974.7,1458.3 990.6,1466.1 995.8,1451.3 977.4,1437 
				948.8,1418.8 908.6,1438.3 907.8,1432.2 948,1412.6 977.6,1434.3 979.1,1424.9 970.1,1410.7 932.4,1383.5 921.7,1379.9 
				903.7,1378.6 874.3,1395.6 839.1,1421.5 819.8,1445.3 833.2,1489.4 837.9,1515.9 854.3,1541.9 886.6,1583.9 893.2,1594.5 
				915.9,1597.7 956.9,1575 997.6,1558.2 1013.1,1540.9 1005.4,1524.3 			"/>
			<path class="st2" d="M875.6,1401c-2,0-4-0.3-5.9-0.9c-4.8-1.6-8.8-5-11-9.6l-8.8-18c-0.2-0.4-0.4-0.9-0.6-1.4l-16-40.6
				c-2.2-5.5-1.6-11.7,1.5-16.8l13.9-22.6c3.4-5.6,9.5-8.9,16-8.9c0.5,0,1.1,0,1.6,0.1l29.7,2.5c6.8,0.6,12.7,4.7,15.5,10.9
				l16.6,36.2c0.7,1.5,1.1,3,1.4,4.6l6,33.9c1.1,6.1-0.9,12.4-5.4,16.7c-3.5,3.5-8.3,5.3-13.1,5.3c-1.2,0-2.5-0.1-3.7-0.4l-11.5-2.3
				l-17.4,9.1C881.6,1400.3,878.6,1401,875.6,1401z"/>
			<polygon class="st3" points="875.6,1382.2 898.9,1370 916.9,1373.7 911,1339.7 894.4,1303.5 864.7,1301 850.8,1323.6 
				866.8,1364.2 			"/>
			<path class="st2" d="M1117.4,1550.3c-1.1,0-2.2-0.1-3.3-0.3l-59.5-10.6c-4.2-0.8-8-2.9-10.8-6.1l-43-49.1
				c-1.6-1.8-2.8-3.8-3.6-6.1l-29.7-83l-1.8,0.2c-0.6,0.1-1.2,0.1-1.8,0.1c-9.6,0-17.8-7.3-18.7-17.1l-0.8-8.5l-13.3-35.2
				l-26.3-51.3c-1.1-2.1-1.8-4.5-2-6.8l-2.3-24.3c-0.5-5.7,1.6-11.4,5.7-15.3c3.5-3.4,8.2-5.2,13-5.2c0.9,0,1.7,0.1,2.6,0.2l21.8,3
				c6.1,0.8,11.4,4.6,14.2,10.1l9.7,19.3c2.4-1.1,5-1.6,7.6-1.6c2,0,4,0.3,6,1l23.3,7.9c0.8,0.3,1.5,0.6,2.3,0.9l14.3,7l23.7,2.6
				l14.6-10.8c3.3-2.4,7.2-3.7,11.2-3.7c2,0,3.9,0.3,5.8,0.9c5.8,1.9,10.3,6.5,12.1,12.3l5.3,16.8c2,6.3,0.5,13.2-4,18.2l-7.1,7.9
				c1,3.2,1.2,6.7,0.4,10.1l-2.1,8.9l20.2,12l13.4-9.5l-1-1c-5.2-5.4-6.7-13.3-3.9-20.2l-8.6-33.8c-2.1-8.4,1.8-17.2,9.5-21.3
				c2.8-1.5,5.8-2.2,8.7-2.2c5.3,0,10.5,2.2,14.2,6.4l10.8,12.4l19.4,3.3l10.9-6l6.2-3.7l7.5-17.6c2.6-6,8.1-10.3,14.5-11.2
				l34.5-5.2l6.9-16.8c1.9-4.7,5.6-8.4,10.3-10.2l17.6-7.2c2.3-0.9,4.7-1.4,7.1-1.4c6.2,0,12.2,3.1,15.7,8.5l12.8,19.4
				c2.7,4.1,3.7,9.1,2.7,14l-7.5,37.8c-0.1,0.4-0.2,0.8-0.3,1.2l-9.3,34.8l-4.7,26.2c-0.4,2.3-1.3,4.6-2.5,6.6l-14.3,23.1
				c-3.1,5-8.4,8.3-14.2,8.8c-0.6,0.1-1.2,0.1-1.7,0.1c-1.4,0-2.7-0.2-4.1-0.4l-4.9,40.6c-0.3,2.3-1,4.5-2,6.5l-45.1,85.8
				c-2.4,4.7-6.7,8.1-11.8,9.4l-66,17.5C1120.6,1550.1,1119,1550.3,1117.4,1550.3z"/>
			<path class="st3" d="M1279.5,1228.5l-17.6,7.2l-11,26.7l-45,6.7l-9.9,23.3l-11.7,7l-16.9,9.4l-32.5-5.6l-15.2-17.5l9.7,38.1l11-1
				l56,42.7l3.2,28.4l-9.8,19.7l0,0l-4.1-44l-41.2-35.9l-17.1-2.5l16.2,16.7l-41.2,29.3l-42.6-25.2l5.2-22.4l-47.8,38.1l20.3,76
				l-0.3,13.5l-3.8-3.4l-25.1-93.5l45.7-32.5l22-24.5l-5.3-16.8l-20.6,15.2c0,0-34.3-3.8-34.3-3.8l-17.3-8.5l-23.3-7.9l-9.3,18.3
				l1,4.9l-25.9-51.2l-21.8-3l2.3,24.3l26.8,52.2l14.6,38.5l1,11.1l16.3-1.5l34.6,96.7l43,49.1l59.5,10.6l66-17.5l45.1-85.8
				l9.3-76.8l18.3,20.1l14.3-23.1l4.8-27l9.5-35.6l7.5-37.8L1279.5,1228.5z M1036.8,1372.8l17.2-11.2l36.4,22.7l1.9,4.4l15.5-1.6
				l5.7-6.5l29.9-23.6l17.7,13l-6.9,23.9l-58.1,5.8l-62.1-13.8L1036.8,1372.8z M1145.6,1402.4l-18.1,21.3l-30.9,7.4l-27.2-14.2
				l-22.2-20.5c0,0,51.6,8.2,51.6,8.2L1145.6,1402.4z M1034.2,1398.6l24.2,20.2l38,19.6l36.4-9.7l26.6-27.4l8.2,15.3l-35.8,20.8
				l-35.8,8.2l-57.9-31.2l0,0L1034.2,1398.6z M1083.3,1498.6l-28.2-25.3l26.6,1.7l31.5-9l40.6,12.4l-8.6,13.5l-22.9,12.2
				L1083.3,1498.6z"/>
			<path class="st2" d="M1263.3,1171c-4.6,0-9.2-1.7-12.8-5l-68.1-62.9l-41.1-20.6l-36.5-6.1l-92.7,18.8l-40.8,32.3
				c-3.4,2.7-7.6,4.1-11.7,4.1c-5.1,0-10.1-2-13.8-6c-6.7-7.2-6.7-18.3,0-25.5l49.9-54c1.8-1.9,4-3.5,6.4-4.5l75.6-32.5
				c2.3-1,4.9-1.5,7.4-1.5c0.4,0,0.8,0,1.2,0l69.9,4.5c3.1,0.2,6,1.1,8.7,2.8l46.6,28.7c1.9,1.2,3.6,2.7,5,4.5l49.9,64.7
				c1,1.3,1.8,2.7,2.5,4.2l11.8,28.1c3.4,8.2,0.7,17.6-6.6,22.7C1270.8,1169.9,1267,1171,1263.3,1171z"/>
			<polygon class="st3" points="1104.5,1057.3 1147.2,1064.5 1193.2,1087.5 1263.2,1152.2 1251.5,1124.1 1201.6,1059.5 1155,1030.8 
				1085.1,1026.3 1009.5,1058.8 959.6,1112.7 1003.9,1077.7 			"/>
			<path class="st2" d="M1144.6,1315.9c-4.3,0-8.5-1.5-11.8-4.2l-19.2-15.6c-7-5.6-9-15.4-4.8-23.4c3.3-6.3,9.8-10.1,16.6-10.1
				c1.8,0,3.6,0.3,5.3,0.8l37.6,11.1c8.2,2.4,13.7,10,13.5,18.5c-0.2,8.5-6.1,15.8-14.4,17.8l-18.4,4.4
				C1147.6,1315.7,1146.1,1315.9,1144.6,1315.9z"/>
			<polygon class="st3" points="1144.6,1297.1 1163,1292.6 1125.4,1281.5 			"/>
		</g>
		<g>
			<path class="st7" d="M1144.4,1333.8l-17.1-2.5l16.2,16.7l-41.2,29.3l-42.6-25.2l5.2-22.4l-47.8,38.1l22.4,83.9l2.7-20.6l-8-32.5
				l24.2,20.2l38,19.6l36.4-9.7l26.6-27.4l19.9,37.3l-39.8,62.2l43.4-24.3l6.8-62.8l-4.1-44L1144.4,1333.8z M1127.5,1423.6
				l-30.9,7.4l-27.2-14.2l-22.2-20.5c0,0,51.6,8.2,51.6,8.2l46.8-2.2L1127.5,1423.6z M1154.2,1393.9l-58.1,5.8l-62.1-13.8l2.9-13.1
				l17.2-11.2l36.4,22.7l1.9,4.4l15.5-1.6l5.7-6.5l29.9-23.6l17.7,13L1154.2,1393.9z"/>
			<path class="st7" d="M1068,1243.9l-20.5-15l-67,21l57.7-7.8l-41.2,16.3l-13.2,20.7l18.9-10.1l39.5,3.6l25.6-6.9l3.8-10.9
				L1068,1243.9z M1051.9,1269.5l-16.3,1.5l-28.4-10.2l22-9.2l25.4-2.3l10.3,12L1051.9,1269.5z"/>
			<path class="st7" d="M1187.4,1253.6l-14.7-16.1l-29.3-3.8l-35.9,13l12.6,26.7l23.1,2.8l51.5,2.5L1187.4,1253.6z M1161.1,1269.9
				l-23.4,0.7l-15.9-9.8l21.9-12.9l23.5,2.8l17,8.2L1161.1,1269.9z"/>
			<polygon class="st7" points="998.2,1094.4 1001,1125.3 973.8,1178.9 971.1,1236 964.9,1278.9 945.7,1238.3 945,1191.5 
				952.7,1156.8 960.5,1121.8 			"/>
			<path class="st7" d="M1039,1243.3c-3.5,0.3-6.5,1.9-8.8,4.2c2.7,0.3,5,2.5,5.2,5.4c0.3,3.3-2.1,6.2-5.4,6.5
				c-1.4,0.1-2.7-0.3-3.8-1c0,0,0,0.1,0,0.1c0.7,7.7,7.6,13.4,15.4,12.7c7.8-0.7,13.5-7.6,12.8-15.3
				C1053.6,1248.3,1046.7,1242.6,1039,1243.3"/>
			<path class="st7" d="M1147.3,1246.2c-1.7,0.2-3.3,0.7-4.8,1.4c1.8,0.9,3.1,2.6,3.3,4.8c0.3,3.3-2.1,6.2-5.4,6.5
				c-2.1,0.2-4.1-0.8-5.3-2.3c-0.4,1.6-0.6,3.2-0.5,5c0.7,7.7,7.6,13.4,15.4,12.7c7.8-0.7,13.5-7.6,12.7-15.3
				C1161.9,1251.2,1155.1,1245.5,1147.3,1246.2"/>
			<polygon class="st7" points="1253.4,1158.8 1259.4,1223.7 1242.6,1259.7 1239.4,1225.5 1231.3,1137.6 			"/>
			<polygon class="st7" points="1010.8,1093.3 1013.1,1117.6 982.7,1178 979.1,1235.2 993,1235.1 1022.6,1217.6 1044.8,1216.3 
				1068.4,1221.7 1081.4,1235.6 1096.6,1238 1130.8,1221.3 1156,1216.8 1179.6,1226.6 1203.6,1245.7 1205.7,1261.3 1234.5,1256.6 
				1222,1128.7 1188.3,1094.2 1138,1069.6 1105.3,1065.4 			"/>
			<polygon class="st7" points="966,1299.9 978.9,1361.3 1025.7,1460.2 1036.1,1464.1 1008.2,1360.4 1053.9,1327.9 1076,1303.4 
				1070.7,1286.6 1050.1,1301.7 1015.9,1297.9 998.6,1289.4 975.3,1281.6 			"/>
			<polygon class="st7" points="1129.2,1323.8 1140.2,1322.8 1196.2,1365.5 1200.8,1406.4 1222.4,1364.8 1257.5,1261.3 
				1205.8,1269.1 1195.9,1292.3 1184.2,1299.3 1167.3,1308.7 1134.8,1303.2 1119.5,1285.7 			"/>
			<polygon class="st7" points="1038.1,1414.2 1036.8,1472.2 1081.6,1475.1 1113.1,1466.1 1161.3,1480.8 1188.4,1450 1173.3,1413.2 
				1131.8,1437.2 1096,1445.4 			"/>
		</g>
		<polygon class="st3" points="939.9,1479.1 940.8,1483.5 961.9,1487.4 972.3,1503.9 967.6,1515.3 968.5,1519.7 972.2,1517.5 
			996.1,1512.8 998.4,1497.3 984.9,1472.1 971,1465.5 		"/>
		<polygon class="st3" points="874.3,1395.6 839.1,1421.5 819.8,1445.3 833.2,1489.4 837.9,1515.9 854.3,1541.9 886.6,1583.9 
			893.2,1594.5 915.9,1597.7 956.9,1575 997.6,1558.2 1013.1,1540.9 1005.4,1524.3 995.8,1515.6 971.1,1521.6 949.8,1534.4 
			946.1,1528.8 952.4,1525.5 949.5,1522.5 932.3,1516.3 929.8,1499.3 935.1,1486.6 934.5,1482.4 919.1,1486.3 918.2,1480 
			974.7,1458.3 990.6,1466.1 995.8,1451.3 977.4,1437 948.8,1418.8 908.6,1438.3 907.8,1432.2 948,1412.6 977.6,1434.3 
			979.1,1424.9 970.1,1410.7 932.4,1383.5 921.7,1379.9 903.7,1378.6 		"/>
		<polygon class="st3" points="850.8,1323.6 866.8,1364.2 875.6,1382.2 898.9,1370 916.9,1373.7 911,1339.7 894.4,1303.5 
			864.7,1301 		"/>
		<polygon class="st3" points="1261.8,1235.6 1249.9,1264.6 1224.3,1343.7 1185.1,1423 1172.8,1477.2 1122.2,1504.2 1083.3,1498.6 
			1025.4,1446.9 967,1304.8 941.2,1253.6 919.4,1250.5 921.7,1274.8 948.4,1327 963,1365.5 964,1376.6 980.3,1375.1 1014.9,1471.8 
			1057.9,1520.9 1117.4,1531.5 1183.4,1514 1228.5,1428.2 1237.8,1351.4 1256.2,1371.5 1270.5,1348.4 1275.3,1321.3 1284.8,1285.8 
			1292.3,1247.9 1279.5,1228.5 		"/>
		<polygon class="st3" points="1009.5,1058.8 959.6,1112.7 1003.9,1077.7 1104.5,1057.3 1147.2,1064.5 1193.2,1087.5 1263.2,1152.2 
			1251.5,1124.1 1201.6,1059.5 1155,1030.8 1085.1,1026.3 		"/>
		<polygon class="st3" points="1144.6,1297.1 1163,1292.6 1125.4,1281.5 		"/>
	</g>
</g>
</svg>
