<?xml version="1.0" encoding="UTF-8"?>
<!-- Generator: Adobe Illustrator 23.0.5, SVG Export Plug-In . SVG Version: 6.00 Build 0)  -->
<svg version="1.1" id="Calque_1" xmlns="http://www.w3.org/2000/svg" xmlns:xlink="http://www.w3.org/1999/xlink" x="0px" y="0px" viewBox="0 0 210 65.618" enable-background="new 0 0 210 65.618" xml:space="preserve">
<g>
	<path fill="#483789" d="M187.503,18.371c2.56,0.89,3.111,8.9-0.951,7.566C183.053,24.782,184.012,17.157,187.503,18.371"/>
	<path fill="#483789" d="M201.932,44.807c-1.859-1.601,0.543-4.934-1.989-5.799c-1.208-0.417-1.578-1.391-2.301-3.317   c1.469-3.347,1.377-4.59,4.615-5.395C206.921,33.069,203.834,40.881,201.932,44.807 M150.375,38.391   c1.08-2.943,2.805-6.735,6.628-7.294C156.517,35.646,154.042,37.445,150.375,38.391 M135.45,38.085   c-1.082,1.964-2.749,3.279-4.526,4.451c-0.272-0.632,0.146-2.944,0.128-2.92c0.027-0.103,0.062-0.219,0.085-0.322   c0.01-0.141,0.019-0.273,0.021-0.391c-0.002,0.118-0.011,0.25-0.021,0.391c0.811-2.835,2.05-7.019,5.163-4.627   c-0.11,0.805-0.357,1.427-0.719,1.954C135.578,36.885,135.773,37.985,135.45,38.085 M100.426,43.025   c-0.776-2.571,0.171-5.37,0.389-8.281C104.573,37.76,102.148,42.045,100.426,43.025 M209.884,33.769   c-0.585-5.166-5.762-7.153-9.791-5.303c-3.911,1.797-6.15,6.549-4.361,11.903c-2.649,2.541-4.262,5.277-8.463,6.117   c-1.154-3.615,0.592-7.558-0.837-10.873c2.677-3.381-4.288-3.922-5.943-2.184c-0.147,3.977-3.993,5.404-7.395,6.407   c-0.477-2.224,0.569-4.318,0.812-6.361c2.33-2.917,4.589-2.722,5.596-5.099c-2.682-5.098-8.404-0.108-9.177,3.898   c-0.067-0.717-0.388-1.195-0.974-1.436c-2.038,4.488-4.221,8.79-7.805,11.58c0.264-2.936,0.348-7.406,0.505-10.699   c0.041-1.009,0.536-1.988,0.132-2.947c-0.863-2.052-3.867-1.153-5.659-1.12c-0.165,0.606-0.49,1.031-0.932,1.346   c-6.278,0.913-8.778,6.974-7.359,12.97c-2.051,1.223-4.47,2.377-7.245,1.251c-1.688-3.109-0.311-6.277-0.609-9.95   c-0.479-6.01,2.079-12.872,1.919-18.761c-3.75-1.979-3.68,2.932-4.107,5.542c-0.741,4.1-0.803,7.273-1.404,11.323   c-4.839,0.146-8.077,4.343-8.582,9.833c-1.04,0.62-2.182,1.113-3.369,1.568c-2.1-4.647,0.716-14.618-7.335-13.312   c-0.742,0.514-0.803,1.781-1.66,2.176c-0.416-8.248-11.702-3.404-15.497-1.765c-0.382-0.681-2.05-0.722-2.917-0.476   c-0.305,0.092-0.014,0.824-0.383,0.836c-2.856,0.675-5.768,1.451-8.554,1.688c0.035-10.908,3.825-13.139,10.63-12.829   c1.595,0.085,3.147,0.297,4.402,0.814c1.254,0.529,2.855,2.289,3.676,0.262c0.504-1.221-0.082-2.416-1.253-3.393   c-3.74-3.09-8.664-3.887-13.33-2.823c-2.891,1.299-4.539,3.353-5.835,6.291c-0.232,0.491-0.416,1.965-0.5,2.26   c-0.048,0.192-0.535,3.516-0.554,3.637c-0.047,0.466-0.189,1.215,0.061,1.696c-0.355,1.324,0.417,3.283-0.277,4.812   c-2.615,0.555-9.157,2.957-9.786,3.028c-1.958,1.663-0.32,3.888,1.365,4.049c3.665,0.343,6.104-2.382,9.091-2.723   c-0.113,2.817,0.339,3.956,0.542,6.768c0.216,2.807,0.091,3.432-0.723,4.455c-0.29,0.525-0.968-0.406-0.88,0.319   c0.791,1.755,1.743,3.364,3.616,4.142c0.136,0.064,0.443,0.013,0.514-0.153c2.82-4.409,0.092-11.451-0.421-16.794   c0.394-0.42,1.169-0.842,1.425-0.8c0.514-0.217,5.512-3.185,7.599-3.45c0.006,2.251-0.404,3.375-0.598,5.33   c-0.603,6.096,4.069,14.578,7.597,7.967c-0.244-1.118,0.917-2.303,1.111-3.369c0.707-3.903-1.132-6.875-3.804-9.388   c1.879-1.547,3.765-2.292,6.186-2.995c0.558-0.286,3.221-1.072,4.896-0.985c0.585,2.431-0.527,4.894-0.688,7.24   c-0.3,4.813-0.661,10.463,4.12,12.124c1.853-4.336,0.324-10.939,3.598-14.193c0.8,5.555,1.362,11.318,6.139,13.257   c0.634-1.406,1.53-2.535,2.246-3.873c-0.024,3.121,4.396,4.497,5.631,1.622c0.438-0.702,1.593-3.203,3.014-5.187   c1.067,2.864,1.492,6.755,4.5,7.462c2.602,0.609,5.823-1.796,6.027-2.007c0.205-0.192,0.868-0.589,1.201-0.768   c2.908,1.217,4.91-1.435,5.542-3.897c1.381-0.286,2.159-1.243,3.365-1.736c0.746,3.678,0.895,7.883,4.611,8.864   c1.428-0.985,4.857-6.55,7.688-12.965c-0.254,4.136,0.25,10.174,3.999,10.914c3.648,0.702,6.301-3.533,8.875-4.613   c0.878,3.854,1.181,8.433,4.866,9.682c4.882,1.649,7.859-4.276,10.758-7.052c0.878,2.103,1.403,4.423,3.208,5.339   c1.734,0.898,4.963,0.61,6.104-0.922C209.797,45.001,210.245,36.937,209.884,33.769"/>
	<path fill="#483789" d="M51.347,26.363c-0.425,0.142-0.696-0.014-0.758-0.232c-0.069-0.249,0.041-0.469,0.473-0.686   c0.435-0.214,21.729-11.331,22.358-11.663c0.619-0.327,1.119-0.12,1.501,0.601c0.332,0.63,0.046,1.298-0.395,1.485   C73.615,16.271,51.772,26.215,51.347,26.363"/>
	<path fill="#483789" d="M43.053,22.056c0.112-0.262,8.464-19.52,8.674-19.953c0.203-0.423,0.94-0.425,1.464-0.115   c0.523,0.313,0.696,0.695,0.716,0.927c0.03,0.123-0.05,0.303-0.079,0.358c-2.608,5.378-9.641,18.705-9.8,19.105   c-0.193,0.392-0.453,0.625-0.828,0.474C42.909,22.736,42.939,22.333,43.053,22.056"/>
	<path fill="#483789" d="M43.779,26.847c-0.171-0.116-0.248-0.426-0.036-0.69c0.222-0.273,8.609-11.214,8.883-11.535   c0.264-0.324,0.815-0.605,1.49,0.021c0.613,0.573,0.414,1.15,0.178,1.437c-0.241,0.281-9.516,10.364-9.741,10.59   C44.32,26.898,43.97,26.977,43.779,26.847"/>
	<path fill="#483789" d="M42.348,17.93c-0.259-0.061-0.362-0.266-0.331-0.494c0,0,1.488-7.17,1.552-7.473   c0.069-0.304,0.387-0.575,0.926-0.56c0.471,0.016,0.822,0.52,0.694,0.946c-0.134,0.436-2.264,7.058-2.319,7.265   C42.808,17.82,42.603,17.98,42.348,17.93"/>
	<path fill="#483789" d="M48.359,29.58c-0.026-0.282,0.162-0.425,0.494-0.482c0.477-0.066,19.991-3.052,20.541-3.158   c0.683-0.135,1.085,0.229,1.127,0.823c0.036,0.524-0.274,1.074-0.892,1.148c-0.606,0.084-19.995,2.048-20.635,2.101   C48.689,30.035,48.425,30.004,48.359,29.58"/>
	<path fill="#483789" d="M51.073,39.459c-0.029-0.002-0.05-0.003-0.075-0.003c-0.271-0.046-0.542-0.132-0.812-0.212   c-0.212-0.056-0.485-0.181-0.683-0.228c-0.291-0.072-0.468-0.276-0.437-0.547c0.014-0.265,0.232-0.44,0.549-0.434   c0.039,0.002,0.084,0.004,0.136,0.018c0.06,0.002,0.868-0.024,1.534,0.025h0.004l0.105,0.037l-0.002,0.009   c0.33,0.15,0.418,0.469,0.371,0.75C51.713,39.154,51.478,39.47,51.073,39.459"/>
</g>
<path fill="#483789" d="M49.419,39.386h0.019H49.419z"/>
<g>
	<path fill="#483789" d="M54.773,19.753c-0.156-0.219-0.079-0.512,0.084-0.672c0.166-0.154,5.762-5.688,6.061-5.945   c0.294-0.248,0.861-0.222,1.256,0.325c0.335,0.441,0.44,0.91-0.079,1.299c-0.43,0.329-6.478,4.96-6.697,5.099   C55.185,19.991,54.926,19.96,54.773,19.753"/>
	<path fill="#483789" d="M0.868,50.62c-0.391-0.119-0.705-0.454-0.821-0.887c-0.114-0.399-0.018-0.799,0.25-1.088   c0.071-0.101,0.255-0.175,0.319-0.191c5.902-2.124,21.85-7.294,21.877-7.301c0.091-0.028,0.178-0.062,0.28-0.062h0.005l0.039,0.014   c0.268,0.152,0.418,0.307,0.439,0.464c0.007,0.149-0.056,0.297-0.218,0.441c-0.08,0.055-17.045,6.81-21.766,8.605   C1.223,50.636,0.926,50.638,0.868,50.62"/>
	<path fill="#483789" d="M21.09,65.406c-0.606-0.312-0.69-0.865-0.478-1.289c0.2-0.426,9.922-19.313,9.978-19.38   c0.136-0.113,0.264-0.163,0.377-0.151c0.198-0.004,0.355,0.155,0.482,0.453c0.02,0.134-8.564,19.861-8.746,20.254   C22.509,65.681,21.681,65.726,21.09,65.406"/>
	<path fill="#483789" d="M20.826,52.918c-0.116-0.003-0.226-0.032-0.33-0.054l-0.05-0.003c-0.194-0.048-0.373-0.132-0.521-0.273   c-0.182-0.16-0.388-0.519-0.384-0.858c0.007-0.204,0.063-0.368,0.189-0.485c2.917-3.424,9.106-9.904,9.738-10.6   c0.021-0.013,0.034-0.034,0.046-0.046c0.034-0.037,0.068-0.082,0.127-0.12c0.069-0.06,0.171-0.084,0.267-0.083   c0.202,0.003,0.378,0.134,0.464,0.305c0.062,0.159,0.03,0.32-0.109,0.465c-1.625,2.029-7.404,9.702-8.865,11.529   c0,0-0.025,0.035-0.032,0.043c-0.034,0.027-0.082,0.069-0.127,0.089C21.087,52.895,20.951,52.913,20.826,52.918"/>
	<path fill="#483789" d="M30.823,58.607c-0.032,0-0.063,0.003-0.1-0.005l-0.027-0.005l-0.013-0.005   c-0.219-0.056-0.394-0.191-0.544-0.374c-0.091-0.131-0.136-0.246-0.125-0.374c0.736-2.065,1.952-6.525,2.139-7.213   c0.045-0.224,0.368-0.496,0.71-0.421c0.348,0.078,0.507,0.362,0.443,0.672c0,0-1.233,5.676-1.686,7.403   c-0.201,0.267-0.466,0.302-0.749,0.327L30.823,58.607z"/>
	<path fill="#483789" d="M10.908,40.135c-0.283-0.004-0.51-0.265-0.603-0.703c-0.018-0.051-0.03-0.109-0.03-0.155   c-0.014-0.504,0.221-0.825,0.676-0.982c2.196-0.191,13.656-0.948,13.722-0.946c0.157,0.005,0.533,0.055,0.569,0.494   c0.02,0.357-0.312,0.422-0.549,0.464C24.632,38.327,10.924,40.135,10.908,40.135"/>
</g>
<polygon fill="#483789" points="19.451,48.39 19.668,48.374 19.715,48.374 19.715,48.367 19.738,48.366 19.736,48.314   19.772,48.143 "/>
<g>
	<path fill="#483789" d="M12.912,54.36c-0.175-0.065-0.367-0.163-0.527-0.382c-0.116-0.172-0.183-0.38-0.189-0.61   c0.002-0.188,0.002-0.475,0.272-0.689c0,0,6.294-4.776,6.685-5.093c0.086-0.052,0.178-0.081,0.264-0.081   c0.005-0.007,0.023-0.007,0.026-0.007c0.175,0.002,0.33,0.109,0.4,0.255c0.048,0.047,0.061,0.146,0.061,0.146v0.007   c0.019,0.173-0.059,0.354-0.193,0.45c-0.999,0.921-4.914,4.872-6.064,5.945c-0.143,0.093-0.275,0.123-0.423,0.12   C13.224,54.422,12.996,54.392,12.912,54.36"/>
	<path fill="#483789" d="M52.475,64.22c-0.362-0.706-9.7-20.183-9.795-20.414c-0.093-0.218-0.089-0.466,0.221-0.625   c0.311-0.173,0.543-0.047,0.68,0.217c0.02,0.042,10.494,19.038,10.905,19.84c0.321,0.598,0.019,1.092-0.307,1.315   C53.809,64.803,52.828,64.932,52.475,64.22"/>
	<path fill="#483789" d="M70.191,52.428c-0.106,0.003-0.257-0.061-0.295-0.089c-5.365-2.589-17.334-8.923-19.095-9.809   c-0.027-0.013-0.068-0.039-0.087-0.042c-0.079-0.039-0.156-0.072-0.228-0.13c-0.133-0.162-0.172-0.312-0.143-0.448   c0.034-0.174,0.185-0.308,0.447-0.429h0.056c0.098-0.002,0.192,0.052,0.262,0.085l0.05,0.015   c2.233,1.025,19.918,8.677,19.918,8.677c0.027,0.02,0.039,0.029,0.054,0.041c0.166,0.146,0.196,0.312,0.235,0.454l0.009,0.058   c0.087,0.376,0.023,0.73-0.2,1.051c-0.103,0.13-0.214,0.245-0.382,0.354c-0.146,0.092-0.301,0.191-0.54,0.215   C70.243,52.429,70.216,52.428,70.191,52.428"/>
	<path fill="#483789" d="M55.784,51.823c-0.186,0.003-0.344-0.075-0.448-0.192c-3.45-2.932-9.782-8.807-10.792-9.604   c-0.294-0.255-0.332-0.65-0.208-0.912c0.087-0.207,0.275-0.318,0.485-0.316c0.149,0.011,0.309,0.074,0.468,0.204l1.031,0.729   c1.49,1.042,7.585,5.931,10.465,8.237l0.042,0.027c0.034,0.046,0.077,0.114,0.084,0.13c0.127,0.307,0.079,0.527,0.032,0.739   l-0.007,0.043c-0.047,0.198-0.127,0.373-0.257,0.533C56.5,51.63,56.136,51.835,55.784,51.823"/>
	<path fill="#483789" d="M65.206,42.192c-0.069,0.004-0.137,0.003-0.219-0.026c-4.685-0.895-6.683-1.629-10.437-2.313   c-0.259-0.069-0.402-0.129-0.435-0.455c-0.013-0.169,0.08-0.357,0.205-0.463c0.082-0.061,0.176-0.084,0.303-0.082   c0.068-0.003,0.143,0.026,0.202,0.03c3.834,0.557,8.175,0.999,10.551,1.399l0.036,0.004c0.444,0.123,0.694,0.535,0.66,1.104   L66.07,41.43l-0.013,0.007C65.941,41.946,65.653,42.205,65.206,42.192"/>
	<path fill="#483789" d="M43.61,64.398c-0.45-0.013-0.755-0.239-0.905-0.669c-0.279-3.201-0.896-13.56-0.914-13.812   c-0.011-0.253,0.168-0.475,0.462-0.517c0.275-0.034,0.517,0.208,0.544,0.447c0.033,0.238,1.74,13.648,1.743,13.682   c0.006,0.061,0.006,0.127,0.006,0.198c-0.034,0.394-0.521,0.631-0.862,0.672C43.647,64.398,43.627,64.395,43.61,64.398"/>
	<path fill="#483789" d="M56.858,59.373c-0.178-0.003-0.405-0.039-0.594-0.25c0,0-3.998-5.285-5.106-6.723   c-0.102-0.137-0.15-0.478,0.045-0.622c0.268-0.188,0.557-0.1,0.765,0.1c0.198,0.21,4.833,4.885,5.902,6.055   c0.182,0.266,0.136,0.518,0.066,0.717c-0.068,0.186-0.171,0.385-0.392,0.538c-0.171,0.118-0.366,0.175-0.605,0.188L56.858,59.373z"/>
	<path fill="#483789" d="M29.636,21.601c-0.114,0.004-0.23-0.055-0.348-0.155c-0.069-0.083-0.103-0.155-0.128-0.216   c-0.014-0.042-0.039-0.067-0.061-0.103c-1.955-3.691-9.275-16.887-10.833-19.8c-0.016-0.021-0.023-0.04-0.029-0.066V1.226   l0.029,0.001l0.033-0.039l-0.076,0.038c-0.007-0.036-0.009-0.09-0.014-0.12c-0.013-0.276,0.073-0.522,0.274-0.727   c0.242-0.246,0.613-0.382,0.97-0.377c0.043-0.005,0.084,0.003,0.13,0.012c0.207,0.034,0.376,0.083,0.548,0.26   c0.071,0.085,0.1,0.143,0.119,0.188c0.016,0.014,0.014,0.041,0.025,0.049c2.341,4.587,8.587,17.876,9.813,20.354h0.033l-0.011,0.05   c0.029,0.057,0.039,0.112,0.043,0.169v0.011l-0.012,0.012C30.011,21.441,29.842,21.613,29.636,21.601"/>
	<path fill="#483789" d="M23.984,27.475c-0.431-0.168-15.397-6.329-20.207-8.757l-0.037-0.02c-0.027-0.016-0.047-0.039-0.057-0.042   c-0.159-0.149-0.2-0.308-0.229-0.446L3.44,18.154c-0.09-0.385-0.018-0.738,0.198-1.054c0.102-0.141,0.228-0.248,0.395-0.361   c0.13-0.087,0.291-0.191,0.533-0.208c0.007-0.009,0.029-0.009,0.052-0.009c0.122,0.003,0.258,0.065,0.303,0.091   c5.367,2.595,17.34,8.931,19.098,9.817c0.125,0.071,0.676,0.446,0.514,0.8C24.377,27.587,23.99,27.475,23.984,27.475"/>
	<path fill="#483789" d="M30.373,28.16c-0.094,0-0.212-0.026-0.321-0.093l-0.719-0.575l-3.188-2.486   c-2.458-1.96-5.006-3.978-7.504-5.971l-0.029-0.032l-0.01-0.014c-0.02-0.01-0.05-0.056-0.067-0.09   c-0.103-0.258-0.06-0.441-0.026-0.624l0.004-0.034c0.035-0.155,0.116-0.31,0.219-0.439c0.159-0.188,0.48-0.313,0.739-0.308   c0.159,0.001,0.294,0.053,0.381,0.152c2.878,2.446,5.726,5.017,8.48,7.513c0.757,0.677,1.542,1.48,2.22,2.088   c0.15,0.103,0.244,0.244,0.271,0.434C30.734,28.095,30.528,28.172,30.373,28.16"/>
	<path fill="#483789" d="M19.954,30.103h-0.05c-0.703-0.101-11.688-1.748-12.088-1.753c-0.392-0.014-0.451-0.623-0.421-0.89   c0.079-0.44,0.341-0.686,0.762-0.748c2.79,0.499,10.548,2.106,11.893,2.338c0.036,0.005,0.066,0.01,0.112,0.021   c0.2,0.081,0.323,0.241,0.354,0.485c0.01,0.14-0.047,0.276-0.136,0.373C20.268,30.035,20.107,30.11,19.954,30.103"/>
	<path fill="#483789" d="M32.744,19.426c-0.252-0.008-0.435-0.163-0.544-0.45c-0.02-0.062-0.034-0.118-0.04-0.158   c-0.003-0.035-0.01-0.055-0.016-0.075c0,0-2.617-13.095-2.642-13.418c-0.002-0.423,0.51-0.639,0.769-0.705   c0.07-0.016,0.128-0.015,0.166-0.016c0.389,0.016,0.673,0.211,0.828,0.587c0.385,2.381,1.559,11.393,1.927,13.569v0.071   c0.005,0.023,0.007,0.059,0.007,0.089c-0.016,0.218-0.064,0.445-0.389,0.507C32.787,19.427,32.764,19.425,32.744,19.426"/>
	<path fill="#483789" d="M34.186,22.629"/>
	<path fill="#483789" d="M33.176,21.868c0.612-0.104,0.735,0.371,0.753,0.886c0.011,0.45,0.039,0.9,0.043,1.248   c-0.003,0.201-0.098,0.389-0.294,0.452c-0.036,0.007-0.066,0.025-0.103,0.023c-0.2,0.005-0.388-0.137-0.427-0.329   c-0.121-0.311-0.435-1.192-0.435-1.192C32.566,22.425,32.514,21.982,33.176,21.868"/>
	<path fill="#483789" d="M22.427,15.438c-0.098-0.002-0.228-0.039-0.351-0.213c-0.912-1.002-2.116-2.213-3.135-3.294   c-0.892-0.96-1.795-1.921-2.687-2.892c-0.143-0.226-0.107-0.435-0.045-0.603c0.054-0.162,0.136-0.316,0.314-0.45   c0.148-0.097,0.309-0.143,0.505-0.158l0.08-0.002c0.145,0.014,0.334,0.035,0.484,0.225l1.377,1.6   c0.762,0.926,1.518,1.895,2.237,2.835c0.537,0.708,1.126,1.551,1.636,2.191l0.016,0.021c0.089,0.151,0.085,0.309,0.003,0.47   C22.767,15.336,22.598,15.441,22.427,15.438"/>
</g>
</svg>