<?xml version="1.0" encoding="utf-8"?>
<!-- Generator: Adobe Illustrator 24.1.3, SVG Export Plug-In . SVG Version: 6.00 Build 0)  -->
<svg version="1.1" id="Calque_4" xmlns="http://www.w3.org/2000/svg" xmlns:xlink="http://www.w3.org/1999/xlink" x="0px" y="0px"
	 viewBox="0 0 566.9 566.9" style="enable-background:new 0 0 566.9 566.9;" xml:space="preserve">
<style type="text/css">
	.st0{fill:#00873E;}
	.st1{fill:#D43E30;}
	.st2{fill:#FAC014;}
</style>
<path class="st0" d="M185.3,260.5c0,11.7,2.2,22.1,6,31.4c0.2,0.4-0.1,0.8-0.5,0.8l-76.8,0c-10.6,0-19.3-8.7-19.3-18.8v-74.2
	c0-10.1,8.7-18.8,19.3-18.8h85.7c0.3,0,0.6-0.3,0.6-0.6V84.7c0-10.7,8.7-19.4,19.4-19.4h48.4c0.7,0,1.3,0.3,1.7,0.9
	c7.6,11.5,12.3,24.7,13.3,38.6C288.8,179,185.3,167.1,185.3,260.5"/>
<path class="st0" d="M304.4,466.8c-0.3,5.7-5.3,10.4-10.9,10.4c0,0-0.1,0-0.1,0h-74.2c-10.1,0-18.8-8.7-18.8-19.3V310.4
	c0-0.6,0.7-0.8,1-0.3c3.7,5.4,8,10.5,12.6,15.4c18.1,19.2,41.6,35.8,61.2,56.9C295.3,403.9,305.9,438,304.4,466.8"/>
<path class="st1" d="M312.1,84.1v12.1c0,0.6-0.8,0.8-1.1,0.3c-3.9-7.2-9.2-14.5-16.1-21.7c-3.1-3.2-5.8-6-8.3-8.5
	c-0.4-0.4-0.1-1,0.4-1h6.3C303.5,65.3,312.1,74,312.1,84.1"/>
<path class="st1" d="M398.3,180.9h-79.1c-4.8,0-6.8-1.7-7.1-11.2c0-0.6-0.8-0.8-1.1-0.2c-5,10.5-15.8,20.4-23.1,26.8
	c-12.6,11.1-26.3,30.7-21.3,62.3c1.7,10.7,6.8,22.3,20.3,39.1c3.7,4.7,6.9,8.6,9.6,12.2c-4.1-8-8.7-15.3-12.5-25.1
	c-9-23-8.9-51.2,9.2-71.1c14.6-16.1,39.4-19.3,58.8-13.8c0,0-18.1,0.9-27.9,22.9c-6.9,15.4-0.6,36.3-9.1,52.9
	c8.7-9.7,11.3-23.7,15.2-32.7c3.8-8.7,9.4-16.1,16.7-22.4c2.9-2.5,6.7-5,10.5-6.5c0.7-0.3,1.8,1.2,2.4,2.1c2.6,4.3,3.1,6.4,2.9,10.9
	c-0.2,4.8-2.4,8.3-2.9,11.9c-0.4,2.8,0.6,5,1.1,6.2c1.7,4.1,5.1,6.9,6.5,9.4c1.1,1.9-0.4,3.7-2.1,4.3c-2.3,0.9-4,1.1-4.5,2.1
	c-0.6,1.4,1.2,3.2,1.4,4.3c0.3,1.6-0.7,3.7-3.3,4.2c0.7,0.8,1.7,1.7,1.7,2.6c-0.1,1.7-1.5,1.6-2.5,3.5c-1.3,2.4,1.1,8.4-5.6,10.7
	c-4.7,1.6-7.8-1.9-13.1-0.5c-2.8,0.7-6.2,3.2-8,7h66.9c10.7,0,19.4-8.7,19.4-19.4v-73.1C417.7,189.6,409,180.9,398.3,180.9"/>
<path class="st2" d="M291.5,156.5c-1.2,0.7-2.6,0.9-4,0.6c-0.6,1.4-1.1,2.8-1.8,4.3v0c0.1,0,0.2,0.1,0.3,0.2
	c0.2,0.2,0.4,0.3,0.6,0.5C288.3,160.3,289.9,158.4,291.5,156.5"/>
<path class="st1" d="M268,280.1c-1.5,0.8-3.3,0.7-4.8-0.3c-2.1-1.5-2.6-4.3-1.1-6.4c0.1-0.1,0.2-0.2,0.3-0.4c-1.1-1.5-2-3-3-4.6
	c-1.5,0.5-3.3,0.3-4.7-0.8c-2.4-1.7-3-5.1-1.3-7.5c0.4-0.5,0.8-1,1.3-1.3c-0.5-1.3-1-2.7-1.3-4.1c-1.4,0.1-2.9-0.3-4.2-1.2
	c-2.9-2-3.5-6-1.5-8.9c0.9-1.3,2.3-2.2,3.7-2.5c-0.2-6.2,0.6-12.7,2.6-19.3c-0.2-0.1-0.3-0.2-0.5-0.3c-2.9-2-3.5-6-1.5-8.9
	c1.5-2.1,4.1-3.1,6.5-2.5c1.2-2.5,2.5-5,4-7.6c1.1-1.9,2.3-3.9,3.6-5.8c2.6-3.9,5-7.7,7.2-11.4c-2.3-1.9-2.8-5.2-1-7.6
	c1.5-2.1,4.2-2.9,6.5-2.1c0.7-1.4,1.5-2.8,2.1-4.1c0,0,0,0,0,0c-0.5-0.4-1-0.9-1.4-1.4c-1.3-1.9-1.4-4.5,0-6.5
	c1.4-2,3.9-2.8,6.1-2.2c0.6-1.4,1.2-2.8,1.7-4.2c-0.2-0.1-0.3-0.2-0.5-0.3c-2.6-1.8-3.2-5.3-1.3-7.9c1.3-1.8,3.5-2.7,5.5-2.3
	c0.3-1.1,0.7-2.2,1-3.3c-0.4-0.1-0.8-0.4-1.1-0.6c-2.5-1.8-3.2-5.3-1.3-7.9c1.2-1.6,3-2.5,4.9-2.4c0.1-0.8,0.3-1.6,0.4-2.4
	c-0.5-0.1-1-0.4-1.4-0.7c-2.1-1.5-2.6-4.3-1.1-6.4c0.8-1.1,2-1.8,3.3-1.9c0-0.9,0-1.8,0.1-2.7c-0.6-0.1-1.2-0.3-1.7-0.7
	c-1.9-1.3-2.3-3.9-1-5.7c0.6-0.8,1.4-1.3,2.3-1.6c-0.1-0.9-0.2-1.8-0.3-2.6c-0.7,0-1.3-0.3-1.9-0.7c-1.7-1.2-2.1-3.5-0.9-5.2
	c0.4-0.5,0.8-0.9,1.4-1.2c-0.2-0.8-0.4-1.5-0.6-2.3c-0.7,0-1.3-0.2-1.9-0.6c-1.4-1-1.8-3-0.8-4.5c0.2-0.3,0.5-0.5,0.7-0.7
	c-0.2-0.5-0.4-1-0.6-1.5c-0.7,0.1-1.4-0.1-2-0.5c-1.3-0.9-1.7-2.8-0.7-4.1c0.1-0.1,0.2-0.3,0.3-0.4v0c-0.3-0.5-0.5-1-0.8-1.5
	c-0.6,0.1-1.3,0-1.8-0.4c-1.1-0.8-1.3-2.3-0.6-3.3c0-0.1,0.1-0.1,0.1-0.2c-2-3.5-11.8-15.7-12.6-16.5h2.1c0,0,7.8,8.8,12,15.7
	c0.6-0.1,1.2,0.1,1.7,0.4c1.1,0.8,1.3,2.3,0.6,3.3c0,0,0,0-0.1,0.1c0.3,0.5,0.6,1,0.8,1.6c0.8-0.2,1.6,0,2.3,0.5
	c1.3,1,1.7,2.8,0.7,4.1c-0.2,0.2-0.4,0.4-0.6,0.6v0c0.2,0.5,0.4,1,0.6,1.6c0.7-0.1,1.5,0.1,2.2,0.6c1.4,1,1.8,3,0.8,4.5
	c-0.3,0.4-0.6,0.7-0.9,0.9c0.2,0.8,0.4,1.6,0.6,2.4h0c0.7,0,1.5,0.2,2.1,0.7c1.7,1.2,2.1,3.5,0.9,5.2c-0.4,0.6-1,1-1.6,1.3
	c0.1,0.9,0.2,1.8,0.3,2.8c0.6,0.1,1.2,0.3,1.8,0.7c1.8,1.3,2.3,3.9,1,5.7c-0.6,0.8-1.4,1.4-2.4,1.6c0,1,0,1.9-0.1,2.9
	c0.5,0.1,0.9,0.4,1.4,0.7c2.1,1.5,2.6,4.3,1.1,6.4c-0.8,1.1-2,1.8-3.3,1.9c-0.1,0.9-0.3,1.7-0.4,2.6c0.5,0.2,0.9,0.4,1.3,0.7
	c2.6,1.8,3.2,5.3,1.3,7.9c-1.2,1.7-3.2,2.5-5.1,2.4c-0.3,1.1-0.6,2.3-1,3.4c0.3,0.1,0.5,0.3,0.7,0.4c1.8,1.3,2.7,3.5,2.3,5.6
	c-0.1,0.8-0.4,1.6-0.9,2.3c-0.5,0.7-1.1,1.3-1.8,1.6c-1.2,0.7-2.6,0.9-4,0.6c-0.6,1.4-1.2,2.8-1.8,4.3v0c0.1,0,0.2,0.1,0.3,0.2
	c0.2,0.2,0.4,0.3,0.6,0.5c2,1.9,2.4,5.1,0.7,7.4c-1.5,2.1-4.1,2.8-6.4,2.1c-0.7,1.4-1.4,2.8-2.2,4.2c2.5,1.8,3,5.3,1.2,7.8
	c-1.6,2.2-4.4,2.9-6.7,2c-2.2,3.8-4.7,7.6-7.2,11.5c-0.7,1.1-1.5,2.2-2.1,3.3c-2,3.3-3.8,6.5-5.3,9.7c0.3,0.1,0.5,0.3,0.8,0.5
	c2.9,2,3.5,6,1.5,8.9c-1.6,2.2-4.4,3.1-6.9,2.5c-1.1,3.9-1.9,7.6-2.3,11.3c-0.2,2.4-0.3,4.8-0.2,7.1c1.2,0,2.4,0.4,3.5,1.2
	c2.9,2,3.5,6,1.5,8.9c-0.8,1.1-1.9,1.9-3,2.3c0.4,1.2,0.8,2.5,1.2,3.7c1.5-0.4,3.2-0.2,4.6,0.8c2.4,1.7,3,5.1,1.3,7.5
	c-0.4,0.5-0.8,0.9-1.3,1.3c0.9,1.5,1.8,2.9,2.8,4.3c1.5-0.8,3.3-0.7,4.8,0.3c2.1,1.5,2.5,4.3,1.1,6.4c-0.1,0.1-0.2,0.2-0.3,0.3
	c8.4,8,11.9,13.3,22.3,21.6l3.7,7.4C295.2,308,269.9,281.3,268,280.1"/>
<path class="st2" d="M290.4,160.8c-0.7,1.8,0,0-0.9,2.3c4.5,3.5,1.4,13.3-5.9,12.1c-0.7,1.5-0.4,1-1.1,2.2c3.7,3.8,1.3,13.1-7.1,12
	c-2.2,3.8-6.1,9.6-6.8,10.7c29.4-15.7,44.7-32.7,48-60.9c4-34.1-35.2-74.1-35.2-74.1s15.3,22.6,20.1,36.5c8.4,24,3.5,37.2-4.4,49.3
	C299.1,155.6,295.3,161.2,290.4,160.8"/>
<path class="st2" d="M198.7,231c-16.3,32.5,3.6,67.5,12.8,78.8c9.5,11.9,23.2,26.7,30.8,34.1c-11.6-15.6-29.3-43.3-31.8-65.3
	c-2.5-21.9-0.9-49,48-72.9c1.4-0.7-0.6,0.3,0.8-0.4c1.1-1.9,2.8-4.8,4.1-6.7c2.6-3.9,5.6-8.6,7.8-12.4c-2.4-3.2-1.7-7,0.5-9.3
	C246.2,193.4,212.6,203.2,198.7,231"/>
<path class="st2" d="M278.4,172.2c-1.4,1-2.8,2-4.2,3c1.2-0.5,2.7-0.6,4.1-0.2c0.3-0.6,1-1.8,0.9-1.8
	C278.8,172.8,278.7,172.6,278.4,172.2"/>
<path class="st0" d="M323,476.2c-1,0-1.8-0.9-1.8-1.8v-9.6c0-0.5,0.2-1,0.6-1.3l5.6-5.4c1.3-1.2,2.6-2.5,3.8-3.7l3-3
	c1.1-1.1,3-3.5,3.4-5c0.1-0.5,0.1-1,0.1-1.5c0-1.2-0.4-2-1.1-2.3c-0.7-0.4-2-0.5-3.8-0.5c-2.1,0-5.6,0.4-8.1,0.7
	c-1.5,0-2.8-0.8-2.9-2.4l-0.5-7.9c0-0.9,0.5-1.6,1.3-1.8c4.5-1.5,9.2-2.2,14.1-2.2c8.9,0,17.2,3.8,17.2,13.8c0,9-2.8,12.9-10.1,17.9
	c-1.5,1-0.7,3.3,1.1,3.3h6.9c1,0,1.8,0.9,1.8,1.8v9.1c0,1-0.9,1.8-1.8,1.8H323z"/>
<path class="st0" d="M362.3,434.2c2.8-3.8,7.6-5.7,14.5-5.7c6.9,0,11.6,1.8,14.3,5.6c2.7,3.8,4,10,4,18.6c0,13.9-2.5,24.4-18.5,24.4
	c-15.9,0-18.5-10.5-18.5-24.3C358.1,444.2,359.5,438.1,362.3,434.2 M374.7,443.8c-0.4,1.4-0.5,4.4-0.5,9c0,4.6,0.1,7.6,0.5,8.9
	c0.3,1.3,0.9,2.1,1.9,2.1c1,0,1.6-0.7,2-2.1c0.3-1.3,0.4-3.8,0.4-7.3c0-3.5,0-6-0.1-7.4c-0.1-1.3-0.2-2.5-0.4-3.3
	c-0.3-1.2-0.6-1.9-1.9-1.9C375.2,441.9,375,442.6,374.7,443.8"/>
<path class="st0" d="M401,476.2c-1,0-1.8-0.9-1.8-1.8v-9.6c0-0.5,0.2-1,0.6-1.3l5.6-5.4c1.3-1.2,2.6-2.5,3.8-3.7l3-3
	c1.1-1.1,3-3.5,3.4-5c0.1-0.5,0.1-1,0.1-1.5c0-1.2-0.4-2-1.1-2.3c-0.7-0.4-2-0.5-3.8-0.5c-2.1,0-5.6,0.4-8.1,0.7
	c-1.5,0-2.8-0.8-2.9-2.4l-0.5-7.9c0-0.9,0.5-1.6,1.3-1.8c4.5-1.5,9.2-2.2,14.1-2.2c8.9,0,17.2,3.8,17.2,13.8c0,9-2.8,12.9-10.1,17.9
	c-1.5,1-0.7,3.3,1.1,3.3h6.9c1,0,1.8,0.9,1.8,1.8v9.1c0,1-0.9,1.8-1.8,1.8H401z"/>
<path class="st0" d="M349.1,309.4c2,0,3.6,1.6,3.6,3.6v61.2c0,16.3-9.2,17.3-22.2,18h-5.2c-2.3,0-4.1-1.8-4.1-4.1v-10
	c0-2.3,1.8-4.1,4.1-4.1h2.8c0.4,0,0.8-0.2,1.1-0.6c0.5-0.3,0.8-0.7,0.8-1.1c0.1-0.5,0.3-1.2,0.4-2.4c0.2-1.8,0.3-23.1,0.3-27.6V313
	c0-2,1.6-3.6,3.6-3.6H349.1z"/>
<path class="st0" d="M467.8,309.4c2,0,3.6,1.6,3.6,3.6v61.2c0,16.3-9.2,17.3-22.2,18H444c-2.3,0-4.1-1.8-4.1-4.1v-10
	c0-2.3,1.8-4.1,4.1-4.1h2.8c0.4,0,0.8-0.2,1.1-0.6c0.5-0.3,0.8-0.7,0.8-1.1c0.1-0.5,0.3-1.2,0.4-2.4c0.2-1.8,0.3-23.1,0.3-27.6V313
	c0-2,1.6-3.6,3.6-3.6H467.8z"/>
<path class="st0" d="M358.1,313.4c0-2.2,1.8-4,4-4h25.7c1.9,0,3.5,1.3,3.9,3.2l2,10.2c0.3,1.1,1.1,1.6,2.1,1.6s1.9-0.6,2.1-1.7
	l1.6-10c0.4-1.9,2-3.3,3.9-3.3h26.6c2.2,0,4,1.8,4,4v74.5c0,2.2-1.8,4-4,4H416c-2.2,0-4-1.8-4-4v-47.4h-1.1l-5,47.4
	c-0.4,1.9-2,3.3-3.9,3.3h-11.9c-1.9,0-3.5-1.4-3.9-3.3l-4.9-47.4h-1.1v47.4c0,2.2-1.8,4-4,4h-14.2c-2.2,0-4-1.8-4-4V313.4z"/>
<path class="st0" d="M466.2,431.6c3.1,2,4.6,5.4,4.6,10.3c0,2.7-0.2,5.7-2.2,7.7c-0.9,1.1-0.8,2.7,0.2,3.8c0.6,0.7,1.2,1.4,1.5,2.1
	c0.8,1.3,1.1,3.1,1.1,5.6c0,12.5-7.2,15.3-18.5,15.3c-3.8,0-8-0.4-12.5-1.3c-1.3-0.3-2.2-1.5-2.2-2.9l0.3-6.9c0-1.5,1.3-2.7,2.8-2.7
	c4,0.3,6.9,0.5,8.7,0.5c2.3,0,3.8-0.1,4.5-0.3c0.8-0.3,1.1-0.8,1.1-1.7c0-0.9-0.3-1.5-0.8-1.8c-0.5-0.3-1.5-0.6-2.9-0.7h-7
	c-1.5,0-2.8-1.3-2.8-2.8v-6.8c0-1.5,1.3-2.8,2.8-2.8h6.4c2.5,0,3.8-0.7,3.8-2.1c0-1.5-1.6-2.2-4.8-2.2c-1.6,0-7.1,0.3-9.8,0.6
	c-0.9,0-1.6-0.6-1.7-1.5l-0.2-8c-0.1-1.4,0.9-2.5,2.2-2.9c4.2-1,7.8-1.5,10.6-1.5C458.1,428.7,463.1,429.7,466.2,431.6"/>
<g>
	<path class="st1" d="M322.6,420.6c-0.8,0-1.4-0.6-1.4-1.4v-19.5c0-0.8,0.6-1.4,1.4-1.4h4.9c0.8,0,1.4,0.6,1.4,1.4V413
		c0,0.8,0.6,1.4,1.4,1.4h4.5c0.8,0,1.4,0.6,1.4,1.4v3.5c0,0.8-0.6,1.4-1.4,1.4H322.6z"/>
	<path class="st1" d="M337.5,399.6c0-0.7,0.6-1.3,1.3-1.3h5.1c0.7,0,1.3,0.6,1.3,1.3v19.7c0,0.7-0.6,1.3-1.3,1.3h-5.1
		c-0.7,0-1.3-0.6-1.3-1.3V399.6z"/>
	<path class="st1" d="M364.2,403.1c0,1-0.8,1.5-1.8,1.5c-2.3-0.2-4-0.3-5.1-0.3c-1.4,0-2.3,0-2.5,0.1c-0.2,0.1-0.3,0.3-0.3,0.5
		c0,0.2,0.1,0.4,0.4,0.6c0.3,0.1,1.1,0.4,2.5,0.7c2.5,0.5,6.5,1.3,7.3,4.2c0.2,0.8,0.4,1.9,0.4,3.2c0,5.9-3.4,7.7-8.8,7.7
		c-2.7,0-5.5-0.3-8.1-0.9c-0.8-0.2-1.3-0.9-1.2-1.6l0.2-2.9c0.1-0.8,0.8-1.5,1.6-1.5c2.8,0.4,5.1,0.5,6.9,0.5c1.2,0,1.7-0.3,1.7-0.8
		c0-0.2-0.1-0.4-0.4-0.5c-0.3-0.1-1-0.2-2.2-0.4c-3.1-0.5-5.2-1.3-6.3-2.3c-1.1-1-1.7-2.7-1.7-5.1c0-6.1,3.1-7.8,8.8-7.8
		c2.1,0,4.6,0.2,7.4,0.6h0c0.8,0.1,1.3,0.8,1.3,1.6L364.2,403.1z"/>
	<path class="st1" d="M366.4,399.8c0-0.8,0.6-1.4,1.4-1.4h8.7c5.4,0,8.2,1.8,8.2,5.5c0,1.5-0.1,3.1-1.1,4.3
		c-0.5,0.5-0.3,1.4,0.2,1.8c1.4,1,1.5,2.7,1.5,4.3c0,4.2-2.9,6.3-8.6,6.3h-8.8c-0.8,0-1.4-0.6-1.4-1.4V399.8z M374.8,403.4
		c-0.4,0-0.7,0.3-0.7,0.7v2.2c0,0.4,0.3,0.7,0.7,0.7h1c1.3,0,1.8-0.5,1.8-1.8c0-1.3-0.6-1.7-1.8-1.7H374.8z M374.8,411.8
		c-0.4,0-0.7,0.3-0.7,0.7v2.3c0,0.4,0.3,0.7,0.7,0.7h1.1c0.8,0,1.3-0.1,1.6-0.4c0.3-0.2,0.4-0.7,0.4-1.4c0-1.4-0.6-1.8-2-1.8H374.8z
		"/>
	<path class="st1" d="M396.8,421.1c-7.9,0-10.7-4.1-10.7-11.6s2.7-11.6,10.6-11.6c7.9,0,10.6,4,10.6,11.6
		C407.4,417,404.7,421.1,396.8,421.1z M394.5,413.6c0.4,0.8,1.1,1.3,2.3,1.3c1.1,0,1.9-0.4,2.3-1.2c0.4-0.8,0.5-2.2,0.5-4.1
		c0-1.9-0.2-3.3-0.5-4.1c-0.3-0.8-1.1-1.2-2.3-1.2c-1.2,0-1.9,0.4-2.3,1.2c-0.4,0.8-0.6,2.2-0.6,4.1
		C393.9,411.4,394.1,412.7,394.5,413.6z"/>
	<path class="st1" d="M408.9,399.7c0-0.8,0.6-1.4,1.4-1.4h5.4c0.5,0,1,0.3,1.2,0.7l3.9,5.9c0.1,0.2,0.4,0.3,0.6,0.3
		c0.4,0,0.7-0.3,0.7-0.7v-4.8c0-0.8,0.6-1.4,1.4-1.4h4.9c0.8,0,1.4,0.6,1.4,1.4v19.5c0,0.8-0.6,1.4-1.4,1.4H423
		c-0.5,0-1-0.3-1.2-0.7l-3.9-6.3c-0.1-0.2-0.3-0.3-0.6-0.3c-0.4,0-0.7,0.3-0.7,0.7v5.3c0,0.8-0.6,1.4-1.4,1.4h-4.9
		c-0.8,0-1.4-0.6-1.4-1.4V399.7z"/>
	<path class="st1" d="M431.8,399.7c0-0.8,0.6-1.4,1.4-1.4h5.4c0.5,0,1,0.3,1.2,0.7l3.9,5.9c0.1,0.2,0.4,0.3,0.6,0.3
		c0.4,0,0.7-0.3,0.7-0.7v-4.8c0-0.8,0.6-1.4,1.4-1.4h4.9c0.8,0,1.4,0.6,1.4,1.4v19.5c0,0.8-0.6,1.4-1.4,1.4h-5.4
		c-0.5,0-1-0.3-1.2-0.7l-3.9-6.3c-0.1-0.2-0.3-0.3-0.6-0.3c-0.4,0-0.7,0.3-0.7,0.7v5.3c0,0.8-0.6,1.4-1.4,1.4h-4.9
		c-0.8,0-1.4-0.6-1.4-1.4V399.7z"/>
	<path class="st1" d="M454.7,399.3c0-0.5,0.4-0.9,1-0.9h14.8c0.5,0,0.9,0.4,0.9,0.9v4.3c0,0.5-0.4,1-0.9,1h-7.1c-0.5,0-1,0.4-1,0.9
		c0,0.5,0.4,1,1,1h5.1c0.5,0,0.9,0.4,0.9,0.9v4.2c0,0.5-0.4,1-0.9,1h-5.1c-0.5,0-1,0.4-1,0.9v0.1c0,0.5,0.4,1,1,1h7.1
		c0.5,0,0.9,0.4,0.9,0.9v4.3c0,0.5-0.4,1-0.9,1h-14.8c-0.5,0-1-0.4-1-1V399.3z"/>
</g>
</svg>
