<?xml version="1.0" encoding="utf-8"?>
<!-- Generator: Adobe Illustrator 24.1.3, SVG Export Plug-In . SVG Version: 6.00 Build 0)  -->
<svg version="1.1" xmlns="http://www.w3.org/2000/svg" xmlns:xlink="http://www.w3.org/1999/xlink" x="0px" y="0px"
	 viewBox="0 0 283.5 283.5" style="enable-background:new 0 0 283.5 283.5;" xml:space="preserve">
<style type="text/css">
	.Voûte _x002D__x0020_Vert{fill:url(#SVGID_1_);stroke:#FFFFFF;stroke-width:0.25;stroke-miterlimit:1;}
	.st0{opacity:0.1;}
	.st1{fill:#A7C947;}
	.st2{fill:#D82961;}
	.st3{fill:#FBBA00;}
	.st4{fill:#00ADB1;}
</style>
<linearGradient id="SVGID_1_" gradientUnits="userSpaceOnUse" x1="0" y1="283.46" x2="0.7071" y2="282.7529">
	<stop  offset="0" style="stop-color:#1DA238"/>
	<stop  offset="0.9831" style="stop-color:#24391D"/>
</linearGradient>
<g id="Calque_6_-_copie">
	<path class="st0" d="M117.6,89.8c0,7.8-6.3,14.2-14.2,14.2c-7.8,0-14.2-6.3-14.2-14.2c0-7.8,6.3-14.2,14.2-14.2
		C111.3,75.6,117.6,81.9,117.6,89.8z"/>
	<g class="st0">
		<path d="M135.8,75.6c-1.9,0-2.7,1.4-2,3.1c0,0,3.6,7.7,3.6,13.9c0,17.2-14,31.2-31.2,31.2c-6.3,0-13.9-3.6-13.9-3.6
			c-1.7-0.8-3.1,0.1-3.1,2v6.8c0,1.9,1.5,3.4,3.4,3.4h49.9c1.9,0,3.4-1.5,3.4-3.4V79c0-1.9-1.5-3.4-3.4-3.4H135.8z"/>
	</g>
	<path class="st0" d="M208.4,103.9c-7.8,0-14.2-6.3-14.2-14.2c0-7.8,6.3-14.2,14.2-14.2c7.8,0,14.2,6.3,14.2,14.2
		C222.5,97.6,216.2,103.9,208.4,103.9z"/>
	<g class="st0">
		<path d="M222.5,122.1c0-1.9-1.4-2.7-3.1-2c0,0-7.7,3.6-13.9,3.6c-17.2,0-31.2-14-31.2-31.2c0-6.3,3.6-13.9,3.6-13.9
			c0.8-1.7-0.1-3.1-2-3.1h-6.8c-1.9,0-3.4,1.5-3.4,3.4v49.9c0,1.9,1.5,3.4,3.4,3.4h49.9c1.9,0,3.4-1.5,3.4-3.4V122.1z"/>
	</g>
	<path class="st0" d="M194.2,194.6c0-7.8,6.3-14.2,14.2-14.2c7.8,0,14.2,6.3,14.2,14.2c0,7.8-6.3,14.2-14.2,14.2
		C200.5,208.8,194.2,202.5,194.2,194.6z"/>
	<g class="st0">
		<path d="M176,208.8c1.9,0,2.7-1.4,2-3.1c0,0-3.6-7.7-3.6-13.9c0-17.2,14-31.2,31.2-31.2c6.3,0,13.9,3.6,13.9,3.6
			c1.7,0.8,3.1-0.1,3.1-2v-6.8c0-1.9-1.5-3.4-3.4-3.4h-49.9c-1.9,0-3.4,1.5-3.4,3.4v49.9c0,1.9,1.5,3.4,3.4,3.4H176z"/>
	</g>
</g>
<g id="Calque_6_-_copie_2">
	<g>
		<g>
			<path class="st1" d="M123.8,86.6c-0.9,7.8-7.9,13.4-15.7,12.5c-7.8-0.9-13.4-7.9-12.5-15.7c0.9-7.8,7.9-13.4,15.7-12.5
				C119.1,71.8,124.7,78.9,123.8,86.6z"/>
		</g>
		<g>
			<path class="st1" d="M143.5,74.6c-1.9-0.2-2.9,1.1-2.3,2.8c0,0,2.7,8,2,14.2c-2,17.1-17.4,29.4-34.5,27.4
				c-6.2-0.7-13.4-5.2-13.4-5.2c-1.6-1-3.1-0.3-3.3,1.6l-0.8,6.7c-0.2,1.9,1.1,3.6,3,3.8l49.6,5.7c1.9,0.2,3.6-1.1,3.8-3l5.7-49.6
				c0.2-1.9-1.1-3.6-3-3.8L143.5,74.6z"/>
		</g>
	</g>
	<g>
		<g>
			<path class="st2" d="M212.4,111c-7.8-0.9-13.4-7.9-12.5-15.7c0.9-7.8,7.9-13.4,15.7-12.5c7.8,0.9,13.4,7.9,12.5,15.7
				C227.2,106.3,220.1,111.9,212.4,111z"/>
		</g>
		<g>
			<path class="st2" d="M224.4,130.7c0.2-1.9-1.1-2.9-2.8-2.3c0,0-8,2.7-14.2,2c-17.1-2-29.4-17.4-27.4-34.5
				c0.7-6.2,5.2-13.4,5.2-13.4c1-1.6,0.3-3.1-1.6-3.3l-6.7-0.8c-1.9-0.2-3.6,1.1-3.8,3l-5.7,49.6c-0.2,1.9,1.1,3.6,3,3.8l49.6,5.7
				c1.9,0.2,3.6-1.1,3.8-3L224.4,130.7z"/>
		</g>
	</g>
	<g>
		<g>
			<path class="st3" d="M188,199.5c0.9-7.8,7.9-13.4,15.7-12.5c7.8,0.9,13.4,7.9,12.5,15.7c-0.9,7.8-7.9,13.4-15.7,12.5
				C192.7,214.3,187.1,207.3,188,199.5z"/>
		</g>
		<g>
			<path class="st3" d="M168.3,211.5c1.9,0.2,2.9-1.1,2.3-2.8c0,0-2.7-8-2-14.2c2-17.1,17.4-29.4,34.5-27.4
				c6.2,0.7,13.4,5.2,13.4,5.2c1.6,1,3.1,0.3,3.3-1.6l0.8-6.7c0.2-1.9-1.1-3.6-3-3.8l-49.6-5.7c-1.9-0.2-3.6,1.1-3.8,3l-5.7,49.6
				c-0.2,1.9,1.1,3.6,3,3.8L168.3,211.5z"/>
		</g>
	</g>
	<g>
		<path class="st4" d="M40.3,165c0.2,3.4,1.3,4.5,3.8,4.4c1-0.1,2.4-0.3,4.2-0.9l1.4,5.5c-1.8,0.6-3.8,1-5.8,1.1
			c-5.4,0.3-9.8-2-10.3-9.7c-0.5-7.6,3.6-10.5,9-10.9c2-0.1,3.9,0,5.9,0.3l-0.7,5.6c-1.9-0.2-3.3-0.4-4.3-0.3
			C41,160.3,40.1,161.5,40.3,165z"/>
		<path class="st4" d="M50.1,154.3l6.3-0.4l0.4,7.2l4.7-0.3l-0.4-7.2l6.3-0.4l1.2,19.9l-6.3,0.4l-0.5-7.3l-4.7,0.3l0.5,7.3l-6.3,0.4
			L50.1,154.3z"/>
		<path class="st4" d="M76,152.7l0.8,12.3c0.1,1.9,0.8,2.4,2.5,2.3c1.6-0.1,2.3-0.7,2.1-2.6l-0.8-12.3L87,152l0.8,13
			c0.2,2.5-0.5,4.4-2,5.7c-1.5,1.3-3.6,2-6.2,2.1c-5.4,0.3-8.8-1.7-9.1-6.7l-0.8-13L76,152.7z"/>
		<path class="st4" d="M96.8,171.4l-6.3,0.4l-1.2-19.9l7.6-0.5c2.6-0.2,4.7,0.3,6.2,1.5c1.6,1.1,2.4,2.9,2.6,5.3
			c0.1,2.4-0.6,4.3-2.2,5.6l3.8,6.8l-7.1,0.9l-2.6-5.7c-0.4,0-0.7,0-1.1,0L96.8,171.4z M95.9,156.7l0.2,3.9c0.4,0.1,0.8,0.1,1.1,0.1
			c1.5-0.1,2.2-0.8,2.1-2.2c-0.1-1.3-0.9-1.9-2.4-1.8L95.9,156.7z"/>
		<path class="st4" d="M114.2,160.4c0.2,3.4,1.3,4.5,3.8,4.4c1-0.1,2.4-0.3,4.2-0.9l1.4,5.5c-1.8,0.6-3.8,1-5.8,1.1
			c-5.4,0.3-9.8-2-10.3-9.7c-0.5-7.6,3.6-10.5,9-10.9c2-0.1,3.9,0,5.9,0.3l-0.7,5.6c-1.9-0.2-3.3-0.4-4.3-0.3
			C114.9,155.7,114,157,114.2,160.4z"/>
		<path class="st4" d="M124,149.7l6.3-0.4l0.4,7.2l4.7-0.3l-0.4-7.2l6.3-0.4l1.2,19.9l-6.3,0.4l-0.5-7.3l-4.7,0.3l0.5,7.3l-6.3,0.4
			L124,149.7z"/>
	</g>
	<path class="st4" d="M49.3,182.4c0.2,3.4-0.1,6.3-0.8,8.7c-0.7,2.4-1.9,4.9-3.6,7.7l3.9-0.2l-0.3-4.4l9-1l0.3,4.8l2.6-0.2l0.1,7.8
		l-2.2,0.1l0.3,4.4l-9,0.6l-0.3-4.4l-11.7,0.7l-0.9-7.7c3-4.9,4.2-9.9,3.8-16.4L49.3,182.4z"/>
	<g>
		<path class="st4" d="M70.6,209.4l-0.6-10.3l-10.8-17.2l10.4-1.1l4.4,9.5l3.2-9.9l10.4-0.2l-8.6,18.4l0.6,10.3L70.6,209.4z"/>
		<path class="st4" d="M127.4,177.5l1.1,17.4c0.2,2.7,1.1,3.4,3.6,3.2c2.3-0.1,3.2-0.9,3-3.6l-1.1-17.4l9-0.6l1.1,18.4
			c0.2,3.6-0.7,6.3-2.8,8.1c-2.1,1.8-5,2.8-8.8,3c-7.7,0.5-12.5-2.4-13-9.5l-1.1-18.4L127.4,177.5z"/>
	</g>
	<g>
		<g>
			<path class="st4" d="M109.3,184c4.5,4.4,5.7,10.4,2.9,16.1c-3.3,6.9-12,7.7-17.8,3.7c-5.3-3.7-6.2-11.1-3.5-16.6
				c3.6-7.4,12.9-7.7,18.7-2.9c1.4,1.1,4.7-0.8,3-2.3c-6.5-5.4-15.6-5.1-22,0.4c-6.8,6-6.5,16.5-0.3,22.6c6.1,6,16.1,5.2,22.3-0.1
				c6.8-6,6.5-16.5,0.3-22.6C111.5,181,107.9,182.6,109.3,184z"/>
		</g>
	</g>
</g>
</svg>
