<?xml version="1.0" encoding="utf-8"?>
<!-- Generator: Adobe Illustrator 24.1.3, SVG Export Plug-In . SVG Version: 6.00 Build 0)  -->
<svg version="1.1" xmlns="http://www.w3.org/2000/svg" xmlns:xlink="http://www.w3.org/1999/xlink" x="0px" y="0px"
	 viewBox="0 0 100 100" style="enable-background:new 0 0 100 100;" xml:space="preserve">
<style type="text/css">
	.st0{fill:#FFFFFF;}
	.st1{display:none;}
	.st2{display:inline;}
	.st3{fill:none;stroke:#000000;stroke-width:6;stroke-linecap:round;stroke-miterlimit:10;}
</style>
<g id="Calque_1">
	<g id="Calque_2_1_">
	</g>
	<path class="st0" d="M58,79.8H33v-6.5h25V79.8z M35.2,77.6h20.5v-2.1H35.2V77.6z"/>
	<g>
		<path class="st0" d="M59.4,55.1H30.2c-0.6,0-1.1-0.5-1.1-1.1s0.5-1.1,1.1-1.1h29.2c0.6,0,1.1,0.5,1.1,1.1S60,55.1,59.4,55.1z"/>
		<path class="st0" d="M59.4,60.2H38.6c-0.6,0-1.1-0.5-1.1-1.1S38,58,38.6,58h20.8c0.6,0,1.1,0.5,1.1,1.1S60,60.2,59.4,60.2z"/>
		<path class="st0" d="M59.4,65.3H45c-0.6,0-1.1-0.5-1.1-1.1s0.5-1.1,1.1-1.1h14.4c0.6,0,1.1,0.5,1.1,1.1S60,65.3,59.4,65.3z"/>
	</g>
	<path class="st0" d="M66.1,57.2c-0.6,0-1.1-0.5-1.1-1.1v-4c0-0.6,0.5-1.1,1.1-1.1s1.1,0.5,1.1,1.1v4C67.3,56.7,66.8,57.2,66.1,57.2
		z"/>
	<path class="st0" d="M66.1,65.3c-0.6,0-1.1-0.5-1.1-1.1v-4c0-0.6,0.5-1.1,1.1-1.1s1.1,0.5,1.1,1.1v4C67.3,64.8,66.8,65.3,66.1,65.3
		z"/>
	<path class="st0" d="M66.1,73.4c-0.6,0-1.1-0.5-1.1-1.1v-4c0-0.6,0.5-1.1,1.1-1.1s1.1,0.5,1.1,1.1v4C67.3,72.9,66.8,73.4,66.1,73.4
		z"/>
	<path class="st0" d="M66.1,81.5c-0.6,0-1.1-0.5-1.1-1.1v-4c0-0.6,0.5-1.1,1.1-1.1s1.1,0.5,1.1,1.1v4C67.3,81,66.8,81.5,66.1,81.5z"
		/>
	<path class="st0" d="M85.1,85.4H19.8V73.9H21c4.3,0,7.9-3.5,7.9-7.9c0-4.3-3.5-7.9-7.9-7.9h-1.1V46.7h65.2v11.5H84
		c-4.3,0-7.9,3.5-7.9,7.9c0,4.3,3.5,7.9,7.9,7.9h1.1V85.4z M22.1,83.2h60.8v-7.1c-5-0.6-9-4.8-9-10s3.9-9.5,9-10V49H22.1v7
		c5,0.6,9,4.8,9,10s-3.9,9.5-9,10V83.2z"/>
	<path class="st0" d="M65,44.8c-0.4,0-0.8-0.2-1-0.6l-2-3.5c-0.3-0.5-0.1-1.2,0.4-1.5s1.2-0.1,1.5,0.4l2,3.5
		c0.3,0.5,0.1,1.2-0.4,1.5C65.4,44.7,65.2,44.8,65,44.8z"/>
	<g>
		<g>
			<path class="st0" d="M31.5,43c-0.4,0-0.8-0.2-1-0.6c-0.3-0.5-0.1-1.2,0.4-1.5l19-10.8c0.5-0.3,1.2-0.1,1.5,0.4s0.1,1.2-0.4,1.5
				L32,42.9C31.8,43,31.7,43,31.5,43z"/>
			<path class="st0" d="M41.1,43.4c-0.4,0-0.8-0.2-1-0.6c-0.3-0.5-0.1-1.2,0.4-1.5l11.9-6.8c0.5-0.3,1.2-0.1,1.5,0.4
				s0.1,1.2-0.4,1.5l-11.9,6.8C41.5,43.4,41.3,43.4,41.1,43.4z"/>
			<path class="st0" d="M50.4,44c-0.4,0-0.8-0.2-1-0.6c-0.3-0.5-0.1-1.2,0.4-1.5L55,39c0.5-0.3,1.2-0.1,1.5,0.4s0.1,1.2-0.4,1.5
				L51,43.8C50.8,43.9,50.6,44,50.4,44z"/>
		</g>
		<path class="st0" d="M57.4,30.7c-0.4,0-0.8-0.2-1-0.6l-2-3.5c-0.3-0.5-0.1-1.2,0.4-1.5s1.2-0.1,1.5,0.4l2,3.5
			c0.3,0.5,0.1,1.2-0.4,1.5C57.8,30.7,57.6,30.7,57.4,30.7z"/>
		<path class="st0" d="M61.4,37.7c-0.4,0-0.8-0.2-1-0.6l-2-3.5c-0.3-0.5-0.1-1.2,0.4-1.5s1.2-0.1,1.5,0.4l2,3.5
			c0.3,0.5,0.1,1.2-0.4,1.5C61.8,37.7,61.6,37.7,61.4,37.7z"/>
		<path class="st0" d="M16.2,49.7c-0.4,0-0.8-0.2-1-0.6l-2.7-4.7l56.6-32.3l5.7,10l-1,0.6c-1.8,1-3.1,2.7-3.7,4.8
			c-0.6,2-0.3,4.2,0.8,6c1,1.8,2.7,3.1,4.8,3.7c2,0.6,4.2,0.3,6-0.8l1-0.6l3.4,6c0.3,0.5,0.1,1.2-0.4,1.5s-1.2,0.1-1.5-0.4l-2.4-4.1
			c-2.1,0.9-4.4,1.1-6.7,0.5c-2.6-0.7-4.8-2.4-6.1-4.7c-1.3-2.3-1.7-5.1-1-7.7c0.6-2.2,1.9-4.2,3.8-5.5l-3.5-6.1l-52.7,30l1.6,2.8
			c0.3,0.5,0.1,1.2-0.4,1.5C16.6,49.7,16.4,49.7,16.2,49.7z"/>
	</g>
</g>
<g id="Calque_2" class="st1">
	<g id="Calque_1_1_" class="st2">
		<rect x="8.2" y="329.2" class="st3" width="61.4" height="11.6"/>
		<g>
			<line class="st3" x1="-2.4" y1="274" x2="76.3" y2="274"/>
			<line class="st3" x1="20.1" y1="287.8" x2="76.3" y2="287.8"/>
			<line class="st3" x1="37.5" y1="301.6" x2="76.3" y2="301.6"/>
		</g>
		<line class="st3" x1="94.6" y1="268.9" x2="94.6" y2="279.7"/>
		<line class="st3" x1="94.6" y1="290.8" x2="94.6" y2="301.6"/>
		<line class="st3" x1="94.6" y1="312.6" x2="94.6" y2="323.5"/>
		<line class="st3" x1="94.6" y1="334.5" x2="94.6" y2="345.3"/>
		<path class="st3" d="M142.6,282.4v-24.9h-170v24.9c13.4,0,24.3,10.9,24.3,24.3S-14,331-27.4,331v24.9h170V331
			c-13.4,0-24.3-10.9-24.3-24.3C118.4,293.3,129.2,282.4,142.6,282.4z"/>
		<line class="st3" x1="86.3" y1="236.9" x2="91.6" y2="246.3"/>
		<g>
			<g>
				<line class="st3" x1="1" y1="241.6" x2="52.2" y2="212.4"/>
				<line class="st3" x1="27.1" y1="242.6" x2="59.1" y2="224.4"/>
				<line class="st3" x1="52.2" y1="244.1" x2="65.9" y2="236.3"/>
			</g>
			<line class="st3" x1="65.6" y1="198.9" x2="70.9" y2="208.3"/>
			<line class="st3" x1="76.4" y1="217.9" x2="81.8" y2="227.3"/>
			<path class="st3" d="M145.8,242.6L138,229c-11.6,6.6-26.4,2.6-33.1-9c-6.6-11.6-2.6-26.4,9-33.1l-12.3-21.6L-46,249.4l5.8,10.1"
				/>
		</g>
	</g>
</g>
</svg>
