<?xml version="1.0" encoding="UTF-8"?>
<svg id="Layer_2" data-name="Layer 2" xmlns="http://www.w3.org/2000/svg" viewBox="0 0 2580.86 1918.66">
  <defs>
    <style>
      .cls-1 {
        fill: #fbc02d;
      }

      .cls-2 {
        fill: #d63f31;
      }
    </style>
  </defs>
  <g id="Calque_1" data-name="Calque 1">
    <g id="Calque_2" data-name="Calque 2">
      <path class="cls-1" d="m3.6,1012.36c7.8-41.6,24.5-67.3,13.2-108.2-16.3-58.8,1.5-124.9,41.4-172.4,12.7-15.2,24.2-33.9,28.6-51.8,63.7-263.8,283.6-399,361.5-450.3,9.9-6.5,46-30.5,102.9-59.5,51.8-26.4,120.9-57,203.3-82.4,236.5-73,417.2-62.1,495.3-62.7,15.7-.1,27.2-.7,34.3-2.5,223.2-57.1,356.7,12.2,377.9,12,178.4-2,301.2,71.1,375.8,123.6,35.9,25.3,60.7,45.8,75,50.7,223,76.9,323.2,268.7,370.1,372.4,14.5,32,48.6,124.2,55.5,134.1,36.3,52.4,38.2,110,41.7,166.9,2.9,48-1.1,97.6-37.2,138.9-9.3,10.6-18.7,21.7-27.6,33.3-15.6,20.4-29.4,42.2-36.7,65.3-23.8,75.1-121.1,114.4-163.8,116.5-57.9,2.8-115.2,16.7-173.2,20.7-49.9,3.5-100.5,5-150.2.6-44.5-4-141.5-26.7-144.5-27.3.9,65.4-19.1,110.5-65.7,142.9-6.7,4.6-9.7,17.4-10.8,26.8-4.1,38.4-25.4,64.5-61.6,71-31.8,5.8-48.9,25.7-67.5,47.2-29.5,34.1-66.2,50.7-112.4,52.2-53,1.8-167,96.9-236.7,250.9-12.2,27-24.6,60.8-36.7,97.4h-243.7c4-42.9,7.5-87.2,12-134.6.1-.7.1-1.4.2-2-70.3,42.3-133,49.5-198.8,21-7.7-3.3-19.6,1.2-29,3.8-68.8,19.1-133,11.6-191.5-31.8-8-5.9-17.7-9.7-26.9-13.9-48.1-22-99.1-39.3-143.9-66.8-49.2-30.2-96.9-64.7-113.1-127.6-6.9-27.1-22.7-51.8-35-77.5-.4-.9-.9-1.9-1.3-2.8-76.2,35.6-110.8,29.5-167.6-34.7-19.6-22.1-28.8-53.7-49.3-74.5-31.6-32-51.2-68.5-45.6-111.6,9.6-75.3-15.7-133.3-21-193.7-2.2-23.8-.5-43,2.6-59.6Z"/>
      <path class="cls-2" d="m586.9,1675.66c.8.9,1.8,1.2,2.7,1.1,32.7,40.8,88.6,53.1,139.4,53,71.4-.2,143.7-11.7,214.7-18.2,69.6-6.4,139.5-11.6,208.5-22.8,55.8-9.1,118.7-19,148.7-73.1,47.2-85.2-11.3-201.3-107.8-214.3-30.4-4.1-61.3,2.3-91.1,7.5-33.6,5.9-67.1,11.8-100.6,18.2-69.9,13.2-139.8,27.5-208.3,46.8-38.7,10.9-76.8,23.3-114.5,37.1-26.4,9.7-55.2,18.8-77.3,36.9-37.5,30.6-45.9,90.2-14.4,127.8Zm47.7-135.6c50.7-24.8,106.8-41.2,161-56.4,107.3-30,217-50.7,326.8-68.9,57.5-9.5,110.5-4.6,150.9,41.6,35.2,40.3,46.9,98.7,23.4,147.7-27.7,57.8-94.7,67.1-151.6,76.2-60.3,9.6-121.2,14.5-181.9,20.1-63.6,5.9-127.3,12.3-191,17.2-65.8,5.1-131.9.5-180.2-47.9-26.6-50.9-9.4-104.1,42.6-129.6Z"/>
    </g>
    <g id="Calque_12" data-name="Calque 12">
      <g>
        <g>
          <path class="cls-2" d="m1571.7,1192.46c-3.3,5.7-6.8,10.9-10.1,15.1-6.7,8.5-15,15.7-24.2,21.2,15.9,8.3,30.7,20.6,42.8,33.4,7,7.4,16.9,17.7,20.9,28.5,13.9-10.8,26.3-23.4,36.9-37.5-14.3-4-27.9-17.9-37.6-27.4-10-9.7-21.8-20.6-28.7-33.3Z"/>
          <path class="cls-2" d="m1500.1,1014.46c-2.6,7.6-7.9,25.8-16,35.4,7.5,0,15.3.9,23.2,2.9,9.2,2.4,18.1,6.2,26.2,11-1.3-13.3,2.1-35.7,4.6-46.1,4-16.7,9-32.3,23-43.6-23.9-14.2-38-15-51.8-15.7,3.1,18-3.6,39.8-9.2,56.1Z"/>
          <path class="cls-2" d="m1495.7,1229.56c18.2-1.8,39.7-7.2,51.8-20.9,14.7-16.7,29.6-43.7,28.2-64.6-3.5-53.5-51.1-91-104.4-80.2-47,9.5-75.2,72.8-57.2,116.1,13.5,32.6,46.9,53,81.6,49.6Zm-27.8-129c28-12.1,70.6,5.8,70.4,43.1-.1,26.8-24.7,54.2-52.7,49.9-19.3-3-40.3-20.3-40.9-40.1-1.3-36.5,11.4-47.8,23.2-52.9Z"/>
          <path class="cls-2" d="m1263.7,1102.26c7.1,5.4,10.9,13.4,9.2,22.4-4.1,22.4-34.5,30.9-55.4,31.3,1,3.2.9,6.8,1.1,10,.2,2.9.2,6-.2,9,12.1-1.9,29.3,2.2,39.6,6.2,9.2,3.6,17.6,10.8,19,21.1,2.6,19.6-20.4,38.1-39,43,2.2,3.9,3.3,9,4.7,12.9,1.1,3.1,2.6,6.4,3.3,9.7,12.3-5.8,28-9.3,41.1-10.1,9.9-.6,18.7,2.1,23.8,11.2,11.4,20.2-7.5,45.7-23.7,59.1,2.6,1.8,4.7,4.7,6.8,7.1,2.3,2.6,4.9,5.6,6.5,8.9,7.3-9.7,21.8-16.8,32.5-21.2,9.8-4,21.6-5.2,30.4,1.9,16.2,13.1,9.6,43-1.5,59,4.2,1.5,7.9,4.2,11.8,6.5,3.1,1.8,6.3,3.4,9,5.5,5.8-12.3,15.2-24.6,24.7-34,7-6.9,15.6-10.6,25.3-7.2,22.1,7.8,24.2,39.9,20.4,60.7,3.1-.2,6.3.5,9.3,1,3.7.6,7.6,1.2,11.1,2.8-.3-12,5.7-26,10.9-36.2,4.8-9.4,12.9-18,24.1-18.5,20.9-1,35.9,26.4,37.6,45.9,4-1.5,8.6-1.8,12.7-2.5,3.4-.6,7.2-1.6,10.8-1.7-3.8-13.8-4.8-31.6-2.6-45.2,1.4-8.9,6.5-15.8,15.2-18.8,21.5-7.3,43.5,15.3,53.8,33.4,2.4-2.3,5.9-4,8.5-5.6,2.8-1.7,6.1-3.7,9.5-4.7-8.5-9-14.2-27.4-16.1-38.9-1.5-9.2.3-19.6,7.5-26.2,15.5-14,44.2-2.4,58.1,11.2,2.2-3.9,5.9-7.3,8.7-10.7,2.2-2.6,4.3-5.3,6.7-7.6-11-7.4-21.1-19.1-28.7-29.5-5.8-7.9-8.5-16.6-3.9-25.8,10.9-21.6,43.6-18.2,63.8-10.8.4-3.3,2-6.5,3.3-9.4,1.4-3.1,2.8-6.4,4.8-9.3-12.3-2.1-26.5-11.4-35.4-19-7.3-6.2-12.9-15.3-11.4-25.3,3.2-21.5,32.6-29.2,52.2-26.9-1.2-4.8-.2-10.1.1-15.1.2-3.5.2-7.2.8-10.7-13.9,1.5-30-.5-43.2-4-9.7-2.6-17.5-8.5-19-19-3.5-23.3,22.9-40.2,42.8-46.6-2.8-3.4-4.2-8.8-5.7-12.5-2-4.8-4.4-9.8-5.5-15-10.4,7-26.5,8.6-38.8,9.1-10.9.4-22.9-2.7-28.8-12.7-11-18.5,6.9-43.1,23.5-53.6-4-2.9-6.6-7.8-9.4-11.7-2-2.9-4.5-5.8-6.3-9-9.5,9.9-23.8,18.1-36,23.8-9,4.2-18.4,4.8-26.5-1.7-18.6-14.9-9.3-46.1,1.7-64.4-3.2-.9-6.1-2.8-9-4.4-3.2-1.8-6.5-3.8-9.1-6.4-3.9,11.1-15.8,23.4-23.8,30.6-7.2,6.5-16.4,11.1-26.3,8.9-21.3-4.7-27.3-36.2-22.9-55.8-4.4.1-8.9-1.4-13.1-2.2-3.5-.7-7.4-1.1-11-2.2-.6,13.9-5.1,29.8-10.7,42.2-4.1,9.1-10.9,15.3-21.3,15.5-23.1.3-37.3-28.3-41.5-49-2.9,1.5-6.4,2-9.6,2.7-3.4.8-7.3,1.6-10.9,1.4,5.2,11.5,4.8,29.3,3,41.1-1.5,9.9-6.7,19.5-16.5,23.2-19.4,7.3-43.3-13-51.8-30.5-3.3,3.6-8.7,5.8-12.6,8.2-2.5,1.5-5.1,3.4-7.9,4.8,8,10,13.4,23.2,17.9,34.9,3.7,9.9,4.9,20-3.1,28.1-17.4,17.9-47.9,3.4-64.6-10.3-1.2,3.4-4.1,6.5-6.2,9.3-2.1,2.7-4.4,5.6-7.1,7.7,11.1,5.2,21.1,17.6,27.9,27.2,6.3,8.9,10,20.5,4.6,30.8-9.8,18.7-40.4,17.3-58.4,9.5-.2,5.3-3.4,10.8-5.4,15.5-1,2.6-2,5.4-3.2,7.9,14.2,3.2,31.7,11.2,43,19.7Zm55-61.2c40.6-62,142.2-138.3,262.3-73.9,34.5,18.5,68.5,56.5,86.5,88,19.9,34.9,27.4,75.6,21.5,115.3-10.3,68.8-58.6,130.4-122.2,158.1-74.1,32.2-154.4,9.7-212.9-42.8-71.6-64.1-88.4-163.5-35.2-244.7Z"/>
          <path class="cls-2" d="m1408.6,1191.26c-8.6-16.1-12.9-34.9-11.3-54.2-13.2,10.8-31.3,17.2-47.3,21-13.7,3.2-33.6,7.2-48.2,2.3,2.3,19.8,8.2,38.8,17,56.4,23.3-19.7,59.9-31.6,89.8-25.5Z"/>
        </g>
        <g>
          <path class="cls-2" d="m1215.8,1072.56c-1.2,4-2.7,8.1-2.7,12.2-1.3,2-1.3,4.7,1.5,6.3,11.9,6.3,52.3,15.1,46.6,34-4.7,15.4-31.7,21.5-46.6,26.3-1.7-1-3.8,0-4.5,1.8-1.8,4.3.4,10,.9,14.5.4,3.8-.4,7.6.6,11.1-.5,1.6-.1,3.5,1.7,4.4,12.8,6.9,54.9,1.4,51.6,25.1-2,14.4-19.2,24.4-30.5,33-2.4-1.1-5.3.3-5.5,3.3-.4,5.7,3.8,11.6,6.2,16.7,1.9,4.1,2.4,9.7,5.2,13.2.5,2.4,2.9,4.5,5.8,4,13.5-2.3,50.3-19.9,56.2-.3,4.7,15.5-11.2,34.8-20.1,48.1-1.7.2-2.8,2.2-2.5,3.8,1,4.5,5.8,7.4,8.8,10.5,3.2,3.3,6.3,7.5,10.5,9.5.1,0,.2,0,.3.1.9,1.3,2.6,2.2,4.3,1.8,15-3.1,31.7-25.8,48.2-19.9,17.5,6.3,7.2,36.4,3.7,51.2-1.8,1.2-2.2,4.3-.7,6,3.9,4.5,10.4,6.3,15.7,8.7,3.8,1.8,7.5,5,11.6,6.2,1.8,1.9,5.1,2.6,7,.4,9-10.6,24.9-47.1,42.5-38.1,14.2,7.2,14.9,35.3,16.5,50.9-1.2,1.4-.9,3.5.7,4.6,3.9,2.5,9.1,1.8,13.5,2.2,4.3.4,8.6,1.2,12.9.6,1.8,1.1,4.6.4,5.9-1.2,8.1-10.4,9.1-45.9,26.2-46.9,17.3-1,33.7,41.9,36.2,42.4,5.8,1.2,11.9-1.5,17.5-3.1,3.9-1.1,19.2-3.4,19.2-7.6,0-13.1-11.2-55.7,10.5-56.4,15.7-.5,31.5,17.8,42.7,28.5.1,1.6,1.2,3,3,3.1,4.7.1,8.8-4.7,12.4-7.2,3.7-2.5,8.5-4.9,11-8.8v-.1c1.4-.5,2.5-1.7,2.4-3.6-.5-15.8-21.2-37.7-9.6-52.5,10.7-13.6,34.7-1,49.2,5,.2,2.6,3.1,4.7,5.7,3.2,5.1-2.9,8-9,11.3-13.7,2.4-3.5,6.1-6.8,8-10.6,2.4-1.4,3.5-4.9,1.3-7.6-8.1-10.1-38.8-30-31.4-45.6,7.6-16,40.9-9.6,55.8-8.8,1,.4,2.2.3,3.1-.6,3.2-3.4,3.7-8.5,5.3-12.8,1.4-3.8,3.2-7.7,3.7-11.8,1.8-1.3,2.3-4.2.6-6.1-10.1-11.2-38.4-14.5-41.5-31.7-3.6-19.9,28.8-24.3,43.2-28.6,1.9.5,4.1-.7,4.9-2.6,2.1-5.4.6-12.5.4-18.2-.1-4.4.3-10.4-1.3-14.9-.1-2-1.2-3.9-3.4-4.3-14.4-2.5-56.2,2.1-53.9-20.4,1.7-16.2,24.5-28,36.5-37.1,1.2-.4,2.2-1.4,2.3-2.8.4-5-3.8-10.8-5.8-15.2-2.6-5.6-5.2-12.3-10-16.4-.1-.1-.3-.1-.5-.2-.4-1.4-1.4-2.7-2.8-2.9-15.4-2.4-43.4,14.1-55.3-.4-11.9-14.4,9-35.8,17.4-48,1.5-.8,2.4-2.7,2-4.4-1.3-5.6-7.2-10.1-10.8-14.4-3-3.5-6-8-10.3-10.1-1-2.3-3.6-3.9-6.5-2.3-11.1,5.8-35.3,30.8-49.5,23.7-16.7-8.3-5.8-41-1.6-56.7,1.9-.8,1.9-3.5.8-4.9-2.7-3.6-8.1-4.8-12.1-6.8-3.4-1.7-8.1-4.8-12.2-6.2-1.1-1.5-3-2.2-4.9-1-13.2,8.4-20,32-36.3,35.4-21.2,4.4-22.8-30.7-25.4-46.6.8-1.7.5-3.8-1.4-4.8-5.3-2.9-12.2-2.5-18.1-3.1-4.4-.5-8.8-1.3-13.1-.6-2.4-1.5-6.2-.8-7.3,2.6-4.2,12.6-7,57-28.2,49.8-15.1-5.1-24.2-26.7-31.8-40.6.5-1.6-.5-3.5-2-3.9-4.6-1.2-9.2,1.5-13.5,2.7s-9.1,2-13,4.4c-1.9-.3-4,.6-4.6,2.8-3.9,13.7,10,53.5-12.9,55.5-15.7,1.3-30.2-15.1-41.7-24.4-.1-2-1.4-3.9-3.7-3.7-5.9.6-10.7,5.7-15.3,9.2-3.3,2.5-7.4,4.9-10.2,8.2-2.6.5-4.9,2.9-3.8,5.8,2.8,7.3,7.1,13.9,10.6,20.9,4.6,9.3,10.8,18.6,6.4,28.5-3.3,7.6-7.2,9.2-15.3,8.8-5.2-.2-11.2-1.9-16.2-3.4-8.6-2.5-16.9-6.3-25.3-9.5-.9-1.1-2.4-1.5-3.8-.8-4.1,2.1-5.9,7.2-8.4,10.8-2.6,3.9-5.9,7.7-7.1,12.3v.2c-1,1.3-1.4,3.2-.7,4.7,6.3,13.8,39.2,31.4,27,48.5-9.9,13.9-33.4,8.7-48.5,8.6-1.5-.6-3.4-.3-4.7,1.4-3.7,4.9-4.5,12.2-6.2,17.7Zm71.8-22.7c5.4-10.3,1.7-21.9-4.6-30.8-6.8-9.7-16.8-22.1-27.9-27.2,2.8-2.1,5.1-5,7.1-7.7,2.1-2.7,5-5.8,6.2-9.3,16.7,13.7,47.3,28.1,64.6,10.3,7.9-8.2,6.8-18.2,3.1-28.1-4.4-11.8-9.9-24.9-17.9-34.9,2.8-1.4,5.4-3.3,7.9-4.8,3.9-2.4,9.4-4.7,12.6-8.2,8.5,17.4,32.4,37.8,51.8,30.5,9.8-3.7,15-13.4,16.5-23.2,1.8-11.8,2.2-29.6-3-41.1,3.7.2,7.5-.7,10.9-1.4,3.2-.7,6.7-1.2,9.6-2.7,4.2,20.6,18.4,49.3,41.5,49,10.3-.2,17.2-6.4,21.3-15.5,5.6-12.4,10.1-28.3,10.7-42.2,3.6,1.1,7.4,1.5,11,2.2,4.1.8,8.7,2.3,13.1,2.2-4.4,19.6,1.5,51.1,22.9,55.8,9.9,2.2,19.1-2.4,26.3-8.9,8-7.2,19.8-19.5,23.8-30.6,2.6,2.6,5.9,4.6,9.1,6.4,2.9,1.7,5.9,3.6,9,4.4-11,18.2-20.3,49.4-1.7,64.4,8.1,6.5,17.5,5.9,26.5,1.7,12.2-5.6,26.5-13.9,36-23.8,1.8,3.2,4.3,6.1,6.3,9,2.7,3.9,5.4,8.9,9.4,11.7-16.5,10.5-34.5,35-23.5,53.6,5.9,10,17.9,13.1,28.8,12.7,12.3-.5,28.4-2.1,38.8-9.1,1.1,5.2,3.6,10.2,5.5,15,1.5,3.8,2.9,9.1,5.7,12.5-19.9,6.4-46.3,23.3-42.8,46.6,1.6,10.4,9.3,16.3,19,19,13.2,3.6,29.4,5.5,43.2,4-.6,3.5-.5,7.2-.8,10.7-.3,5-1.3,10.3-.1,15.1-19.6-2.3-49,5.5-52.2,26.9-1.5,10,4,19.1,11.4,25.3,8.9,7.6,23,16.9,35.4,19-1.9,2.9-3.4,6.2-4.8,9.3-1.3,3-3,6.2-3.3,9.4-20.2-7.4-52.9-10.8-63.8,10.8-4.6,9.1-1.9,17.9,3.9,25.8,7.7,10.4,17.7,22,28.7,29.5-2.5,2.2-4.6,5-6.7,7.6-2.8,3.3-6.5,6.8-8.7,10.7-13.9-13.6-42.6-25.2-58.1-11.2-7.2,6.5-9,16.9-7.5,26.2,1.9,11.5,7.6,29.9,16.1,38.9-3.4,1-6.7,3-9.5,4.7-2.5,1.5-6.1,3.2-8.5,5.6-10.3-18.1-32.3-40.6-53.8-33.4-8.7,3-13.8,9.9-15.2,18.8-2.1,13.6-1.2,31.4,2.6,45.2-3.6.1-7.4,1.1-10.8,1.7-4.2.7-8.7,1-12.7,2.5-1.8-19.6-16.8-46.9-37.6-45.9-11.2.5-19.3,9.1-24.1,18.5-5.2,10.2-11.2,24.2-10.9,36.2-3.4-1.6-7.4-2.2-11.1-2.8-3-.5-6.2-1.2-9.3-1,3.8-20.8,1.7-52.9-20.4-60.7-9.7-3.4-18.3.3-25.3,7.2-9.5,9.4-18.9,21.7-24.7,34-2.7-2.2-6-3.8-9-5.5-3.9-2.3-7.6-5-11.8-6.5,11.1-16,17.6-45.9,1.5-59-8.8-7.1-20.6-5.9-30.4-1.9-10.7,4.4-25.3,11.5-32.5,21.2-1.6-3.3-4.2-6.3-6.5-8.9-2.1-2.4-4.2-5.2-6.8-7.1,16.2-13.4,35.1-38.9,23.7-59.1-5.1-9.1-13.9-11.8-23.8-11.2-13.1.8-28.8,4.3-41.1,10.1-.7-3.3-2.2-6.5-3.3-9.7-1.4-3.8-2.4-9-4.7-12.9,18.6-5,41.6-23.4,39-43-1.4-10.3-9.7-17.5-19-21.1-10.3-4-27.5-8.1-39.6-6.2.4-3,.4-6,.2-9-.2-3.2-.1-6.8-1.1-10,20.9-.4,51.3-8.9,55.4-31.3,1.6-8.9-2.1-16.9-9.2-22.4-11.3-8.6-28.8-16.5-43.1-19.5,1.2-2.6,2.1-5.3,3.2-7.9,1.9-4.8,5.1-10.2,5.4-15.5,18.1,7.6,48.7,9,58.5-9.7Z"/>
          <path class="cls-2" d="m1353.8,1285.86c58.5,52.5,138.8,75,212.9,42.8,63.6-27.7,112-89.3,122.2-158.1,5.9-39.7-1.5-80.4-21.5-115.3-18-31.5-52-69.5-86.5-88-120.1-64.5-221.7,11.9-262.3,73.9-53.1,81.1-36.3,180.5,35.2,244.7Zm-52.1-125.5c14.6,4.9,34.5,1,48.2-2.3,16-3.8,34.2-10.2,47.3-21-1.5,19.3,2.7,38,11.3,54.2-29.9-6.1-66.5,5.8-89.9,25.5-8.7-17.6-14.6-36.6-16.9-56.4Zm169.6-96.4c53.3-10.8,100.9,26.7,104.4,80.2,1.4,20.8-13.5,47.9-28.2,64.6-12.1,13.7-33.6,19.1-51.8,20.9-34.8,3.4-68.1-17-81.7-49.6-17.9-43.3,10.2-106.6,57.3-116.1Zm108.8,198c-12.1-12.7-26.8-25-42.8-33.4,9.2-5.5,17.5-12.6,24.2-21.2,3.3-4.1,6.8-9.3,10.1-15.1,7,12.7,18.7,23.6,28.6,33.2,9.7,9.5,23.3,23.4,37.6,27.4-10.6,14.1-23,26.7-36.9,37.5-3.9-10.7-13.8-21-20.8-28.4Zm-256-35.1c12.9-9.4,25.7-17.7,41.3-22.7,15.4-4.9,30.8-5.6,46.6-7.1,19.8,31.6,57.3,51.3,100.8,41.5,6.8-1.5,13.4-4,19.6-7.1,12.2,12.3,26.9,22.2,38.6,35.2,7.8,8.7,12.9,21.6,20.2,31.1-1,.7-1.9,1.4-2.9,2-94.4,61.6-214.3,13.7-264.2-72.9Zm351.9-85.4c.4,37.1-11.9,73.3-32.7,103.9-10.9-9.4-26.4-15.8-37.2-25.3-11.5-10.1-22.4-20.9-31.4-33.3,6.6-13.2,11.4-36.1,8.7-48.5-9.1-41.4-14.7-46.9-35.8-64.7,2.6-32.1,5.1-66.1,21.9-95,32.8,20.7,55.3,39.2,76.9,70.8,18.5,27.2,29.3,59.2,29.6,92.1Zm-114.8-167.4c-14,11.3-19,27-23,43.6-2.5,10.4-6,32.8-4.6,46.1-8.2-4.8-17-8.6-26.2-11-7.9-2-15.6-2.9-23.2-2.9,8.2-9.6,13.4-27.8,16-35.4,5.6-16.2,12.2-38.1,9.2-56.1,13.8.7,27.9,1.5,51.8,15.7Zm-249.2,106.6c30.2-79.1,105.9-122.3,185.4-122.6-5,16.8-4.6,35.8-9.4,52.9-3,10.7-6.2,21.9-11.1,31.9-1.4,2.8-3.2,5.3-4.7,8-29.3,4.4-54,24.3-66.9,54.1-3.5,8.2-5.8,16.4-7.1,24.6-16.3,4.9-31.4,12.5-48.4,15.9-9.6,1.9-19.3,3.2-29.1,3.1-7.1,0-13.4-1.4-20-.7-.9-21.8,2.6-44.4,11.3-67.2Z"/>
          <path class="cls-2" d="m1444.7,1153.46c.7,19.8,21.6,37.1,40.9,40.1,28,4.4,52.5-23.1,52.7-49.9.2-37.3-42.5-55.2-70.4-43.1-11.8,5.1-24.5,16.4-23.2,52.9Zm50.4-44.8c14.5,1.9,25.8,16.1,28.3,30.7,3.6,20.2-14,42.1-34.7,41.1-23.5-1.1-43.3-22.6-36.5-41.7,7.8-21.9,22.8-32.7,42.9-30.1Z"/>
        </g>
      </g>
    </g>
    <g id="Calque_13" data-name="Calque 13">
      <g>
        <g>
          <path class="cls-2" d="m1312.6,796.46c31.8-20,39.2-58.5,29-87.7-5.2-14.8-20.4-28.4-34.2-35.8-16.6-8.9-27.8-10-48.8-7.3-41.8,5.4-67.7,56.5-51.4,99,15.1,39.3,70.6,53.7,105.4,31.8Zm-67-72.3c4-8.8,19.3-27.2,44.5-15,8,3.8,14.4,12.5,15.9,21,2.6,14.7-4.9,30.5-19.3,35.9-16.5,6.2-38.4-1.6-43.3-19.6-1.9-7.1-1-15.3,2.2-22.3Z"/>
          <path class="cls-2" d="m1177.1,805.26c23.3,30.8,61.4,52.9,100.4,50.2,21.2-1.5,45-9.4,61.7-22.6,19.6-15.6,34.9-29.3,44.9-57.9,20.7-59.3-12.3-129.1-74.3-150.6-103.8-36.2-197.8,95.1-132.7,180.9Zm24.8-104c22.1-56.2,109.1-66.9,143.2-.6,33,64.1-31.1,130.6-97.4,110.9-50.7-15.1-62-69.1-45.8-110.3Z"/>
          <path class="cls-2" d="m1093.2,706.76c-.6,2.2-1,5.5-1.8,8.5,17.4,2.5,47.3,13.4,46.4,33.9-.8,18-21.9,29.2-38.7,30.9,1.5,2.7,1.9,6.2,2.4,9.1.4,2.1.9,4.4,1,6.6,17-4.9,46.8-7.3,54.7,10.8,7.3,16.7-7,36-21.4,44.9,2.5,1.9,4.4,5,6.1,7.2,1.6,2.1,3.3,4.4,4.4,6.9,12.5-11.7,37.7-26.6,52.9-16.1,16.1,11.1,11.4,36.2,2,51.1,3.2.5,6.4,2.6,9.1,3.9,1.9,1,3.9,2.1,5.8,3.4,6.2-15.9,21.4-39.9,40.3-36.8,19.1,3.1,25.6,27.9,23.6,45.2,3.2-.5,6.5-.4,9.5-.3,2.6.1,5.5-.3,8.3-.1-1.6-17.5,2.8-47.8,21.9-52.1,18-4,34,14.4,39.6,30.5,2.4-2,5.9-3.2,8.5-4.4,1.9-.9,3.9-1.8,6-2.4-8.5-15.1-17-43-2.8-54.9,14.6-12.2,37.4-2.4,49.7,10,1.2-2.8,3.6-5.2,5.5-7.5,1.4-1.7,3.1-4.1,4.9-6.4-14.1-9.6-34-30.2-26.6-48s32.7-18.8,49.2-13c-.2-3.2,1-6.6,1.7-9.6.5-2.1,1.1-4.2,1.9-6.1-17.6-2.9-45.6-13.8-44.7-33.7.8-18,22-29.2,38.7-30.9-1.5-2.7-1.9-6.2-2.4-9.1-.6-3-1.3-6.3-1-9.5-16.4,5.4-48.7,9.3-57.1-9.6-7.4-16.6,6.7-36.1,21-45-2.5-1.8-4.5-5-6.2-7.2-1.3-1.6-2.6-3.4-3.8-5.3-11.9,11.6-36.7,26.2-52.2,15.5-16.1-11.1-12.7-36.5-3.7-51.5-2.6-.8-5.2-2.4-7.5-3.5-1.9-1-3.8-2-5.6-3.3-5.7,15.8-21,41.3-40.8,38.1-19.1-3.1-25.7-27.9-23.6-45.2-3,.8-6.5.4-9.5.4-2.1-.1-4.3-.2-6.5-.5,1.1,17.8-3.8,47.3-23,50.9-17.8,3.3-33.4-15-38.8-31-2.4,2-5.9,3.2-8.5,4.3-2.3,1.1-4.9,2.1-7.6,2.7,8.6,14.9,17.7,43.6,3.2,55.7-14.6,12.2-37.4,2.4-49.7-10-1.2,2.8-3.6,5.2-5.5,7.5-1.4,1.7-3,3.5-4.7,5.1,14.1,10.2,33.6,30.8,26.4,48-7.5,17.8-32.9,18.5-49.3,12.6.3,2.9-.9,6.3-1.7,9.3Zm88.2-52.8c38.9-46.3,101.4-58.7,153.5-26.8,44.1,26.9,68.7,77.2,60.7,127.2-1,6.4-1.7,13.5-12.2,38.5-18.6,44.3-76.8,74-122.3,69-43.9-4.9-83.8-32.9-102.6-72.7-21.6-46.1-8.9-97.3,22.9-135.2Z"/>
        </g>
        <g>
          <path class="cls-2" d="m1086.8,704.46c-.6,3.2-2.1,8.5-2.5,12.7-1.1,1.8-1,4.3,1.6,5.5,12,5.4,40.2,8.5,41.9,25.1,1.5,14.5-21.5,24-33,29.1-1,.1-1.9.8-2.2,2-.9,3.9.4,8.9,1.4,12.6.8,2.9.6,6.1,1.3,9-.4,2.3,1.3,5,4.3,4.9,13-.3,41.2-9.9,48.8,5.5,6.2,12.5-9.8,30.1-17.8,39.5-.8.5-1.4,1.3-1.3,2.3.5,4.1,4.3,7.7,6.9,10.7,2.3,2.6,3.8,6.9,6.4,9.3,1,1.9,3.7,3.1,6.1,1.9,12-5.9,25.2-20.7,39.8-18.9,19.2,2.4,10.8,33.2,7.4,46.3-.4.8-.5,1.6.2,2.5,2.6,3.2,6.8,4.9,10.5,6.5,3.8,1.6,8.8,5.9,13.7,5.5.2,0,.2-.2.3-.3h.3c8.1-10.7,14.9-32.3,29.7-35.4,17-3.6,22.6,25.3,25.2,38.5-.1,1.2.3,2.4,1.4,3,3.7,1.7,8,1.4,12,1.2,3.6-.2,8.6.3,12.4-.5,2,.4,4.2-.4,4.7-3.1,2.7-12.5-.9-39.6,13.7-46.2,14.2-6.5,30.2,16.8,37.5,26.4.1.1.2.1.2.2l.1.1c.2.2.5.3.8.3.1,0,.2.1.3.1,4.2.4,7.8-1.6,11.3-3.5,2.8-1.5,6.8-2.2,9.7-3.8,2.3-.3,4.4-2.6,3.7-5.4-3.2-13.5-16.8-33-7.3-46.1,9.5-13,32.3-.3,44.2,5.8.7.7,1.7,1.1,2.7.7,3.9-1.7,5.7-6.1,8.1-9.4,1.8-2.4,5-6.4,6.9-9.9.4-.5.7-1.1.9-1.7.2-.5.5-1,.6-1.5.1-.3-.1-.4-.4-.4-.1-.8-.3-1.6-.8-2.2-8.6-10.1-26-19.6-26-34.5-.1-17.9,30-16.8,43.3-16.5,1,.4,2,.3,2.8-.7,2.4-3.3,3.8-7.2,4.5-11.2.5-2.9,1.7-6.3,2.3-9.6,1.6-1.9,1.8-4.8-1.2-6.1-12-5.4-40.2-8.5-41.9-25.1-1.5-14.5,21.5-24,33-29.1,1-.1,1.9-.8,2.2-2,.9-3.9-1.4-8-2.4-11.7-.8-3.1-1.4-8.7-2.7-12.6.1-2.2-1.5-4.4-4.3-4.3-13,.4-41.1,10.3-48.9-5-6.3-12.4,9.5-30.3,17.4-39.7.8-.5,1.4-1.3,1.2-2.3-.6-4.1-4.2-7.8-6.9-10.8-2.1-2.3-4.1-5.9-6.6-8.3-.8-1.8-2.7-3-4.7-2-12,5.9-25.2,20.7-39.8,18.9-19.1-2.4-11.1-32.8-7.7-45.9.6-.8.8-1.9,0-2.8-2.6-3.2-6.6-3.9-10.3-5.4-3.8-1.6-7.7-3.8-11.8-4.2h0c-1.3-.4-2.6-.1-3.6,1.1-8.1,10.7-14.3,30.6-29.1,33.7-17.2,3.6-22.7-25.8-25.3-38.8.1-1-.2-2.1-1.3-2.6-3.7-1.7-8.1-2.2-12.1-2.1-2.8.1-6.2-.2-9.3.1-2.2-1.2-5.3-.6-6,2.6-2.9,12.6.5,42.3-16.3,46.5-13.7,3.4-27.3-16.3-34.7-26.2-.2-.9-.8-1.6-1.9-1.8-4.2-.4-9,1.9-12.5,3.8-2.9,1.5-7.3,2.8-10.4,4.8-2,.6-3.6,2.7-3,5.3,3.1,13.5,16.8,33.1,7.2,46.1-9.5,12.9-32.3.3-44.2-5.9-.7-.7-1.7-1.1-2.7-.7-3.9,1.7-6.3,4.7-8.7,8-1.7,2.3-4.6,4.8-6.5,7.5-2.2,1.1-3.7,3.9-1.9,6,8.6,10.3,28,21.9,27.9,36.9-.1,17.9-30.2,16.5-43.5,16-1-.4-2.1-.3-2.8.7-1.9,3-1.8,7.1-2.5,11Zm57.5-19.9c7.2-17.2-12.2-37.8-26.4-48,1.7-1.6,3.3-3.4,4.7-5.1,1.9-2.3,4.3-4.7,5.5-7.5,12.3,12.4,35,22.3,49.7,10,14.5-12.1,5.4-40.8-3.2-55.7,2.6-.6,5.2-1.7,7.6-2.7,2.5-1.1,6.1-2.3,8.5-4.3,5.4,16,20.9,34.3,38.8,31,19.2-3.6,24.2-33.1,23-50.9,2.2.4,4.4.4,6.5.5,3,.1,6.5.5,9.5-.4-2,17.3,4.5,42.1,23.6,45.2,19.7,3.2,35.1-22.3,40.8-38.1,1.8,1.3,3.7,2.3,5.6,3.3,2.2,1.1,4.8,2.7,7.5,3.5-9.1,15-12.4,40.4,3.7,51.5,15.6,10.7,40.3-3.8,52.2-15.5,1.1,1.9,2.5,3.7,3.8,5.3,1.7,2.2,3.7,5.3,6.2,7.2-14.4,9-28.4,28.4-21,45,8.4,18.9,40.7,15.1,57.1,9.6-.3,3.1.4,6.4,1,9.5.6,2.9,1,6.4,2.4,9.1-16.7,1.8-37.9,12.9-38.7,30.9-.9,19.9,27.2,30.8,44.7,33.7-.8,2-1.4,4.1-1.9,6.1-.8,3-1.9,6.4-1.7,9.6-16.5-5.7-41.8-4.8-49.2,13s12.5,38.4,26.6,48c-1.9,2.2-3.5,4.7-4.9,6.4-1.9,2.3-4.3,4.7-5.5,7.5-12.3-12.4-35-22.2-49.7-10-14.2,11.9-5.7,39.8,2.8,54.9-2.1.6-4.1,1.6-6,2.4-2.5,1.2-6.1,2.4-8.5,4.4-5.6-16.1-21.7-34.5-39.6-30.5-19.1,4.3-23.5,34.6-21.9,52.1-2.7-.2-5.7.2-8.3.1-3.1-.1-6.3-.2-9.5.3,2-17.3-4.5-42.1-23.6-45.2-18.9-3.1-34.1,20.9-40.3,36.8-1.8-1.3-3.8-2.4-5.8-3.4-2.7-1.4-5.9-3.4-9.1-3.9,9.3-14.9,14.1-40-2-51.1-15.2-10.5-40.4,4.5-52.9,16.1-1.2-2.5-2.9-4.8-4.4-6.9-1.7-2.2-3.6-5.3-6.1-7.2,14.5-8.8,28.7-28.2,21.4-44.9-7.9-18.1-37.7-15.7-54.7-10.8-.1-2.2-.6-4.5-1-6.6-.6-2.9-1-6.4-2.4-9.1,16.7-1.8,37.9-12.9,38.7-30.9.9-20.6-29-31.4-46.4-33.9.8-3,1.2-6.2,1.8-8.5.8-3,2-6.4,1.8-9.5,16.3,6.1,41.7,5.4,49.2-12.4Z"/>
          <path class="cls-2" d="m1261.1,861.76c45.5,5.1,103.8-24.7,122.3-69,10.5-25,11.2-32.1,12.2-38.5,8-49.9-16.6-100.3-60.7-127.2-52.2-31.8-114.6-19.5-153.5,26.8-31.8,37.9-44.5,89.1-22.9,135.1,18.8,40,58.7,67.9,102.6,72.8Zm48.7-237.6c62,21.5,95,91.3,74.3,150.6-10,28.6-25.3,42.4-44.9,57.9-16.6,13.2-40.5,21.1-61.7,22.6-39,2.7-77-19.4-100.4-50.2-65.1-85.6,28.9-216.9,132.7-180.9Z"/>
          <path class="cls-2" d="m1247.8,811.56c66.2,19.7,130.3-46.8,97.4-110.9-34.1-66.4-121.1-55.6-143.2.6-16.3,41.2-5,95.2,45.8,110.3Zm10.8-145.8c21-2.7,32.2-1.6,48.8,7.3,13.8,7.4,29.1,21,34.2,35.8,10.2,29.2,2.8,67.7-29,87.7-34.8,21.9-90.3,7.4-105.4-31.7-16.3-42.6,9.5-93.7,51.4-99.1Z"/>
          <path class="cls-2" d="m1286.6,766.06c14.3-5.4,21.9-21.1,19.3-35.9-1.5-8.6-7.9-17.2-15.9-21-25.2-12.2-40.5,6.3-44.5,15-3.2,7-4.1,15.2-2.2,22.3,4.9,17.9,26.8,25.8,43.3,19.6Zm-18.8-54.1c13,0,27.7,4.5,30.8,18.3,2.1,9.4-3.8,23.2-12.5,28-11.9,6.6-29.9,1.5-34.5-11.3-6.2-17.3,2.8-34.9,16.2-35Z"/>
        </g>
      </g>
    </g>
    <g id="Calque_4" data-name="Calque 4">
      <g>
        <g>
          <path class="cls-2" d="m808.7,419.36c8,13,12,27.7,11.6,42.6,8.9-7.8,23.5-13.3,31.9-15.8,13.2-3.9,30.3-9.1,44.1-4.1-.4-3.5-.9-7-1.6-10.6-3.3-10.3-7.4-20.3-12.2-29.7-10.4,8.2-26,11.1-38.4,13.9-7.1,1.5-24.6,5.9-35.4,3.7Z"/>
          <path class="cls-2" d="m735.2,574.06c3.1-12.7,4.2-25,11.9-34.9-14.5.4-29-3.4-41.3-10.4,1,21.7-2.4,57.4-18.3,73.7,14.2,5.8,29.2,9.5,44.5,11.1-3.4-12.5.3-27.5,3.2-39.5Z"/>
          <path class="cls-2" d="m695,420.06c-20.2,22.8-20.4,59.1-3.2,83.7,8.8,12.5,22.5,23.2,37.5,26.3,18.4,3.8,34.7,6.2,59.6-13.3,27.6-21.5,33.1-64,10.8-94.9-24-33.5-78.2-31.7-104.7-1.8Zm31.7,9.3c7.6-5.2,19.2-7.1,34.6-1,8.6,3.4,16.3,11.1,19.9,19.7,7.1,17.1,1.3,38.4-14.8,48.1-18,10.8-46.7,5.5-55.4-15-8.4-19.4-6.6-36.5,15.7-51.8Z"/>
          <path class="cls-2" d="m679.1,425.86c3.5-6.2,8-12,13.5-17,6.2-5.7,13.5-10.2,21.4-13.6-14-5.4-26.6-16.2-36.5-27.1-7.2-8-17.4-19.9-19.8-31.7-13.7,10.2-25.1,22.9-34.2,37.1,23.8,8.6,46.6,28.6,55.6,52.3Z"/>
          <path class="cls-2" d="m569.4,434.26c-6.5,22.8-37.5,28.6-58.6,25.4,1.1,4,.5,8.6.3,12.7-.2,3.7.7,8.6.4,12.8,21.8-.5,61.1,5.5,65,30.4,3.6,23-21.3,41.7-41.5,48,2.7,3,4.2,7.7,5.7,11.3,1.3,3.1,2.6,6.5,3.3,9.9,19.1-9.6,55.9-21.7,70.5-.3,13.2,19.2-1.2,46.6-16.8,61.2,4,1.7,7.4,5.4,10.5,8.1,2,1.8,5.8,3.2,9.4,4.9,13.4-16.8,40.8-40.4,62.4-28.4,20.6,11.4,19.5,42.7,11.9,62.6,4.3-.2,8.6,1.3,12.8,2.5,3.2.9,6.5,2,9.5,3.5,3.8-20,16.5-56,42.2-55.5,24.2.5,37.4,29.9,38.9,51.6,3.7-2.3,8.8-2.8,12.9-3.5,3.8-.6,7.8-1.2,11.6-1,0,0,0-.1-.1-.1-5.6-20-10.4-61.5,15.2-71.4,21.5-8.3,44.9,11.7,55.6,29.9,2.4-3.5,7.1-6.2,10.4-8.5,2.4-1.7,5-3.5,7.8-4.8-13.4-15.7-31.7-47.3-17.6-66.7,14.7-20.2,47.1-11.7,65.3.6.8-4.3,3.4-8.2,5.5-12,1.9-3.3,3.9-6.6,6.4-9.4-19.5-8.7-52.4-30.3-45.5-55,6.3-22.8,37.3-28.9,58.5-25.9-1.1-4.1-.7-8.6-.5-12.9.2-2.9-.5-6.3-.7-9.6-21.7.3-58-6.1-61.9-30.6-3.6-23,21.3-41.7,41.5-48-2.7-3-4.2-7.7-5.6-11.3-1.3-3.2-4.2-7.9-5.8-12.2-19.6,9.8-56.9,21.9-71.5,1-13.3-19.1.8-46.6,16.3-61.3-4-1.6-7.5-5.3-10.6-8.1-2.3-2.1-4.7-4.3-6.6-6.8-13.4,17.1-41.5,43.1-63.2,31.1-20.6-11.4-19.6-42.7-11.9-62.6-4.3.2-8.6-1.3-12.8-2.5-3-.9-6.1-1.9-8.9-3.3-4.3,20.7-18,57.6-42.8,57.1-24.2-.5-37.4-29.8-38.9-51.5-3.6,2-8.3,2.5-12.2,3.1-3.5.6-7.1,1.1-10.7,1,5.2,20.6,9.3,59.6-15.7,69.1-21.6,8.2-44.8-12.1-55.4-30.4-2.5,3.5-7.2,6.1-10.4,8.3-3,2.1-6.3,4.3-9.9,5.7,13.5,16.4,32.2,48.6,18.4,67.5-14.7,20.2-47.1,11.7-65.3-.6-.8,4.3-3.4,8.2-5.5,12-1.6,2.8-3.3,5.6-5.3,8.1,19.6,9.5,50.8,31,44,54.8Zm25.2-21c19.7-71.1,82.4-116.3,156.1-111.6,74.8,4.8,138.9,58.6,151.6,133.1v.1c18.4,70.4-29,153.8-95.2,179.2-52.7,20.2-115.5,10.7-160.4-23.2-55.2-41.6-70-113.2-52.1-177.6Z"/>
        </g>
        <g>
          <g>
            <g>
              <path class="cls-2" d="m947,337.06c-.3,5.2,5,12.9,7,17.6,1.8,4.3,3.5,10.3,7.5,12.9,1.9,1.3,4.5.3,4.4-2.2-.2-4.8-3.9-9.4-5.9-13.7-2.1-4.4-3.9-12-7-15.8-1.1-1.3-2.8,2-2.9,3.7l-3.1-2.5Z"/>
              <path class="cls-2" d="m963.5,364.86c-20.7,4.9-49.3,24.5-45.4,49,4.1,26.5,46,31.8,66.7,30.5,1.7-1,2.4-6.1,1.4-8.7-17.3-3.9-55.4-1.3-58.3-25.1-2.3-18.7,23.3-34.2,37.1-42.9,1.6-1,.1-3.2-1.5-2.8h0Z"/>
            </g>
            <g>
              <path class="cls-2" d="m980.9,437.26c-2.4,4.7,0,11.7-.3,16.9-.3,5.2-1.1,10.8,1.4,15.6.9,1.7,4,1.5,4.6-.3,1.6-4.4.7-9.1.7-13.7,0-5.4.3-14.6-.8-19.9-.3-1.5-3.5-.3-4.3,1.3l-1.3.1Z"/>
              <path class="cls-2" d="m984.9,467.76c-21-4.4-55.6.9-62.3,25.2-7.1,25.6,28.6,48,47.6,56,4.1,1.7,7.4-5.3,3.5-8.3-13.8-10.5-39.5-19.8-41.6-39.7-2.4-23.3,35.7-28,52.6-30,1.9-.3,2-2.9.2-3.2h0Z"/>
            </g>
            <g>
              <path class="cls-2" d="m971.1,545.16c-4.1,3.2-6.9,7.7-9.4,12.2s-5.8,9.4-5.7,14.7c.1,2.5,3.2,3,4.7,1.5,3.5-3.4,4.9-8.9,7-13.3,2.2-4.4,6.7-11.2,7.9-16,.3-1.3-3.4.1-4.5.9h0Z"/>
              <path class="cls-2" d="m959.6,571.76c-17.4-13.5-53-24.5-68.7-3-14.8,20.3,5.8,53.8,19.3,68.7,2.8,3,8.9-1.4,7.1-5-7.7-15.8-21.2-28.9-21-47.3.2-30.3,44.4-16.8,61.5-10.7,1.6.5,3.4-1.5,1.8-2.7h0Z"/>
            </g>
            <g>
              <path class="cls-2" d="m914.3,633.56c-5,.8-9.6,4-13.7,6.8-3.9,2.7-10,6-11.6,10.7-.8,2.3.9,4.3,3.3,3.7,4.6-1.1,8.4-6,12-8.9,3.8-3,9.7-6.8,12.6-10.7.9-1-1-1.9-2.6-1.6h0Z"/>
              <path class="cls-2" d="m892.4,652.66c-9.5-19-34.7-42.7-57.8-33.8-25.6,9.9-20.9,51.4-15.2,71.4,1.3,4.8,9,5.6,8.9,1-.4-17.5-11.4-57.1,12.5-64,17.3-5,37.5,15.6,49,27.1,1.1,1.2,3.3-.2,2.6-1.7h0Z"/>
            </g>
            <g>
              <path class="cls-2" d="m823.6,691.06c-5.1-1.3-10.6-.5-15.7.3-4.7.8-10.6,1.2-14.2,4.3-1.6,1.4-1.5,4.5,1,4.8,4.8.7,9.6-1.5,14.2-2.5,5-1.1,13.2-2.1,17.8-4.2,1.5-.6-1.5-2.3-3.1-2.7h0Z"/>
              <path class="cls-2" d="m795.1,698.76c-.1-21.9-13.4-54.9-39.1-55.4-26-.5-38.7,36.4-42.3,56.2-.8,4.6,5.8,6.9,7.8,2.5,7.2-15.5,13.3-51,36.9-48.9,18.3,1.6,28.4,31.2,33.6,46.2.6,1.9,3.1,1.2,3.1-.6h0Z"/>
            </g>
            <g>
              <path class="cls-2" d="m718.5,701.76c-4.1-3.3-9.1-5-14.1-6.4-5.1-1.5-10.3-3.4-15.5-2.2-2.5.6-2,3.9-.3,4.9,4.2,2.6,9.8,2.7,14.6,3.9,4.8,1.1,9.5,2.6,14.4,2.7,1.4,0,1.9-2,.9-2.9h0Z"/>
              <path class="cls-2" d="m690,696.56c9-19.5,11.6-54.2-10.3-66.4-23.3-12.9-53.2,15.4-65.2,32.1-2.6,3.5,3.5,9.3,7.4,6.1,13.7-11.4,25.5-30.4,45-31,25.6-.8,22,40.9,20,58.1-.1,1.8,2.3,2.8,3.1,1.1h0Z"/>
            </g>
            <g>
              <path class="cls-2" d="m624.2,663.86c-2-4.7-12.5-6.8-16.2-10.2-3.7-3.4-7.9-8.1-13-8.9-2.4-.4-3.8,2.2-2.7,4.1,2.3,4.2,7.7,6.8,11.3,9.8,3.8,3.1,10.9,8.8,15.3,11,1.2.6,5.9-4,5.3-5.4v-.4Z"/>
              <path class="cls-2" d="m594.3,648.36c16.8-13.5,34.2-43.4,20.1-64-15.3-22.4-54.8-8.2-73.1,1.6-4.5,2.4-.3,8.2,4,7.1,17-4.1,52.9-23.5,63.5,1.2,6.6,15.3-8.5,38.9-16.8,52-.9,1.4,1.1,3.1,2.3,2.1h0Z"/>
            </g>
            <g>
              <path class="cls-2" d="m544.4,589.96c.3-5.2-1.9-10.5-3.9-15.2-1.8-4.3-3.5-10.3-7.5-12.9-1.9-1.3-4.5-.3-4.4,2.2.2,4.8,3.9,9.4,5.9,13.7,2.1,4.4,3.7,9.9,6.8,13.7,1.1,1.4,3,.2,3.1-1.5h0Z"/>
              <path class="cls-2" d="m531,564.56c20.7-4.9,49.3-24.6,45.4-49-4.2-26.5-48.1-31.6-68.8-30.3-4.8.3-5,7.2-.4,8.3,17.3,3.9,56.5,1.5,59.5,25.3,2.3,18.7-23.3,34.2-37.1,42.9-1.7,1-.3,3.2,1.4,2.8h0Z"/>
            </g>
            <g>
              <path class="cls-2" d="m510.2,489.76c2.4-4.7.5-12.1.8-17.4.3-4.8,1.2-10.4-1-14.8-.9-1.8-4-2.7-4.9-.3-1.7,4.4-.8,9.1-.8,13.7,0,5.4-1.1,15.3,0,20.6.3,1.5,2.7-2.3,3.5-3.8l2.4,2Z"/>
              <path class="cls-2" d="m506.8,458.86c21,4.6,55.6-.4,62.5-24.7,7.3-25.5-29.3-48.5-48.3-56.7-4.2-1.8-8.5,3.9-4.6,6.9,13.7,10.6,41.5,21.9,43.4,41.8,2.2,23.3-36,27.7-52.9,29.5-1.7.3-1.8,2.9-.1,3.2h0Z"/>
            </g>
            <g>
              <path class="cls-2" d="m521.2,383.66c4.1-3.2,6.9-7.7,9.4-12.2s5.8-9.4,5.7-14.7c-.1-2.5-3.2-3-4.7-1.5-3.6,3.4-6.5,8.7-8.7,13.1s-5.6,8.8-6.8,13.6c-.3,1.3,3.9,2.5,5.1,1.7h0Z"/>
              <path class="cls-2" d="m532.7,356.96c17.3,13.5,53,24.5,68.7,3,14.8-20.3-7.7-55.9-21.2-70.8-2.8-3-8.5.9-6.7,4.6,7.6,15.8,22.6,31.4,22.5,49.9-.2,30.2-44.4,16.8-61.5,10.7-1.6-.6-3.4,1.4-1.8,2.6h0Z"/>
            </g>
            <g>
              <path class="cls-2" d="m579,293.56c5-.7,9.7-3.9,13.8-6.7,3.9-2.7,10-5.9,11.7-10.6.8-2.3-.9-4.2-3.3-3.7-4.6,1-8.4,6-12.1,8.8-3.8,2.9-8.4,5.7-11.4,9.5-.8,1-.2,2.9,1.3,2.7h0Z"/>
              <path class="cls-2" d="m601.1,274.56c9.3,19.1,34.3,43,57.5,34.3,25.7-9.7,20.6-50.9,15.2-70.9-1.3-4.8-8.1-2.6-8,1.9.2,17.5,10.6,54-13.3,60.6-17.3,4.8-37.4-16-48.7-27.5-1.2-1.2-3.4.2-2.7,1.6h0Z"/>
            </g>
            <g>
              <path class="cls-2" d="m669.2,239.16c5.1,1.3,10.6.5,15.7-.4,4.7-.8,10.6-1.2,14.2-4.3,1.6-1.4,1.5-4.5-1-4.8-4.8-.7-9.6,1.5-14.2,2.5-5,1.1-12.3,2.3-17,4.5-1.4.6.7,2,2.3,2.5h0Z"/>
              <path class="cls-2" d="m697.1,231.76c.1,21.9,13.4,54.9,39.1,55.4,26,.5,39.8-40.2,43.4-60.1.8-4.6-5.8-7-7.9-2.6-7.2,15.5-14.3,54.9-37.9,52.9-18.3-1.6-28.4-31.2-33.6-46.2-.6-1.9-3.2-1.2-3.1.6h0Z"/>
            </g>
            <g>
              <path class="cls-2" d="m773.8,226.86c4.1,3.3,9.1,5,14.1,6.4,5.1,1.5,10.3,3.4,15.6,2.2,2.5-.6,2-3.9.3-4.9-4.2-2.6-9.8-2.7-14.6-3.8-4.8-1.1-9.4-4.4-14.3-4.5-1.5-.1-2.2,3.8-1.1,4.6h0Z"/>
              <path class="cls-2" d="m802.2,232.16c-9,19.5-11.6,54.2,10.3,66.4,23.3,12.9,53.9-18,65.9-34.7,2.6-3.5-1.6-9.4-5.5-6.2-13.7,11.4-28.1,33-47.6,33.6-25.6.8-22-40.9-20.1-58.1.2-1.7-2.2-2.8-3-1h0Z"/>
            </g>
            <g>
              <path class="cls-2" d="m872.6,262.36c2.1,4.7,6,8.4,9.8,11.8,3.7,3.3,8,8,13.1,8.8,2.4.4,3.8-2.1,2.7-4.1-2.4-4.2-6.6-8-10.2-11-3.8-3.1-8-7.9-12.4-10-1.3-.6-3.6,3.1-3,4.5h0Z"/>
              <path class="cls-2" d="m896.2,279.36c-16.6,13.7-33.8,43.7-19.5,64.1,15.6,22.3,57.2,6.9,75.3-3,4.4-2.4.5-8.5-3.8-7.4-17,4.3-55.2,25-66,.5-6.7-15.3,8.2-39,16.4-52.2.7-1.3-1.2-3-2.4-2h0Z"/>
            </g>
          </g>
          <g>
            <path class="cls-2" d="m681.3,506.06c17.8,28.6,63.3,43.3,96.5,25.1,44.9-27.7,53.5-78.6,29.3-114.4-25.1-37.3-83-36.7-114.5-8-27,24.6-30.3,66.9-11.3,97.3Zm13.7-86c26.5-29.9,80.7-31.7,104.7,1.8,22.3,31,16.8,73.4-10.8,94.9-24.9,19.5-41.2,17-59.6,13.3-15.1-3.1-28.7-13.7-37.5-26.3-17.3-24.6-17-60.9,3.2-83.7Z"/>
            <path class="cls-2" d="m902.2,434.76c-12.7-74.5-76.8-128.4-151.6-133.1-73.7-4.7-136.3,40.5-156.1,111.6-17.9,64.4-3.1,136,52,177.6,44.9,33.9,107.8,43.4,160.4,23.2,67.2-25.8,115.1-111.4,94.4-182.5-.4-1.5-7.2-2.4-6.9-.9,7.6,39.8-.9,71-16.3,104-11.7,25-30.2,46-54,60-45.2,26.7-103.9,25.5-150,1.6-124.2-64.4-91-270.5,50.9-286.1,82.5-9.1,150.9,51.4,171.9,129.1.5,1.8,5.6-2.6,5.3-4.5h0Z"/>
            <path class="cls-2" d="m710.9,481.16c8.7,20.4,37.3,25.8,55.4,15,16.2-9.7,22-31,14.8-48.1-3.6-8.6-11.3-16.3-19.9-19.7-15.3-6.1-27-4.2-34.6,1-22.2,15.3-24,32.4-15.7,51.8Zm61-33.4c6.8,11.4,2.8,28-6.9,37.1-12.6,11.8-36.4,9.4-45.2-5.8-10.3-17.7-4.9-40.3,15.2-45.5,19.3-4.9,33.4,8.2,36.9,14.2Z"/>
            <path class="cls-2" d="m751.2,534.66c-11.5,10.6-12.4,24.7-16,39.4-3.5,14.1-8,32.1-.9,45.5.5,1,1.9.4,2.1-.4,3.4-14.2,1-29.5,4-44.1,3-15,5.8-26.9,13.6-40.1.4-.7-.8-.4-1.3.1l-1.5-.4Z"/>
            <path class="cls-2" d="m704.3,523.06c-4.4,15.9-5.3,32.6-10.3,48.4-4,12.5-12.7,22.7-15.9,35.1-.3,1.3,1.2,1.9,2.2,1.4,24-12.5,27.3-61.6,25.2-84.8-.1-.7-1-.7-1.2-.1h0Z"/>
            <path class="cls-2" d="m681.1,432.06c-7.6-29-36.9-53.8-65.4-60.9-3.7-.9-5.7,5-2.1,6.4,13.9,5.5,26.7,11.4,38.2,21.3,11.4,9.8,19,22,27.3,34.3.7,1.1,2.3.2,2-1.1h0Z"/>
            <path class="cls-2" d="m720.3,394.76c-12.4-10.9-25.7-19.4-36.5-32.2-4.9-5.8-9.3-12-13-18.7-3.2-5.9-4.6-11.2-9.5-15.7-1.3-1.2-3.8-.5-4,1.4-1.5,13.8,11.5,29.1,20.1,38.6,11.1,12.2,25.6,24.3,41.7,28.9,1.3.3,2.1-1.5,1.2-2.3h0Z"/>
            <path class="cls-2" d="m801.2,415.46c7,9.1,33.7,2.2,42.8.2,14.6-3.3,33.7-6.7,43.5-18.8,1.3-1.6-.5-4.9-2.8-4.6-14.5,1.8-26.3,10.4-40.5,14.4-8.9,2.6-18.2,5-27.5,6-5.6.6-11.4-.5-16.9.7-.7.2-1.1,1.1-.8,1.7.1.2.2.4.3.7.2.4.5.6.9.6h.6c.4-.1.6-.6.4-.9h0Z"/>
            <path class="cls-2" d="m899.4,443.36c-14.2-7.1-33-1.4-47.2,2.8-11.2,3.3-33.6,12-38.4,24.3-1.2,3,1.8,5.7,4.7,4,22.7-13.1,52.1-29.6,79.3-27.2,1.3.1,2-1.6.7-2.2l.9-1.7Z"/>
          </g>
        </g>
      </g>
    </g>
    <g id="Calque_5" data-name="Calque 5">
      <g>
        <g>
          <path class="cls-2" d="m2008.8,453.86c-18.8,32-38,66.3-62,94.7,23.6,4.3,36.8,13.6,49.7,33.4,16.7-30.9,42.4-54.3,67.8-78.5,15.5-14.8,32-28.5,48.7-41.9,10.7-8.6,24.3-24.2,37.7-29.9-22.9-26.2-50.4-48.5-82.1-65.2-5.5-2.9-11.1-5.6-16.7-8.1-6.5,33.3-26.4,67.1-43.1,95.5Z"/>
          <path class="cls-2" d="m2095.8,715.96c-29.9-18.8-59.5-38.3-86-61.7-5.9,23-18.1,38.3-38.6,49.5,31.4,17.5,54.7,43.4,78.9,69.9,14.4,15.8,27.8,32.7,40.8,49.7,8.1,10.5,21.5,22.9,26.7,35.8,30.7-26.7,56.2-59.1,75.2-95.2-33.5-8.1-68.8-30.4-97-48Z"/>
          <path class="cls-2" d="m1943,704.16c34.3-5.6,59.8-35.8,58.4-75.2-1.8-50.5-56.2-86.8-103.1-65.8-32.2,14.4-52.3,54.3-42,88.5,11,36.8,46.1,59.2,86.7,52.5Zm-55.6-76.6c2.6-25.3,28.4-42,52.9-34.4,21,6.6,30.3,32.2,24.3,50.9-4.9,15.3-22.9,27.8-38,27.5-22.7-.5-41.5-21.5-39.2-44Z"/>
          <path class="cls-2" d="m1846.3,807.86c19-33.4,37.8-65.4,62.5-95-23.4-3.2-39.2-16.3-52.2-36.8-16.3,33.4-43,64-69.4,90-15.3,15.1-68.4,59.5-80.7,65.4,27.8,30.1,60.9,54.5,97,71.8,7-32.2,27.2-67.9,42.8-95.4Z"/>
          <path class="cls-2" d="m1748.6,550.66c33,19.7,65.7,41.1,94.7,66.5,4.4-23.5,18.7-45,38.6-58.2-32-17-59.3-41-84.1-67.2-14.7-15.6-28.3-32.2-41.6-49-8-10.1-21.4-22.9-27.5-35.6-17.8,15.5-33.9,33.2-47.7,53-9.8,14.1-18.2,28.7-25.3,43.7,32.3,7.5,65.5,30.4,92.9,46.8Z"/>
          <path class="cls-2" d="m1600.9,569.96c10,7.9,15.2,19,12.8,31.8-6.1,32.1-49.8,43.6-79.8,44.3,1.1,4.6.3,9.9.5,14.7.2,4.5.3,9.2-.4,13.7,17.7-2.4,42.1,3.6,57.3,9.7,12.3,4.9,23.6,14.6,26.4,28.1,6,29.3-30.2,56.5-57.1,63.6,3.3,5.7,4.8,13.1,6.8,18.9,1.7,4.8,3.8,9.8,4.8,14.8,18.1-8.1,40.7-13,59.9-14,14.1-.7,26.6,3.2,33.8,16.2,16,29.2-11.7,65.3-34.9,84.5,4.2,2.8,6.9,8,10.1,11.8,2.9,3.5,7.1,7.3,9.9,11.4,11.2-13.2,31.1-22.8,46.5-28.9,14.1-5.6,30.9-7.2,43.3,3.1,23.3,19.1,12.7,62.3-3.3,85.2,6.6,2.4,12.8,7.2,18.7,10.7,4.2,2.5,8.4,4.7,12.1,7.7,8.7-17.7,22.5-35.6,36.5-49,10.1-9.7,22.4-14.9,36.1-9.8,31.8,11.7,33.8,58.5,28.2,88.2,4.4-.4,8.9.6,13.4,1.4,5.1.8,11.4,1.4,16.8,3.3,0-18.1,10.4-42.1,19.6-56.7,7.1-11.2,18.8-20.5,32.6-20.6,29.6-.3,49.9,39.4,52.3,67.1,6.3-2.3,14-2.6,20.3-3.6,4.8-.8,9.9-2,14.8-2.1-5.2-20.2-6.5-45.9-3-65.8,2.2-12.6,9.3-22.3,21.8-26.3,31.2-10.3,62.5,23.3,77.2,49.4,3.5-3.4,8.6-5.9,12.5-8.1,4.3-2.5,9.3-5.5,14.4-6.8-12.2-13.6-20-39.7-22.6-56.9-2-13.1.7-27.9,11.1-37.1,22.7-20,64-2.1,83.7,17.5,3.1-5.3,7.9-9.8,11.8-14.4,3.6-4.2,7.1-9,11.3-12.7-15.7-11-30.6-27.9-41.1-43.3-7.9-11.5-11.9-23.5-5.2-36.6,16.1-31.1,63.5-25.2,92.5-14.4.5-4.8,3-9.4,4.9-13.8,2.1-4.8,4.4-9.8,7.5-14.1-16.9-3.3-34.9-15.4-47.8-25.5-11.9-9.3-21.6-22.9-19.1-38.8,5-31.1,47.9-41.2,76.1-37.8-1.7-7.1-.3-14.8.3-22.1.4-5.3.4-10.8,1.4-16.1-20.8,2.1-48.7-1.1-68.2-8.3-11.9-4.4-20.1-13.8-21.5-26.5-3.6-33.5,34.6-56.6,63.1-65.6-3.7-4.5-5.4-11.1-7.4-16.3-2.5-6.4-9.1-14.5-12.9-22-16.1,8.5-41.7,10.9-58.9,9.9-14.4-.9-28.9-7.1-35.4-20.7-13-27,12.8-60.3,36.2-74.8-5.4-5.6-9-10.3-12.9-16-2.9-4.1-8.1-8.5-12-13.1-14,13.4-33.7,24.4-50.9,32.2-12.9,5.8-26.3,6.6-37.8-2.9-25.8-21.3-12.8-64.5,2.6-90.9-4.3-2.3-9.7-7.3-13.2-9.4-3.6-2.1-8.7-4.6-13.1-7.5-6.6,15.7-22.8,32-34.5,42.3-10.3,9.1-23.5,15.5-37.5,12.3-30.6-7-38.2-52.2-32.1-80.3-8.1.6-19.9-2.9-26.9-4.2-3.5-.7-6.4-1.3-8.8-1.8-1.5,19.8-8,41.7-16.1,59.3-5.9,12.9-15.7,21.7-30.5,21.7-33.4.2-53.1-41.8-59-71.5-4.6,2.3-10.6,3-15.3,3.9-4,.8-9.4,2.7-14.5,3.6,6.3,17,5.6,41.2,2.8,57.9-2.3,13.9-9.8,27.6-23.7,32.7-28.3,10.4-62.3-20-74.4-45.2-4.8,5.2-12.7,8.4-18.6,11.9-3.9,2.3-7.9,5.2-12.1,7.2,11.3,14.8,19.1,33.7,25.4,51,5.2,14.2,6.7,28.6-4.7,40.1-25.4,25.6-69.5,3.5-93.3-16.2-1.8,5.1-6,9.5-9.2,13.6s-6.7,8.4-11,11.5c16,7.9,30.2,25.7,40.1,40,8.8,12.8,14,29.4,6.2,44-14.3,26.6-57.9,23.9-83.8,12.8-2.8,7.4-6,15.4-8.9,22.4-1.7,4-2.9,8.1-4.5,12.2,20.3,4.7,45.4,16.2,61.5,28.9Zm108.4-161.1c106.4-103.1,281.1-118.6,401-29.3,103.4,77,155.3,221.7,111.7,345.1,0,0-.4,1.4-.9.8-.1.2-.2.5-.2.7-34.3,106.4-132.8,192.6-242,213.5-124.2,23.7-250.6-42.4-317.1-147-77.3-121.1-55.6-284.1,47.5-383.8Z"/>
        </g>
        <g>
          <path class="cls-2" d="m1533.1,525.76c-2.1,6.6-5.3,12.6-4.9,19.3-.8,2.4-.3,5.2,2.8,6.8,17.7,9.4,80,24.8,65.7,53.8-10.3,20.9-46.4,27.2-68.1,33.7-2.2-.1-4.7,1.1-5.4,2.9-2.3,6.3-.3,17.1.4,23.6.5,5.1,0,11.4,1.1,14.9-.1,1.8.6,3.6,2.5,4.5,20.9,10.7,65,1.7,72.3,29.6,6.6,25-28.2,41.9-46.5,55.2-2.3.4-4.2,2.2-4.3,4.9-.4,8.2,5.4,16.7,8.7,24,2.6,5.7,3.7,13.8,7.3,19.3.8,3.2,4,6,7.9,5.4,20-3.4,73.8-28.1,82,1.2,6.4,22.9-17.6,51.1-30.9,70.1-.7.7-1.6,2-3.1,4.5,1.6,6.3,8.2,10.5,12.6,15.1,4.2,4.5,9.7,10.2,15.2,13.6,1.1,2.1,3.6,3.5,6.1,2.9,21.5-4.9,46.8-37,70.5-28,27.7,10.5,8,62,3.9,81.1h0c-.2.6-.4,1.3-.6,2.1,5.7,6.3,15.3,10,22.9,13.7,5.6,2.7,10.9,7.3,17,9,2.5,2,6.4,2.6,8.6,0,14.1-16.6,30.6-56.6,54.4-55,28.8,1.9,28.6,51.9,30.6,76.1-.7,1.6-.2,3.6,1.1,4.8l.3.3.2.2c5.8,3.4,12.8,2.6,19.3,3.3,6.4.7,14,2.3,20.5,1.7,2.1.7,4.6.2,6.3-2.1,12.8-17,13.5-67.6,42-68,24.7-.4,36.1,40.9,45.5,59.4.3,1.6,1.4,2.9,3.4,3.3,8.4,1.6,19.4-2.1,27.6-4.2,6.1-1.6,13.1-1.6,18.8-4.3,3.1,0,6.2-2.1,6.2-6.1.1-19.3-15.2-81.6,17-81.9,23.6-.3,45.5,28,61.7,43.9.5,1.7,2,3.1,3.8,3,6.8-.2,12.5-6.7,17.9-10.2,5.5-3.6,12.1-6.9,16.1-12.2.1-.1.1-.3.1-.4,1.9-.7,3.3-2.4,3.2-4.7-1.2-22.7-30.1-55.4-12.9-76.5,16.7-20.5,52.7,2.5,72.9,11.5,1.5,1.9,4.2,2.9,6.5,1.5,6.9-4.1,10.9-11.8,15.4-18.2,3.7-5.2,9.8-10.6,13-16.7,3.1-1.9,4.6-6.6,1.8-10.1-12-14.9-56-44.5-44.6-67.3,11.5-22.9,59.4-13.5,81.2-11.7,1.5.7,3.3.7,4.5-.7,4.5-5,5.4-12.2,7.8-18.4,2.2-5.6,5.6-11.9,6.6-18,1.6-2,1.8-5.3-.1-7.3-13.8-14.8-58.1-23.2-59.7-46.9-1.2-17.9,18.3-28.3,32.4-33.2,10.3-3.6,21.1-4.8,31.6-7.7,2.5.6,5.6-1,6.5-3.5,2.8-7.9,1-17.9.9-26.3-.1-6.6.4-13.5-2.1-19.7,1.2-3.2.4-6.8-4-7.6-20.3-3.6-77.3,2.4-78.7-27.1-1.2-25,37.4-44.7,54.7-57.1,1.7-.5,3.1-2.1,3.2-4,.4-7.3-5.3-15.4-8.2-21.9-3.4-7.6-9.2-18.6-15.4-25.1-.8-1.7-2.4-3-4.7-3.3-22-3-72.5,22.8-81.9-8.9-6.8-22.9,16.4-44.3,29-61.7,2.1-1.4,3.7-4.4,3.1-6.6-2.2-8-10.2-14.5-15.4-20.8-4.3-5.2-9.4-12.9-15.8-16.6-1.7-2-4.6-3-7.7-1.4-16.6,8.7-52,44.2-72.7,33.3-25.5-13.3-5.3-63.3.5-84.4.8-1.6.8-3.6-.3-5.1-4.1-5.2-11.6-6.9-17.3-9.9-5.8-3-14.9-10.3-21.3-11.7-.3-.1-.5,0-.7.2-.7.1-1.5.2-2.2.7-18.6,12.4-29.9,46.3-53.3,50.8-33.2,6.3-36.4-49.7-36-72.5,0-.4-.3-.7-.7-1-.2-.7-.6-1.4-1.4-1.8-7.7-4-17.4-3.7-25.9-4.7-6-.7-13.6-2.2-20.3-1.7-3.2-1.1-7.3.1-8.6,4-6.2,18.6-11.4,83-42.6,71.9-22.9-8.2-34.6-42.4-45.3-62.7-.2-.7-.6-1.4-1.2-1.8q-.1-.1-.2-.2c-.4-.3-.8-.5-1.3-.6-6.6-1.4-13.1,2.1-19.4,3.8-5.8,1.6-14.6,3.2-20.6,6.1-2.1.2-4,1.5-4.6,3.8-5.7,21.7,12.4,66.7-14.1,78-23.3,9.9-49.1-16-66.7-36.3-.4-.6-.8-1.2-1.5-1.7-.2-.2-.4-.5-.6-.7-.3-.4-.7-.3-1.1-.1-.8-.3-1.7-.4-2.6-.3-7.9,1.1-15.4,8.9-21.7,13.5-4.9,3.6-11.5,6.8-15.6,11.6-2.7,1.3-4.7,4-3.5,7.2,4.1,10.6,10,20.1,14.9,30.3,2.6,5.5,5.1,11.1,7.4,16.8,4.4,10.8,6.4,13.9,1.2,25.1s-10.8,13.5-22.8,12.8c-7.5-.4-16.3-3-23.5-5.3-13.1-4.1-25.8-10.9-38.5-16.1-.3-.1-.7-.1-1-.1-.7,0-1.4.1-2,.5-5.7,3.2-8.5,10.2-12.1,15.5-3.8,5.6-8.5,11-10.7,17.4-.1.3,0,.5,0,.7-1.3,1.7-1.8,4.3-.9,6.2,9.6,20.1,56.7,46.5,38.1,71.4-14.8,19.9-48.3,12.2-70.4,11.2-1-.3-2.1-.3-3.2-.1h-.2c-.1,0-.1.1-.2.1-.3.1-.7.2-1,.3,0,0-.1,0-.1.1-.9.4-1.7.9-2.3,1.6-5.6,6.8-7,17.1-9.5,25.1Zm103.3-32.1c7.9-14.6,2.6-31.2-6.2-44-9.8-14.3-24.1-32.1-40.1-40,4.3-3.1,7.8-7.4,11-11.5,3.3-4.1,7.4-8.6,9.2-13.6,23.8,19.7,67.9,41.8,93.3,16.2,11.4-11.5,9.9-25.9,4.7-40.1-6.3-17.3-14-36.2-25.4-51,4.3-2,8.3-4.9,12.1-7.2,5.8-3.5,13.7-6.7,18.6-11.9,12.1,25.1,46.1,55.6,74.4,45.2,13.9-5.1,21.4-18.8,23.7-32.7,2.8-16.7,3.5-40.9-2.8-57.9,5.1-.9,10.6-2.8,14.5-3.6,4.7-.9,10.7-1.6,15.3-3.9,5.9,29.6,25.6,71.7,59,71.5,14.8-.1,24.5-8.9,30.5-21.7,8.1-17.5,14.6-39.5,16.1-59.3,2.3.5,5.2,1.1,8.8,1.8,7,1.3,18.8,4.8,26.9,4.2-6.1,28.1,1.6,73.3,32.1,80.3,14,3.2,27.2-3.2,37.5-12.3,11.7-10.3,27.9-26.6,34.5-42.3,4.4,2.9,9.5,5.4,13.1,7.5,3.5,2.1,8.9,7.1,13.2,9.4-15.4,26.3-28.4,69.5-2.6,90.9,11.5,9.5,24.8,8.7,37.8,2.9,17.2-7.8,36.9-18.8,50.9-32.2,4,4.7,9.2,9,12,13.1,3.9,5.7,7.6,10.4,12.9,16-23.4,14.5-49.3,47.8-36.2,74.8,6.5,13.5,21,19.8,35.4,20.7,17.2,1,42.8-1.4,58.9-9.9,3.8,7.6,10.3,15.6,12.9,22,2.1,5.2,3.7,11.8,7.4,16.3-28.5,9-66.7,32.1-63.1,65.6,1.4,12.7,9.7,22.1,21.5,26.5,19.5,7.2,47.4,10.4,68.2,8.3-1,5.3-1,10.8-1.4,16.1-.5,7.3-1.9,15-.3,22.1-28.1-3.4-71.1,6.8-76.1,37.8-2.5,15.9,7.2,29.5,19.1,38.8,12.9,10.1,30.9,22.2,47.8,25.5-3.1,4.3-5.4,9.4-7.5,14.1-2,4.4-4.4,9-4.9,13.8-29-10.8-76.4-16.7-92.5,14.4-6.8,13.1-2.7,25.1,5.2,36.6,10.6,15.4,25.4,32.3,41.1,43.3-4.3,3.7-7.7,8.5-11.3,12.7-3.9,4.6-8.7,9.1-11.8,14.4-19.7-19.6-61-37.5-83.7-17.5-10.4,9.2-13,24-11.1,37.1,2.6,17.2,10.4,43.3,22.6,56.9-5.1,1.3-10.1,4.3-14.4,6.8-3.9,2.3-9,4.7-12.5,8.1-14.6-26.1-45.9-59.6-77.2-49.4-12.5,4.1-19.6,13.8-21.8,26.3-3.5,19.9-2.2,45.6,3,65.8-5,.1-10,1.3-14.8,2.1-6.3,1-14,1.3-20.3,3.6-2.4-27.6-22.8-67.4-52.3-67.1-13.8.1-25.5,9.4-32.6,20.6-9.2,14.6-19.6,38.6-19.6,56.7-5.4-1.8-11.7-2.4-16.8-3.3-4.5-.7-9-1.7-13.4-1.4,5.6-29.7,3.6-76.6-28.2-88.2-13.7-5-26,.1-36.1,9.8-13.9,13.5-27.8,31.3-36.5,49-3.6-3-7.9-5.2-12.1-7.7-5.9-3.5-12-8.3-18.7-10.7,16-22.9,26.6-66,3.3-85.2-12.5-10.3-29.3-8.7-43.3-3.1-15.4,6.1-35.3,15.7-46.5,28.9-2.8-4.2-7-8-9.9-11.4-3.2-3.8-5.9-9-10.1-11.8,23.2-19.2,50.9-55.4,34.9-84.5-7.2-13-19.6-17-33.8-16.2-19.2,1-41.9,5.9-59.9,14-.9-5.1-3.1-10-4.8-14.8-2-5.8-3.5-13.2-6.8-18.9,26.9-7.1,63.1-34.3,57.1-63.6-2.8-13.6-14.1-23.2-26.4-28.1-15.2-6.1-39.6-12.1-57.3-9.7.7-4.5.6-9.2.4-13.7-.2-4.9.6-10.1-.5-14.7,30-.7,73.7-12.2,79.8-44.3,2.4-12.8-2.8-23.9-12.8-31.8-16.1-12.7-41.2-24.3-61.7-29,1.6-4,2.9-8.1,4.5-12.2,2.9-6.9,6.1-15,8.9-22.4,26.1,11.2,69.6,13.9,84-12.7Z"/>
          <path class="cls-2" d="m1926.5,671.56c15.2.3,33.1-12.2,38-27.5,6-18.6-3.2-44.3-24.3-50.9-24.4-7.7-50.3,9.1-52.9,34.4-2.2,22.5,16.6,43.5,39.2,44Zm6.7-68.2c17.7,3.3,27.2,16.8,25,31.6-1.7,11.9-11.5,21.3-24.4,24.4-15.4,3.6-31.6-8.4-34.4-23.5-3.7-19.7,15.1-36,33.8-32.5Z"/>
          <path class="cls-2" d="m1661.6,792.66c66.6,104.5,192.9,170.6,317.1,147,109.2-20.8,207.7-107.1,242-213.5.1-.2.2-.5.2-.7.5.6.9-.8.9-.8,43.7-123.4-8.2-268.1-111.7-345.1-119.9-89.3-294.6-73.8-401,29.3-102.9,99.7-124.6,262.7-47.5,383.8Zm236.7-229.5c46.9-21,101.2,15.4,103.1,65.8,1.4,39.4-24,69.5-58.4,75.2-40.5,6.7-75.7-15.7-86.7-52.5-10.3-34.2,9.7-74,42-88.5Zm111.5,91.1c26.5,23.4,56.2,43,86,61.7,28.1,17.6,63.4,39.9,96.9,48-19,36-44.5,68.5-75.2,95.2-5.2-12.9-18.7-25.3-26.7-35.8-13-17-26.4-33.8-40.8-49.7-24.2-26.5-47.5-52.4-78.9-69.9,20.6-11.2,32.7-26.6,38.7-49.5Zm-101,58.6c-24.7,29.5-43.6,61.6-62.5,95-15.6,27.5-35.8,63.1-42.7,95.4-36.1-17.3-69.2-41.7-97-71.8,12.3-5.9,65.4-50.3,80.7-65.4,26.4-26,53.1-56.6,69.4-90,12.9,20.6,28.8,33.6,52.1,36.8Zm112.8,203.1c-70.7,25.9-145.6,19.9-211.3-9.6,7.9-13.3,12.7-28.6,19.2-42.5,8.5-18.3,17.6-36.5,27.2-54.3,18-33.1,39.1-63.9,59.4-95.5,3.8.3,29.5,2.8,47.6-6.5,30.2,22.5,57.4,47.5,81.9,76.2,11.2,13,21.9,26.4,32.3,40,9.1,11.9,18.9,32,31.3,42.3-25.9,21-55.3,38.1-87.6,49.9Zm208.4-276.2c0,.1-.1.2-.1.4-3.9,41.2-15.6,81.1-33.8,117.5-12-7.8-25.9-12.9-38.6-19.4-18-9.2-35.9-18.8-53.3-29-32.4-19-62.3-41.1-93-62.6.9-4.4,1.4-8.9,1.6-13.3.4-16-3.7-31-11.2-43.9,21.5-29.8,45.4-57,72.8-81.6,12.8-11.5,25.9-22.5,39.3-33.2,12.1-9.7,34.5-20.9,44.3-34.2,45.2,55.6,70.4,127,72,199.3Zm-79.3-208.1c-13.4,5.6-27,21.3-37.7,29.9-16.7,13.4-33.2,27.1-48.7,41.9-25.4,24.3-51.1,47.6-67.8,78.5-12.9-19.8-26.1-29.1-49.7-33.4,24.1-28.4,43.2-62.7,62-94.7,16.7-28.4,36.6-62.2,43.1-95.5,5.6,2.5,11.2,5.2,16.7,8.1,31.7,16.7,59.3,39,82.1,65.2Zm-104.5-75.8c-9.2,13.8-14.6,30.3-21.8,45.2-8.9,18.2-18.2,36.2-28.1,53.8-17.9,31.7-38.7,61.1-58.8,91.3-7.9-1.1-16.1-1-24.3.3-9.9,1.6-19.2,5.2-27.6,10.2-30.7-22.1-58.4-46.7-83.5-75-11.4-12.8-22.3-26-33-39.5-9.3-11.7-19.3-32.1-31.8-42.3,85.5-68.6,206.4-87.3,308.9-44Zm-317.5,51.2c6.1,12.7,19.5,25.5,27.5,35.6,13.3,16.8,26.9,33.4,41.6,49,24.8,26.3,52.1,50.3,84.1,67.2-19.9,13.2-34.3,34.7-38.6,58.2-29-25.3-61.7-46.8-94.7-66.5-27.4-16.4-60.7-39.3-93-46.8,7.1-15,15.5-29.7,25.3-43.7,13.9-19.8,30-37.5,47.8-53Zm-77.5,106.9c15.1,5.2,24.7,10.3,38.7,17.2,18.1,9,44.3,23.4,61.9,33.4,32.6,18.7,59.4,37.3,90.5,58.2-1,7-.7,12.2.3,19.4,1.3,9.9,4.8,19.6,9.9,28.6-21.7,31.9-46.1,60.9-74.5,87.2-12.6,11.7-25.5,22.9-38.7,33.9-11.6,9.6-30.1,19.3-39.6,31.9-76.2-88.2-94.4-206.2-48.5-309.8Z"/>
        </g>
      </g>
    </g>
    <g id="Calque_6" data-name="Calque 6">
      <g>
        <g>
          <path class="cls-2" d="m695.5,1095.26c-29.4-15.2-58.7-31.2-85.3-51-3.8,21.9-13.9,37.3-32.3,49.3,30.7,13.9,54.5,36.3,79.2,59.2,14.7,13.7,28.5,28.4,42,43.3,8.4,9.2,21.9,19.8,27.8,31.4,26.7-27.3,48-59.7,62.9-94.9-31.8-4.9-66.6-23-94.3-37.3Z"/>
          <path class="cls-2" d="m520.4,1106.96c-22.1-1.2-38-12.2-51.7-30.3-12.7,32.5-35.3,63.2-57.9,89.5-13.1,15.3-59.4,61-70.4,67.4,28.3,26,61.2,46.3,96.3,59.6,4-30.7,20.1-65.6,32.6-92.5,15.1-32.7,30.3-64.2,51.1-93.7Z"/>
          <path class="cls-2" d="m593.8,856.86c-15.1,31.4-30.4,65-50.7,93.4,22.4,2.2,35.5,9.9,49.1,27.4,13.2-30.2,35.5-54.1,57.3-78.7,13.4-15.1,27.7-29.2,42.3-43,9.3-8.8,20.8-24.6,32.9-30.9-23.4-22.7-50.9-41.4-81.9-54.7-5.4-2.3-10.8-4.3-16.3-6.3-3.4,31.7-19.3,65-32.7,92.8Z"/>
          <path class="cls-2" d="m551.6,1096.16c31.7-8,53.1-38.1,48.7-74.9-5.6-47.1-59.3-76.9-101.5-53.6-29,16-44.7,54.9-32.4,86.1,13.2,33.6,47.8,51.8,85.2,42.4Zm-57.9-67.4c.4-23.9,23.3-41.5,46.8-36.3,20.2,4.5,30.8,27.8,26.7,45.7-3.4,14.7-19.3,27.8-33.5,28.6-21.2,1.4-40.4-16.8-40-38Z"/>
          <path class="cls-2" d="m221.2,997.16c9.9,6.6,15.7,16.6,14.4,28.7-3.2,30.5-43.2,44.7-71.2,47.6,1.4,4.3,1.1,9.2,1.6,13.7.5,4.2,1,8.6.7,12.8,16.4-3.6,39.7.1,54.4,4.6,11.9,3.7,23.2,11.8,26.9,24.3,7.9,26.9-23.8,55.2-48.4,64,3.5,5.1,5.5,11.9,7.8,17.1,2,4.4,4.4,8.8,5.6,13.5,16.3-8.9,37.1-15.3,55-17.7,13.2-1.8,25.1.9,32.8,12.6,17.3,26-5.8,62-26.1,81.8,4.1,2.3,7.1,6.9,10.4,10.3,3,3,7.2,6.2,10.1,9.9,9.5-13.2,27.4-23.7,41.3-30.6,12.7-6.3,28.3-9.1,40.8-.5,23.3,16.1,16.7,57.3,3.5,79.9,6.4,1.7,12.5,5.7,18.3,8.5,4.1,2,8.3,3.8,11.9,6.3,6.8-17.3,18.3-35,30.3-48.7,8.7-9.9,19.8-15.7,33-12,30.7,8.4,36.2,52.1,33.2,80.3,4.1-.7,8.4-.1,12.7.3,4.8.4,10.8.5,16,1.7-1.4-17,6.4-40.2,13.9-54.6,5.8-11,16-20.6,28.8-21.8,27.6-2.6,49.7,33,54.2,58.7,5.7-2.7,12.9-3.5,18.7-4.9,4.4-1.1,9.1-2.7,13.7-3.1-6.5-18.5-9.7-42.5-7.9-61.3,1.1-12,7-21.5,18.3-26.3,28.4-12,60.3,16.9,76,40.2,3-3.5,7.6-6.1,11.1-8.6,3.9-2.7,8.3-5.9,13-7.5-12.5-11.7-21.8-35.6-25.5-51.5-2.8-12.1-1.5-26.2,7.5-35.6,19.7-20.5,59.7-7,79.6,9.9,2.5-5.2,6.6-9.8,9.9-14.4,3-4.2,5.9-9,9.6-12.8-15.6-9.1-30.8-23.7-41.9-37.3-8.3-10.1-13-21.1-7.7-33.8,12.6-30.4,57.5-28.5,85.4-20.7.1-4.5,2-9,3.5-13.3,1.6-4.6,3.4-9.5,5.9-13.8-16-1.8-33.8-11.7-46.7-20.1-11.8-7.8-22-19.8-20.9-34.9,2.2-29.4,41.6-42.3,68.2-41.3-2.1-6.6-1.4-13.8-1.5-20.7,0-5-.5-10.2,0-15.2-19.3,3.6-45.6,2.7-64.4-2.5-11.4-3.2-19.9-11.3-22.2-23.1-6-31,27.9-55.7,53.9-66.3-3.8-3.9-5.9-9.9-8.2-14.6-2.9-5.8-9.6-12.8-13.8-19.6-14.4,9.2-38.1,13.5-54.3,13.8-13.6.3-27.6-4.4-34.7-16.6-14.3-24.3,7.3-57.4,28.1-72.8-5.5-4.8-9.2-9-13.4-14-3-3.7-8.2-7.3-12.3-11.4-12.1,13.6-29.7,25.5-45.2,34.1-11.6,6.5-24.1,8.2-35.5.2-25.8-18-17-59.4-4.7-85.2-4.2-1.8-9.6-6.1-13.1-7.8-3.5-1.7-8.5-3.6-12.8-6-4.9,15.2-18.8,31.7-29,42.3-8.9,9.3-20.8,16.3-34.2,14.4-29.1-4.1-39.8-45.9-36.3-72.6-7.6,1.2-18.8-1.1-25.5-1.8-3.4-.4-6.1-.7-8.3-1,.2,18.6-4.2,39.7-10.4,56.7-4.6,12.5-13,21.5-26.8,22.7-31.2,2.7-52.9-35-60.8-62.3-4.2,2.5-9.7,3.6-14,4.8-3.7,1.1-8.6,3.2-13.3,4.5,7.2,15.4,8.4,38.1,7.1,53.9-1.1,13.2-7,26.6-19.6,32.5-25.6,11.9-59.8-13.9-73.1-36.5-4.1,5.3-11.2,8.9-16.4,12.6-3.5,2.5-7,5.4-10.8,7.7,11.8,13,20.5,30.1,27.7,45.8,5.9,12.9,8.5,26.2-1.3,37.9-21.8,25.9-64.8,8.7-88.5-7.9-1.3,4.9-4.8,9.4-7.6,13.5-2.7,4.1-5.6,8.4-9.4,11.6,15.6,6.2,30.3,21.7,40.6,34.3,9.2,11.3,15.4,26.4,9.2,40.7-11.3,26-52.3,26.9-77.4,18.5-2,7.1-4.4,14.9-6.6,21.6-1.3,3.9-2.1,7.8-3.3,11.7,20,3,44.4,11.9,60.4,22.5Zm88.8-159.2c91.6-104.7,253.7-132.8,372.9-58.6,102.7,64,162.5,195.3,131.3,314.1,0,0-.3,1.3-.8.8-.1.2-.1.5-.2.7-23.8,102.2-109.3,190.5-209.8,218.5-114.3,31.8-237.7-20.2-308.1-112.8-81.6-107.2-73.9-261.3,14.7-362.7Z"/>
          <path class="cls-2" d="m357.9,967.66c32.4,15.9,64.7,33.4,93.7,54.8,2.3-22.4,14-43.6,31.6-57.5-31.2-13.4-58.7-33.7-83.9-56.4-15-13.4-29-27.9-42.7-42.6-8.2-8.8-21.8-19.7-28.5-31.1-15.5,15.8-29.2,33.7-40.5,53.3-8,13.9-14.8,28.3-20.2,42.9,30.7,4.5,63.6,23.4,90.5,36.6Z"/>
        </g>
        <g>
          <path class="cls-2" d="m154.3,961.06c-1.4,6.3-4,12.2-3.1,18.5-.6,2.3.2,4.9,3.1,6.1,17.3,7.5,76.8,16.9,65.6,45.2-8,20.3-41.3,29.1-61.1,36.8-2.1,0-4.4,1.4-4.8,3.1-1.7,6,1.1,16,2.2,22.1.8,4.7.9,10.7,2.2,13.9,0,1.7.8,3.3,2.7,4.1,20.4,8.4,60.9-3.5,69.9,22,8.1,22.9-23.2,41.4-39.2,55.2-2.1.5-3.8,2.4-3.7,4.9.3,7.7,6.3,15.2,10,21.8,2.9,5.2,4.5,12.6,8.3,17.5,1,2.9,4.2,5.3,7.8,4.4,18.4-4.7,66.9-32,76.8-5.2,7.7,20.9-12.5,49.2-23.4,68-.6.7-1.3,2-2.5,4.5,2,5.8,8.5,9.2,13,13.2,4.3,3.8,9.9,8.8,15.3,11.6,1.2,1.8,3.6,3,5.9,2.3,19.7-6.3,40.9-38.2,63.8-31.7,26.8,7.7,12.3,57.4,10,75.6h0c-.1.6-.3,1.3-.4,2,5.8,5.5,15.1,8.2,22.5,11,5.5,2.1,10.8,6,16.6,7.1,2.5,1.7,6.2,2,8.1-.7,11.9-16.6,24.3-55.3,46.6-55.6,27.1-.4,30.8,46.3,34.5,68.8-.5,1.6.1,3.4,1.4,4.4.1.1.2.2.3.2s.1.1.2.1c5.7,2.7,12.2,1.4,18.3,1.6,6,.2,13.2,1.1,19.3,0,2,.5,4.3-.2,5.7-2.4,10.6-16.9,7.4-64.3,34-66.9,23.1-2.3,37,35.4,47.2,52,.4,1.5,1.5,2.6,3.4,2.8,8,.8,18-3.5,25.5-6,5.6-2,12.2-2.5,17.3-5.4,2.9-.3,5.6-2.4,5.3-6.2-1.4-18.1-20.6-75.1,9.5-78,22.1-2.1,44.8,22.7,61.1,36.2.6,1.5,2.1,2.7,3.8,2.5,6.3-.7,11.2-7.2,16-11s10.8-7.4,14.1-12.7c.1-.1,0-.3.1-.4,1.7-.8,2.9-2.5,2.6-4.7-2.9-21.1-32.5-49.5-18-70.6,14-20.5,49.5-1.8,69.1,5,1.5,1.7,4.1,2.4,6.2.9,6.1-4.4,9.2-11.9,13-18.2,3-5.1,8.3-10.7,10.8-16.6,2.8-2,3.8-6.6.9-9.6-12.4-13-55.9-37.3-46.9-59.5,9-22.3,54.5-17.2,75.1-17.3,1.4.5,3.1.4,4.2-1,3.8-5.1,4.1-11.8,5.8-17.8,1.6-5.4,4.3-11.5,4.8-17.3,1.3-2,1.2-5.1-.7-6.8-14.1-12.7-56.2-17.2-59.5-39.2-2.6-16.6,14.9-27.9,27.7-33.6,9.3-4.1,19.4-6.2,28.9-9.7,2.4.3,5.2-1.4,5.8-3.8,2-7.7-.4-16.9-1.2-24.7-.6-6.2-.7-12.7-3.5-18.2.9-3.1-.1-6.4-4.4-6.8-19.3-1.8-72.1,8.3-75.8-19.3-3.1-23.2,31.5-44.7,46.8-57.6,1.6-.6,2.8-2.2,2.7-4-.2-6.9-6.2-14-9.4-19.9-3.8-6.8-10-16.7-16.3-22.2-.9-1.5-2.5-2.6-4.6-2.7-20.8-1.1-66,27-77.3-1.9-8.2-20.9,11.9-42.8,22.4-60,1.9-1.5,3.1-4.4,2.4-6.4-2.6-7.3-10.7-12.8-16-18.3-4.4-4.5-9.8-11.3-16-14.3-1.8-1.8-4.5-2.5-7.3-.7-14.8,9.4-45.2,45.4-65.4,36.8-24.9-10.5-9.9-58.8-6.1-79,.6-1.6.5-3.5-.7-4.8-4.2-4.5-11.4-5.6-17-7.9-5.7-2.3-14.7-8.5-20.9-9.3-.3,0-.5.1-.6.3-.7.1-1.4.3-2,.8-16.4,13-24.4,45.7-45.9,51.6-30.6,8.5-37.9-43.7-39.3-65,0-.4-.3-.7-.7-.8-.3-.7-.7-1.3-1.5-1.6-7.5-3.2-16.6-2.1-24.6-2.4-5.7-.2-12.9-1-19.2,0-3.1-.8-6.8.6-7.7,4.4-4.4,17.8-4.2,78.6-34.2,70.5-22.1-5.9-35.6-36.9-47.3-55.1-.2-.7-.7-1.2-1.3-1.6-.1,0-.1-.1-.2-.1-.4-.2-.8-.4-1.3-.4-6.3-.8-12.1,3-17.9,5.1-5.3,1.9-13.5,4.1-18.8,7.3-1.9.4-3.6,1.7-4,3.9-3.7,20.7,16.8,61.4-7.1,74-21,11.1-47.1-11.2-65.2-28.8-.4-.6-.9-1.1-1.5-1.5-.2-.2-.4-.4-.6-.6-.3-.3-.7-.3-1,0-.8-.2-1.6-.2-2.5,0-7.3,1.6-13.7,9.5-19.3,14.3-4.3,3.7-10.3,7.2-13.7,12.1-2.5,1.4-4.1,4.1-2.7,7,4.6,9.6,11,18,16.3,27.2,2.9,4.9,5.6,10,8.2,15.1,4.9,9.8,7.1,12.5,3.1,23.4s-9,13.5-20.4,13.8c-7.1.2-15.5-1.6-22.4-3.1-12.6-2.8-25-8.2-37.2-12-.3-.1-.6-.1-.9,0-.6,0-1.3.2-1.9.6-5.1,3.4-7.1,10.2-10.1,15.4-3.2,5.5-7.1,10.9-8.7,17.2-.1.2,0,.4,0,.6-1.1,1.7-1.4,4.1-.3,5.9,10.5,18,56.6,39.1,41.2,63.8-12.3,19.7-44.2,15.2-65,16-1-.2-2-.1-3,.2h-.2c-.1,0-.1.1-.1.1-.3.1-.6.3-.9.4,0,0-.1,0-.1.1-.8.4-1.5.9-2,1.7-4.6,6.5-5.1,16.3-6.9,23.9Zm94.2-38c6.2-14.3,0-29.4-9.2-40.7-10.3-12.6-25-28.1-40.6-34.3,3.8-3.2,6.7-7.6,9.4-11.6,2.7-4.1,6.3-8.6,7.6-13.5,23.8,16.6,66.8,33.9,88.5,7.9,9.8-11.7,7.2-25,1.3-37.9-7.2-15.7-15.9-32.8-27.7-45.8,3.8-2.2,7.3-5.2,10.8-7.7,5.2-3.7,12.3-7.3,16.4-12.6,13.3,22.6,47.5,48.4,73.1,36.5,12.6-5.9,18.6-19.3,19.6-32.5,1.3-15.9.1-38.5-7.1-53.9,4.7-1.3,9.7-3.4,13.3-4.5,4.3-1.2,9.9-2.3,14-4.8,7.8,27.3,29.6,65,60.8,62.3,13.8-1.2,22.3-10.2,26.8-22.7,6.2-17,10.6-38.1,10.4-56.7,2.2.3,5,.6,8.3,1,6.6.7,17.9,3,25.5,1.8-3.5,26.7,7.2,68.5,36.3,72.6,13.4,1.9,25.2-5.1,34.2-14.4,10.1-10.6,24-27.1,29-42.3,4.3,2.4,9.3,4.3,12.8,6,3.4,1.7,8.9,5.9,13.1,7.8-12.4,25.8-21.2,67.2,4.7,85.2,11.5,8,23.9,6.2,35.5-.2,15.5-8.6,33.1-20.4,45.2-34.1,4.1,4,9.3,7.7,12.3,11.4,4.1,5,7.9,9.2,13.4,14-20.8,15.4-42.4,48.5-28.1,72.8,7.2,12.2,21.2,16.9,34.7,16.6,16.2-.4,39.9-4.7,54.3-13.8,4.1,6.8,10.9,13.8,13.8,19.6,2.3,4.7,4.4,10.7,8.2,14.6-26,10.6-59.9,35.2-53.9,66.3,2.3,11.8,10.7,19.9,22.2,23.1,18.8,5.2,45.1,6.1,64.4,2.5-.5,5-.1,10.2,0,15.2.1,6.9-.6,14.2,1.5,20.7-26.6-1-66,11.9-68.2,41.3-1.1,15.1,9,27,20.9,34.9,12.8,8.5,30.6,18.4,46.7,20.1-2.5,4.3-4.3,9.2-5.9,13.8-1.5,4.2-3.4,8.8-3.5,13.3-27.9-7.8-72.8-9.7-85.4,20.7-5.3,12.7-.6,23.7,7.7,33.8,11.1,13.6,26.3,28.2,41.9,37.3-3.7,3.8-6.6,8.6-9.6,12.8-3.3,4.6-7.5,9.2-9.9,14.4-20-16.8-60-30.3-79.6-9.9-9,9.4-10.3,23.4-7.5,35.6,3.7,15.9,13.1,39.7,25.5,51.5-4.7,1.6-9.1,4.8-13,7.5-3.5,2.4-8.1,5.1-11.1,8.6-15.7-23.2-47.6-52.2-76-40.2-11.3,4.8-17.2,14.4-18.3,26.3-1.7,18.8,1.5,42.8,7.9,61.3-4.6.5-9.3,2-13.7,3.1-5.8,1.5-13,2.3-18.7,4.9-4.4-25.7-26.5-61.3-54.2-58.7-12.9,1.2-23.1,10.7-28.8,21.8-7.5,14.4-15.3,37.6-13.9,54.6-5.2-1.3-11.1-1.3-16-1.7-4.3-.3-8.6-.9-12.7-.3,3-28.2-2.6-71.9-33.2-80.3-13.2-3.6-24.3,2.1-33,12-12,13.7-23.5,31.4-30.3,48.7-3.6-2.5-7.8-4.3-11.9-6.3-5.8-2.8-11.9-6.8-18.3-8.5,13.2-22.6,19.7-63.8-3.5-79.9-12.5-8.6-28.1-5.8-40.8.5-13.9,6.9-31.8,17.5-41.3,30.6-2.9-3.7-7.1-6.9-10.1-9.9-3.3-3.3-6.2-8-10.4-10.3,20.2-19.8,43.3-55.8,26.1-81.8-7.7-11.6-19.7-14.3-32.8-12.6-17.9,2.4-38.7,8.8-55,17.7-1.3-4.7-3.7-9.1-5.6-13.5-2.3-5.2-4.3-12.1-7.8-17.1,24.6-8.8,56.3-37,48.4-64-3.7-12.5-15-20.6-26.9-24.3-14.7-4.5-38-8.3-54.4-4.6.3-4.3-.1-8.6-.7-12.8-.6-4.5-.3-9.5-1.6-13.7,28-3,68-17.1,71.2-47.6,1.3-12.1-4.5-22.1-14.4-28.7-16-10.6-40.4-19.5-60-22.3,1.2-3.9,2-7.8,3.3-11.7,2.1-6.7,4.6-14.5,6.6-21.6,24.6,8.2,65.6,7.3,77-18.7Z"/>
          <path class="cls-2" d="m533.7,1066.86c14.2-.9,30-14,33.5-28.6,4.2-17.9-6.5-41.2-26.7-45.7-23.5-5.3-46.3,12.4-46.8,36.3-.4,21.1,18.8,39.3,40,38Zm1-64.2c16.9,1.8,26.7,13.6,25.8,27.6-.7,11.3-9.1,20.8-21,24.7-14.1,4.6-30.2-5.4-34-19.3-4.9-18.2,11.4-34.9,29.2-33Z"/>
          <path class="cls-2" d="m295.3,1200.76c70.4,92.6,193.8,144.6,308.1,112.8,100.6-28,186-116.3,209.8-218.5.1-.2.1-.5.2-.7.5.5.8-.8.8-.8,31.2-118.8-28.5-250.2-131.3-314.1-119.1-74.2-281.3-46.1-372.9,58.6-88.6,101.3-96.3,255.4-14.7,362.7Zm203.5-233.1c42.2-23.3,95.9,6.5,101.5,53.6,4.4,36.8-17.1,66.9-48.7,74.9-37.4,9.4-72-8.8-85.2-42.3-12.3-31.3,3.4-70.1,32.4-86.2Zm111.4,76.5c26.6,19.8,55.9,35.8,85.3,51,27.7,14.3,62.4,32.4,94.4,37.4-15,35.2-36.3,67.5-62.9,94.9-5.9-11.7-19.4-22.2-27.8-31.4-13.5-14.9-27.3-29.6-42-43.3-24.7-22.9-48.5-45.3-79.2-59.2,18.3-12.1,28.5-27.4,32.2-49.4Zm-89.8,62.8c-20.8,29.5-36,61-51.1,93.7-12.4,26.9-28.6,61.9-32.6,92.5-35.1-13.3-68-33.6-96.3-59.6,11-6.4,57.3-52.1,70.4-67.4,22.6-26.4,45.3-57,57.9-89.5,13.7,18.1,29.6,29.1,51.7,30.3Zm121.2,181.2c-64.1,29.7-134.7,29.9-198.4,7.4,6.3-13,9.7-27.7,14.6-41.3,6.6-17.8,13.6-35.5,21.2-52.9,14.3-32.4,31.6-62.8,48.2-94,3.6,0,27.8.4,44-9.8,30,18.7,57.3,40,82.6,64.9,11.5,11.3,22.6,23,33.4,34.9,9.4,10.4,20.2,28.5,32.6,37.1-22.7,21.9-48.9,40.1-78.2,53.7Zm173.5-274.6c0,.1-.1.2-.1.4-.5,38.8-8.3,77.1-22.5,112.5-11.8-6.4-25.2-10.1-37.6-15.2-17.6-7.2-35-14.8-52.1-23-31.8-15.3-61.5-33.6-91.9-51.3.5-4.2.7-8.4.4-12.6-.8-15-5.9-28.7-13.9-40.2,17.7-29.6,38-56.8,61.8-82,11.1-11.7,22.5-23.1,34.2-34.1,10.6-10,30.6-22.3,38.8-35.5,46.7,48.6,75.8,113.5,82.9,181Zm-90.3-188.5c-12.1,6.3-23.6,22-32.9,30.9-14.6,13.8-29,28-42.3,43-21.9,24.7-44.1,48.5-57.3,78.7-13.6-17.5-26.7-25.2-49.1-27.4,20.3-28.4,35.5-62,50.7-93.4,13.4-27.8,29.4-61.1,32.9-92.7,5.5,1.9,10.9,4,16.3,6.3,30.8,13.2,58.3,31.9,81.7,54.6Zm-103.7-62.8c-7.6,13.6-11.3,29.5-16.9,44-6.9,17.7-14.2,35.3-22.1,52.5-14.3,31-31.4,60.2-47.9,89.9-7.5-.4-15.1.3-22.8,2.2-9.1,2.3-17.5,6.3-25,11.7-30.4-18.3-58.2-39.1-83.9-63.7-11.6-11.1-22.9-22.6-33.9-34.4-9.6-10.3-20.5-28.5-33-37.1,74.6-70.7,186.3-97.7,285.5-65.1Zm-293,72.6c6.6,11.4,20.2,22.3,28.5,31.1,13.8,14.7,27.8,29.1,42.7,42.6,25.2,22.7,52.7,43,83.9,56.4-17.6,13.9-29.4,35.1-31.6,57.5-29.1-21.5-61.4-39-93.7-54.8-26.9-13.2-59.8-32-90.6-36.5,5.5-14.6,12.2-29,20.2-42.9,11.4-19.7,25.1-37.5,40.6-53.4Zm-64.2,106c14.5,3.7,23.9,7.7,37.5,13.1,17.7,7,43.3,18.4,60.5,26.5,32,14.9,58.5,30.2,89.2,47.4-.4,6.7.3,11.5,1.8,18.1,2,9.2,6,18,11.5,26-17.8,31.5-38.4,60.5-62.9,87.3-10.9,11.9-22.1,23.4-33.6,34.7-10.1,9.9-26.6,20.4-34.6,32.9-78.1-76.5-104.2-185.5-69.4-286Z"/>
        </g>
      </g>
    </g>
    <g id="Calque_7" data-name="Calque 7">
      <g>
        <g>
          <path class="cls-2" d="m1010.1,1287.76c7.6,4.7,15.7,8.1,23.9,10.2,13.1,3.2,26.5,2.9,38.5-1.1,35.6-11.9,51.3-48.1,48.4-77.7-1.6-16.5-14.3-33.2-24.6-42.4-13.3-11.9-23.5-16-45.3-18.4-18.1-2-36.6,5.2-50.8,19.7-16.6,17-24.8,40.8-21.8,63.7,2.4,18.1,14,34.9,31.7,46Zm14.1-76.9c4-5.2,12.4-11.6,22.6-12.7,3.4-.4,6.8-.2,10.1.7,5.1,1.2,10.1,3.9,14.9,7.8,6.9,5.6,11.3,15.8,10.7,24.7-1,15.8-12.9,29.1-27.8,30.9-9.7,1.2-20-2-27.6-8.6-6.6-5.7-10.3-13.2-10.5-21.2-.1-7.4,2.6-15.2,7.6-21.6Z"/>
          <path class="cls-2" d="m1024.9,1345.66c22.1,3.8,46.9.9,64.9-7.4,23.1-10.7,40.7-20.2,57.1-45.5,16.2-25.1,21.7-57.1,15.1-87.7-6.8-31.6-25.1-58.3-51.6-75.3-41.7-26.8-95-21.7-135.8,13-40.7,34.7-54.4,86-34.9,130.9,16.6,38.3,49.3,65.9,85.2,72Zm-37.6-167.2c16.5-23.5,46.6-35,76.5-29.3,1.4.3,2.8.6,4.2.9,29.7,7.3,51.7,30,59.4,61.8,7.5,31.1-3.2,61.1-28.7,80.1-27.1,20.2-63.5,22.3-92.7,5.3-18.4-10.7-30.5-26.9-34.8-46.8-5.1-23.5.9-50.4,16.1-72Z"/>
          <path class="cls-2" d="m914.7,1210.26c-5.2,17.9-28.9,23.3-44.7,21.5.4,2.3.3,4.7.1,6.9,0,.6-.1,1.2-.1,1.8-.1,2-.2,4-.5,6,16.4-.5,47,3.9,50.5,23.9,3.3,18.6-15.9,33.8-31,39,1.3,1.8,2.2,4.1,3.1,6.1.2.6.5,1.2.7,1.7.9,2.1,1.9,4.5,2.5,7,15.8-8.7,43-16.4,55.3-2.7,13.3,14.9,2.6,38.1-9.5,50.4,2.2,1.1,4.1,2.9,5.9,4.5.5.4.9.8,1.3,1.2,1.3,1.1,2.9,2.5,4.3,4.2,9.7-13.5,30.1-33.4,48.2-25.8,18.4,7.7,18.6,33.3,12.9,49.5,2.9.3,5.8,1.1,8.5,1.8h.2c1,.3,2.2.5,3.3.7,1.3.3,2.7.5,4,.9,2.9-18,14.5-45.6,34.1-45.3,19.1.3,30,22.5,31.8,38.7,2.1-.9,4.5-1.3,6.6-1.6.7-.1,1.4-.2,2-.3,1.7-.3,3.7-.7,5.7-.9-4.8-17.5-5.7-45.8,10.7-54,17.6-8.7,37.4,6.8,46.3,20.9,1.5-1.7,3.4-3.1,5.2-4.4.5-.4,1-.7,1.4-1,.8-.6,1.6-1.3,2.6-2.1s2-1.7,3.1-2.5c-10.3-11.6-26-36.9-14.1-53.2,11.6-15.9,36.5-10.7,51-1.7.6-2.3,1.8-4.6,3-6.6.3-.5.6-1.1.9-1.6.8-1.5,1.8-3.3,2.9-5-15.1-6.6-41-23.8-35.2-43.7,5.2-17.9,28.9-23.3,44.7-21.5-.4-2.3-.3-4.7-.1-6.9,0-.6.1-1.2.1-1.8.1-2.8.2-5.9,1-8.7-19.7,1.4-49.4-3.6-53-23.4-3.4-18.6,15.6-33.9,30.6-39.2-1.3-1.8-2.3-4.1-3.1-6.1-.3-.6-.5-1.2-.7-1.7-.7-1.6-1.5-3.5-2.2-5.4-14.7,8.4-41.9,16.3-54.5,2.2-13.6-15.2-3.4-39.3,8-51.2-1.6-1.1-3.1-2.4-4.5-3.6-.5-.4-.9-.8-1.4-1.2-1.3-1.1-2.8-2.5-4.2-4-8.9,13.2-30,34.9-48.9,27-18.3-7.7-18.6-33.3-13-49.5-1.3-.1-2.7-.3-4-.6-1-.3-2-.5-3-.8-.6-.2-1.1-.3-1.6-.5-1.8-.5-3.7-1-5.6-1.8-3.5,18.5-15.4,44.8-34.9,43.8-18.7-1-29.2-23.1-30.9-38.9-2.1.8-4.5,1.2-6.6,1.6-.7.1-1.4.2-2,.3-2.3.4-4.8.8-7.3.9,4.9,17.2,6.2,46.6-10.5,54.8-17.6,8.7-37.4-6.8-46.3-20.9-1.5,1.7-3.4,3.1-5.2,4.4-.5.4-1,.7-1.4,1-1.5,1.1-3.3,2.4-5.2,3.5,10.7,12.8,25.2,37.6,13.9,53-11.7,15.9-36.6,10.4-51,1.3-.6,2.3-1.9,4.6-3,6.6-.3.5-.6,1-.9,1.6-.5.9-1,2.1-1.6,3.3-.6,1.3-1.2,2.6-1.8,3.8,18.4,7.3,42.7,25,37.1,44.3Zm63.8-82.8c30.8-22.7,67.3-29.7,100.7-21.5,20.4,5,39.6,15.6,55.6,31.7,36.7,36.8,48.5,92.5,29.2,138.6l-.4,1.1c-2.4,5.8-5.4,13-20.6,33.6-13.6,18.4-35.8,32.5-62.5,39.7-25.5,6.9-52.3,6.4-73.4-1.3-42.2-15.4-74-51.9-82.9-95.3-9.5-46.5,11.3-95,54.3-126.6Z"/>
        </g>
        <g>
          <path class="cls-2" d="m867.7,1169.56c.1,1.2.7,2.3,1.8,3.1,2.6,2.1,6.3,4.2,10.3,6.5,11.6,6.8,26,15.2,24.3,27.2-1.8,13.3-24.4,17.5-36.6,19.7l-1.7.3c-1.4-.1-2.6.5-3.2,1.8-1.9,3.7-1.8,9.2-1.6,12.9,0,1.5-.2,3.1-.4,4.6-.2,1.4-.4,2.8-.5,4.3-.5,1.3-.4,2.9.2,4.1.6,1.2,1.8,2,3.3,2.4,3.1.7,7.3,1,11.7,1.4,13.9,1.2,31.2,2.7,34,15,2.8,12.5-14.5,25-24.8,32.5l-1.5,1.1c-1.2.4-2,1.3-2.1,2.5-.4,3.7,1.6,7.5,3.4,10.8.3.5.6,1.1.8,1.6.7,1.3,1.2,2.9,1.6,4.6.6,2.1,1.2,4.2,2.3,6,.6,2.3,3.3,4.3,6.2,3.7,4.1-.9,8.5-2.7,13.2-4.5,10-3.9,20.4-8,29.6-4.6,3.6,1.3,6,3.7,7.2,6.8,4,10.6-5.6,28.5-10.7,38.1l-.5.9c-.8.9-.9,2-.4,3.1,1.8,3.8,5.5,6.5,8.7,8.9l.2.2c1,.7,2,1.7,3.1,2.7,2.6,2.5,5.7,5.4,9.3,5.9.3,0,.5,0,.6-.1l.3.1.3-.2c3-2.5,6.2-5.8,9.5-9.4,7.9-8.5,16.9-18.2,27.3-17.9,3.4.1,6.2,1.4,8.4,3.8,7.7,8.3,6.9,28.1,6.4,38.8-.5,1.5-.1,3,.9,3.8,3,2.5,7.1,3.2,10.7,3.9l.9.2c1.1.2,2.4.5,3.7.9,2.7.7,5.8,1.5,8.4,1.6,2,.9,4.7.6,6.1-2.2,1.6-3.2,2.9-7.6,4.3-12.2,3.7-12.1,8.3-27.1,19.4-29.2,13.7-2.7,23.3,19.6,28.4,31.5.4.9.8,1.8,1.1,2.6.1.1.1.2.2.3l.1.2c.3.4.6.6.9.7.1.1.2.2.4.3,4.2,1.4,8.3.3,12.2-.7,1.4-.4,3.1-.5,4.8-.7,1.8-.1,3.7-.3,5.5-.8,1.3.1,2.7-.3,3.8-1.2,1.1-1,1.7-2.3,1.7-3.8,0-3.9-.6-8.5-1.3-13.3-1.7-11.9-3.7-25.5,4.9-32.8,11.3-9.6,28.9,5.8,39.4,14.9l1.3,1.1c.7,1.1,1.9,1.7,3,1.5,3.3-.6,5.7-2.9,8-5.2.8-.8,1.6-1.6,2.4-2.3.5-.4,1-.8,1.6-1.3,2.3-1.8,5.3-4.4,7.5-6.7.6-.5,1-1,1.3-1.5.4-.5.7-1,1-1.4.2-.4.2-.7.1-.9,0-.1-.1-.2-.2-.3.1-.9,0-1.6-.4-2.3-1.7-3.5-4.2-7-6.8-10.7-6.3-9.1-12.7-18.5-10.4-28.4.8-3.4,2.7-5.9,5.5-7.6,9.7-5.8,28.7-.6,38.9,2.1l.7.2c1.2.8,2.5.8,3.5-.1,3-2.5,5.3-5.8,7.2-10,.5-1.3,1.3-2.6,2.1-4,.8-1.5,1.7-3.1,2.4-4.6,1.2-.9,2-2.3,2-3.7,0-.9-.3-2.3-1.8-3.5-2.6-2.1-6.3-4.2-10.3-6.5-11.6-6.8-25.9-15.2-24.3-27.2,1.8-13.3,24.4-17.4,36.6-19.7l1.7-.3c1.4.1,2.6-.6,3.2-1.8,1.4-2.8,1.1-6,.8-9.1-.1-1.1-.2-2.1-.3-3.1,0-1.3.1-3.1.2-4.9.2-2.6.4-5.5.2-7.9.3-1.3.1-2.7-.5-3.8-.7-1.1-1.7-1.8-3.1-2.1-3.1-.7-7.3-1-11.7-1.3-13.9-1.1-31.2-2.4-34.1-14.6-3-12.5,14.2-25.2,24.5-32.7l1.5-1.1c1.2-.4,2-1.3,2.1-2.5.4-3.9-1.9-8.1-3.7-11.5l-.5-1c-.6-1.1-1.2-2.5-1.8-3.9-.8-1.9-1.6-3.9-2.6-5.6-.3-1.3-.9-2.3-1.9-2.9-.9-.6-1.9-.7-3-.5-4.1.9-8.5,2.7-13.2,4.5-10,4-20.4,8-29.6,4.6-3.6-1.4-6-3.7-7.2-6.9-4-10.6,5.5-28.5,10.6-38.1l.2-.4c1.1-.9,1.4-2.2.8-3.4-1.4-2.9-4-4.7-6.5-6.3-.8-.5-1.6-1.1-2.4-1.7-.8-.6-1.5-1.2-2.3-1.7-2.6-2-5.3-4.2-8.3-5.2h-.1c-1.5-.8-3.1-.7-4.3.3-3,2.4-5.9,5.6-9.1,8.9-7.6,8.1-16.2,17.2-26.7,16.9-3.4-.1-6.2-1.4-8.4-3.8-7.8-8.4-6.9-28.2-6.4-38.8v-.3c.5-1.3.1-2.6-.9-3.5-3.7-3-8.3-4.3-11.5-5-1.2-.2-2.5-.6-3.8-.9-1.7-.4-3.4-.9-5.1-1.2-.6-.5-1.4-.9-2.1-1.1-.6-.2-1.3-.2-1.9-.1-1.4.3-2.5,1.2-3.2,2.6-1.5,3-2.9,7.2-4.3,11.7-4.2,13-9.5,29.2-21.9,29.3-12.9,0-21.2-19.6-26.2-31.4l-.7-1.8c-.1-1.3-.7-2.2-1.8-2.6-4.1-1.5-9.3-.4-13.4.7-1.3.3-2.8.6-4.4.8-2.3.3-4.7.7-6.8,1.4-2.3.2-4.6,2-4.7,5,0,3.9.6,8.5,1.3,13.3,1.7,11.9,3.7,25.5-5,32.8-11.3,9.6-28.9-5.8-39.4-14.9l-1.3-1.1c-.7-1.1-1.9-1.7-3-1.5-4.5.8-7.8,3.5-10.6,5.9-1,.9-2.3,1.7-3.7,2.6-1.5.9-3,1.9-4.3,3-1.6.4-2.9,1.5-3.6,2.8-.5,1.1-.5,2.4,0,3.5,1.7,3.5,4.3,7.3,7,11.3,6.5,9.6,13.9,20.6,11.4,30.6-.8,3.4-2.7,5.9-5.6,7.6-9.8,5.7-28.7.4-38.9-2.5l-.7-.2c-1.2-.8-2.5-.8-3.5.1-2.5,2.1-3.6,5-4.7,7.8-.3.9-.7,1.8-1.1,2.7-.4,1-1,2.2-1.7,3.5-1.3,2.6-2.7,5.5-3.7,8.1-1.3.6-1.8,1.8-1.7,3Zm123.2-116.1c2.5,0,4.9-.4,7.3-.9.6-.1,1.3-.2,2-.3,2.2-.3,4.6-.7,6.6-1.6,1.7,15.9,12.1,37.9,30.9,38.9,19.5,1.1,31.4-25.3,34.9-43.8,1.9.7,3.8,1.3,5.6,1.8.5.1,1.1.3,1.6.5,1,.3,2,.6,3,.8,1.3.3,2.7.6,4,.6-5.7,16.2-5.4,41.8,13,49.5,18.9,8,40-13.8,48.9-27,1.4,1.5,2.9,2.9,4.2,4,.4.4.9.8,1.4,1.2,1.4,1.2,2.9,2.6,4.5,3.6-11.4,11.9-21.7,35.9-8,51.2,12.6,14.1,39.8,6.2,54.5-2.2.6,1.9,1.5,3.8,2.2,5.4.2.5.5,1.1.7,1.7.8,2,1.8,4.3,3.1,6.1-15,5.3-34,20.7-30.6,39.2,3.6,19.7,33.3,24.8,53,23.4-.8,2.8-.9,5.9-1,8.7,0,.6-.1,1.2-.1,1.8-.1,2.2-.3,4.7.1,6.9-15.7-1.8-39.5,3.6-44.7,21.5-5.8,19.9,20.1,37.1,35.2,43.7-1.1,1.7-2.1,3.4-2.9,5-.3.5-.6,1-.9,1.6-1.1,2-2.3,4.3-3,6.6-14.5-9-39.3-14.2-51,1.7-11.8,16.3,3.8,41.6,14.1,53.2-1.1.8-2.2,1.7-3.1,2.5s-1.8,1.5-2.6,2.1c-.5.3-.9.7-1.4,1-1.8,1.3-3.7,2.7-5.2,4.4-8.9-14.1-28.7-29.6-46.3-20.9-16.5,8.1-15.5,36.4-10.7,54-2,.2-4.1.6-5.7.9-.6.1-1.3.2-2,.3-2.1.4-4.6.8-6.6,1.6-1.9-16.2-12.8-38.4-31.8-38.7-19.6-.3-31.2,27.3-34.1,45.3-1.3-.4-2.7-.7-4-.9-1.2-.2-2.3-.5-3.3-.7h-.2c-2.7-.8-5.5-1.5-8.5-1.8,5.7-16.2,5.4-41.8-12.9-49.5-18-7.6-38.5,12.4-48.2,25.8-1.4-1.6-3-3.1-4.3-4.2-.4-.4-.9-.8-1.3-1.2-1.8-1.6-3.7-3.3-5.9-4.5,12.1-12.2,22.8-35.5,9.5-50.4-12.2-13.7-39.4-6-55.3,2.7-.6-2.5-1.6-4.9-2.5-7-.2-.5-.5-1.1-.7-1.7-.8-2-1.8-4.3-3.1-6.1,15.1-5.2,34.3-20.4,31-39-3.5-20.1-34.1-24.4-50.5-23.9.3-2,.4-4,.5-6,0-.6.1-1.2.1-1.8.1-2.2.3-4.6-.1-6.9,15.7,1.8,39.5-3.6,44.7-21.5,5.6-19.3-18.7-37-36.8-44.4.7-1.3,1.2-2.6,1.8-3.8s1.1-2.4,1.6-3.3c.3-.5.6-1,.9-1.6,1.1-2,2.4-4.3,3-6.6,14.4,9.1,39.3,14.6,51-1.3,11.4-15.4-3.1-40.3-13.9-53,1.9-1.1,3.6-2.4,5.2-3.5.5-.3.9-.7,1.4-1,1.8-1.3,3.8-2.7,5.2-4.4,8.8,14.1,28.6,29.6,46.3,20.9,16.4-8.1,15-37.5,10.2-54.7Z"/>
          <path class="cls-2" d="m924.2,1253.96c8.9,43.4,40.7,79.9,82.9,95.3,21.1,7.7,47.9,8.2,73.4,1.3,26.7-7.2,48.9-21.3,62.5-39.7,15.2-20.6,18.1-27.8,20.6-33.6l.4-1.1c19.3-46.1,7.6-101.8-29.2-138.6-16.1-16.1-35.3-26.7-55.6-31.7-33.4-8.2-69.9-1.2-100.7,21.5-43,31.7-63.8,80.2-54.3,126.6Zm50.3-111.2c40.8-34.7,94.1-39.8,135.8-13,26.5,17,44.8,43.8,51.6,75.3,6.6,30.6,1.1,62.6-15.1,87.7-16.3,25.3-33.9,34.8-57.1,45.5-18,8.3-42.8,11.1-64.9,7.4-35.8-6.1-68.5-33.7-85.2-72-19.5-44.8-5.8-96.2,34.9-130.9Z"/>
          <path class="cls-2" d="m1006,1297.16c29.2,17,65.6,14.9,92.7-5.3,25.5-19,36.2-48.9,28.7-80.1-7.7-31.7-29.7-54.5-59.4-61.8-1.4-.3-2.8-.6-4.2-.9-29.9-5.7-60,5.8-76.5,29.3-15.2,21.6-21.2,48.5-16.1,72,4.3,19.9,16.4,36.1,34.8,46.8Zm-5.7-119.3c14.2-14.5,32.7-21.7,50.8-19.7,21.9,2.4,32,6.5,45.3,18.4,10.4,9.3,23,25.9,24.6,42.4,2.9,29.6-12.8,65.8-48.4,77.7-12,4-25.4,4.3-38.5,1.1-8.3-2-16.4-5.4-23.9-10.2-17.8-11.1-29.3-27.9-31.7-46.1-3-22.8,5.1-46.6,21.8-63.6Z"/>
          <path class="cls-2" d="m1027.2,1253.66c7.6,6.6,18,9.8,27.6,8.6,14.9-1.8,26.8-15.1,27.8-30.9.5-8.9-3.9-19.1-10.7-24.7-4.8-4-9.8-6.6-14.9-7.8-3.3-.8-6.7-1-10.1-.7-10.2,1.1-18.6,7.6-22.6,12.7-5,6.3-7.7,14.2-7.5,21.5.1,8.1,3.8,15.6,10.4,21.3Zm7.5-44.3c4.3-3.8,9.4-5.2,14.3-4.1h.1c6.1,1.5,25.4,7.5,25,24.4-.2,9.5-9.2,21.2-18.3,23.7-3.7,1-7.8,1-11.8,0-3.1-.8-6.1-2.1-8.8-3.9-5.5-3.7-8.8-8.9-9.4-14.6-1.1-10,2.4-19.7,8.9-25.5Z"/>
        </g>
      </g>
    </g>
    <g id="Calque_8" data-name="Calque 8">
      <g>
        <path class="cls-2" d="m559.4,1603.66c14.1-.4,29.9,9.2,33.4,23.3,3.5,14.2-5.8,26.4-18.4,31.2,1.4,1.7,2.5,3.7,3.8,5.4,2.5,3.3,5,6.4,7.5,9.7,9.2-11.9,27.7-18.3,41.4-10.4,12.7,7.3,14.9,22.8,9.8,35.3,6.7-3.2,14.4-4.3,21.8-5.3-2.7-13.2,2.8-29.3,14.8-35.8,13.2-7.1,27.6-.6,35.3,10.9,1.3-2.1,3.3-3.9,5-5.9,2.6-3.2,5.1-6.5,7.6-9.7-13.4-5.5-23.9-21.7-20.5-36.3,3.5-14.8,16.6-21.5,30.6-19.4-3.1-3.7-3.4-7.7-5.6-12.2-1.1-2.2-2.6-4.8-3.5-7.4-12.1,5.7-29,4.2-38.1-5.8-10.3-11.2-7.3-26.6,1.9-36.9-2.5-.7-5-2.5-7.3-3.6-3.7-1.7-7.5-3.3-11.2-5-2.1,14.8-15.9,29.2-31.3,28.8-14.6-.4-24.1-13-25.5-26.4-2.7,3.6-5.8,6.4-9.4,9.4-2,1.7-4.4,4.2-7,5.8,8.5,10.3,11.3,27,3.8,38.3-7.5,11.4-23,10.4-34.2,4.8-.3,1.3-.8,2.6-1,3.3-1.4,4.7-2.4,9.3-3.7,13.9Zm79.7-26.7c21.5-2.6,40.5,16.7,39.1,38-.9,13.8-9.2,27.5-22.1,33.1-11.9,5.1-26.3,3.2-35.7-5.8-6.3-5.9-11.8-14.1-13.5-22.7-4.1-20.4,12-40.1,32.2-42.6Z"/>
        <g>
          <path class="cls-2" d="m586.7,1542.36c0,.1.1.2.1.3,0,.4,0,.8.2,1.3,4.2,9.4,10.6,17.8,6.9,28.8-4.4,13.1-20.3,11.5-31.1,7.7-.9-.3-1.9,0-2.6.6-.6.3-1.2.8-1.5,1.4-1.6,4.1-2.8,8.2-3.5,12.6-.7,4.4-.5,7.5.5,11.8,0,1.1.5,2.1,1.7,2.5,10,3.4,21.1,4.7,26.3,15.4,6.3,13-3.9,24.5-15,30.3-1.7.9-1.8,2.7-.9,3.7.3,3.8,3.9,7.3,6.3,10,3.6,4.2,6.9,7,11.8,9.5h.1c.9.6,2.1.8,3.3,0,9.5-6.4,19.5-15.2,31.9-9.7,11.6,5.2,12.5,19.1,10.4,29.9-.4,1.8,1.3,2.9,2.8,2.6.1.1.2.2.4.2,9,1.4,18.1-.7,27.1-1.6,1.5-.1,3.2-1.5,3.3-3.1v-.4c.1-.2.1-.3.1-.5.8-11-.8-22.7,9.3-30.3,10.9-8.3,24.2-.9,32.1,7.9,1.2,1.3,2.8,1.1,3.7.1,4.3-.5,7.2-5.6,9.5-8.8,3.1-4.5,5.1-8.4,6.3-13.7v-.2c.3-1,.1-2.2-.9-3.2-8-7.6-18.4-14.1-17.2-26.9,1.3-13.4,14.8-18.5,26.6-19,1.9-.1,2.4-1.9,1.8-3.3.1-.1.1-.3.1-.5-.5-6-2.6-11.1-4.7-16.7-1.6-4.2-2.2-10.3-7.1-11.5h-.4c-.2,0-.4-.1-.7,0-10.2,1.7-19.9,5.9-29.6-.4-12.6-8.2-9.4-23.6-2.2-34.3.9-1.4.1-3.4-1.2-3.9-1.5-3.7-6.6-5.2-10.2-6.6-5.4-2.1-9.8-3.2-15.6-3-.1,0-.1.1-.2.1-1.1,0-2.2.5-2.9,1.7-5.6,10.1-10.1,22.9-23.9,23.6-12.4.6-19.8-11.1-22.9-21.5-.5-1.8-2.5-1.9-3.6-.9-.2,0-.3-.1-.5,0-5.5,1.9-9.6,5-14.4,8.3-3.5,2.6-9.4,5-9.8,9.7Zm14.6-4.7c3.7-3.1,6.8-5.8,9.4-9.4,1.4,13.5,10.8,26.1,25.5,26.4,15.5.4,29.3-14,31.3-28.8,3.7,1.7,7.4,3.2,11.2,5,2.3,1.1,4.8,2.9,7.3,3.6-9.2,10.3-12.1,25.6-1.9,36.9,9.2,10.1,26,11.5,38.1,5.8.8,2.6,2.4,5.1,3.5,7.4,2.1,4.5,2.5,8.5,5.6,12.2-13.9-2.1-27,4.6-30.6,19.4-3.4,14.5,7.1,30.8,20.5,36.3-2.6,3.2-5,6.5-7.6,9.7-1.6,2-3.7,3.8-5,5.9-7.7-11.5-22-17.9-35.2-10.9-12.1,6.5-17.6,22.6-14.8,35.8-7.4,1-15.1,2.1-21.8,5.3,5.1-12.5,2.9-28-9.8-35.3-13.7-7.9-32.1-1.5-41.4,10.4-2.5-3.3-5-6.4-7.5-9.7-1.3-1.7-2.4-3.8-3.8-5.4,12.6-4.8,22-17,18.4-31.2-3.5-14.1-19.3-23.8-33.4-23.3,1.3-4.6,2.3-9.1,3.7-13.7.2-.7.6-2,1-3.3,11.1,5.6,26.6,6.6,34.2-4.8,7.5-11.3,4.6-28-3.8-38.3,2.5-1.8,4.9-4.3,6.9-6Z"/>
          <path class="cls-2" d="m606.8,1619.46c1.7,8.6,7.2,16.8,13.5,22.7,9.5,8.9,23.9,10.9,35.7,5.8,12.9-5.6,21.2-19.3,22.1-33.1,1.4-21.2-17.6-40.5-39.1-38-20.1,2.6-36.2,22.3-32.2,42.6Zm29.1-35.2c18-5.4,37.4,10.7,34.7,29.5-1.6,11.5-9.3,26-21.3,29.3-4.6,1.3-9.6.6-14.1-1.2-9.3-3.8-16.3-11.2-18.9-21-4-15.5,3.8-31.9,19.6-36.6Z"/>
        </g>
      </g>
    </g>
    <g id="Calque_9" data-name="Calque 9">
      <g>
        <g>
          <path class="cls-2" d="m1126,1593.46c5.7,4.7,11.9,8.3,18.5,10.9,10.4,4,21.4,5.2,31.6,3.2,30.4-5.9,47.1-33.8,47.9-58.3.4-13.7-8.1-28.6-15.6-37.3-9.6-11.1-17.5-15.6-35.1-19.9-14.5-3.6-30.4.3-43.6,10.6-15.4,12.1-24.6,30.7-24.6,49.8-.1,15.1,7.5,30,20.9,41Zm19.7-61.3c3.8-3.8,11.3-8.1,19.8-8,2.8.1,5.6.6,8.2,1.6,4,1.6,7.8,4.2,11.4,8,5,5.3,7.5,14.1,6.1,21.3-2.5,12.8-13.7,22.4-26,22.3-8-.1-16.1-3.8-21.7-10-4.8-5.3-7-11.9-6.3-18.5.7-5.9,3.8-12,8.5-16.7Z"/>
          <path class="cls-2" d="m1131.8,1642.46c17.6,5.4,38.3,5.8,53.8.9,20-6.3,35.5-12.2,51.5-31.1,15.9-18.8,23.8-44.3,21.7-70.1-2.2-26.5-14.3-50.3-34.1-67.1-31.2-26.4-75.3-27.9-112.4-3.9-37,24-53.7,64.5-42.5,103.2,9.6,33.2,33.4,59.2,62,68.1Zm-12.8-140.7c16-17.4,41.8-23.6,65.7-15.8,1.1.4,2.3.8,3.4,1.2,23.5,9.1,39.1,30.1,41.9,56.8,2.8,26.2-9.2,49.6-32,62.3-24.3,13.6-54.3,11.4-76.3-5.6-13.9-10.7-22-25.2-23.4-41.9-1.8-19.6,6-41,20.7-57Z"/>
          <path class="cls-2" d="m1056.2,1519.96c-6.2,14.1-26.1,15.9-38.8,12.8.1,1.9-.3,3.9-.6,5.7-.1.5-.2,1-.3,1.5-.3,1.7-.6,3.3-1,4.9,13.4,1.4,38,8.2,38.7,25,.7,15.6-16.6,25.9-29.5,28.6.9,1.6,1.4,3.6,1.8,5.3.1.5.3,1,.4,1.5.5,1.8,1.1,3.9,1.3,6,13.9-5.4,36.9-8.8,45.4,3.7,9.3,13.6-1.9,31.4-13.1,40.1,1.6,1.2,3.1,2.8,4.3,4.3.3.4.7.8,1,1.1.9,1,2.1,2.4,3.1,3.9,9.3-10,28.2-24.1,42.1-16,14.2,8.3,11.6,29.2,5.3,41.9,2.4.6,4.6,1.5,6.7,2.4l.1.1c.8.3,1.7.6,2.6,1,1.1.4,2.2.7,3.2,1.2,4.3-14.4,16.7-35.7,32.7-33.4,15.6,2.3,22.1,21.6,21.9,35,1.8-.5,3.8-.6,5.6-.6.6,0,1.1,0,1.7-.1,1.4-.1,3.1-.2,4.8-.1-2-14.8.2-38.1,14.5-43,15.3-5.2,29.8,9.5,35.6,22,1.4-1.2,3.1-2.1,4.7-3,.4-.2.9-.5,1.3-.7.7-.4,1.5-.9,2.3-1.4.9-.6,1.9-1.2,2.8-1.7-7.2-10.6-17.3-32.9-5.9-45,11.2-11.8,30.9-4.8,41.8,4,.7-1.8,2-3.5,3.1-5.1.3-.4.6-.8.9-1.2.8-1.2,1.8-2.5,2.9-3.7-11.6-7-31-23.8-24.1-39.5,6.2-14.1,26.1-15.9,38.8-12.8-.1-1.9.3-3.9.6-5.7.1-.5.2-1,.3-1.4.4-2.2.8-4.8,1.8-7-16.2-1-40-8.3-40.8-24.8-.8-15.5,16.4-26,29.2-28.8-.9-1.6-1.4-3.6-1.9-5.3-.1-.5-.3-1-.4-1.5-.4-1.3-.9-3-1.2-4.6-12.9,5.3-36,8.8-44.8-4-9.5-13.9,1.4-32.4,12-41-1.2-1-2.3-2.3-3.3-3.5-.3-.4-.7-.8-1-1.1-.9-1.1-2-2.3-3-3.7-8.7,9.8-28.3,25.3-42.9,16.8-14.2-8.3-11.7-29.2-5.3-41.8-1.1-.2-2.2-.5-3.2-.9-.8-.3-1.6-.7-2.3-1-.4-.2-.9-.4-1.3-.6-1.4-.6-2.9-1.2-4.4-2-4.8,14.7-17.4,35-33.2,32.1-15.2-2.8-21.4-22-21.1-35.1-1.8.5-3.8.5-5.6.6-.6,0-1.1,0-1.6.1-2,.1-4,.2-6.1-.1,2.1,14.6.1,38.7-14.5,43.7-15.3,5.2-29.8-9.6-35.6-22-1.4,1.2-3.1,2.1-4.7,3-.4.2-.9.5-1.3.7-1.4.8-2.9,1.6-4.6,2.3,7.4,11.6,16.6,33.5,5.7,44.8-11.3,11.7-31,4.6-41.8-4.4-.8,1.8-2,3.5-3.2,5-.3.4-.6.8-.9,1.2-.5.7-1.1,1.6-1.7,2.6s-1.2,2-1.9,2.9c14.6,7.6,32.6,24.6,25.9,39.8Zm61.1-60.9c27.6-15.2,58.2-17,84.6-6.8,16.1,6.2,30.7,17,42.1,31.8,26.1,34,29.7,80.8,9,116.4l-.5.8c-2.6,4.5-5.8,10.1-20.4,25.3-13.1,13.6-32.7,22.8-55.3,25.8-21.6,2.9-43.4-.4-59.9-8.9-32.9-17.1-54.9-50.3-57.6-86.8-2.7-38.9,19.4-76.3,58-97.6Z"/>
        </g>
        <g>
          <path class="cls-2" d="m1022.2,1481.66c-.1,1,.3,1.9,1.1,2.7,1.9,2,4.7,4.1,7.7,6.4,8.7,6.8,19.6,15.2,17,24.8-2.9,10.7-21.8,11.7-32,12.2l-1.5.1c-1.1-.2-2.1.2-2.8,1.1-2,2.9-2.4,7.4-2.7,10.3-.1,1.2-.5,2.5-.9,3.7-.3,1.1-.7,2.3-.8,3.4-.6,1-.6,2.3-.2,3.4.4,1.1,1.3,1.9,2.4,2.3,2.5.9,5.9,1.6,9.4,2.4,11.2,2.5,25.2,5.5,26.2,15.9,1,10.5-14.5,18.9-23.7,23.9l-1.3.7c-1,.2-1.8.9-2,1.8-.7,3,.5,6.3,1.6,9.2.2.5.4.9.5,1.4.4,1.1.6,2.5.9,3.9.3,1.8.6,3.6,1.3,5.1.3,2,2.2,3.9,4.7,3.7,3.5-.3,7.3-1.3,11.2-2.2,8.6-2.2,17.6-4.4,24.7-.6,2.8,1.5,4.5,3.6,5.1,6.4,2.1,9.1-7.6,22.7-12.8,30l-.5.6c-.7.6-1,1.5-.7,2.5,1.1,3.3,3.8,5.9,6.1,8.2l.2.2c.7.7,1.4,1.6,2.2,2.6,1.9,2.4,4.1,5,6.9,5.9.2.1.4,0,.5-.1l.3.1.2-.1c2.8-1.7,5.7-4.1,8.7-6.7,7.4-6.1,15.7-13.1,24.3-11.7,2.7.4,4.9,1.8,6.5,4,5.4,7.6,2.6,23.7,1.1,32.4-.5,1.2-.4,2.4.3,3.2,2.2,2.3,5.5,3.4,8.3,4.4l.7.2c.9.3,1.9.7,2.9,1.1,2.1.8,4.6,1.8,6.7,2.2,1.5,1,3.8,1,5.2-1.2,1.6-2.4,3.2-5.9,4.8-9.5,4.3-9.5,9.7-21.2,19-21.8,11.5-.7,16.9,18.5,19.8,28.8.2.8.4,1.6.7,2.3,0,.1.1.2.1.3l.1.2c.2.3.4.5.6.6,0,.1.1.2.3.2,3.3,1.6,6.7,1.1,10,.7,1.2-.2,2.6-.1,4,0,1.5.1,3.1.2,4.5,0,1.1.2,2.3,0,3.2-.6,1-.7,1.6-1.7,1.8-2.9.4-3.2.4-7,.3-11-.1-9.9-.3-21.2,7.5-26.3,10.3-6.6,23,7.8,30.6,16.4l.9,1c.5,1,1.4,1.6,2.3,1.6,2.8-.1,5-1.8,7.1-3.4.8-.6,1.5-1.1,2.2-1.6.4-.3.9-.6,1.4-.9,2-1.3,4.8-3,6.9-4.7.5-.3.9-.7,1.2-1.1.4-.4.7-.7,1-1,.2-.3.2-.5.2-.7,0-.1-.1-.2-.2-.3.2-.7.1-1.3-.1-1.9-1.1-3-2.7-6.2-4.4-9.5-4.1-8.1-8.4-16.5-5.4-24.4,1-2.7,2.8-4.6,5.3-5.7,8.5-3.7,23.5,2.5,31.6,5.9l.5.2c.9.8,2,.9,2.9.3,2.7-1.7,4.9-4.2,6.9-7.4.6-1,1.3-2,2.1-3,.8-1.1,1.7-2.3,2.4-3.5,1.1-.6,1.9-1.7,2-2.8.1-.8,0-1.9-1.1-3-1.9-2-4.7-4.1-7.7-6.4-8.7-6.8-19.6-15.2-16.9-24.8,2.9-10.7,21.8-11.6,32-12.2l1.5-.1c1.1.2,2.1-.2,2.8-1.1,1.5-2.1,1.5-4.8,1.6-7.4,0-.9,0-1.7.1-2.6.1-1.1.4-2.5.7-4,.4-2.1.9-4.4,1-6.4.4-1,.4-2.2,0-3.2s-1.2-1.7-2.3-2.1c-2.5-.9-5.9-1.6-9.5-2.3-11.2-2.4-25.2-5.3-26.3-15.6-1.1-10.5,14.3-19,23.5-24.1l1.3-.7c1-.2,1.8-.9,2-1.8.8-3.2-.7-6.8-1.8-9.8l-.3-.9c-.4-1-.7-2.2-1-3.4-.4-1.7-.9-3.4-1.5-4.9-.1-1.1-.5-2-1.2-2.6-.6-.5-1.5-.8-2.4-.7-3.5.3-7.3,1.3-11.2,2.3-8.6,2.2-17.5,4.4-24.7.6-2.8-1.5-4.5-3.6-5.2-6.4-2.1-9.1,7.5-22.7,12.7-30l.2-.3c1-.6,1.3-1.6,1-2.7-.8-2.6-2.8-4.2-4.7-5.8-.6-.5-1.2-1.1-1.8-1.6s-1.1-1.1-1.7-1.7c-1.9-1.9-3.9-4-6.3-5.2l-.1-.1c-1.1-.8-2.4-.9-3.6-.2-2.7,1.7-5.5,3.9-8.4,6.3-7.1,5.8-15.1,12.3-23.7,10.9-2.7-.4-4.9-1.8-6.5-4-5.5-7.7-2.6-23.8-1.1-32.4v-.3c.5-1,.4-2.1-.4-2.9-2.7-2.8-6.3-4.4-8.9-5.3-1-.3-2-.7-3-1.2-1.3-.5-2.7-1.1-4-1.5-.5-.5-1-.9-1.6-1.1-.5-.2-1-.3-1.6-.3-1.2.1-2.2.7-2.9,1.8-1.5,2.3-3.1,5.6-4.8,9.1-4.8,10.2-10.9,22.9-21,21.6-10.6-1.4-15.2-18.3-18-28.4l-.4-1.5c.1-1.1-.4-1.9-1.2-2.3-3.2-1.6-7.6-1.3-11.1-.9-1.1.1-2.3.2-3.7.2-1.9,0-3.9.1-5.7.4-1.9-.1-4,1.1-4.4,3.6-.4,3.2-.4,7-.3,11,.1,10,.3,21.2-7.6,26.3-10.3,6.6-23-7.8-30.6-16.4l-.9-1c-.5-1-1.4-1.6-2.3-1.6-3.8.1-6.7,2-9.3,3.7-.9.6-2.1,1.2-3.3,1.7-1.3.6-2.6,1.3-3.8,2-1.3.2-2.5.9-3.2,1.9-.6.9-.7,1.9-.4,2.8,1,3.1,2.7,6.4,4.5,10,4.3,8.6,9.2,18.3,6,26.2-1,2.7-2.9,4.5-5.4,5.6-8.6,3.6-23.5-2.8-31.5-6.2l-.5-.2c-.9-.8-2-.9-2.9-.3-2.3,1.4-3.5,3.7-4.7,5.8-.4.7-.8,1.4-1.2,2.1-.5.8-1.1,1.7-1.8,2.7-1.3,2-2.8,4.2-3.9,6.2-.1.9-.6,1.8-.7,2.8Zm113.1-81.7c2,.2,4.1.2,6.1.1.5,0,1.1,0,1.6-.1,1.8,0,3.8-.1,5.6-.6-.3,13.1,5.9,32.3,21.1,35.1,15.8,2.9,28.4-17.3,33.2-32.1,1.4.8,2.9,1.4,4.4,2,.4.2.8.4,1.3.6.8.3,1.5.7,2.3,1,1,.4,2.1.8,3.2.9-6.4,12.7-8.9,33.6,5.3,41.8,14.6,8.5,34.1-7,42.9-16.8,1,1.4,2,2.6,3,3.7.3.4.6.7,1,1.1,1,1.1,2.1,2.4,3.3,3.5-10.6,8.5-21.6,27.1-12,41,8.8,12.9,31.8,9.4,44.8,4,.3,1.6.8,3.3,1.2,4.6.1.5.3,1,.4,1.5.5,1.7,1,3.7,1.9,5.3-12.9,2.7-30,13.3-29.2,28.8.8,16.5,24.6,23.8,40.8,24.8-.9,2.2-1.4,4.8-1.8,7-.1.5-.2.9-.3,1.4-.3,1.8-.7,3.8-.6,5.7-12.7-3.2-32.6-1.3-38.8,12.8-6.9,15.7,12.4,32.5,24.1,39.5-1.1,1.2-2.1,2.6-2.9,3.7-.3.4-.6.8-.9,1.2-1.1,1.5-2.4,3.2-3.1,5.1-10.9-8.9-30.6-15.8-41.8-4-11.4,12-1.3,34.4,5.9,45-1,.6-2,1.2-2.8,1.7s-1.6,1-2.3,1.4c-.4.2-.8.5-1.3.7-1.7.9-3.4,1.8-4.7,3-5.7-12.5-20.3-27.3-35.6-22-14.3,4.9-16.6,28.1-14.5,43-1.7-.1-3.4,0-4.8.1-.5,0-1.1.1-1.7.1-1.8.1-3.8.1-5.6.6.2-13.4-6.3-32.7-21.9-35-16-2.4-28.4,19-32.7,33.4-1-.5-2.1-.8-3.2-1.2-.9-.3-1.8-.6-2.6-1l-.1-.1c-2.1-.9-4.4-1.8-6.7-2.4,6.4-12.6,8.9-33.6-5.3-41.9-13.9-8.1-32.8,6-42.1,16-1-1.5-2.2-2.8-3.1-3.9-.3-.4-.6-.7-1-1.1-1.3-1.5-2.7-3.1-4.3-4.3,11.2-8.7,22.4-26.5,13.1-40.1-8.5-12.5-31.6-9.1-45.4-3.7-.2-2.1-.8-4.2-1.3-6-.1-.5-.3-1-.4-1.5-.5-1.7-1-3.7-1.8-5.3,12.9-2.6,30.2-13,29.5-28.6-.7-16.8-25.3-23.6-38.7-25,.5-1.6.7-3.2,1-4.9.1-.5.2-1,.3-1.5.3-1.8.7-3.8.6-5.6,12.7,3.2,32.6,1.3,38.8-12.8,6.7-15.2-11.3-32.2-25.3-40.2.7-1,1.3-2,1.9-2.9.6-1,1.2-1.9,1.7-2.6.3-.4.6-.8.9-1.2,1.1-1.5,2.4-3.2,3.2-5,10.8,9,30.5,16.1,41.8,4.4,10.9-11.4,1.7-33.3-5.7-44.8,1.6-.7,3.2-1.5,4.6-2.3.4-.2.8-.5,1.3-.7,1.7-.9,3.4-1.8,4.7-3,5.7,12.5,20.2,27.3,35.6,22,14-4.7,16-28.8,13.9-43.4Z"/>
          <path class="cls-2" d="m1059.4,1556.76c2.6,36.4,24.7,69.7,57.6,86.8,16.4,8.5,38.2,11.8,59.9,8.9,22.6-3,42.2-12.2,55.3-25.8,14.6-15.2,17.8-20.8,20.4-25.3l.5-.8c20.7-35.6,17.1-82.4-9-116.4-11.4-14.9-26-25.6-42.1-31.8-26.4-10.2-57-8.4-84.6,6.8-38.7,21.2-60.8,58.6-58,97.6Zm52.9-85.5c37.1-24,81.2-22.5,112.4,3.9,19.8,16.7,31.9,40.6,34.1,67.1,2.1,25.7-5.8,51.3-21.7,70.1-16,18.9-31.5,24.8-51.5,31.1-15.6,4.9-36.2,4.5-53.8-.9-28.6-8.8-52.4-34.9-62-68-11.1-38.8,5.5-79.4,42.5-103.3Z"/>
          <path class="cls-2" d="m1121.6,1600.76c22,17,52,19.2,76.3,5.6,22.9-12.8,34.9-36.1,32-62.3-2.9-26.7-18.4-47.7-41.9-56.8-1.1-.4-2.2-.8-3.4-1.2-23.9-7.9-49.6-1.7-65.7,15.8-14.8,16.1-22.6,37.4-20.9,57.1,1.6,16.6,9.7,31.1,23.6,41.8Zm8.1-98.1c13.2-10.3,29.1-14.2,43.6-10.6,17.6,4.3,25.5,8.8,35.1,19.9,7.5,8.7,16,23.6,15.6,37.3-.8,24.5-17.5,52.4-47.9,58.3-10.2,2-21.2.8-31.6-3.2-6.5-2.5-12.8-6.2-18.5-10.9-13.3-11-21-26-20.9-41.1-.1-19,9.1-37.6,24.6-49.7Z"/>
          <path class="cls-2" d="m1143.5,1567.46c5.5,6.2,13.6,9.9,21.7,10,12.3.1,23.5-9.5,26-22.3,1.4-7.2-1.1-16-6.1-21.3-3.5-3.8-7.3-6.4-11.3-8-2.6-1-5.4-1.6-8.2-1.6-8.5-.2-16,4.2-19.8,8-4.7,4.7-7.8,10.8-8.4,16.8-.9,6.5,1.4,13,6.1,18.4Zm10.9-35.4c3.9-2.6,8.2-3.3,12.1-1.8h.1c4.8,1.9,19.9,8.9,17.8,22.6-1.2,7.7-9.8,16.3-17.5,17.4-3.1.4-6.5,0-9.7-1.3-2.5-.9-4.8-2.4-6.8-4.1-4.1-3.6-6.2-8.2-6.1-13,.3-8.2,4.2-15.8,10.1-19.8Z"/>
        </g>
      </g>
    </g>
    <g id="Calque_10" data-name="Calque 10">
      <g>
        <path class="cls-2" d="m950.6,600.66c14.1.4,29.3,11.1,31.9,25.4,2.6,14.4-7.5,26-20.3,30,1.3,1.7,2.2,3.9,3.4,5.7,2.2,3.5,4.6,6.7,6.9,10.2,10-11.3,28.8-16.5,41.9-7.8,12.2,8.1,13.4,23.7,7.5,35.8,6.9-2.8,14.6-3.4,22.1-3.9-1.9-13.4,4.6-29.1,17.1-34.8,13.6-6.2,27.6,1.1,34.5,13.1,1.4-2,3.6-3.7,5.3-5.6,2.8-3,5.5-6.2,8.2-9.2-13-6.3-22.5-23.2-18.2-37.5,4.4-14.6,18-20.4,31.7-17.5-2.8-3.9-2.9-7.9-4.8-12.6-.9-2.3-2.3-5-3-7.6-12.5,4.9-29.2,2.4-37.7-8.2-9.5-11.9-5.6-27,4.2-36.7-2.5-.9-4.9-2.8-7.1-4-3.6-2-7.3-3.7-10.8-5.7-3,14.7-17.7,28.1-33.1,26.8-14.6-1.3-23.2-14.5-23.7-28-2.9,3.5-6.2,6-10,8.8-2.1,1.6-4.6,3.9-7.3,5.3,7.8,10.8,9.6,27.6,1.4,38.5s-23.6,9-34.4,2.6c-.4,1.3-.9,2.5-1.2,3.2-1.6,4.8-2.9,9.3-4.5,13.7Zm81.3-21.6c21.6-1.2,39.4,19.2,36.6,40.3-1.8,13.7-10.9,26.8-24.2,31.6-12.2,4.4-26.4,1.5-35.3-8-5.9-6.3-10.9-14.8-12-23.5-2.8-20.5,14.5-39.2,34.9-40.4Z"/>
        <g>
          <path class="cls-2" d="m981.7,541.26c0,.1.1.2.1.3-.1.4-.1.8.1,1.3,3.6,9.7,9.5,18.4,5.1,29.1-5.2,12.7-21,10.2-31.5,5.7-.9-.4-1.9-.1-2.6.5-.7.3-1.2.7-1.6,1.3-1.9,4-3.3,8-4.3,12.4-1,4.3-1,7.5-.3,11.8-.1,1.1.4,2.1,1.6,2.6,9.8,4.1,20.8,6,25.3,17,5.5,13.4-5.4,24.2-16.9,29.3-1.8.8-2,2.6-1.1,3.7.1,3.8,3.5,7.6,5.6,10.4,3.4,4.4,6.4,7.5,11.2,10.2h.1c.9.7,2.1.9,3.3.2,9.9-5.7,20.4-14,32.5-7.6,11.3,5.9,11.3,19.9,8.5,30.5-.5,1.8,1.1,2.9,2.6,2.8.1.1.2.2.4.2,8.9,2,18.1.5,27.1.1,1.5-.1,3.3-1.3,3.5-2.9v-.4c.1-.2.2-.3.2-.5,1.5-10.9.6-22.7,11.1-29.7,11.4-7.6,24.2.7,31.5,9.9,1.1,1.4,2.8,1.3,3.7.3,4.3-.2,7.6-5.1,10-8.2,3.4-4.3,5.6-8.1,7.1-13.3v-.2c.4-1,.3-2.2-.7-3.2-7.5-8.1-17.5-15.2-15.4-27.9,2.2-13.3,16-17.6,27.8-17.3,1.9,0,2.5-1.8,2-3.2.1-.1.1-.3.1-.5-.2-6-1.9-11.2-3.7-17-1.3-4.3-1.5-10.4-6.3-11.9h-.4c-.2,0-.4-.1-.7-.1-10.3,1.1-20.2,4.6-29.5-2.2-12.1-8.9-7.9-24.1,0-34.4,1-1.3.3-3.3-1-3.9-1.3-3.8-6.3-5.6-9.7-7.2-5.3-2.4-9.6-3.8-15.4-3.9-.1,0-.1.1-.2.1-1.1-.1-2.2.3-3,1.5-6.3,9.7-11.6,22.2-25.3,22-12.4-.2-19-12.3-21.5-22.9-.4-1.8-2.3-2-3.6-1.2-.2,0-.3-.1-.5,0-5.6,1.6-9.9,4.4-14.9,7.3-3.6,2.4-9.7,4.4-10.4,9.1Zm14.9-3.7c3.8-2.8,7.1-5.4,10-8.8.5,13.5,9.1,26.7,23.7,28,15.4,1.4,30.1-12.1,33.1-26.8,3.6,1.9,7.2,3.7,10.8,5.7,2.2,1.2,4.6,3.1,7.1,4-9.8,9.7-13.7,24.8-4.2,36.7,8.5,10.6,25.2,13.1,37.7,8.2.7,2.6,2.1,5.2,3,7.6,1.8,4.7,1.9,8.7,4.8,12.6-13.8-3-27.3,2.9-31.7,17.5-4.3,14.3,5.1,31.2,18.2,37.5-2.8,3-5.4,6.2-8.2,9.2-1.7,1.9-3.9,3.5-5.3,5.6-6.9-12-20.9-19.3-34.5-13.1-12.5,5.7-19,21.5-17.1,34.8-7.5.6-15.2,1.1-22.1,3.9,5.9-12.1,4.7-27.7-7.5-35.8-13.2-8.7-32-3.5-41.9,7.8-2.2-3.4-4.6-6.7-6.9-10.2-1.2-1.8-2.1-3.9-3.4-5.7,12.9-4,23-15.6,20.3-30-2.6-14.3-17.8-25-31.9-25.4,1.5-4.5,2.9-9,4.5-13.5.3-.7.8-1.9,1.2-3.2,10.7,6.3,26.1,8.3,34.4-2.6,8.2-10.8,6.4-27.7-1.4-38.5,2.7-1.6,5.2-4,7.3-5.5Z"/>
          <path class="cls-2" d="m997,619.46c1.2,8.7,6.1,17.2,12,23.5,8.9,9.5,23.2,12.4,35.3,8,13.2-4.8,22.4-17.9,24.2-31.6,2.8-21.1-15-41.6-36.6-40.3-20.4,1.2-37.7,19.9-34.9,40.4Zm31.2-33.3c18.3-4.2,36.6,13.1,32.8,31.6-2.3,11.3-10.9,25.3-23.1,27.9-4.7,1-9.6,0-14-2.1-9.1-4.4-15.5-12.2-17.5-22.1-3.1-15.7,5.8-31.6,21.8-35.3Z"/>
        </g>
      </g>
    </g>
  </g>
</svg>