<?xml version="1.0" encoding="utf-8"?>
<!-- Generator: Adobe Illustrator 24.1.3, SVG Export Plug-In . SVG Version: 6.00 Build 0)  -->
<svg version="1.1" id="Layer_1" xmlns="http://www.w3.org/2000/svg" xmlns:xlink="http://www.w3.org/1999/xlink" x="0px" y="0px"
	 viewBox="0 0 3124.3 2000" style="enable-background:new 0 0 3124.3 2000;" xml:space="preserve">
<style type="text/css">
	.st0{fill:#FBC02D;}
	.st1{fill:#F7A491;}
	.st2{fill:#D63F31;}
	.st3{fill:#00873E;}
	.st4{fill:#FFFFFF;}
	.st5{font-family:'Gloriola-Bold';}
	.st6{font-size:66.6091px;}
	.st7{fill:#F47458;}
	.st8{fill:#F48C7F;}
	.st9{font-size:66.6167px;}
</style>
<polygon class="st0" points="694,1066.8 715.5,935.2 737.9,956.1 971,706.2 1036.9,767.7 803.9,1017.6 823.6,1036 "/>
<g>
	<path class="st1" d="M1109.5,686.3c0,9.1,3.4,16.5,7.6,16.5s7.6-7.4,7.6-16.5s-3.4-16.5-7.6-16.5S1109.5,677.2,1109.5,686.3z"/>
	<path class="st2" d="M1037.9,1755.8c2-14.2,2.6-36,2.4-61.2h49.7c-5.2,35.6-9.2,63.4-9.2,63.4l1.2,11.3v33.3H973.2
		c0,0,23.1-10.3,55.4-30.8C1031,1770.2,1036.5,1765.4,1037.9,1755.8z"/>
	<path class="st2" d="M1250,1747.4l-14.5-41.4h37.9c2,26.6,2.7,44.5,2.7,44.5l9.6,27.2l9.8,32.4c0,0-32.2,8.3-49.1-1l1.9-32.2
		L1250,1747.4z"/>
	<path class="st0" d="M1053.6,846.9c13.1-17.9,67.3-69.9,73.3-69.8c17.5,0.3,75.1,0.3,86.4,6l-0.5,99c-1.8,8.3-41.6,137.7-39.3,166
		l-0.3,0.3c-33.3,32.2-85.9,29.6-116.3-5.6l0,0c0,0,0.1-39.3-4.6-75.1C1044.9,911.6,1021,891.5,1053.6,846.9z"/>
	<path class="st2" d="M1144.5,721.3c0,0-1.5,36.5,1.8,50.4c3.3,13.8,7.7,14.9-20.5,19.1c-11.1,1.7-21.7,4.1-21.7,4.1
		s2.9-20.3,3.3-28.9c0.7-14.1-3.3-57.8-3.3-57.8L1144.5,721.3z"/>
	<path class="st3" d="M1248.3,1776.8c14.9,6.6,30.9,2.6,37.3,0.5l2.1,5.8l8.2,27.3c0,0-32.6,8.1-49.5-1.2L1248.3,1776.8z"/>
	<path class="st3" d="M1083.1,1810.8H970c-4.2-0.4-5.2-3.8-3.8-5.9c3-4.3,16.2-7.5,31-14.4c26,2.7,80.6-15.2,84.7-21.3
		C1084.4,1781.3,1085.5,1810.3,1083.1,1810.8z"/>
	<path class="st0" d="M1091.7,1050l66.3,471.6l60.4,217.4h65.7c0,0-15.2-175.2-47.9-237.2c0,0-14.3-166.3-28.5-268
		c-2.1-15.2,8.4-54.7,5.7-64.9c-21.2-78.4-39.8-120.8-39.8-120.8L1091.7,1050z"/>
	<path class="st0" d="M1132.7,1253.9l-15.3,181.2c0,0,15.7,103.5,4.9,172.2c-10.8,68.7-25,131.7-25,131.7h-60.4l-12-342.1
		c0,0-23.2-185.9-15.2-236.3s47.1-117.8,47.1-117.8l95,4.3c0,0,25.8,92.3,21.4,123.2C1170,1193.3,1132.7,1253.9,1132.7,1253.9z"/>
	<path class="st3" d="M1226.1,943.2c71.8-21.5,52.6-84.8,52.2-82.4c0.2-2,7-9.9,10.3-16.7c13.9-28.4-4.4-62.5-25.5-74.3
		c14-36.1,0.1-70.7-26.2-85.1c-13.3-7.3-24.4-17.6-33.4-29.6c-19.9-26.6-56.1-53.3-99.7-44.6c-43.1,11,14.6,36,8.9,77.4
		c-2.9,21,5.4,18,18.4,34.9c-18.7,32.8-7.9,88,20.8,113C1137.8,894.9,1152.8,965.2,1226.1,943.2z"/>
	<path class="st3" d="M1172.7,654c8.5,35-37.4,60.4-73.7,61.3c-23.6,0.6-34.5-1.8-38.3-26.7c-6.2-40.4,10.4-65,33.7-75.2
		C1124.5,600.2,1165.7,625.1,1172.7,654z"/>
	<path class="st2" d="M1119.4,630.4c0,0,16,5.4,24.5,21.5s4.3,67.8-31.1,84.8s-51.7-21.6-49.1-50.2
		C1066.1,658,1076.4,620.7,1119.4,630.4z"/>
	<path class="st4" d="M1097.2,710l-25.1-0.4c0,0,0.4,9.7,11.5,10.2C1097.1,720.4,1097.2,710,1097.2,710z"/>
	<path class="st3" d="M1156.5,691c5.2-26.7,3.2-46.9-15.8-56.7s-35.2-19.5-52.1-1.9l-3.8,2.2c0,0,32,8.9,33.8,25.9
		s18.8,37.2,16.2,45.6c-2.6,8.4-5.6,25-5.6,25l7-5.8C1136.1,725.3,1151.2,717.7,1156.5,691z"/>
	<path class="st2" d="M1123.4,680.8c-2.6,7.4-0.6,14.8,4.5,16.5s11.4-2.8,14-10.2s0.6-14.8-4.5-16.5
		C1132.4,668.9,1126.1,673.4,1123.4,680.8z"/>
	<text transform="matrix(0.6941 -0.7198 0.7198 0.6941 793.283 990.757)" class="st4 st5 st6">LISBONNE</text>
	<path class="st2" d="M850.8,895.1c-1.8-5.1,23.2-9.3,24.5-14.5s-31.5-5.6-32.7-10.2c-2.2-8.4,36-1.8,35.2-5.7S838,852,842.2,845.3
		s39.5,13.3,40.6,8.7s-34.5-15.7-33.9-25.7c0.3-5.4,58.4,26.7,65.1,23.8c6.7-2.9-7.2-28.1-1.9-31.8c5.4-3.7,20.7,51.2,24.4,53
		s82.1,46.6,110,53.7c3.4-9.3,10.7-21.9,13.7-30.8c15.7,11.1,27.3,16.7,43.4,26.9c-11.7,29.3-28.4,61.4-36.5,65.1
		c-24.8,11.2-120.8-68.4-140-82s-30.2-9.2-43.1-13.5C871.2,888.4,852.6,900.2,850.8,895.1z"/>
	<path class="st0" d="M1140.5,839.2c7.4,30.5-32.1,98.6-32.1,98.6s-56.4-26.6-66.3-38.1c0,0,38.3-66.1,40.8-70.1
		c11.4-18.2,26.8-18.2,36.8-17C1127.8,813.6,1140.5,839.2,1140.5,839.2z"/>
</g>
<g>
	<g>
		<path class="st4" d="M2547.5,948.1c1.8-5-22.8-9.1-24.1-14.2c-1.3-5.1,31-5.5,32.1-10c2.1-8.3-35.4-1.7-34.6-5.6
			c0.7-3.9,39.1-12.5,34.9-19.1c-4.1-6.6-38.8,13.1-39.9,8.6c-1-4.5,33.9-15.4,33.3-25.3c-0.3-5.3-57.4,26.3-64,23.4
			c-6.6-2.9,7.1-27.6,1.8-31.3s-20.4,50.3-24,52.1s-80.7,45.8-108.1,52.8c-3.3-9.2-42.6-66-45.5-74.7c-15.4,10.9-31.2,12.4-47,22.4
			c11.5,28.8,64.3,108.8,72.3,112.5c24.4,11,118.8-67.2,137.6-80.6c18.9-13.4,29.6-9.1,42.4-13.3
			C2527.5,941.5,2545.7,953.2,2547.5,948.1z"/>
		<path class="st3" d="M1975.6,891.4c46.2,64.3,100.8,22.5,98.3,22.9c2-0.5,13.8,1.5,21.6,2.4c32.4,3.9,65-14.3,82.1-42.5
			c49.1,1.4,86.9-37.6,78.2-77.9c25-22.8,24.4-65.7,8-95.7c1.5-44.7-55.5-61.3-97.7-52.3c-21.4,4.6-41,18.7-52.8,37.7
			c-38.4-7-75.3,15.7-89.4,53.4C1961.6,746.3,1928.5,825.7,1975.6,891.4z"/>
		<g>
			<path class="st0" d="M2156.4,1102.2c-1.4,0.6,18.5,26.3,38,44.5c15.7,19.7,30.4,42.9,35.4,68.3c7.7,38.6,1.3,229.1,8,242.7
				c57.5,56.2,99.1,197.2,110.8,240.2c2.3,8.4,6.9,15.9,13.3,21.8l0,0l-2.6,48.6l-28.6,26.3c0,0,6.4-39.6-6.3-69
				c0,0-144.7-219.2-153.3-235.9c-16.4-47.7-76.2-292.1-76.2-292.1l-13.9-56.2C2081,1141.4,2156.2,1102.2,2156.4,1102.2z"/>
			<path class="st3" d="M2393.1,1735.4c0,0-18.1,27.9-19.6,38.7c-1.5,10.9-11.2,35.5-21.8,37c-2.4,0.4-43.8,3.4-43.5-1.8
				c0.2-4,15.2-9.6,22.2-14.4c12-8.3,30.7-76,30.7-76S2392.3,1726.7,2393.1,1735.4z"/>
		</g>
		<path class="st4" d="M2150.3,804.5c0,0-60.6-108.9-75.3-132.1s-53.1-115.2-54.5-118.8s26.4-47.2,20.2-48.7
			c-6.2-1.5-13.1,23-19.7,20c-6.6-2.9-19.3-22.3-23.1-20.4c-3.8,2-8.5,0-10.6,2.8s-7,18.8-0.8,30.2c6.2,11.5,3.6,7,8,28.2
			s11,98.1,33.5,136.4s72,123.2,72,123.2L2150.3,804.5z"/>
		<path class="st0" d="M2032.7,1186.6c0,0-93.2,199.3-93.8,234.3c-0.5,30,16.3,198.6,11.6,338.9c-0.2,5.1-6.6,11.8-15.9,16.1
			c-5.3,2.4-30.6,13.7-30.6,13.7l-3.5,9.1l87.4-6.2l1.2-23.9c0,0,34.8-209.9,31.2-269.3c-0.6-9.3-5.1-65.2-5.1-65.2l105.1-203
			l-66.1-86.9L2032.7,1186.6z"/>
		<g>
			<path class="st7" d="M2246.3,1426.1L2246.3,1426.1C2246.3,1426,2246.3,1426.1,2246.3,1426.1z"/>
			<path class="st0" d="M2113,863.5c-2.5-15.3-26.2-53.7-30-63.1c0,0,27.5-34.9,49.8-32.3c0,0,30,49.7,47,51.4s77,4.3,87.5,10.7
				s55.1,74.9,55.1,74.9s-40.1,40.9-56.2,40.9c0,0-8.6-16.9-12-20.6c-2.4,7.8-39.8,128.9-39.7,156.3l-0.3,0.2
				c-34.9,28.3-85.9,21.8-112.8-14.5l0,0c0,0,3.2-37.7,1.4-72.5C2100.1,940.3,2089.1,911.4,2113,863.5z"/>
			<path class="st3" d="M1918.6,1331.6l182.9-264.3c11.3,4.6,21.9,8.5,34,10.9c26.2,5.1,52.5,4.2,79.1,3.4c0,1,0.1,1.9,0.2,2.6
				c3.1,21.8,32,55.5,37.9,121.6c6.8,75.1,2.7,205.4,0.4,214C2131.4,1405,1953.1,1367.9,1918.6,1331.6z"/>
		</g>
		<path class="st4" d="M2210.7,775.5c0,0-6.4,34.7-5.1,48.3c1.3,13.7-4.9,57.7-32.7,57.9c-27.8,0.1-5.3-56-2.7-69.4
			s3.2-54.9,3.2-54.9L2210.7,775.5z"/>
		<path class="st4" d="M2224.4,679.8c0,0,14.4,8.3,19.6,26.3c5.2,18-0.7,64.4-37.8,75.6c-37.1,11.2-53.2-25.5-45.5-54.3
			C2168.3,698.7,2184.9,662.3,2224.4,679.8z"/>
		<path class="st4" d="M2156,716.3c0.7,7.7,4.8,13.6,9.1,13.2c4.3-0.4,7.2-7,6.5-14.8c-0.7-7.7-4.8-13.6-9.1-13.2
			C2158.2,701.9,2155.3,708.6,2156,716.3z"/>
		<path class="st4" d="M2233.3,746c-4.4,6.7-4.3,14.7,0,17.8c4.4,3.1,11.5,0.1,15.8-6.7c4.4-6.7,4.3-14.7,0-17.8
			C2244.7,736.3,2237.6,739.2,2233.3,746z"/>
		<path class="st3" d="M1988.1,1809.2h-110.4c-4.1-0.4-5.1-3.7-3.7-5.7c2.9-4.2,15.8-7.3,30.3-13.9c25.4,2.6,80.7-14.7,84.7-20.5
			C1991.3,1780.7,1990.4,1808.7,1988.1,1809.2z"/>
		<path class="st0" d="M2205.5,753.7l-23.7-7c0,0-2.2,9.3,8.2,12.7C2202.5,763.5,2205.5,753.7,2205.5,753.7z"/>
	</g>
	<polygon class="st0" points="2245.8,427.1 2179.8,540.3 2166.6,513.2 1864.9,660.7 1826,581.1 2127.7,433.7 2116,409.8 	"/>
	<path class="st4" d="M1978.5,506.6c0,0,4.8-1.1,9.6,2.6c13.9,10.6,17.1,12.7,20.1,12.2c5.5-1-11.1-17.7-10.3-18.3
		c2.7-2.1,21.5,20.3,26.1,17.5c1.7-1.1,1.5-3.4-4.3-11.7c-4.6-6.5-12.1-13.1-9.9-14c2.3-1,21.9,26.6,24,21.2
		c2.1-5.3-9.1-25.8-19.2-29.8C2004.6,482.3,1982.2,493.4,1978.5,506.6z"/>
</g>
<g>
	<path class="st0" d="M1776.7,805.8c-14,14.6-11.2,16.7-13.1,18.5c-2.2,2.1-40.8,8.3-40.8,8.3s-113.8,18.8-119.9,19.6l-115-36.2
		l-31.7,58.4c0,0,126,35.7,132.8,36.2c6.9,0.6,157.8-44.9,171.2-48.4c0,0,17.4,2.4,28.4,3.5s21.8-3.3,24.9-3.5c0.5,0,16.9,5,23.2-7
		c0.8-1.6-1.5-5.7-1.5-5.7s-21.2,4.9-21.2,3c-0.1-1.5,11.7-3.4,23.5-8.5c3-1.3,0.6-8.9-2.6-7.4c-3.5,1.6-7.1,1.8-10.2,2.6
		c-6.2,1.7-10.6,3-10.6,2.7c0.1-0.4-1.3-1.1,1.8-2.6c3.8-1.8,12.8-3.7,18.2-6.9c3.1-1.8-4.1-6.9-4.1-6.9s-15.5,4-16.1,1.5
		c-0.2-1,2.6-13.8,2.6-13.8s-28.1,8-28.5,5.6s0.9-8.8,2.5-10s5.5-1.6,7.1-2.8s2.7-4.2,1.6-6.5c-1.2-2.3-10.8,0.1-10.8,0.1
		S1780.8,801.6,1776.7,805.8z"/>
	<path class="st0" d="M1513.3,1734.6c0,0,0.6,40.9,0.6,41c-0.9,5.2-7.3,18-7.3,22.7c0,17.7,80.5-15,62.5-22.9
		c-1.6-0.7-10.2-6.1-10.7-12.1c-0.8-9.3-2.9-28.1-2.9-28.1L1513.3,1734.6z"/>
	<path class="st2" d="M1569,1775.2c0,0-18.9,5.4-28.6,6.8s-22.5-10.1-29.3-7c-7.5,3.4-6.8,36.8-6.8,36.8s96.7,1.4,129.5-0.5
		C1645.6,1810.7,1607.6,1787.8,1569,1775.2z"/>
	<path class="st0" d="M1334.1,1734.6c0,0-2.4,40.9-2.4,41c-0.9,5.2-4.3,18-4.3,22.7c0,17.7,80.5-15,62.5-22.9
		c-1.6-0.7-12.7-10.1-13.3-16.1c-0.8-9.3-0.4-24.1-0.4-24.1L1334.1,1734.6z"/>
	<path class="st2" d="M1389.7,1775.2c0,0-18.9,5.4-28.6,6.8s-22.5-10.1-29.3-7c-7.5,3.4-7.3,36.3-7.3,36.3s108,1.2,134.3,0
		C1470.7,1810.8,1428.4,1787.8,1389.7,1775.2z"/>
	<path class="st3" d="M1461.8,1143.5l34.1,14.4l71.6,334.9l-2.9,251.1l-57.4,1.3c0,0-26.7-219.6-26.7-236.7
		c0-17-123.7-297.9-123.7-297.9L1461.8,1143.5z"/>
	<path class="st3" d="M1435.5,1161.9c0,0-25.1,258-25.1,301.5s-20.3,286.9-20.3,286.9l-57.6-0.3c0,0-4.2-74.2-10.3-183.4
		c-1-17.1,1.2-51.6,0-69.3c-9-127.3-26.7-247.2-18.2-294.7c1.4-7.6,3.9-27.6,8.9-32.7C1350.6,1131.9,1435.5,1161.9,1435.5,1161.9z"
		/>
	<path class="st2" d="M1553.4,829.9l-25.2,75.1l-75.3-25.1c0,0-87.1-66.1-84.2-69.4c8.1-9.3,53.2-33.9,68.7-28.8
		C1468.7,792.1,1553.4,829.9,1553.4,829.9z"/>
	<path class="st2" d="M1340.7,776c0,0-39.7,5.4-50.2,12.9c-11.8,8.5-24.8,27.4-24.8,27.4s48.8,225.7,48.8,263.7
		c0.1,29.4-10.6,101.5-10.6,101.5s147.4,9.1,203.2-12.5c0,0-17.6-85.8-17.6-108.3s-21.1-227.4-25.9-241.7
		c-4.4-13-12.3-36.3-39.2-42.1C1397.5,771.2,1340.7,776,1340.7,776z"/>
	<path class="st0" d="M1351.5,715.2l-9.8,63c0,0,35.9,75,57.3,68.5c18-5.5,6.9-71.9,6.9-71.9s-9.8-35.7-6.9-53.5
		C1402,703.6,1351.5,715.2,1351.5,715.2z"/>
	<g>
		<path class="st0" d="M1343.2,626.1c-1.4-0.5-11.4,71.8,7.6,91.7s56,26.4,69.3,10.7c14.7-17.3,14-95-15.6-115.5
			S1343.2,626.1,1343.2,626.1z"/>
		<path class="st2" d="M1393.3,574.3c-22.8,4.5-37.6,18.1-43.1,23.9c-10.4,1.2-24.5,6.8-39,30.2c-17.9,28.8-4.7,60.7,16.2,76.4
			c20.8,15.7,20.6,33.7,20.6,33.7l3.3-9.3c2.4-7.1,3.4-14.6,2.6-22c-0.5-4.5-1.5-9.3-3.4-13.3c-5-10.5,10.8-17.4,15.2-26.1
			c3.4-6.7,3.6-22,8.9-33.1l6.4-8.5c0,0,14.8-11.2,29.2-8C1424.6,621.4,1422.6,568.5,1393.3,574.3z"/>
		<path class="st0" d="M1364.6,680.7c0.2,8.8-4,16-9.2,16.1s-9.6-7-9.8-15.8c-0.2-8.8,4-16,9.2-16.1
			C1360.1,664.8,1364.5,671.9,1364.6,680.7z"/>
	</g>
	<path class="st0" d="M1280.5,805c13.4-0.4,25.2,85.9,16.7,94.4s-10.1,114.8-10.1,114.8l126.1-3.1l0,0c2.5-1.6,28.9-19,32.6-22.8
		c4-4,23.2-2,28.3,3.5c5.1,5.5-11.3,1-15.8,4s3.4,10.5,3.4,10.5s31.9,4.5,38.2-1.9c6.2-6.5,22.9-17.4,25.1-11
		c1.2,3.3-7.4,13.5-12.2,17.7c6-4.4,13.3-9.1,15.7-8.3c4.5,1.5,2.6,7.1,0.2,8.8c-2.5,1.7-27.8,20.6-31.8,21.9
		c-3.9,1.3-62.9,2.7-73.1,4.9c0,0-166.2,37.1-175.7,34.8c-8.3-2-16.6-54.1-16.6-94C1231.6,939.4,1238.7,806.2,1280.5,805z"/>
	<path class="st2" d="M1297.8,785.4c0,0-23.3,5.2-47.3,31.7c-21.8,24-35.6,158.6-35.6,158.6l75.4,11.9l6-65.1l20.2-29.8
		L1297.8,785.4z"/>
	<polygon class="st3" points="1748.7,576.3 1839.6,673.9 1809.3,678.8 1864.3,1016 1775.3,1030.5 1720.4,693.3 1693.7,697.6 	"/>
	<path class="st8" d="M1837.9,853.9c0,0-1.5-4.8-7.3-7c-16.5-6.5-20.1-8.3-21.1-11.1c-2-5.3,21.2,0.4,21.4-0.6
		c0.4-3.5-29-8.1-29-13.6c0-2.1,2.2-3.2,12.4-2.4c8.1,0.6,17.7,3.7,17.4,1.3c-0.3-2.5-34.6-5.2-31.1-9.8c3.6-4.6,27.3-5.6,36.1,1.1
		C1845.4,818.4,1847.4,843.8,1837.9,853.9z"/>
</g>
<text transform="matrix(0.1596 0.9872 -0.9872 0.1596 1739.4861 701.4788)" class="st4 st5 st9">CHRIST</text>
<text transform="matrix(0.9127 -0.4087 0.4087 0.9127 1915.4377 610.3774)" class="st4 st5 st9">JMJ</text>
</svg>
